<svg width="197" height="53" viewBox="0 0 197 53" fill="none" xmlns="http://www.w3.org/2000/svg">
<path d="M3.4424 33.7284C2.40168 33.2687 1.58511 32.6347 0.992693 31.8421C0.384268 31.0496 0.0640447 30.1619 0 29.195H4.05083C4.13088 29.7974 4.4351 30.3046 4.96347 30.7009C5.49184 31.0971 6.14829 31.3032 6.93284 31.3032C7.71739 31.3032 8.29379 31.1447 8.72609 30.8435C9.15839 30.5424 9.36654 30.1461 9.36654 29.6706C9.36654 29.1633 9.11036 28.7671 8.58199 28.5135C8.05362 28.2598 7.22104 27.9745 6.06824 27.6734C4.88341 27.388 3.90673 27.1027 3.1542 26.7857C2.40168 26.4845 1.74522 26.0249 1.20084 25.3908C0.656458 24.7726 0.384268 23.9167 0.384268 22.8547C0.384268 21.9829 0.640447 21.1904 1.15281 20.4612C1.66516 19.7479 2.38567 19.1773 3.33033 18.7493C4.27499 18.3372 5.39577 18.1311 6.67666 18.1311C8.56598 18.1311 10.087 18.6067 11.2078 19.5419C12.3446 20.4771 12.953 21.7451 13.0811 23.3302H9.23845C9.17441 22.712 8.91823 22.2048 8.4539 21.8402C7.98958 21.4757 7.36514 21.2855 6.5806 21.2855C5.86009 21.2855 5.2997 21.4123 4.89942 21.6817C4.49914 21.9512 4.30701 22.3158 4.30701 22.7913C4.30701 23.3144 4.5792 23.7265 5.10757 23.996C5.63594 24.2654 6.46852 24.5507 7.60531 24.8361C8.75812 25.1214 9.70278 25.4067 10.4553 25.7237C11.2078 26.0249 11.8483 26.5004 12.3927 27.1344C12.937 27.7685 13.2252 28.6086 13.2412 29.6547C13.2412 30.5582 12.9851 31.3825 12.4727 32.0957C11.9604 32.809 11.2398 33.3797 10.2952 33.7918C9.35053 34.2039 8.24576 34.41 6.98088 34.41C5.71599 34.41 4.51515 34.1722 3.47443 33.7125M19.4376 33.4114C18.2047 32.7456 17.244 31.7946 16.5556 30.5582C15.8511 29.3218 15.5148 27.9111 15.5148 26.2943C15.5148 24.6775 15.8671 23.2668 16.5876 22.0305C17.3081 20.7941 18.2848 19.843 19.5336 19.1773C20.7825 18.5116 22.1595 18.1628 23.6965 18.1628C25.2336 18.1628 26.6106 18.4957 27.8595 19.1773C29.1083 19.843 30.085 20.8099 30.8055 22.0305C31.526 23.2668 31.8783 24.6775 31.8783 26.2943C31.8783 27.9111 31.51 29.3218 30.7735 30.5582C30.037 31.7946 29.0443 32.7456 27.7794 33.4114C26.5305 34.0771 25.1215 34.4258 23.5685 34.4258C22.0154 34.4258 20.6544 34.093 19.4376 33.4114ZM25.6179 30.4314C26.2583 30.0827 26.7707 29.5596 27.155 28.8463C27.5392 28.1489 27.7314 27.2929 27.7314 26.2943C27.7314 24.8044 27.3311 23.6472 26.5465 22.8388C25.746 22.0305 24.7853 21.6342 23.6325 21.6342C22.4797 21.6342 21.519 22.0305 20.7505 22.8388C19.982 23.6472 19.5817 24.7885 19.5817 26.2943C19.5817 27.8002 19.9659 28.9414 20.7185 29.7498C21.471 30.5582 22.4317 30.9545 23.5685 30.9545C24.289 30.9545 24.9774 30.7801 25.6179 30.4314ZM48.2417 19.9698C49.4105 21.1587 49.9869 22.8071 49.9869 24.9312V34.1722H45.9681V25.4701C45.9681 24.2179 45.6479 23.251 45.0234 22.5852C44.399 21.9195 43.5344 21.5708 42.4456 21.5708C41.3569 21.5708 40.4603 21.9036 39.8198 22.5852C39.1794 23.251 38.8591 24.2179 38.8591 25.4701V34.1722H34.8403V18.4323H38.8591V20.3978C39.3875 19.7162 40.076 19.1773 40.9086 18.7969C41.7411 18.4006 42.6538 18.2104 43.6465 18.2104C45.5358 18.2104 47.0729 18.7969 48.2417 19.9857M54.0698 15.8803C53.6054 15.4365 53.3653 14.8817 53.3653 14.216C53.3653 13.5502 53.6054 12.9955 54.0698 12.5516C54.5341 12.1078 55.1265 11.8859 55.831 11.8859C56.5355 11.8859 57.1279 12.1078 57.5922 12.5516C58.0565 12.9955 58.2967 13.5502 58.2967 14.216C58.2967 14.8817 58.0565 15.4365 57.5922 15.8803C57.1279 16.3241 56.5355 16.5461 55.831 16.5461C55.1265 16.5461 54.5341 16.3241 54.0698 15.8803ZM57.8164 34.1722H53.7976V18.4323H57.8164V34.1722ZM61.7551 22.0146C62.4276 20.7941 63.3562 19.843 64.5411 19.1773C65.7259 18.5116 67.0868 18.1628 68.6239 18.1628C70.5933 18.1628 72.2264 18.6542 73.5233 19.6211C74.8202 20.6039 75.6849 21.967 76.1172 23.7265H71.7781C71.554 23.0449 71.1537 22.506 70.6093 22.1256C70.0649 21.7293 69.3925 21.5391 68.5919 21.5391C67.4391 21.5391 66.5265 21.9512 65.87 22.7754C65.1975 23.5997 64.8613 24.7726 64.8613 26.2785C64.8613 27.7843 65.1975 28.9414 65.87 29.7657C66.5425 30.5899 67.4551 31.002 68.5919 31.002C70.225 31.002 71.2818 30.2887 71.7781 28.8463H76.1172C75.6688 30.5582 74.8042 31.9055 73.5073 32.9041C72.2104 33.9027 70.5773 34.41 68.6239 34.41C67.0868 34.41 65.7419 34.0771 64.5411 33.3955C63.3562 32.7298 62.4276 31.7787 61.7551 30.5582C61.0827 29.3377 60.7464 27.9111 60.7464 26.2785C60.7464 24.6458 61.0827 23.2193 61.7551 21.9987M127.577 34.1722H123.558V13.1381H127.577V34.1722ZM131.644 21.9987C132.284 20.7624 133.149 19.8272 134.254 19.1614C135.359 18.4957 136.591 18.1628 137.936 18.1628C139.121 18.1628 140.162 18.4006 141.059 18.8761C141.955 19.3517 142.66 19.954 143.204 20.6673V18.4165H147.255V34.1564H143.204V31.858C142.692 32.603 141.971 33.2053 141.059 33.6967C140.146 34.1722 139.105 34.4258 137.92 34.4258C136.575 34.4258 135.359 34.093 134.254 33.3955C133.149 32.7139 132.284 31.747 131.644 30.5107C131.003 29.2743 130.683 27.8477 130.683 26.2309C130.683 24.6141 131.003 23.2351 131.644 21.9987ZM142.628 23.8057C142.243 23.1083 141.731 22.5852 141.075 22.2207C140.418 21.8561 139.73 21.6659 138.977 21.6659C138.225 21.6659 137.536 21.8402 136.912 22.2048C136.287 22.5694 135.775 23.0925 135.375 23.7899C134.974 24.4873 134.782 25.2957 134.782 26.2468C134.782 27.1978 134.974 28.0221 135.375 28.7354C135.759 29.4487 136.287 29.9876 136.928 30.368C137.568 30.7484 138.257 30.9386 138.977 30.9386C139.698 30.9386 140.418 30.7484 141.075 30.3839C141.731 30.0193 142.243 29.4804 142.628 28.7988C143.012 28.1013 143.204 27.2771 143.204 26.3102C143.204 25.3433 143.012 24.519 142.628 23.8216M175.274 19.9698C176.475 21.1587 177.068 22.8071 177.068 24.9312V34.1722H173.049V25.4701C173.049 24.2337 172.729 23.2985 172.104 22.6486C171.48 21.9987 170.615 21.6659 169.526 21.6659C168.438 21.6659 167.573 21.9987 166.933 22.6486C166.292 23.2985 165.972 24.2496 165.972 25.4701V34.1722H161.953V25.4701C161.953 24.2337 161.633 23.2985 161.008 22.6486C160.384 21.9987 159.519 21.6659 158.431 21.6659C157.342 21.6659 156.445 21.9987 155.805 22.6486C155.164 23.2985 154.844 24.2496 154.844 25.4701V34.1722H150.825V18.4323H154.844V20.3344C155.356 19.6687 156.029 19.1456 156.846 18.7652C157.662 18.3848 158.559 18.1945 159.535 18.1945C160.784 18.1945 161.889 18.4482 162.866 18.9712C163.842 19.4943 164.595 20.2393 165.139 21.2062C165.652 20.3027 166.404 19.5736 167.397 19.0188C168.39 18.464 169.446 18.1945 170.599 18.1945C172.553 18.1945 174.122 18.781 175.322 19.9698M186.562 18.8761C187.475 18.4006 188.516 18.1628 189.684 18.1628C191.045 18.1628 192.278 18.4957 193.367 19.1614C194.472 19.8272 195.336 20.7624 195.977 21.9829C196.617 23.2034 196.938 24.6141 196.938 26.2309C196.938 27.8477 196.617 29.2743 195.977 30.5107C195.336 31.747 194.472 32.7139 193.367 33.3955C192.262 34.0771 191.029 34.4258 189.684 34.4258C188.5 34.4258 187.459 34.1881 186.562 33.7284C185.666 33.2687 184.961 32.6664 184.417 31.9214V34.1722H180.398V13.1381H184.417V20.7307C184.929 19.9698 185.65 19.3517 186.562 18.8761ZM192.246 23.7899C191.846 23.0925 191.334 22.5694 190.693 22.2048C190.053 21.8402 189.364 21.6659 188.612 21.6659C187.859 21.6659 187.203 21.8561 186.562 22.2207C185.922 22.5852 185.409 23.1242 185.009 23.8216C184.609 24.519 184.417 25.3433 184.417 26.2943C184.417 27.2454 184.609 28.0696 185.009 28.7671C185.409 29.4645 185.922 30.0034 186.562 30.368C187.203 30.7326 187.891 30.9228 188.612 30.9228C189.332 30.9228 190.053 30.7326 190.693 30.3522C191.334 29.9717 191.846 29.4328 192.246 28.7354C192.631 28.0379 192.839 27.1978 192.839 26.2309C192.839 25.264 192.647 24.4715 192.246 23.774M111.998 27.7526L110.189 42.8426C109.901 45.458 107.499 47.9466 104.025 48.6282C100.07 49.389 96.3713 47.5345 95.7629 44.4911C95.1544 41.4319 97.8764 38.341 101.847 37.5801C103.72 37.2156 105.53 37.4375 106.987 38.1032L107.627 32.7932C107.675 32.3335 107.195 32.0165 106.795 32.2226C104.745 33.2846 102.408 33.8869 99.9418 33.871C97.0598 33.871 94.3859 33.0626 92.1283 31.6836C91.712 31.43 91.1677 31.6836 91.1196 32.175L89.3584 46.837C89.0222 49.5158 86.6685 51.941 83.2101 52.6226C79.2553 53.3835 75.5568 51.5289 74.9483 48.4855C74.3399 45.4263 77.0618 42.3354 81.0326 41.5746C82.9059 41.21 84.7152 41.4319 86.1722 42.0976L87.8854 27.7526C86.1562 25.3433 85.1314 22.3792 85.1475 19.1614C85.1795 13.5661 88.3657 8.69988 93.057 6.25884C93.5373 6.00523 94.1457 6.25884 94.2898 6.79777C94.6421 8.06584 95.1865 10.1265 95.5868 11.6164C95.7949 12.4248 96.1632 13.3442 97.0438 13.8356C97.2679 15.2304 98.4848 16.2924 99.9578 16.2924C101.431 16.2924 102.648 15.2304 102.872 13.8356C103.752 13.3442 104.121 12.409 104.329 11.6164C104.729 10.1265 105.29 8.08169 105.626 6.79777C105.77 6.27469 106.362 6.00523 106.859 6.25884C111.55 8.71573 114.768 13.5978 114.768 19.2248C114.768 22.4109 113.743 25.3591 111.998 27.7526ZM89.8547 4.94322C91.1356 5.08588 92.1123 5.03833 92.8008 5.05418C93.057 5.05418 93.2651 5.07003 93.4413 5.10173C93.6814 5.13343 93.8896 4.91152 93.8415 4.67376C93.4733 3.19963 92.9769 1.77305 91.5679 0.917103C91.5519 0.917103 91.5359 0.901252 91.5199 0.885401C91.4719 0.853699 91.4238 0.821998 91.3758 0.806147C91.3758 0.806147 91.3438 0.806147 91.3438 0.790296C91.3118 0.790296 91.2958 0.758594 91.2637 0.758594C91.2477 0.758594 91.2317 0.742743 91.1997 0.726892C91.1356 0.695191 91.0716 0.663489 91.0076 0.631787C89.6626 0.0453054 88.1576 -0.129054 86.7806 0.092858C86.1241 0.203814 85.4677 0.362323 84.8432 0.584235C83.8986 0.932954 84.6991 2.07422 85.1635 2.58144C85.8199 3.31058 86.6365 3.88121 87.5011 4.29334C88.0455 4.5311 88.8781 4.83227 89.8708 4.94322M112.447 4.29334C113.327 3.88121 114.128 3.31058 114.784 2.58144C115.248 2.07422 116.049 0.932954 115.104 0.584235C114.48 0.362323 113.823 0.203814 113.167 0.092858C111.79 -0.129054 110.285 0.0453054 108.94 0.631787C108.876 0.663489 108.812 0.695191 108.748 0.726892C108.732 0.726892 108.716 0.742743 108.684 0.758594C108.652 0.758594 108.636 0.790296 108.604 0.790296C108.604 0.790296 108.572 0.790296 108.572 0.806147C108.524 0.837848 108.476 0.853699 108.428 0.885401C108.412 0.885401 108.396 0.901252 108.38 0.917103C106.971 1.77305 106.49 3.19963 106.106 4.67376C106.042 4.91152 106.25 5.13343 106.506 5.10173C106.682 5.07003 106.891 5.07003 107.147 5.05418C107.835 5.05418 108.812 5.08588 110.093 4.94322C111.07 4.83227 111.902 4.5311 112.463 4.29334" fill="white"/>
</svg>
