<svg width="141" height="53" viewBox="0 0 141 53" fill="none" xmlns="http://www.w3.org/2000/svg">
<path d="M49.1627 0.0981216H60.7327C63.3413 0.0981216 65.332 0.302327 66.6988 0.71274C68.5385 1.2693 70.1126 2.25629 71.425 3.67572C72.7374 5.09515 73.7357 6.8329 74.4201 8.88897C75.1045 10.945 75.4467 13.4796 75.4467 16.4926C75.4467 19.1413 75.1266 21.4236 74.4845 23.3395C73.7015 25.6799 72.5824 27.5758 71.1271 29.0232C70.0281 30.1203 68.5466 30.9772 66.6787 31.5918C65.2817 32.0443 63.4138 32.2725 61.0748 32.2725H49.1627V0.0981216ZM55.4932 5.5416V26.8531H60.2194C61.9867 26.8531 63.2628 26.7509 64.0478 26.5447C65.0744 26.2805 65.9258 25.836 66.6042 25.2054C67.2805 24.5768 67.834 23.5417 68.2608 22.1003C68.6895 20.6588 68.9029 18.6948 68.9029 16.2083C68.9029 13.7218 68.6895 11.8119 68.2608 10.4806C67.832 9.14923 67.2342 8.11018 66.4653 7.36343C65.6944 6.61668 64.7181 6.11217 63.5346 5.84991C62.6509 5.64571 60.9178 5.5416 58.3373 5.5416H55.4932Z" fill="white"/>
<path d="M80.9016 32.2725V0.100143H87.232V14.3865L100.022 0.100143H108.534L96.7287 12.6308L109.176 32.2725H100.984L92.3648 17.1733L87.232 22.5507V32.2725H80.9016Z" fill="white"/>
<path d="M112.469 32.2725V0.0981216H125.794C129.144 0.0981216 131.579 0.386412 133.099 0.964994C134.619 1.54358 135.833 2.57061 136.746 4.0481C137.658 5.52558 138.115 7.21528 138.115 9.1172C138.115 11.5316 137.425 13.5256 136.04 15.0972C134.657 16.6708 132.59 17.6618 129.836 18.0722C131.205 18.891 132.334 19.7919 133.226 20.7709C134.116 21.7519 135.317 23.4917 136.829 25.9942L140.657 32.2705H133.087L128.51 25.2695C126.883 22.7669 125.772 21.1914 125.172 20.5407C124.575 19.89 123.939 19.4436 123.27 19.2013C122.6 18.9591 121.537 18.839 120.084 18.839H118.802V32.2705H112.471L112.469 32.2725ZM118.8 13.7058H123.484C126.521 13.7058 128.417 13.5737 129.172 13.3114C129.927 13.0492 130.519 12.5947 130.947 11.95C131.376 11.3074 131.589 10.5026 131.589 9.53562C131.589 8.45253 131.308 7.57965 130.744 6.91298C130.18 6.24831 129.385 5.82589 128.361 5.65171C127.848 5.57964 126.308 5.5416 123.741 5.5416H118.8V13.7058Z" fill="white"/>
<path d="M49.6377 39.1554H61.1735L61.2842 42.5809H60.7971C60.5575 41.5038 60.2536 40.8031 59.8852 40.4788C59.5169 40.1544 58.7419 39.9923 57.5584 39.9923H56.4231V50.3087C56.4231 51.0854 56.5459 51.5679 56.7915 51.7521C57.037 51.9383 57.5745 52.0604 58.4058 52.1185V52.4929H52.4598V52.1185C53.3233 52.0544 53.8607 51.9123 54.0741 51.6981C54.2875 51.4818 54.3941 50.9413 54.3941 50.0724V39.9923H53.2488C52.1196 39.9923 51.3507 40.1524 50.9421 40.4748C50.5335 40.7951 50.2275 41.4978 50.0202 42.5809H49.521L49.6398 39.1554H49.6377Z" fill="white"/>
<path d="M61.9304 52.1185C62.7134 52.0465 63.2025 51.8963 63.3937 51.6681C63.5869 51.4399 63.6836 50.9073 63.6836 50.0705V41.3397C63.6836 40.631 63.5769 40.1665 63.3595 39.9463C63.1441 39.7261 62.6671 39.5859 61.9304 39.5279V39.1535H67.5785C68.754 39.1535 69.7342 39.3016 70.5172 39.5959C72.0047 40.1525 72.7475 41.1795 72.7475 42.673C72.7475 43.676 72.4174 44.4448 71.7571 44.9834C71.0949 45.5199 70.1972 45.8743 69.0619 46.0444L73.2648 51.1616C73.5244 51.4739 73.7821 51.7021 74.0417 51.8443C74.3014 51.9884 74.6335 52.0785 75.0381 52.1165V52.4909H71.7531L66.6505 46.2807L65.7548 46.3307V50.3047C65.7548 51.0495 65.8695 51.5219 66.099 51.7221C66.3285 51.9223 66.8276 52.0545 67.5986 52.1185V52.4929H61.9304V52.1185ZM68.9029 45.1315C69.9858 44.6931 70.5273 43.8682 70.5273 42.655C70.5273 41.4418 70.0422 40.693 69.072 40.2666C68.5547 40.0384 67.8663 39.9223 67.0108 39.9223C66.4331 39.9223 66.0789 39.9623 65.95 40.0444C65.8212 40.1265 65.7548 40.3167 65.7548 40.619V45.582C67.2222 45.5299 68.2729 45.3778 68.9029 45.1295" fill="white"/>
<path d="M75.6097 52.4929V52.1185C76.1351 52.0604 76.5276 51.8642 76.7913 51.5339C77.053 51.2016 77.5038 50.2947 78.1399 48.8112L82.3911 38.9192H82.7957L87.8781 50.3487C88.2163 51.1055 88.488 51.5739 88.6893 51.7541C88.8926 51.9343 89.2328 52.0564 89.7098 52.1205V52.4949H84.5227V52.1205C85.1185 52.0684 85.503 52.0044 85.6761 51.9283C85.8472 51.8522 85.9337 51.668 85.9337 51.3757C85.9337 51.2776 85.9015 51.1055 85.8351 50.8572C85.7687 50.609 85.6761 50.3467 85.5553 50.0744L84.7381 48.1345H79.3617C78.8323 49.4538 78.5163 50.2586 78.4116 50.5489C78.309 50.8392 78.2567 51.0694 78.2567 51.2396C78.2567 51.5779 78.3955 51.8142 78.6753 51.9443C78.8484 52.0224 79.1725 52.0825 79.6496 52.1205V52.4949H75.6057L75.6097 52.4929ZM84.3959 47.3157L82.059 41.7641L79.7099 47.3157H84.3979H84.3959Z" fill="white"/>
<path d="M90.3701 52.1185C91.1149 52.0405 91.6 51.9083 91.8234 51.7221C92.0488 51.536 92.1616 51.0635 92.1616 50.3067V41.3397C92.1616 40.6049 92.0509 40.1325 91.8335 39.9223C91.6141 39.712 91.127 39.5799 90.3681 39.5279V39.1535H95.8672C97.7191 39.1535 99.2871 39.4558 100.569 40.0584C102.88 41.1415 104.035 43.0774 104.035 45.8662C104.035 46.8713 103.828 47.8242 103.413 48.7311C102.999 49.636 102.373 50.4008 101.535 51.0254C101.004 51.4198 100.453 51.7181 99.8829 51.9203C98.8402 52.3007 97.558 52.4909 96.0383 52.4909H90.3701V52.1165V52.1185ZM94.4804 51.588C94.6434 51.6921 94.9796 51.7462 95.4908 51.7462C97.085 51.7462 98.3954 51.4338 99.426 50.8112C101.006 49.8523 101.797 48.2126 101.797 45.8943C101.797 43.8262 101.147 42.2686 99.8447 41.2236C98.7295 40.3307 97.2521 39.8842 95.4123 39.8842C94.9534 39.8842 94.6434 39.9343 94.4804 40.0324C94.3173 40.1305 94.2368 40.3487 94.2368 40.683V50.9394C94.2368 51.2677 94.3173 51.4839 94.4804 51.59" fill="white"/>
<path d="M105.104 52.1185C105.935 52.0604 106.473 51.9383 106.719 51.7521C106.964 51.5659 107.087 51.0854 107.087 50.3087V41.3416C107.087 40.6009 106.964 40.1224 106.719 39.9102C106.473 39.696 105.935 39.5698 105.104 39.5298V39.1554H111.141V39.5298C110.309 39.5698 109.772 39.696 109.526 39.9102C109.281 40.1224 109.158 40.6009 109.158 41.3416V50.3087C109.158 51.0854 109.281 51.5679 109.526 51.7521C109.772 51.9383 110.309 52.0604 111.141 52.1185V52.4929H105.104V52.1185Z" fill="white"/>
<path d="M111.799 52.1185C112.642 52.0324 113.184 51.8443 113.423 51.554C113.663 51.2617 113.782 50.585 113.782 49.5219V40.641L113.502 40.3167C113.202 39.9703 112.948 39.7541 112.739 39.672C112.53 39.5899 112.216 39.5419 111.797 39.5279V39.1535H115.277L123.152 48.7992V42.1005C123.152 40.9973 122.987 40.2806 122.654 39.9483C122.435 39.7341 121.95 39.5939 121.201 39.5279V39.1535H125.992V39.5279C125.215 39.6059 124.697 39.7941 124.438 40.0884C124.178 40.3847 124.049 41.0594 124.049 42.1165V52.7271H123.701L114.675 41.672V49.5199C114.675 50.621 114.838 51.3397 115.163 51.6741C115.376 51.8903 115.849 52.0385 116.588 52.1165V52.4909H111.797V52.1165L111.799 52.1185Z" fill="white"/>
<path d="M136.185 39.2436C136.948 39.4598 137.386 39.5679 137.499 39.5679C137.791 39.5679 137.998 39.5118 138.121 39.3997C138.244 39.2876 138.349 39.1274 138.435 38.9172H138.884L139.043 43.1595H138.574C138.155 42.1825 137.725 41.4538 137.28 40.9733C136.477 40.1325 135.43 39.714 134.142 39.714C132.854 39.714 131.682 40.2045 130.69 41.1855C129.697 42.1665 129.2 43.7821 129.2 46.0344C129.2 47.8923 129.695 49.3417 130.684 50.3848C131.674 51.4278 132.896 51.9504 134.349 51.9504C134.595 51.9504 134.884 51.9283 135.217 51.8823C135.549 51.8362 135.865 51.7642 136.163 51.6661C136.648 51.5099 136.95 51.3738 137.068 51.2577C137.187 51.1435 137.248 50.9754 137.248 50.7511V47.5399C137.248 46.7611 137.137 46.2766 136.913 46.0845C136.69 45.8923 136.205 45.7741 135.454 45.7281V45.3537H140.653V45.7281C140.148 45.7601 139.814 45.8422 139.647 45.9743C139.369 46.1846 139.228 46.617 139.228 47.2736V51.2416C139.228 51.4779 138.643 51.7922 137.471 52.1866C136.3 52.581 135.17 52.7772 134.089 52.7772C132.097 52.7772 130.416 52.2026 129.049 51.0555C127.542 49.7902 126.787 48.0885 126.787 45.9563C126.787 44.0804 127.389 42.4708 128.59 41.1335C129.911 39.656 131.664 38.9192 133.85 38.9192C134.641 38.9192 135.418 39.0273 136.181 39.2436" fill="white"/>
<path d="M42.2363 28.1083V5.48552L39.7283 3.22324L39.4465 2.96899L36.1535 0H6.20408L2.7963 3.07309L2.62923 3.22525L0.0064743 5.58762V28.1063C0.0064743 28.1063 -0.971777 44.7951 21.1214 52.7771C43.2146 44.7951 42.2363 28.1063 42.2363 28.1063M39.4465 28.7209C39.4083 29.836 39.1305 32.9191 37.3209 36.5087C36.9989 37.1474 36.6406 37.766 36.2581 38.3726C33.1563 43.2936 28.0799 47.1354 21.1214 49.8161C14.1629 47.1354 9.08851 43.2936 5.98468 38.3726C5.60223 37.766 5.24596 37.1474 4.92189 36.5087C3.10628 32.9091 2.83253 29.818 2.79429 28.7029V28.1724V28.1103V7.42547L7.45205 3.22525H34.8974L39.4425 7.32337V28.1884L39.4465 28.2685C39.4465 28.2685 39.4505 28.4346 39.4425 28.7189" fill="white"/>
<path d="M21.1216 26.2765L2.79645 7.50563V19.3215L21.1216 38.0904V26.2765Z" fill="white"/>
<path d="M21.1215 26.2765V38.0904L39.4466 19.3215V7.50563L21.1215 26.2765Z" fill="white"/>
</svg>
