<svg width="132" height="44" viewBox="0 0 132 44" fill="none" xmlns="http://www.w3.org/2000/svg">
<path d="M5.60621 33.8936H0V8.94343H5.60621V33.8936ZM5.5629 5.70609H0.0433098V0H5.56049V5.70609H5.5629Z" fill="white"/>
<path d="M22.7377 8.36459C25.2304 8.36459 27.1937 9.14534 28.635 10.7093C30.0738 12.2732 30.7933 14.489 30.7933 17.3567V33.8936H25.1871V18.3733C25.1871 15.2138 23.7482 13.6353 20.8705 13.6353C19.4461 13.6353 18.2383 14.1923 17.2445 15.3038C16.2508 16.4154 15.7528 17.955 15.7528 19.9227V33.896H10.1465V8.94346H15.5747V12.5213C17.3239 9.74854 19.7132 8.36459 22.7377 8.36459Z" fill="white"/>
<path d="M49.6594 22.9192V8.94584H55.2656V33.896H49.8375V30.2695C48.0858 33.0739 45.6845 34.4749 42.6288 34.4749C40.1649 34.4749 38.216 33.6941 36.7772 32.1302C35.3383 30.5662 34.6189 28.3504 34.6189 25.4828V8.94341H40.2251V24.4637C40.2251 27.6232 41.6639 29.2017 44.5416 29.2017C45.9661 29.2017 47.1739 28.6472 48.1676 27.5332C49.1614 26.4216 49.657 24.882 49.657 22.9168L49.6594 22.9192Z" fill="white"/>
<path d="M72.3971 8.36459C74.8898 8.36459 76.8532 9.14534 78.2944 10.7093C79.7333 12.2732 80.4527 14.489 80.4527 17.3567V33.8936H74.8465V18.3733C74.8465 15.2138 73.4076 13.6353 70.5299 13.6353C69.1055 13.6353 67.8977 14.1923 66.904 15.3038C65.9102 16.4154 65.4122 17.955 65.4122 19.9227V33.896H59.806V8.94346H65.2341V12.5213C66.9834 9.74854 69.3726 8.36459 72.3971 8.36459Z" fill="white"/>
<path d="M90.5944 33.8936H84.9882V8.94343H90.5944V33.8936ZM90.5511 5.70609H85.0339V7.62939e-06H90.5511V5.70609Z" fill="white"/>
<path d="M107.103 8.94345V13.5866H102.565V27.076C102.565 27.8835 102.764 28.4478 103.166 28.7688C103.566 29.0923 104.242 29.2528 105.19 29.2528H107.103V33.8936C105.885 34.0225 104.908 34.0882 104.167 34.0882C101.674 34.0882 99.8578 33.5798 98.7149 32.5656C97.572 31.5489 97.0018 29.9314 97.0018 27.7059V13.5866H93.4407V8.94345H97.0018V1.69288H102.565V8.94588H107.103V8.94345Z" fill="white"/>
<path d="M123.522 15.2308L125.391 8.94587H131.265L122.41 35.9269C121.46 38.763 120.274 40.7136 118.852 41.7765C117.398 42.8711 115.291 43.4207 112.533 43.4207C111.614 43.4207 110.798 43.3721 110.086 43.2748V38.4881H112.223C113.438 38.4881 114.374 38.116 115.026 37.3766C115.678 36.6347 116.005 35.6667 116.005 34.4749C116.005 33.2831 115.649 31.6073 114.937 29.4474L108.262 8.94587H114.314L116.183 15.1822C117.487 19.6308 118.705 24.2715 119.831 29.1069C120.721 25.4658 121.951 20.8396 123.524 15.2308H123.522Z" fill="white"/>
</svg>
