<svg width="182" height="52" viewBox="0 0 182 52" fill="none" xmlns="http://www.w3.org/2000/svg">
<path d="M46.2 45.7319C46.2 47.424 46.2 49.1161 46.2075 50.8082C46.2075 50.9442 46.2 51.0877 46.1924 51.2237C46.1924 51.269 46.1396 51.3143 46.0942 51.3219C46.0414 51.3219 45.996 51.3294 45.9432 51.3294C45.8147 51.3294 45.6939 51.3294 45.5655 51.3294C38.087 51.3294 30.6086 51.3294 23.1302 51.3294C15.6518 51.3294 8.09784 51.3294 0.581654 51.3294C0.430575 51.3294 0.279496 51.3294 0.128417 51.3219C0.0679856 51.3219 0.00755395 51.2614 0.00755395 51.201C0.00755395 51.1104 0 51.0273 0 50.9366C0 47.3032 0 43.6622 0 40.0287C0 35.4359 0 30.8355 0 26.2427C0 25.0719 0 23.8934 0 22.7226C0 22.156 0.0453237 21.5895 0.105755 21.0229C0.135971 20.7208 0.151079 20.4186 0.203957 20.1165C0.271942 19.7463 0.309712 19.3686 0.377698 18.9909C0.596762 17.7974 0.898921 16.6265 1.30683 15.4859C1.87338 13.8996 2.60611 12.3963 3.51259 10.9762C4.28309 9.77511 5.13669 8.64201 6.08093 7.57691C7.60683 5.86216 9.32913 4.39669 11.2856 3.21072C12.7737 2.3118 14.3525 1.60928 16.0068 1.09561C16.7471 0.868995 17.495 0.672592 18.2579 0.521513C18.7867 0.415758 19.3155 0.32511 19.8518 0.249571C20.1766 0.204247 20.4939 0.136261 20.8187 0.143815C21.3777 0.0456139 21.9442 0.0607218 22.5032 0.030506C23.1302 -0.00726381 23.7572 -0.00726381 24.3766 0.0456139C24.5352 0.0607218 24.7014 0.0682757 24.8676 0.0758297C25.1396 0.0909376 25.4191 0.0984916 25.691 0.136261C25.9403 0.174031 26.1896 0.181585 26.4388 0.219355C27.2093 0.32511 27.9723 0.461081 28.7277 0.642376C30.7597 1.13338 32.6784 1.91144 34.4838 2.97655C36.123 3.94345 37.6187 5.10676 38.986 6.43626C39.696 7.13122 40.3759 7.8564 41.0104 8.61935C42.5288 10.455 43.7525 12.4719 44.6212 14.7003C45.15 16.0524 45.5428 17.4424 45.8072 18.8776C45.9205 19.5122 46.0187 20.1467 46.0791 20.7888C46.132 21.3402 46.1849 21.8917 46.1849 22.4506C46.1849 22.9719 46.1924 23.4855 46.2 24.0068C46.2 27.8819 46.2 31.7571 46.2075 35.6399C46.2075 36.0024 46.2075 36.3726 46.2 36.7352V45.7395V45.7319ZM23.236 47.3258C23.5079 47.3258 23.7874 47.3258 24.0593 47.3258C25.2227 47.3258 26.386 47.3258 27.5493 47.3258C27.6324 47.3258 27.723 47.3107 27.8061 47.2881C27.8968 47.2654 27.9572 47.1974 27.9874 47.1143C28.0025 47.069 28.0176 47.0161 28.0176 46.9708C28.0403 46.646 28.0705 46.3136 28.0932 45.9888C28.1234 45.5355 28.146 45.0823 28.1989 44.6291C28.2745 43.8888 28.3575 43.1485 28.4633 42.4158C28.5539 41.8039 28.6521 41.192 28.7579 40.5877C29.0072 39.1978 29.3245 37.8229 29.7097 36.4632C30.1705 34.824 30.7068 33.2075 31.3338 31.6287C32.0061 29.914 32.7842 28.2445 33.6453 26.628C34.4762 25.0719 35.3978 23.5686 36.395 22.1183C37.3014 20.8039 38.2759 19.5273 39.3108 18.3186C39.7111 17.8503 40.1266 17.3895 40.527 16.9287C40.6025 16.8456 40.678 16.7625 40.7385 16.6643C40.8518 16.4981 40.8896 16.3168 40.8216 16.128C40.7762 15.9996 40.7234 15.8712 40.6705 15.7427C40.0057 14.2093 39.1597 12.7816 38.1399 11.4672C37.4147 10.5305 36.6065 9.66935 35.7226 8.88374C35.6396 8.8082 35.5489 8.74022 35.4583 8.67978C35.3223 8.58914 35.1712 8.59669 35.0428 8.70245C34.9295 8.80065 34.8162 8.89885 34.7104 9.01216C34.0381 9.69201 33.396 10.3945 32.7615 11.1122C31.6209 12.4039 30.5406 13.7485 29.5209 15.1384C28.5691 16.4377 27.6701 17.7747 26.8241 19.1496C25.3511 21.5593 24.0593 24.0672 22.9565 26.6658C22.2237 28.3956 21.5665 30.1481 20.9924 31.946C20.577 33.2528 20.2068 34.5823 19.8896 35.9193C19.7083 36.6823 19.5345 37.4452 19.3986 38.2082C19.2852 38.8276 19.1644 39.447 19.0662 40.0665C18.968 40.6783 18.8773 41.2902 18.8093 41.9021C18.7791 42.1816 18.7338 42.4535 18.7036 42.7255C18.6658 43.0503 18.6356 43.3751 18.6054 43.7075C18.5676 44.1456 18.5299 44.5913 18.4996 45.0294C18.4619 45.596 18.4241 46.1625 18.3863 46.7291C18.3863 46.7895 18.3863 46.8575 18.3863 46.9179C18.3863 46.9708 18.3863 47.0161 18.4014 47.069C18.4317 47.1898 18.4996 47.2729 18.6129 47.3107C18.7338 47.356 18.8547 47.3636 18.9831 47.3636C19.2173 47.3636 19.459 47.356 19.6932 47.356C20.8716 47.356 22.05 47.356 23.2209 47.356L23.236 47.3258ZM11.0439 8.47583C11.0439 8.47583 10.9759 8.49849 10.9457 8.5136C10.7795 8.64202 10.6058 8.77043 10.4471 8.91396C9.12518 10.1075 7.97698 11.4521 7.01762 12.9553C6.46619 13.8165 5.99029 14.7154 5.57482 15.6521C5.52194 15.7805 5.48417 15.9165 5.43885 16.0449C5.39352 16.1809 5.41619 16.3168 5.46151 16.4528C5.49928 16.5737 5.56726 16.6794 5.65036 16.7776C5.7259 16.8607 5.80144 16.9514 5.87698 17.0345C7.6446 18.9683 9.24604 21.0381 10.6662 23.2438C11.8446 25.0643 12.8946 26.9604 13.8086 28.9244C14.3072 29.997 14.7755 31.0848 15.191 32.1952C15.4252 32.8298 15.6669 33.4719 15.9086 34.1064C15.9388 34.1895 15.9615 34.2801 16.0295 34.3406C16.0446 34.3557 16.0824 34.3557 16.0975 34.3406C16.1277 34.3179 16.1504 34.2877 16.1655 34.2575C16.241 34.0309 16.3241 33.8042 16.3845 33.5701C16.6942 32.3463 17.0644 31.1452 17.4496 29.9442C18.0842 28.0028 18.8169 26.0992 19.6478 24.2334C19.9575 23.546 20.2899 22.8661 20.6072 22.1787C20.6752 22.0276 20.7507 21.8841 20.7885 21.7255C20.8111 21.6273 20.8111 21.5291 20.7885 21.4309C20.7432 21.2571 20.6601 21.106 20.5694 20.9474C19.7385 19.4895 18.8622 18.0694 17.918 16.687C16.7849 15.0327 15.5687 13.4463 14.277 11.9204C13.3101 10.7798 12.2752 9.69957 11.2478 8.6118C11.2101 8.57403 11.1723 8.54381 11.1345 8.5136C11.1194 8.49849 11.0892 8.49849 11.059 8.48338L11.0439 8.47583ZM4.01115 34.1517C4.01115 34.9373 4.01115 35.7154 4.01115 36.501C4.0036 39.8474 4.03381 43.1938 3.99604 46.5402C3.99604 46.6913 4.0036 46.8424 4.0187 46.9934C4.03381 47.1445 4.12446 47.2427 4.27554 47.2881C4.35863 47.3107 4.44928 47.3258 4.53237 47.3334C4.62302 47.3409 4.70611 47.3334 4.79676 47.3334C5.40863 47.3334 6.0205 47.3258 6.63993 47.3258C8.33201 47.3258 10.0241 47.3258 11.7162 47.3258C12.0939 47.3258 12.464 47.3258 12.8417 47.3334C13.1288 47.3334 13.4158 47.3334 13.7029 47.3334C13.8162 47.3334 13.9295 47.3258 14.0352 47.2881C14.1712 47.2427 14.2694 47.1294 14.2694 46.9783C14.2694 46.8499 14.2694 46.7291 14.2543 46.6006C14.2165 46.1474 14.1637 45.6942 14.141 45.2409C14.1183 44.8481 14.073 44.4629 14.0277 44.0701C13.9673 43.5413 13.8993 43.0201 13.8086 42.4988C13.6878 41.7812 13.5518 41.056 13.4158 40.3384C13.2496 39.4848 13.0381 38.6388 12.8115 37.8003C12.4036 36.2744 11.9126 34.7787 11.3385 33.3132C10.3791 30.8658 9.21583 28.524 7.83345 26.2881C6.91942 24.8075 5.9223 23.3873 4.84964 22.0201C4.70611 21.8312 4.53993 21.6575 4.38129 21.4762C4.35108 21.4384 4.30575 21.4082 4.26798 21.378C4.17734 21.31 4.0187 21.3855 4.01115 21.4988C4.01115 21.6348 4.0036 21.7783 4.0036 21.9143C4.0036 25.9935 4.0036 30.0726 4.0036 34.1517H4.01115ZM42.2342 34.2726V25.6762C42.2342 24.4373 42.2342 23.1985 42.2342 21.9672C42.2342 21.8388 42.2342 21.7179 42.2266 21.5895C42.2266 21.5215 42.1737 21.4762 42.1133 21.4535C42.0227 21.4082 41.9396 21.4309 41.8791 21.4988C41.8565 21.5291 41.8262 21.5593 41.8036 21.5895C41.1086 22.496 40.4061 23.4024 39.7565 24.3467C38.7669 25.7895 37.8529 27.2852 37.037 28.8337C35.9795 30.828 35.0806 32.8978 34.3554 35.0355C34.0004 36.0704 33.6831 37.1204 33.4111 38.1855C33.177 39.092 32.973 39.9985 32.7993 40.9125C32.6633 41.6301 32.5349 42.3553 32.4367 43.0729C32.3762 43.496 32.3234 43.9265 32.2705 44.3496C32.2252 44.7499 32.1874 45.1503 32.1421 45.5506C32.127 45.7168 32.1119 45.8755 32.1043 46.0416C32.0892 46.3438 32.0741 46.646 32.0741 46.9481C32.0741 47.137 32.1798 47.2503 32.3611 47.2956C32.482 47.3334 32.6104 47.3334 32.7313 47.3334C33.4111 47.3334 34.0834 47.3258 34.7633 47.3258C35.768 47.3258 36.7651 47.3258 37.7698 47.3258C38.5932 47.3258 39.4241 47.3258 40.2475 47.3334C40.6856 47.3334 41.1237 47.3334 41.5619 47.3334C41.6752 47.3334 41.7885 47.3334 41.8942 47.3032C42.1133 47.2578 42.2266 47.1294 42.2417 46.9179C42.2493 46.8197 42.2417 46.714 42.2417 46.6157C42.2417 46.0341 42.2417 45.4524 42.2417 44.8708C42.2417 41.3355 42.2417 37.8003 42.2417 34.265L42.2342 34.2726ZM31.7191 6.23986C31.6964 6.17943 31.6435 6.14166 31.5906 6.10389C31.4471 6.00568 31.3036 5.90748 31.145 5.81684C30.4349 5.40137 29.6795 5.11432 28.8939 4.8877C28.0252 4.63842 27.1489 4.45712 26.25 4.34381C25.7816 4.28338 25.3057 4.2154 24.8298 4.19274C24.7694 4.19274 24.709 4.17763 24.641 4.17763C24.4295 4.16252 24.218 4.13986 24.0065 4.1323C23.2209 4.1323 22.4277 4.1323 21.6421 4.1323C21.491 4.1323 21.3399 4.13986 21.1888 4.15497C20.8036 4.19274 20.4183 4.23806 20.0331 4.26828C19.7309 4.29094 19.4363 4.34381 19.1417 4.38914C18.696 4.45712 18.2579 4.54777 17.8198 4.66108C17.1777 4.81971 16.5432 5.01612 15.9388 5.29561C15.5309 5.48446 15.1381 5.71108 14.7906 6.00568C14.5263 6.2323 14.5187 6.2323 14.7755 6.49669C15.6593 7.41072 16.5054 8.35497 17.3212 9.32942C18.9604 11.2708 20.4788 13.3104 21.8763 15.433C22.2464 15.992 22.5939 16.5586 22.9565 17.1176C22.9942 17.178 23.0396 17.2384 23.0849 17.2988C23.1 17.3215 23.168 17.3291 23.1831 17.3064C23.2511 17.2158 23.3191 17.1251 23.3795 17.0345C23.7496 16.4528 24.1122 15.8636 24.4975 15.2819C25.555 13.6881 26.673 12.1395 27.8741 10.6438C28.7957 9.49561 29.7475 8.37763 30.7521 7.29741C31.0241 7.00281 31.3036 6.7082 31.5755 6.4136C31.6284 6.36072 31.6888 6.3154 31.6964 6.22475L31.7191 6.23986Z" fill="white"/>
<path d="M71.5435 1.21623H74.3385C74.4216 1.21623 74.4745 1.29933 74.4442 1.36731L66.1122 22.0123C66.0971 22.0576 66.0518 22.0803 66.0065 22.0803H64.1104C64.0651 22.0803 64.0198 22.05 64.0047 22.0123L55.7406 1.36731C55.7104 1.29177 55.7633 1.21623 55.8464 1.21623H58.6716C58.7169 1.21623 58.7622 1.24645 58.7773 1.28422L64.9791 15.6141C65.0169 15.7123 65.1529 15.7123 65.1906 15.6141L71.4453 1.28422C71.4604 1.23889 71.5057 1.21623 71.5511 1.21623H71.5435ZM86.795 10.5982C87.3691 11.6634 87.6485 12.8644 87.6485 14.209C87.6485 14.413 87.641 14.6245 87.6183 14.8587C87.6032 15.0626 87.5655 15.3044 87.5126 15.5612C87.505 15.6141 87.4597 15.6518 87.3993 15.6518H76.4385C76.3705 15.6518 76.3176 15.7123 76.3252 15.7878C76.4234 16.2864 76.582 16.7547 76.8086 17.1777C77.209 17.9331 77.7831 18.5148 78.5234 18.9227C79.2637 19.3306 80.1173 19.5421 81.0766 19.5421C81.8773 19.5421 82.6176 19.3986 83.2899 19.1191C83.9245 18.8547 84.4759 18.4619 84.9367 17.9482C84.982 17.9029 85.0575 17.8954 85.1029 17.9482L86.6892 19.5648C86.727 19.6101 86.7345 19.6705 86.6892 19.7159C86.0169 20.4788 85.2086 21.068 84.2493 21.4684C83.2899 21.8687 82.2022 22.1029 81.0766 22.1029C79.6565 22.1029 78.3723 21.7781 77.2241 21.1285C76.0834 20.4788 75.177 19.5875 74.5198 18.4695C73.855 17.3439 73.5302 16.0749 73.5302 14.6472C73.5302 13.2195 73.855 11.9806 74.5047 10.8551C75.1543 9.72954 76.0381 8.84573 77.1486 8.19609C78.259 7.54645 79.5129 7.22163 80.8953 7.22163C82.2777 7.22163 83.3881 7.52378 84.4004 8.12055C85.4126 8.72486 86.2057 9.5558 86.7798 10.6134L86.795 10.5982ZM76.7935 11.9806C76.5896 12.3659 76.4385 12.7964 76.3478 13.2572C76.3327 13.3252 76.3856 13.3932 76.4611 13.3932H84.8914C84.9593 13.3932 85.0122 13.3328 85.0047 13.2648C84.9291 12.7209 84.778 12.2375 84.559 11.8144C84.2191 11.1421 83.7356 10.6209 83.1162 10.2508C82.4968 9.88062 81.7414 9.69177 80.8575 9.69177C79.9737 9.69177 79.1201 9.89573 78.4252 10.2961C77.7227 10.6964 77.1788 11.2554 76.8011 11.9806H76.7935ZM100.717 8.3094C99.886 7.76551 98.9266 7.50112 97.8464 7.50112C96.7662 7.50112 95.7917 7.7504 94.9306 8.24141C94.3791 8.55868 93.9032 8.94393 93.5029 9.40472C93.4349 9.48026 93.3065 9.43494 93.3065 9.32918V7.90904C93.3065 7.84861 93.2536 7.79573 93.1932 7.79573H90.7079C90.6475 7.79573 90.5946 7.84861 90.5946 7.90904V21.9669C90.5946 22.0274 90.6475 22.0803 90.7079 22.0803H93.1932C93.2536 22.0803 93.3065 22.0274 93.3065 21.9669V13.7482C93.3065 13.0231 93.4651 12.3885 93.7899 11.822C94.1072 11.263 94.5529 10.8173 95.1119 10.5C95.6709 10.1828 96.3129 10.0166 97.0381 10.0166C98.1183 10.0166 99.0021 10.3641 99.682 11.0666C100.362 11.7691 100.702 12.6605 100.702 13.7407V21.9594C100.702 22.0198 100.755 22.0727 100.815 22.0727H103.3C103.361 22.0727 103.414 22.0198 103.414 21.9594V13.1968C103.414 12.2148 103.172 11.2857 102.688 10.4169C102.205 9.54824 101.548 8.83817 100.717 8.29429V8.3094ZM111.187 4.57764e-05H108.701C108.641 4.57764e-05 108.588 0.0529235 108.588 0.113355V7.85616C108.588 7.91659 108.535 7.96947 108.475 7.96947H105.181C105.121 7.96947 105.068 8.02235 105.068 8.08278V10.3263C105.068 10.3867 105.121 10.4396 105.181 10.4396H108.475C108.535 10.4396 108.588 10.4925 108.588 10.5529V21.9821C108.588 22.0425 108.641 22.0954 108.701 22.0954H111.187C111.247 22.0954 111.3 22.0425 111.3 21.9821V10.5529C111.3 10.4925 111.353 10.4396 111.413 10.4396H114.707C114.767 10.4396 114.82 10.3867 114.82 10.3263V8.08278C114.82 8.02235 114.767 7.96947 114.707 7.96947H111.413C111.353 7.96947 111.3 7.91659 111.3 7.85616V0.113355C111.3 0.0529235 111.247 4.57764e-05 111.187 4.57764e-05ZM145.028 8.3094C144.197 7.76551 143.238 7.50112 142.158 7.50112C141.078 7.50112 140.103 7.7504 139.242 8.24141C138.691 8.55868 138.215 8.94393 137.814 9.40472C137.746 9.48026 137.618 9.43494 137.618 9.32918V7.90904C137.618 7.84861 137.565 7.79573 137.505 7.79573H135.019C134.959 7.79573 134.906 7.84861 134.906 7.90904V21.9669C134.906 22.0274 134.959 22.0803 135.019 22.0803H137.505C137.565 22.0803 137.618 22.0274 137.618 21.9669V13.7482C137.618 13.0231 137.777 12.3885 138.101 11.822C138.419 11.263 138.864 10.8173 139.423 10.5C139.982 10.1828 140.624 10.0166 141.35 10.0166C142.43 10.0166 143.314 10.3641 143.993 11.0666C144.673 11.7691 145.013 12.6605 145.013 13.7407V21.9594C145.013 22.0198 145.066 22.0727 145.127 22.0727H147.612C147.672 22.0727 147.725 22.0198 147.725 21.9594V13.1968C147.725 12.2148 147.483 11.2857 147 10.4169C146.517 9.54824 145.859 8.83817 145.028 8.29429V8.3094ZM131.461 14.5565V21.7101C131.461 21.7705 131.409 21.8234 131.348 21.8234H128.855C128.795 21.8234 128.742 21.7705 128.742 21.7101V20.7583C128.742 20.6677 128.636 20.6148 128.561 20.6677C128.342 20.8263 128.115 20.9774 127.873 21.1209C126.77 21.763 125.547 22.0878 124.202 22.0878C122.858 22.0878 121.611 21.763 120.516 21.1209C119.42 20.4788 118.559 19.6026 117.91 18.4997C117.268 17.3968 116.943 16.1655 116.943 14.7982C116.943 13.431 117.268 12.2375 117.91 11.1572C118.552 10.077 119.42 9.21587 120.516 8.56623C121.611 7.92414 122.835 7.59932 124.202 7.59932C125.569 7.59932 126.77 7.91659 127.873 8.55112C128.976 9.18565 129.845 10.0468 130.495 11.1421C131.099 12.1695 131.416 13.3026 131.454 14.549L131.461 14.5565ZM128.16 17.2457C128.553 16.5357 128.742 15.7198 128.742 14.8058C128.742 13.8918 128.546 13.1062 128.145 12.4036C127.745 11.7011 127.209 11.1497 126.536 10.7493C125.864 10.349 125.086 10.1526 124.21 10.1526C123.333 10.1526 122.555 10.349 121.868 10.7493C121.188 11.1497 120.652 11.7011 120.259 12.4036C119.866 13.1062 119.677 13.9069 119.677 14.8058C119.677 15.7047 119.874 16.5357 120.259 17.2457C120.652 17.9558 121.188 18.5148 121.868 18.9303C122.548 19.3382 123.333 19.5421 124.21 19.5421C125.086 19.5421 125.864 19.3382 126.551 18.9303C127.231 18.5223 127.768 17.9634 128.16 17.2457ZM164.412 14.5565V21.7101C164.412 21.7705 164.359 21.8234 164.299 21.8234H161.806C161.745 21.8234 161.692 21.7705 161.692 21.7101V20.7583C161.692 20.6677 161.587 20.6148 161.511 20.6677C161.292 20.8263 161.065 20.9774 160.824 21.1209C159.721 21.763 158.497 22.0878 157.152 22.0878C155.808 22.0878 154.561 21.763 153.466 21.1209C152.371 20.4788 151.51 19.6026 150.86 18.4997C150.218 17.3968 149.893 16.1655 149.893 14.7982C149.893 13.431 150.218 12.2375 150.86 11.1572C151.502 10.077 152.371 9.21587 153.466 8.56623C154.561 7.92414 155.785 7.59932 157.152 7.59932C158.52 7.59932 159.721 7.91659 160.824 8.55112C161.927 9.18565 162.795 10.0468 163.445 11.1421C164.049 12.1695 164.367 13.3026 164.404 14.549L164.412 14.5565ZM161.111 17.2457C161.504 16.5357 161.692 15.7198 161.692 14.8058C161.692 13.8918 161.496 13.1062 161.096 12.4036C160.695 11.7011 160.159 11.1497 159.487 10.7493C158.814 10.349 158.036 10.1526 157.16 10.1526C156.284 10.1526 155.506 10.349 154.818 10.7493C154.138 11.1497 153.602 11.7011 153.209 12.4036C152.817 13.1062 152.628 13.9069 152.628 14.8058C152.628 15.7047 152.824 16.5357 153.209 17.2457C153.602 17.9558 154.138 18.5148 154.818 18.9303C155.498 19.3382 156.284 19.5421 157.16 19.5421C158.036 19.5421 158.814 19.3382 159.502 18.9303C160.182 18.5223 160.718 17.9634 161.111 17.2457Z" fill="white"/>
<path d="M97.3176 36.1608C96.7435 35.0957 95.9504 34.2647 94.9381 33.6604C93.9259 33.0561 92.755 32.7615 91.4331 32.7615C90.1112 32.7615 88.8043 33.0863 87.6863 33.736C86.5759 34.3856 85.6921 35.277 85.0425 36.395C84.3928 37.5205 84.068 38.782 84.068 40.187C84.068 41.5921 84.4004 42.8838 85.0576 44.0093C85.7223 45.1349 86.6212 46.0187 87.7619 46.6683C88.9025 47.318 90.1867 47.6428 91.6144 47.6428C92.7399 47.6428 93.7975 47.4313 94.7871 47.0083C95.7464 46.6004 96.5622 46.0187 97.227 45.2557C97.2648 45.2104 97.2648 45.1424 97.227 45.1047L95.6407 43.4881C95.5953 43.4428 95.5198 43.4428 95.4745 43.4881C95.0061 44.0018 94.4622 44.3946 93.8277 44.659C93.1554 44.9385 92.4227 45.082 91.6144 45.082C90.655 45.082 89.8014 44.8781 89.0612 44.4626C88.3209 44.0547 87.7468 43.473 87.3464 42.7176C87.1198 42.2946 86.9612 41.8338 86.863 41.3277C86.8479 41.2597 86.9007 41.1917 86.9763 41.1917H97.9371C97.9899 41.1917 98.0353 41.1539 98.0504 41.1011C98.1032 40.8367 98.1335 40.6025 98.1561 40.3986C98.1788 40.1644 98.1863 39.9529 98.1863 39.7489C98.1863 38.4043 97.8993 37.2032 97.3252 36.1381L97.3176 36.1608ZM95.4065 38.9557H86.9763C86.9083 38.9557 86.8554 38.8878 86.8705 38.8198C86.9687 38.359 87.1122 37.9284 87.3162 37.5432C87.6939 36.818 88.2378 36.259 88.9403 35.8586C89.6428 35.4583 90.4511 35.2543 91.3802 35.2543C92.3094 35.2543 93.0119 35.4432 93.6313 35.8133C94.2507 36.1834 94.7342 36.7047 95.0741 37.377C95.2932 37.8 95.4367 38.2834 95.5198 38.8273C95.5273 38.8953 95.4745 38.9557 95.4065 38.9557Z" fill="white"/>
<path d="M111.239 33.8719C110.409 33.328 109.449 33.0636 108.369 33.0636C107.289 33.0636 106.314 33.3129 105.453 33.8039C104.902 34.1212 104.426 34.5065 104.025 34.9672C103.957 35.0428 103.829 34.9975 103.829 34.8917V33.4716C103.829 33.4111 103.776 33.3582 103.716 33.3582H101.23C101.17 33.3582 101.117 33.4111 101.117 33.4716V47.5295C101.117 47.5899 101.17 47.6428 101.23 47.6428H103.716C103.776 47.6428 103.829 47.5899 103.829 47.5295V39.3108C103.829 38.5856 103.988 37.9511 104.313 37.3845C104.63 36.8255 105.075 36.3798 105.634 36.0626C106.193 35.7453 106.836 35.5791 107.561 35.5791C108.641 35.5791 109.525 35.9266 110.205 36.6291C110.884 37.3316 111.224 38.223 111.224 39.3032V47.5219C111.224 47.5823 111.277 47.6352 111.338 47.6352H113.823C113.883 47.6352 113.936 47.5823 113.936 47.5219V38.7593C113.936 37.7773 113.695 36.8482 113.211 35.9795C112.728 35.1108 112.07 34.4007 111.239 33.8568V33.8719Z" fill="white"/>
<path d="M121.649 25.5777H119.164C119.103 25.5777 119.05 25.6306 119.05 25.691V33.2525C119.05 33.3129 118.997 33.3658 118.937 33.3658H115.643C115.583 33.3658 115.53 33.4187 115.53 33.4791V35.7226C115.53 35.7831 115.583 35.836 115.643 35.836H118.937C118.997 35.836 119.05 35.8888 119.05 35.9493V47.5446C119.05 47.605 119.103 47.6579 119.164 47.6579H121.649C121.709 47.6579 121.762 47.605 121.762 47.5446V35.9493C121.762 35.8888 121.815 35.836 121.875 35.836H125.169C125.229 35.836 125.282 35.7831 125.282 35.7226V33.4791C125.282 33.4187 125.229 33.3658 125.169 33.3658H121.875C121.815 33.3658 121.762 33.3129 121.762 33.2525V25.691C121.762 25.6306 121.709 25.5777 121.649 25.5777Z" fill="white"/>
<path d="M167.932 36.1608C167.358 35.0957 166.565 34.2647 165.552 33.6604C164.54 33.0561 163.369 32.7615 162.047 32.7615C160.725 32.7615 159.419 33.0863 158.301 33.736C157.19 34.3856 156.306 35.277 155.657 36.395C155.007 37.5205 154.682 38.782 154.682 40.187C154.682 41.5921 155.015 42.8838 155.672 44.0093C156.329 45.1349 157.235 46.0187 158.376 46.6683C159.517 47.318 160.801 47.6428 162.229 47.6428C163.354 47.6428 164.412 47.4313 165.401 47.0083C166.361 46.6004 167.176 46.0187 167.841 45.2557C167.879 45.2104 167.879 45.1424 167.841 45.1047L166.255 43.4881C166.21 43.4428 166.134 43.4428 166.089 43.4881C165.62 44.0018 165.076 44.3946 164.442 44.659C163.77 44.9385 163.029 45.082 162.229 45.082C161.269 45.082 160.416 44.8781 159.675 44.4626C158.935 44.0547 158.361 43.473 157.961 42.7176C157.734 42.2946 157.575 41.8338 157.477 41.3277C157.462 41.2597 157.515 41.1917 157.591 41.1917H168.551C168.604 41.1917 168.65 41.1539 168.665 41.1011C168.718 40.8367 168.748 40.6025 168.77 40.3986C168.793 40.1644 168.801 39.9529 168.801 39.7489C168.801 38.4043 168.514 37.2032 167.939 36.1381L167.932 36.1608ZM166.021 38.9557H157.591C157.523 38.9557 157.47 38.8878 157.485 38.8198C157.583 38.359 157.726 37.9284 157.93 37.5432C158.308 36.818 158.852 36.259 159.555 35.8586C160.257 35.4583 161.065 35.2543 161.987 35.2543C162.909 35.2543 163.619 35.4432 164.246 35.8133C164.865 36.1834 165.348 36.7047 165.688 37.377C165.907 37.8 166.051 38.2834 166.134 38.8273C166.142 38.8953 166.089 38.9557 166.021 38.9557Z" fill="white"/>
<path d="M179.557 39.8622C178.976 39.545 178.364 39.2881 177.722 39.0917C177.08 38.9029 176.46 38.714 175.871 38.5327C175.282 38.3514 174.806 38.1324 174.443 37.868C174.081 37.6112 173.9 37.2335 173.9 36.7576C173.9 36.2817 174.104 35.904 174.519 35.632C174.927 35.3601 175.524 35.2241 176.309 35.2241C177.05 35.2241 177.714 35.3676 178.311 35.6471C178.863 35.9115 179.338 36.2817 179.724 36.7576C179.769 36.8104 179.845 36.8104 179.89 36.7576L181.476 35.1712C181.514 35.1335 181.522 35.073 181.484 35.0277C180.932 34.2874 180.23 33.7209 179.391 33.3432C178.523 32.9504 177.518 32.754 176.4 32.754C175.335 32.754 174.428 32.9277 173.681 33.2676C172.925 33.6076 172.343 34.091 171.92 34.7255C171.497 35.3601 171.286 36.1079 171.286 36.9691C171.286 37.8302 171.475 38.5252 171.845 39.0464C172.215 39.5676 172.691 39.9755 173.273 40.2777C173.854 40.5799 174.474 40.8216 175.123 41.018C175.773 41.2068 176.392 41.3957 176.974 41.5921C177.556 41.7809 178.032 42.0227 178.402 42.3173C178.772 42.6119 178.961 43.0122 178.961 43.5335C178.961 44.0547 178.727 44.4626 178.266 44.7496C177.805 45.0442 177.155 45.1878 176.309 45.1878C175.463 45.1878 174.708 45.0291 174.02 44.7194C173.371 44.4248 172.797 43.9791 172.291 43.3824C172.245 43.3295 172.17 43.3295 172.124 43.3748L170.538 44.9612C170.5 44.9989 170.493 45.0669 170.538 45.1122C170.961 45.6183 171.467 46.0565 172.034 46.4342C172.638 46.827 173.295 47.1291 174.005 47.3331C174.715 47.5446 175.471 47.6504 176.279 47.6504C177.881 47.6504 179.165 47.2576 180.116 46.4795C181.068 45.6939 181.544 44.6363 181.544 43.2917C181.544 42.4079 181.355 41.6978 180.985 41.154C180.615 40.6101 180.139 40.1795 179.557 39.8622Z" fill="white"/>
<path d="M138.184 41.3957C138.184 42.1209 138.026 42.7554 137.701 43.3219C137.384 43.8809 136.938 44.3266 136.379 44.6439C135.82 44.9611 135.178 45.1273 134.453 45.1273C133.373 45.1273 132.489 44.7798 131.809 44.0773C131.129 43.3748 130.789 42.4834 130.789 41.4032V33.1845C130.789 33.1241 130.736 33.0712 130.676 33.0712H128.191C128.13 33.0712 128.077 33.1241 128.077 33.1845V41.9471C128.077 42.9291 128.319 43.8583 128.802 44.727C129.286 45.5957 129.943 46.3057 130.774 46.8496C131.605 47.3935 132.564 47.6579 133.645 47.6579C134.725 47.6579 135.699 47.4086 136.56 46.9176C137.112 46.6003 137.588 46.2151 137.988 45.7543C138.056 45.6788 138.184 45.7241 138.184 45.8298V47.25C138.184 47.3104 138.237 47.3633 138.298 47.3633H140.783C140.843 47.3633 140.896 47.3104 140.896 47.25V33.1921C140.896 33.1316 140.843 33.0788 140.783 33.0788H138.298C138.237 33.0788 138.184 33.1316 138.184 33.1921V41.4108V41.3957Z" fill="white"/>
<path d="M81.6885 26.8468L75.4338 41.1766C75.396 41.2748 75.2601 41.2748 75.2223 41.1766L69.0205 26.8468C69.0054 26.8015 68.9601 26.7788 68.9147 26.7788H66.0896C66.0065 26.7788 65.9536 26.8619 65.9838 26.9299L74.2554 47.5748C74.2705 47.6202 74.3158 47.6428 74.3611 47.6428H76.2572C76.3025 47.6428 76.3403 47.6126 76.3629 47.5748L84.695 26.9299C84.7252 26.8543 84.6723 26.7788 84.5892 26.7788H81.7942C81.7489 26.7788 81.7036 26.809 81.6885 26.8468Z" fill="white"/>
<path d="M151.646 36.7122L153.081 35.4658C153.126 35.4281 153.134 35.3676 153.104 35.3147C152.824 34.9068 152.076 33.9399 150.701 33.464C149.357 32.9957 148.201 33.2676 147.786 33.3885C147.68 33.4338 147.566 33.4791 147.446 33.5396C147.34 33.5924 147.234 33.6453 147.128 33.6982C147.06 33.7737 146.932 33.7284 146.932 33.6227V33.3281C146.932 33.2676 146.879 33.2148 146.819 33.2148H144.333C144.273 33.2148 144.22 33.2676 144.22 33.3281V47.386C144.22 47.4464 144.273 47.4993 144.333 47.4993H146.819C146.879 47.4993 146.932 47.4464 146.932 47.386V39.1673C146.924 39.0011 146.856 37.6791 147.521 36.9086C147.725 36.6745 147.982 36.4932 147.982 36.4932C148.39 36.191 148.752 36.0928 148.979 36.0475C149.727 35.904 150.361 36.1683 150.845 36.3723C151.124 36.4856 151.351 36.614 151.517 36.7122C151.563 36.7349 151.615 36.7349 151.646 36.7047V36.7122Z" fill="white"/>
</svg>
