<svg width="147" height="35" viewBox="0 0 147 35" fill="none" xmlns="http://www.w3.org/2000/svg">
<path d="M5.86033 17.9372C5.86033 20.128 6.13374 22.1642 6.68416 24.0421C7.23098 25.92 8.01523 27.5389 9.03332 28.9023C10.0514 30.2658 11.2638 31.3306 12.674 32.0969C14.0842 32.8632 15.6491 33.2481 17.3687 33.2481C18.5595 33.2481 19.6927 33.0682 20.7719 32.7085C21.8512 32.3487 22.8297 31.8343 23.7075 31.1579C24.5853 30.4852 25.312 29.6722 25.8912 28.7152C26.4704 27.7619 26.8373 26.7042 26.9956 25.5459H28.0749V31.3666C27.3554 31.9314 26.4848 32.4387 25.4703 32.8919C24.4522 33.3452 23.3729 33.723 22.2289 34.0179C21.0849 34.3165 19.9337 34.5396 18.7789 34.6979C17.6205 34.8526 16.5413 34.9317 15.5412 34.9317C13.2568 34.9317 11.1558 34.5252 9.24917 33.7122C7.3389 32.8991 5.69485 31.7479 4.31701 30.2622C2.93917 28.7764 1.87431 26.9848 1.12603 24.8875C0.374155 22.7902 1.52588e-05 20.4734 1.52588e-05 17.9372C1.52588e-05 15.4009 0.374155 13.0841 1.12603 10.9868C1.87791 8.88946 2.93917 7.09791 4.31701 5.61214C5.69485 4.12638 7.3389 2.97518 9.24917 2.16215C11.1594 1.34911 13.2568 0.942596 15.5412 0.942596C16.5413 0.942596 17.6205 1.02174 18.7789 1.17643C19.9373 1.33472 21.0885 1.56137 22.2289 1.85636C23.3729 2.15495 24.4522 2.52909 25.4703 2.98238C26.4884 3.43566 27.3554 3.9465 28.0749 4.50771V10.3321H26.9956C26.8373 9.17366 26.4704 8.116 25.8912 7.16266C25.312 6.20933 24.5853 5.39629 23.7075 4.71996C22.8297 4.04723 21.8548 3.52919 20.7719 3.16945C19.6927 2.8097 18.5559 2.62982 17.3687 2.62982C15.6455 2.62982 14.0806 3.01475 12.674 3.78102C11.2638 4.54729 10.0514 5.61214 9.03332 6.97559C8.01523 8.33904 7.23457 9.95792 6.68416 11.8358C6.13734 13.7137 5.86033 15.7499 5.86033 17.9408V17.9372Z" fill="white"/>
<path d="M29.7657 27.0496C29.7657 25.1717 30.2406 23.6463 31.1975 22.47C32.1508 21.2972 33.3488 20.3726 34.7914 19.6999C36.2304 19.0272 37.7953 18.5487 39.4861 18.2681C41.1769 17.9875 42.7742 17.8292 44.2744 17.8004C44.242 17.0485 44.1629 16.2427 44.0405 15.3829C43.9146 14.5231 43.7024 13.7173 43.4074 12.9654C43.1088 12.2135 42.6879 11.5983 42.1411 11.1091C41.5942 10.6234 40.8819 10.3824 40.0042 10.3824C39.2847 10.3824 38.6659 10.5551 38.1514 10.8968C37.6334 11.2422 37.2125 11.6883 36.8851 12.2351C36.5542 12.7855 36.3131 13.4079 36.1584 14.113C36.0001 14.8181 35.9246 15.5304 35.9246 16.2499C35.7375 16.2499 35.3382 16.2571 34.7266 16.2751C34.1151 16.2931 33.4963 16.2427 32.8703 16.1348C32.2444 16.0233 31.6796 15.829 31.1795 15.5484C30.6794 15.2678 30.4276 14.8433 30.4276 14.2821C30.4276 13.782 30.6543 13.2244 31.1075 12.6164C31.5608 12.0049 32.2048 11.4257 33.0322 10.8788C33.8632 10.332 34.8561 9.87874 36.0145 9.51539C37.1729 9.15564 38.4716 8.97577 39.9106 8.97577C42.1339 8.97577 43.9002 9.34271 45.2169 10.0802C46.5336 10.8141 47.5409 11.7386 48.246 12.8503C48.9511 13.9619 49.4116 15.1527 49.631 16.419C49.8505 17.6853 49.9584 18.8545 49.9584 19.9157V29.262C49.9584 30.0427 50.0376 30.6866 50.1922 31.1867C50.3469 31.6867 50.5448 32.0789 50.7786 32.3595C51.0125 32.6401 51.2859 32.8379 51.6025 32.9459C51.9155 33.0574 52.2284 33.1113 52.5414 33.1113V34.5216H47.3754C46.7495 34.5216 46.1774 34.4136 45.663 34.1942C45.145 33.9748 44.7636 33.5826 44.5118 33.0214C43.7599 33.6474 42.8749 34.1258 41.8605 34.4532C40.8424 34.7806 39.7056 34.9461 38.4572 34.9461C37.1441 34.9461 35.9534 34.759 34.8885 34.3813C33.8237 34.0071 32.9171 33.4747 32.1652 32.784C31.4133 32.0969 30.8269 31.2658 30.4024 30.2945C29.9815 29.3232 29.7693 28.2439 29.7693 27.0568L29.7657 27.0496ZM44.3211 19.2538C43.3498 19.3473 42.3389 19.5992 41.2921 20.0057C40.2452 20.4122 39.2811 20.9626 38.4033 21.6497C37.5255 22.3405 36.806 23.1463 36.2412 24.0673C35.6764 24.9918 35.3958 26.0495 35.3958 27.2366C35.3958 28.8339 35.9138 30.1182 36.9463 31.086C37.9788 32.0573 39.371 32.5429 41.1266 32.5429C42.285 32.5429 43.3498 32.2767 44.3211 31.7443V19.2538Z" fill="white"/>
<path d="M61.9812 24.56C61.9812 27.6898 62.1934 29.8987 62.6143 31.1794C63.0388 32.4637 63.654 33.1041 64.4706 33.1041V34.5143H53.858V33.1041C54.6711 33.1041 55.2898 32.4637 55.7107 31.1794C56.1352 29.8951 56.3439 27.6898 56.3439 24.56V5.44653C56.3439 4.66588 56.2648 4.02912 56.1101 3.54346C55.9518 3.0578 55.7575 2.67286 55.5237 2.39226C55.2898 2.11166 55.0164 1.91739 54.7034 1.80587C54.3905 1.69794 54.0775 1.64038 53.7645 1.64038V0.233765H61.9812V24.56Z" fill="white"/>
<path d="M74.3279 24.56C74.3279 27.6898 74.5401 29.8987 74.961 31.1794C75.3855 32.4637 76.0007 33.1041 76.8173 33.1041V34.5143H66.2047V33.1041C67.0177 33.1041 67.6365 32.4637 68.0574 31.1794C68.4819 29.8951 68.6906 27.6898 68.6906 24.56V5.44653C68.6906 4.66588 68.6114 4.02912 68.4567 3.54346C68.2985 3.0578 68.1042 2.67286 67.8703 2.39226C67.6365 2.11166 67.3631 1.91739 67.0501 1.80587C66.7371 1.69794 66.4242 1.64038 66.1112 1.64038V0.233765H74.3279V24.56Z" fill="white"/>
<path d="M81.0911 14.6058C81.0911 13.8252 81.0119 13.1884 80.8572 12.7063C80.699 12.2207 80.5047 11.8358 80.2708 11.5551C80.037 11.2745 79.7636 11.0767 79.4506 10.9688C79.1376 10.8608 78.8247 10.8033 78.5117 10.8033V9.39305H86.7284V24.5601C86.7284 27.6899 86.9406 29.8988 87.3615 31.1795C87.786 32.4638 88.4012 33.1041 89.2178 33.1041V34.5143H78.6052V33.1041C79.4182 33.1041 80.037 32.4638 80.4579 31.1795C80.8824 29.8952 81.0911 27.6899 81.0911 24.5601V14.6022V14.6058ZM80.386 3.47518C80.386 2.4427 80.7061 1.60448 81.3501 0.964128C81.9904 0.323774 82.8467 0 83.9079 0C84.9692 0 85.8182 0.320177 86.4441 0.964128C87.0701 1.60448 87.3831 2.4427 87.3831 3.47518C87.3831 4.50766 87.0701 5.39264 86.4441 6.033C85.8182 6.67695 84.9728 6.99712 83.9079 6.99712C82.8431 6.99712 81.9904 6.67695 81.3501 6.033C80.7097 5.39264 80.386 4.54004 80.386 3.47518Z" fill="white"/>
<path d="M89.9193 26.8157H91.3296C91.4843 27.4417 91.7577 28.1468 92.1498 28.9274C92.5419 29.7117 93.042 30.4384 93.6535 31.1111C94.2651 31.7838 94.9846 32.3558 95.812 32.8271C96.6431 33.2948 97.5892 33.5322 98.6541 33.5322C99.8448 33.5322 100.784 33.2444 101.471 32.6616C102.158 32.0824 102.503 31.3881 102.503 30.5715C102.503 29.4131 102.19 28.4346 101.564 27.6359C100.938 26.8373 100.161 26.1322 99.2404 25.5242C98.3159 24.9126 97.3086 24.3262 96.2114 23.7614C95.1141 23.1966 94.1068 22.5635 93.1823 21.8584C92.2577 21.1532 91.4843 20.3258 90.8583 19.3689C90.2323 18.4156 89.9193 17.232 89.9193 15.8218C89.9193 14.5375 90.1712 13.4582 90.6712 12.584C91.1713 11.7098 91.8296 11.0047 92.6426 10.4723C93.4557 9.93986 94.3622 9.55493 95.3659 9.32109C96.366 9.08725 97.3697 8.96854 98.3698 8.96854C100.093 8.96854 101.579 9.26713 102.831 9.86071C104.083 10.4579 105.148 11.3177 106.025 12.4437L106.072 16.624H104.662C104.504 15.998 104.309 15.3181 104.075 14.5806C103.842 13.8467 103.511 13.1632 103.09 12.5372C102.669 11.9113 102.111 11.3932 101.424 10.9867C100.733 10.5802 99.8736 10.3752 98.8411 10.3752C98.0892 10.3752 97.4633 10.4867 96.9632 10.7025C96.4632 10.922 96.0711 11.2026 95.7905 11.5479C95.5098 11.8933 95.3048 12.2746 95.1789 12.6991C95.053 13.12 94.9918 13.523 94.9918 13.8971C94.9918 14.8037 95.2976 15.5879 95.9056 16.2463C96.5171 16.9046 97.2762 17.5234 98.1828 18.099C99.0894 18.6782 100.068 19.2502 101.118 19.815C102.165 20.3798 103.144 21.0129 104.054 21.7145C104.96 22.4196 105.723 23.2326 106.331 24.1572C106.943 25.0817 107.248 26.1861 107.248 27.4668C107.248 28.7476 107.007 29.9167 106.522 30.8701C106.036 31.827 105.396 32.6005 104.597 33.1941C103.798 33.7876 102.899 34.2265 101.895 34.5071C100.892 34.7877 99.8592 34.928 98.798 34.928C97.2007 34.928 95.6286 34.6295 94.078 34.0359C92.5275 33.4423 91.3152 32.5789 90.4374 31.4529L89.9193 26.8049V26.8157Z" fill="white"/>
<path d="M109.878 11.271H107.482V9.86079C108.328 9.86079 109.148 9.64134 109.947 9.20245C110.745 8.76356 111.45 8.21674 112.058 7.55839C112.67 6.90005 113.163 6.17336 113.537 5.37472C113.911 4.57607 114.102 3.817 114.102 3.0975H115.512V9.38952H120.16V11.2674H115.512V28.7836C115.512 29.1613 115.544 29.5427 115.605 29.9348C115.667 30.3269 115.785 30.6867 115.958 31.014C116.131 31.3414 116.379 31.6184 116.71 31.8379C117.041 32.0573 117.469 32.1652 118.001 32.1652C118.595 32.1652 119.135 31.899 119.624 31.3666C120.11 30.8342 120.491 29.9744 120.775 28.7836L122.138 29.1613C122.045 29.629 121.879 30.201 121.646 30.8737C121.412 31.5465 121.066 32.1796 120.613 32.7768C120.16 33.3704 119.563 33.8884 118.829 34.3273C118.095 34.7662 117.178 34.9857 116.08 34.9857C115.203 34.9857 114.389 34.8058 113.638 34.4461C112.886 34.0863 112.227 33.5467 111.666 32.8272C111.101 32.1077 110.662 31.1831 110.353 30.0571C110.04 28.9311 109.885 27.6144 109.885 26.1143V11.271H109.878Z" fill="white"/>
<path d="M121.243 21.9303C121.243 19.8653 121.57 18.0306 122.228 16.4369C122.887 14.8396 123.786 13.487 124.93 12.3754C126.074 11.2637 127.42 10.4183 128.967 9.83913C130.517 9.25994 132.168 8.97214 133.92 8.97214C135.672 8.97214 137.316 9.26353 138.852 9.83913C140.385 10.4183 141.734 11.2637 142.892 12.3754C144.051 13.487 144.957 14.8396 145.616 16.4369C146.274 18.0342 146.601 19.8653 146.601 21.9303C146.601 23.9953 146.271 25.8372 145.616 27.4489C144.957 29.0605 144.051 30.424 142.892 31.5356C141.734 32.6472 140.389 33.4927 138.852 34.0718C137.32 34.651 135.676 34.9388 133.92 34.9388C132.165 34.9388 130.517 34.6474 128.967 34.0718C127.416 33.4927 126.071 32.6472 124.93 31.5356C123.786 30.424 122.887 29.0605 122.228 27.4489C121.57 25.8372 121.243 23.9989 121.243 21.9303ZM127.11 21.9303C127.11 23.3693 127.258 24.7867 127.556 26.1789C127.855 27.5712 128.29 28.8087 128.869 29.888C129.449 30.9672 130.161 31.845 131.006 32.5177C131.852 33.1905 132.819 33.5286 133.917 33.5286C135.014 33.5286 135.974 33.1941 136.806 32.5177C137.633 31.845 138.345 30.9672 138.942 29.888C139.536 28.8087 139.982 27.5712 140.281 26.1789C140.579 24.7867 140.727 23.3693 140.727 21.9303C140.727 20.3654 140.579 18.8868 140.281 17.491C139.982 16.0988 139.536 14.8756 138.942 13.8288C138.349 12.7819 137.637 11.9437 136.806 11.3177C135.974 10.6917 135.014 10.3788 133.917 10.3788C132.819 10.3788 131.852 10.6917 131.006 11.3177C130.161 11.9437 129.449 12.7819 128.869 13.8288C128.29 14.8756 127.851 16.0988 127.556 17.491C127.258 18.8832 127.11 20.3618 127.11 21.9303Z" fill="white"/>
</svg>
