<svg width="293" height="58" viewBox="0 0 293 58" fill="none" xmlns="http://www.w3.org/2000/svg">
<path d="M63.3989 7.04369C55.0571 2.39199 45.2188 3.05176e-05 35.4827 3.05176e-05C25.9149 3.05176e-05 16.4312 2.30785 8.53409 7.0497L8.26965 7.21197V7.5305L8.25162 20.9988C8.27566 29.4728 11.2145 36.7809 15.6679 42.7007C20.9927 49.7745 28.4871 54.8709 35.7652 57.6174H36.1258C42.9711 55.2375 50.5437 49.9067 56.0067 42.7909C60.6103 36.805 63.7235 29.545 63.6814 21.72L63.6934 7.53651V7.20596L63.411 7.0497L63.3989 7.04369ZM61.62 22.1347C61.7162 38.049 47.9113 51.4152 36.1739 55.5019C23.7212 50.8022 10.3371 38.7822 10.289 21.4556L10.307 8.73249C25.1997 -0.210318 46.1624 0.114219 61.632 8.73249L61.62 22.1287V22.1347Z" fill="white"/>
<path fill-rule="evenodd" clip-rule="evenodd" d="M42.6767 22.0445L42.3041 22.0565C42.2921 20.3377 41.655 19.0696 40.3989 18.2462C39.1729 17.4349 37.6884 17.0262 35.9395 17.0262C34.5452 17.0262 33.3973 17.3447 32.5018 17.9818C31.5943 18.6188 31.1376 19.3761 31.1376 20.2656C31.1376 21.2091 31.4982 21.9544 32.2074 22.4953C32.9526 23.0842 34.425 23.7874 36.6126 24.6048C38.65 25.356 40.0804 25.963 40.8977 26.4438C41.7692 26.9546 42.4243 27.7179 42.9952 28.6795C43.5842 29.6651 43.6984 30.801 43.6022 32.009C43.482 33.8781 42.232 35.044 40.9639 36.0958C42.25 34.1065 42.5625 32.6461 41.9735 30.4825C41.673 29.5509 40.7956 28.5894 40.0143 28.0424C39.209 27.4294 37.8387 26.8284 36.0597 26.1433C33.3432 25.1877 31.6184 24.4184 30.795 23.7393C29.9656 23.0542 29.5269 21.9964 29.5269 20.536C29.5269 18.8472 30.164 17.525 31.4321 16.5634C32.7002 15.6319 34.4911 15.1691 36.823 15.1691C38.4096 15.1691 40.3809 15.4877 42.6707 16.0766V22.0445H42.6767Z" fill="white"/>
<path fill-rule="evenodd" clip-rule="evenodd" d="M28.8778 30.0317H29.3166C29.4127 31.9249 30.1279 33.4815 31.4501 34.7075C32.7482 35.9155 34.2387 36.5225 35.9155 36.5225C37.2136 36.5225 38.2654 36.1318 39.0767 35.3505C39.8881 34.5632 40.2967 33.6257 40.2967 32.5379C40.2967 31.39 39.9001 30.4885 39.1188 29.8514C38.3615 29.2324 36.8651 28.4631 34.6293 27.6758C32.8444 27.0448 31.6604 26.4198 30.8972 26.0051C30.0137 25.5243 29.3346 24.8091 28.8297 23.9857C27.5977 21.8462 28.7276 19.31 30.0197 17.8135C29.3105 19.0996 29.0221 20.8365 29.5149 22.309C29.8034 23.2826 30.5967 24.0759 31.4922 24.5266C32.2674 24.9714 33.5355 25.5303 35.3325 26.1613C37.6884 26.9907 39.3652 27.778 40.4109 28.7096C41.4206 29.611 41.9675 30.801 41.9675 32.3215C41.9675 33.842 41.4446 35.1642 40.3989 36.3722C39.3351 37.5983 37.7545 38.2113 35.645 38.2113C34.7916 38.2113 33.6077 38.049 32.0871 37.7064C30.7589 37.406 29.5449 37.2196 28.8778 37.2016V30.0377V30.0317Z" fill="white"/>
<path fill-rule="evenodd" clip-rule="evenodd" d="M12.7591 51.6856V44.4136H0.108179L4.00864 48.0496L0 51.5474L12.7591 51.6856Z" fill="white"/>
<path fill-rule="evenodd" clip-rule="evenodd" d="M6.36453 48.3861H8.42595L12.7591 51.6856L6.36453 48.3861Z" fill="white"/>
<path fill-rule="evenodd" clip-rule="evenodd" d="M57.1426 51.6856V44.4136H69.7936L65.8931 48.0496L69.9017 51.5474L57.1426 51.6856Z" fill="white"/>
<path fill-rule="evenodd" clip-rule="evenodd" d="M63.5372 48.3861H61.4758L57.1426 51.6856L63.5372 48.3861Z" fill="white"/>
<path fill-rule="evenodd" clip-rule="evenodd" d="M6.4126 41.3184C15.9384 41.5708 25.4702 42.286 35.0019 42.286C44.5337 42.286 54.0715 41.5708 63.6033 41.3184V48.5905C54.0715 48.8789 44.5337 49.7023 35.0019 49.6963C25.4641 49.6963 15.9384 48.8729 6.4126 48.5905V41.3184Z" fill="white"/>
<path d="M51.914 47.0399L51.7938 43.482C51.7938 43.4219 51.7758 43.3738 51.7457 43.3438C51.7157 43.3138 51.6676 43.2897 51.5895 43.2717V43.1755L52.8696 43.1274V43.2236C52.8035 43.2476 52.7494 43.2717 52.7253 43.3077C52.7013 43.3438 52.6833 43.3919 52.6893 43.452L52.8095 47.0099C52.8095 47.076 52.8275 47.1241 52.8576 47.1541C52.8876 47.1902 52.9357 47.2142 53.0078 47.2262V47.3224L51.7277 47.3705V47.2743C51.7938 47.2503 51.8419 47.2202 51.8719 47.1902C51.896 47.1541 51.908 47.106 51.908 47.0459M47.6529 45.1167L49.0352 45.0687C49.2396 45.0626 49.3838 45.0506 49.4679 45.0326C49.5521 45.0206 49.6302 44.9905 49.6963 44.9485C49.8466 44.8583 49.9187 44.702 49.9067 44.4857C49.9007 44.2633 49.8165 44.1191 49.6603 44.041C49.5881 44.0049 49.51 43.9809 49.4259 43.9688C49.3417 43.9628 49.1975 43.9628 48.9932 43.9688L47.6109 44.0169L47.6469 45.1167H47.6529ZM47.671 45.8079L47.719 47.2022C47.719 47.2623 47.7371 47.3104 47.7671 47.3464C47.7972 47.3825 47.8453 47.4065 47.9174 47.4185V47.5147L46.6373 47.5628V47.4666C46.7034 47.4426 46.7514 47.4125 46.7815 47.3825C46.8055 47.3464 46.8176 47.2983 46.8176 47.2382L46.6974 43.6804C46.6974 43.6142 46.6793 43.5662 46.6493 43.5361C46.6192 43.5061 46.5711 43.482 46.493 43.464V43.3678L49.0533 43.2777C49.3658 43.2657 49.6182 43.2777 49.7985 43.3077C49.9848 43.3378 50.1471 43.3979 50.2853 43.482C50.4476 43.5842 50.5678 43.7224 50.6579 43.9027C50.736 44.077 50.7781 44.2633 50.7901 44.4617C50.8142 45.1468 50.4536 45.5615 49.7144 45.7057L50.5497 46.8356C50.694 47.0339 50.8022 47.1601 50.8683 47.2202C50.9344 47.2743 51.0185 47.3044 51.1087 47.3104V47.4065L49.6242 47.4606V47.3645C49.7204 47.3464 49.7744 47.3044 49.7684 47.2503C49.7684 47.2142 49.7143 47.1241 49.6182 46.9858L48.7467 45.7778L47.6529 45.8199L47.671 45.8079ZM42.4483 47.0459L43.5722 47.0279C43.9328 47.0219 44.1972 46.9678 44.3775 46.8596C44.7621 46.6373 44.9485 46.2166 44.9364 45.5915C44.9304 45.1408 44.8162 44.7982 44.6059 44.5578C44.4857 44.4256 44.3475 44.3354 44.1792 44.2814C44.0109 44.2273 43.7945 44.2032 43.5241 44.2092L42.4002 44.2273L42.4483 47.0459ZM41.5588 47.4306L41.4987 43.8727C41.4987 43.8066 41.4807 43.7585 41.4567 43.7284C41.4266 43.6984 41.3785 43.6743 41.3064 43.6503V43.5541L43.5902 43.5121C44.095 43.5061 44.4797 43.5541 44.7501 43.6683C45.1348 43.8306 45.4293 44.1071 45.6156 44.4977C45.7658 44.8042 45.8439 45.1588 45.856 45.5735C45.868 46.3007 45.6576 46.8536 45.2309 47.2443C45.0506 47.4065 44.8403 47.5267 44.5999 47.5988C44.3535 47.671 44.047 47.713 43.6683 47.719L41.3785 47.7611V47.665C41.4507 47.6409 41.4987 47.6169 41.5288 47.5808C41.5588 47.5448 41.5709 47.4967 41.5709 47.4366L41.5588 47.4306ZM38.9986 46.1805L38.3315 44.684L37.6524 46.1805H38.9926H38.9986ZM39.257 46.7575H37.3939L37.1175 47.3524C37.0814 47.4366 37.0574 47.4967 37.0574 47.5448C37.0574 47.6349 37.1235 47.701 37.2617 47.7311V47.8272H35.9035V47.7311C35.9816 47.713 36.0477 47.689 36.0898 47.6469C36.1319 47.6049 36.1799 47.5267 36.234 47.4065L37.7425 44.1792C37.7906 44.077 37.8146 43.9929 37.8146 43.9328C37.8146 43.8366 37.7545 43.7705 37.6404 43.7284V43.6323H39.0948V43.7284C38.9746 43.7645 38.9145 43.8246 38.9145 43.9087C38.9145 43.9688 38.9325 44.0349 38.9746 44.1131L40.5372 47.3524C40.6033 47.4907 40.6634 47.5808 40.7114 47.6349C40.7595 47.683 40.8256 47.719 40.9098 47.7371V47.8332H39.4013V47.7371C39.5335 47.713 39.5996 47.6529 39.5996 47.5448C39.5996 47.5027 39.5816 47.4366 39.5395 47.3524L39.257 46.7575ZM34.5452 46.0663V47.5027C34.5452 47.5688 34.5572 47.6169 34.5873 47.6469C34.6173 47.677 34.6654 47.707 34.7375 47.7251V47.8212H33.4454V47.7251C33.5175 47.707 33.5656 47.677 33.5957 47.6469C33.6257 47.6169 33.6437 47.5628 33.6437 47.5027V46.0663L32.3155 44.1551C32.2013 43.9929 32.1112 43.8787 32.0451 43.8246C31.979 43.7705 31.9009 43.7344 31.8107 43.7224V43.6263H33.4334V43.7224C33.3012 43.7465 33.2291 43.8066 33.2291 43.9147C33.2291 43.9508 33.2711 44.0349 33.3553 44.1551L34.0945 45.285L34.8577 44.1551C34.9419 44.0349 34.984 43.9508 34.984 43.9087C34.984 43.8607 34.9659 43.8186 34.9299 43.7885C34.8938 43.7525 34.8457 43.7344 34.7796 43.7224V43.6263H36.3662V43.7224C36.2761 43.7344 36.198 43.7705 36.1319 43.8246C36.0657 43.8787 35.9756 43.9929 35.8614 44.1551L34.5332 46.0663H34.5452ZM30.3623 45.9341L28.0004 45.892L27.9764 47.4065C27.9764 47.4666 27.9884 47.5147 28.0184 47.5508C28.0485 47.5868 28.0966 47.6109 28.1687 47.6349V47.7311L26.8825 47.707V47.6109C26.9547 47.5928 27.0088 47.5688 27.0388 47.5327C27.0689 47.5027 27.0809 47.4546 27.0809 47.3885L27.141 43.8246C27.141 43.7645 27.1289 43.7164 27.0989 43.6804C27.0688 43.6443 27.0208 43.6203 26.9487 43.5962V43.5001L28.2348 43.5241V43.6203C28.1627 43.6383 28.1086 43.6623 28.0785 43.6984C28.0485 43.7344 28.0365 43.7765 28.0365 43.8426L28.0124 45.1949L30.3743 45.2369L30.3984 43.8847C30.3984 43.8246 30.3863 43.7765 30.3563 43.7405C30.3262 43.7044 30.2782 43.6804 30.206 43.6563V43.5602L31.4922 43.5842V43.6804C31.4201 43.6984 31.366 43.7284 31.3359 43.7585C31.3059 43.7885 31.2938 43.8366 31.2938 43.9027L31.2337 47.4666C31.2337 47.5267 31.2458 47.5748 31.2758 47.6109C31.3059 47.6409 31.3539 47.671 31.4261 47.695V47.7912L30.1399 47.7671V47.671C30.2121 47.6529 30.2601 47.6289 30.2902 47.5928C30.3202 47.5568 30.3383 47.5147 30.3383 47.4486L30.3623 45.9341ZM24.6228 45.9762L24.0098 44.4556L23.2826 45.9281L24.6228 45.9762ZM24.8572 46.5591L22.9941 46.493L22.6996 47.076C22.6575 47.1541 22.6395 47.2202 22.6335 47.2683C22.6335 47.3584 22.6936 47.4246 22.8258 47.4606V47.5568L21.4676 47.5087V47.4125C21.5517 47.4005 21.6118 47.3705 21.6599 47.3344C21.702 47.2923 21.7561 47.2142 21.8101 47.1L23.4268 43.9268C23.4809 43.8246 23.5049 43.7465 23.5049 43.6804C23.5049 43.5842 23.4509 43.5181 23.3367 43.47V43.3738L24.7971 43.4279V43.5241C24.6769 43.5541 24.6108 43.6142 24.6108 43.6984C24.6108 43.7585 24.6288 43.8246 24.6649 43.9027L26.1193 47.1962C26.1794 47.3344 26.2335 47.4306 26.2815 47.4847C26.3296 47.5387 26.3957 47.5688 26.4799 47.5928V47.689L24.9714 47.6349V47.5387C25.1096 47.5207 25.1757 47.4606 25.1817 47.3524C25.1817 47.3104 25.1637 47.2443 25.1276 47.1601L24.8632 46.5591H24.8572ZM21.1971 43.5241L20.7223 44.5218L20.6382 44.4737C20.6382 44.4737 20.6382 44.4376 20.6382 44.4256C20.6382 44.3535 20.5781 44.2814 20.4579 44.2032C20.0973 43.9568 19.6766 43.8366 19.1958 43.8426C18.9855 43.8426 18.7992 43.8727 18.6369 43.9328C18.5227 43.9748 18.4265 44.041 18.3544 44.1251C18.2823 44.2092 18.2462 44.2994 18.2523 44.3955C18.2523 44.5518 18.3484 44.66 18.5347 44.7141C18.6309 44.7381 18.8352 44.7682 19.1537 44.7982L19.6285 44.8403C19.911 44.8643 20.1394 44.9064 20.3137 44.9545C20.488 45.0025 20.6442 45.0747 20.7764 45.1708C20.9147 45.267 21.0228 45.3992 21.107 45.5615C21.1911 45.7237 21.2332 45.898 21.2332 46.0843C21.2332 46.3788 21.149 46.6433 20.9687 46.8777C20.8065 47.088 20.542 47.2503 20.1935 47.3584C19.929 47.4366 19.6466 47.4786 19.3461 47.4847C18.8052 47.4967 18.2643 47.3705 17.7294 47.112C17.6152 47.0579 17.5491 47.0339 17.525 47.0339C17.501 47.0339 17.4589 47.0579 17.4048 47.106L17.3147 47.064L17.7414 46.0242L17.8316 46.0663C17.8316 46.0663 17.8316 46.0964 17.8316 46.1084C17.8316 46.1985 17.8796 46.2827 17.9638 46.3608C18.096 46.475 18.3003 46.5772 18.5708 46.6613C18.8412 46.7394 19.1057 46.7815 19.3461 46.7755C19.6105 46.7755 19.8389 46.7214 20.0252 46.6252C20.1274 46.5711 20.2115 46.505 20.2716 46.4149C20.3317 46.3307 20.3617 46.2406 20.3617 46.1444C20.3617 46.0062 20.2836 45.904 20.1394 45.8499C20.0372 45.8139 19.8269 45.7778 19.5203 45.7478L19.0576 45.7057C18.7451 45.6817 18.5287 45.6516 18.3965 45.6216C18.2703 45.5915 18.1381 45.5495 18.0119 45.4833C17.8316 45.3932 17.6813 45.261 17.5731 45.0747C17.477 44.9124 17.4229 44.7201 17.4229 44.5037C17.4169 44.1491 17.5311 43.8546 17.7654 43.6142C18.072 43.3017 18.5407 43.1395 19.1658 43.1334C19.4302 43.1334 19.6766 43.1515 19.899 43.1996C20.1274 43.2476 20.4098 43.3438 20.7524 43.482C20.8666 43.5301 20.9387 43.5481 20.9687 43.5481C21.0108 43.5481 21.0589 43.5241 21.113 43.476L21.1971 43.5181V43.5241Z" fill="#161616"/>
<path d="M67.1552 2.68643C67.5459 2.68643 67.9305 2.7886 68.3031 2.99294C68.6757 3.19728 68.9642 3.49177 69.1746 3.8764C69.3849 4.26104 69.4871 4.6577 69.4871 5.07238C69.4871 5.48707 69.3849 5.87772 69.1806 6.25634C68.9762 6.63497 68.6878 6.92946 68.3212 7.13981C67.9545 7.35016 67.5639 7.45232 67.1612 7.45232C66.7586 7.45232 66.3739 7.35016 66.0013 7.13981C65.6347 6.92946 65.3462 6.63497 65.1359 6.25634C64.9315 5.87772 64.8294 5.48106 64.8294 5.07238C64.8294 4.66371 64.9315 4.26104 65.1419 3.8764C65.3522 3.49177 65.6407 3.19728 66.0133 2.99294C66.3859 2.7886 66.7646 2.68643 67.1612 2.68643H67.1552ZM67.1552 3.07708C66.8307 3.07708 66.5122 3.16122 66.1996 3.33551C65.8871 3.5098 65.6467 3.75019 65.4724 4.07473C65.2982 4.39927 65.208 4.72381 65.208 5.07238C65.208 5.42096 65.2921 5.7455 65.4664 6.05802C65.6407 6.37053 65.8811 6.61694 66.1876 6.79724C66.4941 6.97153 66.8187 7.06168 67.1552 7.06168C67.4918 7.06168 67.8103 6.97153 68.1228 6.79724C68.4293 6.62295 68.6697 6.37654 68.844 6.05802C69.0183 5.73949 69.1025 5.41495 69.1025 5.07238C69.1025 4.72982 69.0183 4.39326 68.844 4.07473C68.6697 3.7562 68.4293 3.5098 68.1168 3.33551C67.8043 3.16122 67.4858 3.07708 67.1612 3.07708H67.1552ZM66.1335 6.38856V3.82231H66.993C67.2874 3.82231 67.4978 3.84635 67.63 3.89443C67.7622 3.94251 67.8644 4.02665 67.9425 4.14084C68.0207 4.26104 68.0627 4.38124 68.0627 4.51947C68.0627 4.70578 67.9966 4.86804 67.8644 5.01228C67.7322 5.15652 67.5579 5.22864 67.3415 5.24667C67.4317 5.28273 67.5038 5.33081 67.5519 5.3849C67.6541 5.48707 67.7742 5.65535 67.9245 5.89575L68.231 6.40058H67.7382L67.5158 5.99792C67.3415 5.67939 67.1973 5.48106 67.0951 5.40293C67.023 5.34283 66.9148 5.31278 66.7706 5.31278H66.5302V6.40058H66.1275L66.1335 6.38856ZM66.5362 4.94617H67.029C67.2634 4.94617 67.4257 4.91011 67.5098 4.838C67.594 4.76588 67.636 4.66972 67.636 4.55553C67.636 4.4774 67.618 4.41129 67.5759 4.35119C67.5339 4.29109 67.4798 4.24902 67.4016 4.21897C67.3295 4.18892 67.1913 4.1769 66.993 4.1769H66.5302V4.95218L66.5362 4.94617Z" fill="white"/>
<path d="M127.886 14.3277L130.951 14.0212C131.137 15.073 131.51 15.8482 132.075 16.3411C132.64 16.8339 133.397 17.0803 134.359 17.0803C135.374 17.0803 136.137 16.8579 136.648 16.4192C137.165 15.9805 137.418 15.4636 137.418 14.8746C137.418 14.496 137.309 14.1775 137.093 13.913C136.877 13.6486 136.498 13.4142 135.957 13.2219C135.591 13.0897 134.749 12.8613 133.433 12.5247C131.744 12.098 130.56 11.5692 129.881 10.9441C128.926 10.0667 128.445 8.99089 128.445 7.7288C128.445 6.91745 128.667 6.15419 129.118 5.44501C129.569 4.73584 130.218 4.19494 131.065 3.82834C131.912 3.45572 132.934 3.27542 134.136 3.27542C136.095 3.27542 137.568 3.71415 138.559 4.5916C139.551 5.46905 140.068 6.647 140.116 8.11343L136.967 8.25767C136.835 7.43431 136.54 6.84533 136.101 6.48474C135.657 6.12414 134.996 5.94384 134.106 5.94384C133.217 5.94384 132.477 6.13616 131.955 6.5208C131.624 6.7672 131.456 7.09775 131.456 7.51244C131.456 7.89106 131.612 8.2156 131.924 8.48004C132.321 8.82261 133.289 9.17719 134.821 9.54981C136.354 9.92243 137.484 10.3011 138.223 10.6977C138.962 11.0944 139.533 11.6353 139.948 12.3204C140.362 13.0055 140.573 13.8529 140.573 14.8626C140.573 15.7761 140.326 16.6355 139.828 17.4349C139.329 18.2342 138.632 18.8292 137.718 19.2138C136.805 19.5984 135.681 19.7968 134.322 19.7968C132.351 19.7968 130.837 19.328 129.779 18.3965C128.721 17.4649 128.09 16.1007 127.886 14.3157V14.3277Z" fill="white"/>
<path d="M157.287 19.5264H153.861L152.497 15.8964H146.264L144.978 19.5264H141.637L147.713 3.55191H151.042L157.287 19.5264ZM151.487 13.2099L149.335 7.28409L147.226 13.2099H151.481H151.487Z" fill="white"/>
<path d="M158.963 19.5264V3.55191H162.113V9.83832H168.285V3.55191H171.434V19.5264H168.285V12.5428H162.113V19.5264H158.963Z" fill="white"/>
<path d="M178.784 19.5264V12.8012L173.069 3.5459H176.759L180.431 9.86837L184.025 3.5459H187.655L181.921 12.8193V19.5204H178.784V19.5264Z" fill="white"/>
<path d="M201.285 19.5264H197.86L196.496 15.8964H190.263L188.977 19.5264H185.636L191.712 3.55191H195.041L201.285 19.5264ZM195.486 13.2099L193.334 7.28409L191.225 13.2099H195.48H195.486Z" fill="white"/>
<path d="M202.944 3.55191H208.702C210 3.55191 210.991 3.65408 211.671 3.85842C212.584 4.13488 213.371 4.62769 214.02 5.33086C214.67 6.03402 215.168 6.89945 215.511 7.92115C215.854 8.94284 216.022 10.1989 216.022 11.6954C216.022 13.0116 215.86 14.1414 215.541 15.097C215.15 16.2569 214.591 17.2005 213.87 17.9217C213.323 18.4686 212.584 18.8893 211.659 19.1958C210.961 19.4182 210.036 19.5324 208.87 19.5324H202.944V3.55191ZM206.093 6.25639V16.8399H208.443C209.321 16.8399 209.958 16.7918 210.348 16.6897C210.859 16.5574 211.28 16.3351 211.623 16.0226C211.959 15.71 212.236 15.1932 212.446 14.478C212.656 13.7628 212.764 12.7892 212.764 11.5512C212.764 10.3131 212.656 9.36954 212.446 8.70845C212.236 8.04735 211.935 7.5305 211.55 7.16389C211.166 6.79127 210.679 6.54487 210.09 6.41265C209.651 6.31048 208.786 6.2624 207.506 6.2624H206.093V6.25639Z" fill="white"/>
<path d="M218.702 19.5264V3.55191H225.331C226.996 3.55191 228.21 3.69615 228.967 3.98463C229.725 4.2731 230.326 4.78395 230.782 5.51716C231.233 6.25038 231.462 7.09177 231.462 8.03533C231.462 9.23132 231.119 10.223 230.428 11.0043C229.737 11.7855 228.709 12.2784 227.345 12.4827C228.024 12.8914 228.589 13.3361 229.034 13.8229C229.478 14.3097 230.073 15.1752 230.824 16.4192L232.73 19.5384H228.961L226.684 16.0646C225.878 14.8206 225.319 14.0393 225.025 13.7147C224.724 13.3902 224.412 13.1678 224.075 13.0476C223.745 12.9274 223.216 12.8673 222.489 12.8673H221.852V19.5384H218.702V19.5264ZM221.852 10.3071H224.183C225.692 10.3071 226.636 10.241 227.014 10.1088C227.393 9.97655 227.687 9.75418 227.898 9.43565C228.108 9.11713 228.216 8.71446 228.216 8.23967C228.216 7.70479 228.078 7.26606 227.795 6.93551C227.513 6.60497 227.122 6.39462 226.611 6.31048C226.353 6.27442 225.59 6.25639 224.316 6.25639H221.858V10.3131L221.852 10.3071Z" fill="white"/>
<path d="M234.334 19.5264V3.55191H237.483V19.5264H234.334Z" fill="white"/>
<path d="M77.6907 29.7854L79.073 30.2361C78.8626 31.0234 78.5081 31.6124 78.0152 31.991C77.5224 32.3756 76.8974 32.568 76.1401 32.568C75.2026 32.568 74.4333 32.2374 73.8323 31.5823C73.2313 30.9272 72.9248 30.0318 72.9248 28.8899C72.9248 27.6879 73.2253 26.7503 73.8323 26.0892C74.4393 25.4281 75.2386 25.0916 76.2243 25.0916C77.0897 25.0916 77.7869 25.35 78.3278 25.8729C78.6463 26.1794 78.8867 26.6241 79.0489 27.2011L77.6366 27.5436C77.5525 27.171 77.3782 26.8705 77.1137 26.6542C76.8493 26.4378 76.5248 26.3296 76.1461 26.3296C75.6233 26.3296 75.1966 26.522 74.872 26.9066C74.5475 27.2912 74.3852 27.9163 74.3852 28.7757C74.3852 29.6892 74.5475 30.3383 74.866 30.7289C75.1845 31.1196 75.6052 31.3119 76.1161 31.3119C76.4947 31.3119 76.8193 31.1857 77.0957 30.9393C77.3662 30.6929 77.5645 30.3022 77.6847 29.7733L77.6907 29.7854Z" fill="white"/>
<path d="M80.0107 28.8718C80.0107 28.1326 80.1189 27.5196 80.3352 27.0208C80.4975 26.6542 80.7138 26.3236 80.9903 26.0291C81.2668 25.7346 81.5733 25.5183 81.9038 25.3801C82.3425 25.1877 82.8534 25.0916 83.4243 25.0916C84.4641 25.0916 85.2934 25.4221 85.9185 26.0832C86.5435 26.7443 86.856 27.6638 86.856 28.8418C86.856 30.0197 86.5435 30.9212 85.9245 31.5823C85.3054 32.2434 84.4761 32.574 83.4424 32.574C82.4086 32.574 81.5612 32.2434 80.9422 31.5883C80.3232 30.9333 80.0107 30.0318 80.0107 28.8779V28.8718ZM81.4771 28.8238C81.4771 29.6411 81.6634 30.2601 82.03 30.6868C82.3966 31.1075 82.8654 31.3179 83.4364 31.3179C84.0073 31.3179 84.4701 31.1075 84.8367 30.6868C85.2033 30.2662 85.3836 29.6411 85.3836 28.7997C85.3836 27.9583 85.2093 27.3513 84.8547 26.9487C84.5001 26.54 84.0313 26.3356 83.4424 26.3356C82.8534 26.3356 82.3786 26.54 82.024 26.9547C81.6634 27.3694 81.4831 27.9884 81.4831 28.8178L81.4771 28.8238Z" fill="white"/>
<path d="M88.0039 32.4417V25.2719H89.4283V31.2217H92.9741V32.4417H88.0039Z" fill="white"/>
<path d="M94.0259 32.4417V25.2719H95.4502V31.2217H98.9961V32.4417H94.0259Z" fill="white"/>
<path d="M100.006 32.4417V25.2118H105.24V26.4318H101.43V28.0364H104.976V29.2565H101.43V31.2217H105.373V32.4417H100.006Z" fill="white"/>
<path d="M109.868 29.7854V28.5653H112.939V31.4441C112.639 31.7386 112.206 32.003 111.641 32.2254C111.076 32.4478 110.499 32.562 109.922 32.562C109.183 32.562 108.54 32.4057 107.993 32.0872C107.446 31.7686 107.031 31.3179 106.755 30.7289C106.479 30.1399 106.34 29.4969 106.34 28.8057C106.34 28.0545 106.497 27.3814 106.803 26.7984C107.11 26.2154 107.56 25.7647 108.155 25.4522C108.606 25.2118 109.171 25.0916 109.844 25.0916C110.722 25.0916 111.407 25.2779 111.9 25.6565C112.392 26.0351 112.711 26.552 112.849 27.2191L111.437 27.4896C111.335 27.135 111.148 26.8525 110.878 26.6482C110.607 26.4438 110.259 26.3417 109.85 26.3417C109.225 26.3417 108.732 26.546 108.366 26.9487C107.999 27.3513 107.813 27.9523 107.813 28.7456C107.813 29.6051 107.999 30.2481 108.372 30.6748C108.744 31.1015 109.231 31.3179 109.832 31.3179C110.133 31.3179 110.427 31.2578 110.728 31.1376C111.028 31.0174 111.287 30.8732 111.503 30.6989V29.7793H109.874L109.868 29.7854Z" fill="white"/>
<path d="M114.249 32.4417V25.2118H119.484V26.4318H115.674V28.0364H119.22V29.2565H115.674V31.2217H119.616V32.4417H114.249Z" fill="white"/>
<path d="M123.276 28.8718C123.276 28.1326 123.385 27.5196 123.601 27.0208C123.763 26.6542 123.98 26.3236 124.256 26.0291C124.532 25.7346 124.839 25.5183 125.17 25.3801C125.608 25.1877 126.119 25.0916 126.69 25.0916C127.73 25.0916 128.559 25.4221 129.184 26.0832C129.809 26.7443 130.122 27.6638 130.122 28.8418C130.122 30.0197 129.809 30.9212 129.19 31.5823C128.571 32.2434 127.742 32.574 126.708 32.574C125.674 32.574 124.827 32.2434 124.208 31.5883C123.589 30.9333 123.276 30.0318 123.276 28.8779V28.8718ZM124.743 28.8238C124.743 29.6411 124.929 30.2601 125.296 30.6868C125.662 31.1075 126.131 31.3179 126.702 31.3179C127.273 31.3179 127.736 31.1075 128.102 30.6868C128.469 30.2662 128.649 29.6411 128.649 28.7997C128.649 27.9583 128.475 27.3513 128.12 26.9487C127.766 26.54 127.297 26.3356 126.708 26.3356C126.119 26.3356 125.644 26.54 125.29 26.9547C124.929 27.3694 124.749 27.9884 124.749 28.8178L124.743 28.8238Z" fill="white"/>
<path d="M131.246 32.4417V25.2118H136.084V26.4318H132.67V28.1446H135.615V29.3646H132.67V32.4357H131.246V32.4417Z" fill="white"/>
<path d="M139.996 32.4417V25.2118H145.231V26.4318H141.42V28.0364H144.96V29.2565H141.42V31.2217H145.363V32.4417H139.996Z" fill="white"/>
<path d="M146.583 32.4417V25.2118H147.971L150.856 30.0378V25.2118H152.178V32.4417H150.748L147.905 27.7299V32.4417H146.583Z" fill="white"/>
<path d="M156.968 29.7854V28.5653H160.039V31.4441C159.739 31.7386 159.306 32.003 158.741 32.2254C158.176 32.4478 157.599 32.562 157.022 32.562C156.283 32.562 155.64 32.4057 155.093 32.0872C154.546 31.7686 154.131 31.3179 153.855 30.7289C153.579 30.1399 153.44 29.4969 153.44 28.8057C153.44 28.0545 153.597 27.3814 153.903 26.7984C154.21 26.2154 154.66 25.7647 155.255 25.4522C155.706 25.2118 156.271 25.0916 156.944 25.0916C157.822 25.0916 158.507 25.2779 159 25.6565C159.492 26.0351 159.811 26.552 159.949 27.2191L158.537 27.4896C158.435 27.135 158.248 26.8525 157.978 26.6482C157.701 26.4438 157.359 26.3417 156.95 26.3417C156.325 26.3417 155.832 26.546 155.466 26.9487C155.099 27.3513 154.913 27.9523 154.913 28.7456C154.913 29.6051 155.099 30.2481 155.472 30.6748C155.844 31.1015 156.331 31.3179 156.932 31.3179C157.233 31.3179 157.527 31.2578 157.828 31.1376C158.128 31.0174 158.386 30.8732 158.603 30.6989V29.7793H156.968V29.7854Z" fill="white"/>
<path d="M161.313 32.4417V25.2118H162.738V32.4417H161.313Z" fill="white"/>
<path d="M164.108 32.4417V25.2118H165.496L168.381 30.0378V25.2118H169.703V32.4417H168.273L165.43 27.7299V32.4417H164.108Z" fill="white"/>
<path d="M171.212 32.4417V25.2118H176.446V26.4318H172.642V28.0364H176.182V29.2565H172.642V31.2217H176.585V32.4417H171.218H171.212Z" fill="white"/>
<path d="M177.793 32.4417V25.2118H183.027V26.4318H179.223V28.0364H182.763V29.2565H179.223V31.2217H183.165V32.4417H177.799H177.793Z" fill="white"/>
<path d="M184.367 32.4417V25.2118H187.366C188.118 25.2118 188.671 25.2779 189.007 25.4041C189.35 25.5363 189.62 25.7647 189.83 26.0952C190.041 26.4258 190.137 26.8044 190.137 27.2371C190.137 27.778 189.981 28.2288 189.668 28.5833C189.356 28.9379 188.893 29.1603 188.274 29.2504C188.58 29.4368 188.839 29.6351 189.037 29.8575C189.236 30.0798 189.506 30.4705 189.849 31.0294L190.708 32.4417H189.001L187.973 30.8671C187.607 30.3022 187.354 29.9536 187.222 29.8034C187.09 29.6591 186.946 29.557 186.795 29.5029C186.645 29.4488 186.405 29.4187 186.08 29.4187H185.792V32.4357H184.367V32.4417ZM185.792 28.2708H186.844C187.529 28.2708 187.955 28.2408 188.124 28.1807C188.292 28.1206 188.424 28.0184 188.526 27.8742C188.628 27.7299 188.671 27.5496 188.671 27.3333C188.671 27.0929 188.604 26.8945 188.478 26.7443C188.352 26.594 188.172 26.4979 187.943 26.4618C187.829 26.4438 187.481 26.4378 186.904 26.4378H185.792V28.2708Z" fill="white"/>
<path d="M191.441 32.4417V25.2118H192.866V32.4417H191.441Z" fill="white"/>
<path d="M194.236 32.4417V25.2118H195.624L198.509 30.0378V25.2118H199.831V32.4417H198.401L195.558 27.7299V32.4417H194.236Z" fill="white"/>
<path d="M204.627 29.7854V28.5653H207.698V31.4441C207.398 31.7386 206.965 32.003 206.4 32.2254C205.835 32.4478 205.258 32.562 204.681 32.562C203.942 32.562 203.299 32.4057 202.752 32.0872C202.205 31.7686 201.79 31.3179 201.514 30.7289C201.237 30.1399 201.099 29.4969 201.099 28.8057C201.099 28.0545 201.255 27.3814 201.562 26.7984C201.868 26.2154 202.319 25.7647 202.914 25.4522C203.365 25.2118 203.93 25.0916 204.603 25.0916C205.48 25.0916 206.166 25.2779 206.658 25.6565C207.151 26.0351 207.47 26.552 207.608 27.2191L206.196 27.4896C206.093 27.135 205.907 26.8525 205.637 26.6482C205.36 26.4438 205.018 26.3417 204.609 26.3417C203.984 26.3417 203.491 26.546 203.125 26.9487C202.758 27.3513 202.572 27.9523 202.572 28.7456C202.572 29.6051 202.758 30.2481 203.131 30.6748C203.503 31.1015 203.99 31.3179 204.591 31.3179C204.891 31.3179 205.186 31.2578 205.486 31.1376C205.787 31.0174 206.045 30.8732 206.262 30.6989V29.7793H204.627V29.7854Z" fill="white"/>
<path d="M217.993 31.5583L217.176 32.6281C216.773 32.4297 216.388 32.1533 216.022 31.7987C215.733 32.0631 215.433 32.2554 215.114 32.3817C214.796 32.5079 214.411 32.568 213.966 32.568C213.089 32.568 212.428 32.3155 211.983 31.8107C211.641 31.4201 211.466 30.9693 211.466 30.4585C211.466 29.9957 211.599 29.581 211.869 29.2084C212.139 28.8358 212.542 28.5173 213.077 28.2468C212.837 27.9523 212.656 27.6759 212.53 27.4114C212.41 27.147 212.35 26.8946 212.35 26.6602C212.35 26.2215 212.518 25.8548 212.861 25.5483C213.203 25.2418 213.69 25.0916 214.321 25.0916C214.952 25.0916 215.409 25.2539 215.751 25.5724C216.094 25.8909 216.268 26.2816 216.268 26.7383C216.268 27.0328 216.184 27.3093 216.016 27.5737C215.848 27.8381 215.505 28.1326 214.988 28.4632L215.968 29.7914C216.082 29.581 216.184 29.3046 216.268 28.968L217.488 29.2565C217.368 29.7012 217.26 30.0258 217.17 30.2301C217.08 30.4344 216.983 30.6087 216.881 30.7469C217.032 30.8912 217.23 31.0474 217.464 31.2217C217.699 31.396 217.879 31.5102 217.993 31.5643V31.5583ZM213.78 29.1363C213.468 29.2985 213.233 29.4909 213.083 29.7192C212.927 29.9476 212.855 30.176 212.855 30.4164C212.855 30.7169 212.951 30.9573 213.143 31.1496C213.335 31.3419 213.588 31.4321 213.912 31.4321C214.123 31.4321 214.327 31.39 214.525 31.3059C214.724 31.2217 214.934 31.0775 215.168 30.8792L213.792 29.1363H213.78ZM214.309 27.6338L214.676 27.3453C214.946 27.129 215.078 26.9186 215.078 26.7083C215.078 26.534 215.012 26.3777 214.886 26.2575C214.754 26.1313 214.579 26.0712 214.357 26.0712C214.135 26.0712 213.972 26.1253 213.852 26.2335C213.732 26.3417 213.672 26.4739 213.672 26.6181C213.672 26.7864 213.774 26.9967 213.978 27.2371L214.309 27.6338Z" fill="white"/>
<path d="M221.587 32.4417V25.2118H223.721L225.001 30.1399L226.269 25.2118H228.408V32.4417H227.086V26.7503L225.686 32.4417H224.316L222.921 26.7503V32.4417H221.599H221.587Z" fill="white"/>
<path d="M236.179 32.4417H234.629L234.016 30.801H231.197L230.614 32.4417H229.105L231.852 25.2118H233.361L236.185 32.4417H236.179ZM233.559 29.581L232.585 26.9006L231.63 29.581H233.553H233.559Z" fill="white"/>
<path d="M236.955 32.4417V25.2118H238.343L241.228 30.0378V25.2118H242.55V32.4417H241.119L238.277 27.7299V32.4417H236.955Z" fill="white"/>
<path d="M250.423 32.4417H248.872L248.259 30.801H245.441L244.858 32.4417H243.349L246.096 25.2118H247.604L250.429 32.4417H250.423ZM247.797 29.581L246.823 26.9006L245.867 29.581H247.791H247.797Z" fill="white"/>
<path d="M254.456 29.7854V28.5653H257.527V31.4441C257.226 31.7386 256.793 32.003 256.228 32.2254C255.664 32.4478 255.087 32.562 254.51 32.562C253.77 32.562 253.127 32.4057 252.58 32.0872C252.034 31.7686 251.619 31.3179 251.342 30.7289C251.066 30.1399 250.928 29.4969 250.928 28.8057C250.928 28.0545 251.084 27.3814 251.39 26.7984C251.697 26.2154 252.148 25.7647 252.743 25.4522C253.193 25.2118 253.758 25.0916 254.431 25.0916C255.309 25.0916 255.994 25.2779 256.487 25.6565C256.98 26.0351 257.298 26.552 257.436 27.2191L256.024 27.4896C255.922 27.135 255.736 26.8525 255.465 26.6482C255.189 26.4438 254.846 26.3417 254.437 26.3417C253.812 26.3417 253.32 26.546 252.953 26.9487C252.586 27.3513 252.4 27.9523 252.4 28.7456C252.4 29.6051 252.586 30.2481 252.959 30.6748C253.332 31.1015 253.818 31.3179 254.419 31.3179C254.72 31.3179 255.014 31.2578 255.315 31.1376C255.615 31.0174 255.874 30.8732 256.09 30.6989V29.7793H254.456V29.7854Z" fill="white"/>
<path d="M258.843 32.4417V25.2118H264.077V26.4318H260.273V28.0364H263.813V29.2565H260.273V31.2217H264.216V32.4417H258.849H258.843Z" fill="white"/>
<path d="M265.4 32.4417V25.2118H267.533L268.813 30.1399L270.081 25.2118H272.221V32.4417H270.899V26.7503L269.498 32.4417H268.128L266.734 26.7503V32.4417H265.412H265.4Z" fill="white"/>
<path d="M273.633 32.4417V25.2118H278.868V26.4318H275.064V28.0364H278.603V29.2565H275.064V31.2217H279.006V32.4417H273.639H273.633Z" fill="white"/>
<path d="M280.22 32.4417V25.2118H281.608L284.493 30.0378V25.2118H285.815V32.4417H284.385L281.542 27.7299V32.4417H280.22Z" fill="white"/>
<path d="M288.911 32.4417V26.4378H286.819V25.2178H292.426V26.4378H290.335V32.4417H288.911Z" fill="white"/>
<path d="M127.627 44.0713H126.107L125.5 42.4546H122.729L122.158 44.0713H120.674L123.378 36.9676H124.857L127.633 44.0713H127.627ZM125.049 41.2587L124.093 38.6203L123.156 41.2587H125.049Z" fill="white"/>
<path d="M132.934 44.071H131.606V41.4446C131.606 40.8917 131.576 40.5311 131.522 40.3689C131.468 40.2066 131.371 40.0804 131.245 39.9902C131.119 39.9001 130.963 39.852 130.782 39.852C130.554 39.852 130.344 39.9181 130.163 40.0443C129.983 40.1705 129.857 40.3448 129.785 40.5552C129.719 40.7655 129.683 41.1622 129.683 41.7391V44.071H128.354V38.9265H129.586V39.6837C130.025 39.1008 130.578 38.8123 131.245 38.8123C131.54 38.8123 131.804 38.8664 132.051 38.9746C132.291 39.0827 132.477 39.221 132.603 39.3892C132.73 39.5575 132.814 39.7498 132.862 39.9602C132.91 40.1705 132.934 40.477 132.934 40.8737V44.071Z" fill="white"/>
<path d="M142.881 44.071H141.354L140.747 42.4543H137.976L137.406 44.071H135.921L138.626 36.9672H140.104L142.881 44.071ZM140.302 41.2583L139.347 38.62L138.409 41.2583H140.302Z" fill="white"/>
<path d="M146.919 44.071V43.3017C146.739 43.5782 146.492 43.7945 146.198 43.9508C145.898 44.1071 145.585 44.1912 145.254 44.1912C144.924 44.1912 144.611 44.1131 144.347 43.9628C144.076 43.8126 143.884 43.5962 143.764 43.3258C143.644 43.0493 143.584 42.6707 143.584 42.1899V38.9325H144.912V41.3004C144.912 42.0216 144.936 42.4663 144.984 42.6286C145.032 42.7909 145.122 42.9231 145.248 43.0193C145.381 43.1154 145.543 43.1635 145.741 43.1635C145.97 43.1635 146.174 43.0974 146.354 42.9712C146.535 42.845 146.655 42.6827 146.721 42.4964C146.787 42.3101 146.823 41.8473 146.823 41.1081V38.9385H148.151V44.083H146.919V44.071Z" fill="white"/>
<path d="M151.835 38.9205V40.0083H150.928V42.0817C150.928 42.5024 150.934 42.7488 150.952 42.8149C150.97 42.887 151.006 42.9411 151.072 42.9892C151.132 43.0373 151.21 43.0553 151.294 43.0553C151.415 43.0553 151.595 43.0132 151.829 42.9231L151.944 43.9809C151.637 44.1191 151.282 44.1852 150.892 44.1852C150.651 44.1852 150.435 44.1431 150.243 44.059C150.05 43.9748 149.912 43.8727 149.822 43.7405C149.732 43.6082 149.672 43.4339 149.636 43.2116C149.606 43.0553 149.594 42.7308 149.594 42.25V40.0083H148.981V38.9205H149.594V37.8988L150.928 37.1055V38.9205H151.835Z" fill="white"/>
<path d="M152.448 41.4206C152.448 40.9699 152.557 40.5311 152.773 40.1044C152.989 39.6777 153.302 39.3592 153.698 39.1368C154.095 38.9145 154.546 38.8003 155.033 38.8003C155.79 38.8003 156.415 39.0527 156.902 39.5575C157.389 40.0624 157.629 40.6994 157.629 41.4747C157.629 42.25 157.383 42.8991 156.896 43.4099C156.403 43.9207 155.79 44.1792 155.045 44.1792C154.582 44.1792 154.143 44.071 153.728 43.8606C153.308 43.6503 152.995 43.3378 152.773 42.9231C152.551 42.5084 152.448 42.0096 152.448 41.4206ZM153.813 41.4987C153.813 42.0096 153.933 42.4002 154.167 42.6707C154.402 42.9411 154.696 43.0793 155.045 43.0793C155.393 43.0793 155.682 42.9411 155.916 42.6707C156.15 42.4002 156.271 42.0036 156.271 41.4867C156.271 40.9699 156.15 40.5972 155.916 40.3208C155.682 40.0503 155.387 39.9121 155.045 39.9121C154.702 39.9121 154.408 40.0503 154.167 40.3208C153.933 40.5912 153.813 40.9819 153.813 41.4927V41.4987Z" fill="white"/>
<path d="M163.248 44.071H161.92V41.4446C161.92 40.8917 161.89 40.5311 161.836 40.3689C161.782 40.2066 161.686 40.0804 161.559 39.9902C161.433 39.9001 161.277 39.852 161.097 39.852C160.868 39.852 160.658 39.9181 160.478 40.0443C160.297 40.1705 160.171 40.3448 160.099 40.5552C160.033 40.7655 159.997 41.1622 159.997 41.7391V44.071H158.669V38.9265H159.901V39.6837C160.339 39.1008 160.892 38.8123 161.553 38.8123C161.848 38.8123 162.112 38.8664 162.359 38.9746C162.605 39.0827 162.785 39.221 162.912 39.3892C163.038 39.5575 163.122 39.7498 163.17 39.9602C163.218 40.1705 163.242 40.477 163.242 40.8737V44.071H163.248Z" fill="white"/>
<path d="M164.288 41.4206C164.288 40.9699 164.396 40.5311 164.613 40.1044C164.829 39.6777 165.141 39.3592 165.538 39.1368C165.935 38.9145 166.385 38.8003 166.872 38.8003C167.63 38.8003 168.255 39.0527 168.741 39.5575C169.228 40.0624 169.469 40.6994 169.469 41.4747C169.469 42.25 169.222 42.8991 168.735 43.4099C168.243 43.9207 167.63 44.1792 166.884 44.1792C166.422 44.1792 165.983 44.071 165.568 43.8606C165.147 43.6503 164.835 43.3378 164.613 42.9231C164.39 42.5084 164.288 42.0096 164.288 41.4206ZM165.652 41.4987C165.652 42.0096 165.772 42.4002 166.007 42.6707C166.241 42.9411 166.536 43.0793 166.884 43.0793C167.233 43.0793 167.521 42.9411 167.756 42.6707C167.99 42.4002 168.11 42.0036 168.11 41.4867C168.11 40.9699 167.99 40.5972 167.756 40.3208C167.521 40.0503 167.227 39.9121 166.884 39.9121C166.542 39.9121 166.247 40.0503 166.007 40.3208C165.772 40.5912 165.652 40.9819 165.652 41.4927V41.4987Z" fill="white"/>
<path d="M170.418 38.9205H171.644V39.6236C172.083 39.0767 172.606 38.8063 173.213 38.8063C173.537 38.8063 173.814 38.8724 174.048 39.0106C174.282 39.1488 174.481 39.3532 174.631 39.6236C174.853 39.3472 175.088 39.1428 175.346 39.0106C175.599 38.8724 175.875 38.8063 176.164 38.8063C176.53 38.8063 176.843 38.8844 177.101 39.0347C177.36 39.1909 177.546 39.4133 177.672 39.7078C177.762 39.9301 177.81 40.2847 177.81 40.7715V44.065H176.482V41.1261C176.482 40.6153 176.434 40.2847 176.344 40.1345C176.224 39.9422 176.031 39.846 175.779 39.846C175.593 39.846 175.418 39.9061 175.256 40.0203C175.094 40.1345 174.974 40.3088 174.902 40.5311C174.829 40.7535 174.793 41.1081 174.793 41.5949V44.065H173.465V41.2463C173.465 40.7475 173.441 40.4229 173.393 40.2787C173.345 40.1345 173.273 40.0263 173.171 39.9542C173.068 39.8821 172.936 39.846 172.768 39.846C172.564 39.846 172.377 39.9001 172.215 40.0143C172.053 40.1285 171.933 40.2907 171.86 40.5011C171.788 40.7114 171.752 41.066 171.752 41.5648V44.065H170.424V38.9205H170.418Z" fill="white"/>
<path d="M178.82 41.4206C178.82 40.9699 178.928 40.5311 179.145 40.1044C179.361 39.6777 179.673 39.3592 180.07 39.1368C180.467 38.9145 180.917 38.8003 181.404 38.8003C182.162 38.8003 182.787 39.0527 183.273 39.5575C183.76 40.0624 184.001 40.6994 184.001 41.4747C184.001 42.25 183.754 42.8991 183.267 43.4099C182.775 43.9207 182.162 44.1792 181.416 44.1792C180.954 44.1792 180.515 44.071 180.1 43.8606C179.679 43.6503 179.367 43.3378 179.145 42.9231C178.922 42.5084 178.82 42.0096 178.82 41.4206ZM180.184 41.4987C180.184 42.0096 180.304 42.4002 180.539 42.6707C180.773 42.9411 181.068 43.0793 181.416 43.0793C181.765 43.0793 182.053 42.9411 182.288 42.6707C182.522 42.4002 182.642 42.0036 182.642 41.4867C182.642 40.9699 182.522 40.5972 182.288 40.3208C182.053 40.0503 181.759 39.9121 181.416 39.9121C181.074 39.9121 180.779 40.0503 180.539 40.3208C180.304 40.5912 180.184 40.9819 180.184 41.4927V41.4987Z" fill="white"/>
<path d="M188.358 44.071V43.3017C188.177 43.5782 187.931 43.7945 187.637 43.9508C187.336 44.1071 187.024 44.1912 186.693 44.1912C186.362 44.1912 186.05 44.1131 185.785 43.9628C185.515 43.8126 185.323 43.5962 185.203 43.3258C185.082 43.0493 185.022 42.6707 185.022 42.1899V38.9325H186.35V41.3004C186.35 42.0216 186.374 42.4663 186.423 42.6286C186.471 42.7909 186.561 42.9231 186.687 43.0193C186.819 43.1154 186.981 43.1635 187.18 43.1635C187.408 43.1635 187.613 43.0974 187.793 42.9712C187.973 42.845 188.093 42.6827 188.159 42.4964C188.226 42.3101 188.262 41.8473 188.262 41.1081V38.9385H189.59V44.083H188.358V44.071Z" fill="white"/>
<path d="M190.497 42.5986L191.831 42.3882C191.886 42.6526 192.006 42.857 192.18 42.9892C192.354 43.1274 192.595 43.1935 192.907 43.1935C193.25 43.1935 193.508 43.1274 193.683 43.0012C193.797 42.9111 193.857 42.7909 193.857 42.6406C193.857 42.5385 193.827 42.4543 193.761 42.3822C193.695 42.3161 193.544 42.256 193.316 42.2019C192.246 41.9615 191.561 41.7391 191.279 41.5408C190.882 41.2643 190.684 40.8797 190.684 40.3809C190.684 39.9361 190.858 39.5575 191.2 39.257C191.543 38.9565 192.078 38.8003 192.799 38.8003C193.52 38.8003 193.995 38.9145 194.332 39.1428C194.668 39.3712 194.897 39.7138 195.023 40.1585L193.767 40.3989C193.713 40.2006 193.61 40.0443 193.46 39.9361C193.31 39.828 193.1 39.7739 192.817 39.7739C192.469 39.7739 192.216 39.822 192.066 39.9241C191.964 39.9962 191.916 40.0864 191.916 40.2006C191.916 40.2967 191.958 40.3809 192.048 40.447C192.168 40.5371 192.583 40.6634 193.292 40.8316C194.001 40.9939 194.494 41.1982 194.776 41.4386C195.053 41.679 195.191 42.0156 195.191 42.4543C195.191 42.9291 194.999 43.3318 194.614 43.6683C194.229 44.0049 193.658 44.1792 192.907 44.1792C192.222 44.1792 191.681 44.0349 191.285 43.7525C190.888 43.47 190.623 43.0794 190.503 42.5925L190.497 42.5986Z" fill="white"/>
<path d="M199.013 44.071V36.9672H200.414V44.071H199.013Z" fill="white"/>
<path d="M206.31 44.071H204.981V41.4446C204.981 40.8917 204.951 40.5311 204.897 40.3689C204.843 40.2066 204.747 40.0804 204.621 39.9902C204.495 39.9001 204.338 39.852 204.158 39.852C203.93 39.852 203.719 39.9181 203.539 40.0443C203.359 40.1705 203.233 40.3448 203.16 40.5552C203.094 40.7655 203.058 41.1622 203.058 41.7391V44.071H201.73V38.9265H202.962V39.6837C203.401 39.1008 203.954 38.8123 204.615 38.8123C204.909 38.8123 205.174 38.8664 205.42 38.9746C205.667 39.0827 205.847 39.221 205.973 39.3892C206.099 39.5575 206.183 39.7498 206.231 39.9602C206.28 40.1705 206.304 40.477 206.304 40.8737V44.071H206.31Z" fill="white"/>
<path d="M207.193 42.5986L208.527 42.3882C208.581 42.6526 208.701 42.857 208.876 42.9892C209.05 43.1274 209.29 43.1935 209.603 43.1935C209.946 43.1935 210.204 43.1274 210.378 43.0012C210.492 42.9111 210.553 42.7909 210.553 42.6406C210.553 42.5385 210.523 42.4543 210.456 42.3822C210.39 42.3161 210.24 42.256 210.012 42.2019C208.942 41.9615 208.257 41.7391 207.974 41.5408C207.578 41.2643 207.379 40.8797 207.379 40.3809C207.379 39.9361 207.554 39.5575 207.896 39.257C208.239 38.9565 208.774 38.8003 209.495 38.8003C210.216 38.8003 210.691 38.9145 211.027 39.1428C211.364 39.3712 211.592 39.7138 211.718 40.1585L210.462 40.3989C210.408 40.2006 210.306 40.0443 210.156 39.9361C210.006 39.828 209.795 39.7739 209.513 39.7739C209.164 39.7739 208.912 39.822 208.762 39.9241C208.659 39.9962 208.611 40.0864 208.611 40.2006C208.611 40.2967 208.653 40.3809 208.744 40.447C208.864 40.5371 209.278 40.6634 209.988 40.8316C210.697 40.9939 211.19 41.1982 211.472 41.4386C211.749 41.679 211.887 42.0156 211.887 42.4543C211.887 42.9291 211.694 43.3318 211.31 43.6683C210.925 44.0049 210.354 44.1792 209.603 44.1792C208.918 44.1792 208.377 44.0349 207.98 43.7525C207.584 43.47 207.319 43.0794 207.199 42.5925L207.193 42.5986Z" fill="white"/>
<path d="M215.354 38.9205V40.0083H214.447V42.0817C214.447 42.5024 214.453 42.7488 214.471 42.8149C214.489 42.887 214.525 42.9411 214.591 42.9892C214.651 43.0373 214.729 43.0553 214.814 43.0553C214.934 43.0553 215.114 43.0132 215.348 42.9231L215.463 43.9809C215.156 44.1191 214.802 44.1852 214.411 44.1852C214.171 44.1852 213.954 44.1431 213.762 44.059C213.57 43.9748 213.431 43.8727 213.341 43.7405C213.251 43.6082 213.191 43.4339 213.155 43.2116C213.125 43.0553 213.113 42.7308 213.113 42.25V40.0083H212.5V38.9205H213.113V37.8988L214.447 37.1055V38.9205H215.354Z" fill="white"/>
<path d="M216.274 38.2233V36.9612H217.602V38.2233H216.274ZM216.274 44.071V38.9265H217.602V44.071H216.274Z" fill="white"/>
<path d="M221.274 38.9205V40.0083H220.367V42.0817C220.367 42.5024 220.373 42.7488 220.391 42.8149C220.409 42.887 220.445 42.9411 220.511 42.9892C220.571 43.0373 220.649 43.0553 220.733 43.0553C220.854 43.0553 221.034 43.0132 221.268 42.9231L221.382 43.9809C221.076 44.1191 220.721 44.1852 220.331 44.1852C220.09 44.1852 219.874 44.1431 219.682 44.059C219.489 43.9748 219.351 43.8727 219.261 43.7405C219.171 43.6082 219.111 43.4339 219.075 43.2116C219.045 43.0553 219.033 42.7308 219.033 42.25V40.0083H218.419V38.9205H219.033V37.8988L220.367 37.1055V38.9205H221.274Z" fill="white"/>
<path d="M225.499 44.071V43.3017C225.319 43.5782 225.073 43.7945 224.778 43.9508C224.478 44.1071 224.165 44.1912 223.835 44.1912C223.504 44.1912 223.192 44.1131 222.927 43.9628C222.657 43.8126 222.464 43.5962 222.344 43.3258C222.224 43.0493 222.164 42.6707 222.164 42.1899V38.9325H223.492V41.3004C223.492 42.0216 223.516 42.4663 223.564 42.6286C223.612 42.7909 223.702 42.9231 223.829 43.0193C223.961 43.1154 224.123 43.1635 224.321 43.1635C224.55 43.1635 224.754 43.0974 224.934 42.9712C225.115 42.845 225.235 42.6827 225.301 42.4964C225.367 42.3101 225.403 41.8473 225.403 41.1081V38.9385H226.731V44.083H225.499V44.071Z" fill="white"/>
<path d="M230.416 38.9205V40.0083H229.508V42.0817C229.508 42.5024 229.514 42.7488 229.532 42.8149C229.55 42.887 229.586 42.9411 229.652 42.9892C229.712 43.0373 229.79 43.0553 229.875 43.0553C229.995 43.0553 230.175 43.0132 230.41 42.9231L230.524 43.9809C230.217 44.1191 229.863 44.1852 229.472 44.1852C229.232 44.1852 229.015 44.1431 228.823 44.059C228.631 43.9748 228.492 43.8727 228.402 43.7405C228.312 43.6082 228.252 43.4339 228.216 43.2116C228.186 43.0553 228.174 42.7308 228.174 42.25V40.0083H227.561V38.9205H228.174V37.8988L229.508 37.1055V38.9205H230.416Z" fill="white"/>
<path d="M231.341 38.2233V36.9612H232.669V38.2233H231.341ZM231.341 44.071V38.9265H232.669V44.071H231.341Z" fill="white"/>
<path d="M233.721 41.4206C233.721 40.9699 233.829 40.5311 234.045 40.1044C234.262 39.6777 234.574 39.3592 234.971 39.1368C235.368 38.9145 235.818 38.8003 236.305 38.8003C237.062 38.8003 237.687 39.0527 238.174 39.5575C238.661 40.0624 238.902 40.6994 238.902 41.4747C238.902 42.25 238.655 42.8991 238.168 43.4099C237.675 43.9207 237.062 44.1792 236.317 44.1792C235.854 44.1792 235.416 44.071 235.001 43.8606C234.58 43.6503 234.268 43.3378 234.045 42.9231C233.823 42.5084 233.721 42.0096 233.721 41.4206ZM235.085 41.4987C235.085 42.0096 235.205 42.4002 235.44 42.6707C235.674 42.9411 235.969 43.0793 236.317 43.0793C236.666 43.0793 236.954 42.9411 237.189 42.6707C237.423 42.4002 237.543 42.0036 237.543 41.4867C237.543 40.9699 237.423 40.5972 237.189 40.3208C236.954 40.0503 236.66 39.9121 236.317 39.9121C235.975 39.9121 235.68 40.0503 235.44 40.3208C235.205 40.5912 235.085 40.9819 235.085 41.4927V41.4987Z" fill="white"/>
<path d="M244.521 44.071H243.193V41.4446C243.193 40.8917 243.163 40.5311 243.108 40.3689C243.054 40.2066 242.958 40.0804 242.832 39.9902C242.706 39.9001 242.549 39.852 242.369 39.852C242.141 39.852 241.93 39.9181 241.75 40.0443C241.57 40.1705 241.444 40.3448 241.372 40.5552C241.305 40.7655 241.269 41.1622 241.269 41.7391V44.071H239.941V38.9265H241.173V39.6837C241.612 39.1008 242.165 38.8123 242.826 38.8123C243.12 38.8123 243.385 38.8664 243.631 38.9746C243.878 39.0827 244.058 39.221 244.184 39.3892C244.31 39.5575 244.395 39.7498 244.443 39.9602C244.491 40.1705 244.515 40.477 244.515 40.8737V44.071H244.521Z" fill="white"/>
<path d="M150.934 56.145V48.915H153.067L154.347 53.8432L155.616 48.915H157.755V56.145H156.433V50.4536L155.033 56.145H153.662L152.268 50.4536V56.145H150.946H150.934Z" fill="white"/>
<path d="M165.532 56.145H163.981L163.368 54.5043H160.55L159.967 56.145H158.458L161.205 48.915H162.713L165.538 56.145H165.532ZM162.906 53.2843L161.932 50.6038L160.976 53.2843H162.9H162.906Z" fill="white"/>
<path d="M166.301 56.145V48.915H167.69L170.574 53.741V48.915H171.897V56.145H170.466L167.624 51.4332V56.145H166.301Z" fill="white"/>
<path d="M176.686 53.4886V52.2686H179.758V55.1473C179.457 55.4418 179.024 55.7063 178.459 55.9286C177.894 56.151 177.317 56.2652 176.74 56.2652C176.001 56.2652 175.358 56.1089 174.811 55.7904C174.264 55.4719 173.85 55.0211 173.573 54.4322C173.297 53.8432 173.159 53.2001 173.159 52.509C173.159 51.7577 173.315 51.0846 173.621 50.5017C173.928 49.9187 174.379 49.4679 174.974 49.1554C175.424 48.915 175.989 48.7948 176.662 48.7948C177.54 48.7948 178.225 48.9811 178.718 49.3598C179.211 49.7384 179.529 50.2552 179.667 50.9224L178.255 51.1928C178.153 50.8382 177.967 50.5557 177.696 50.3514C177.42 50.1471 177.077 50.0449 176.668 50.0449C176.043 50.0449 175.551 50.2492 175.184 50.6519C174.817 51.0546 174.631 51.6556 174.631 52.4489C174.631 53.3083 174.817 53.9514 175.19 54.3781C175.563 54.8048 176.049 55.0211 176.65 55.0211C176.951 55.0211 177.245 54.961 177.546 54.8408C177.846 54.7206 178.105 54.5764 178.321 54.4021V53.4826H176.686V53.4886Z" fill="white"/>
<path d="M187.432 56.145H185.882L185.269 54.5043H182.45L181.867 56.145H180.358L183.105 48.915H184.613L187.438 56.145H187.432ZM184.812 53.2843L183.838 50.6038L182.883 53.2843H184.806H184.812Z" fill="white"/>
<path d="M188.232 56.145V48.9751H189.656V54.925H193.196V56.145H188.232Z" fill="white"/>
<path d="M194.205 48.921H195.63V52.8335C195.63 53.4525 195.648 53.8552 195.684 54.0415C195.744 54.336 195.888 54.5764 196.123 54.7567C196.351 54.937 196.664 55.0271 197.066 55.0271C197.469 55.0271 197.775 54.943 197.98 54.7747C198.184 54.6064 198.31 54.3961 198.352 54.1497C198.394 53.9033 198.412 53.4946 198.412 52.9236V48.927H199.837V52.7253C199.837 53.5908 199.801 54.2038 199.723 54.5644C199.644 54.925 199.506 55.2255 199.296 55.4719C199.092 55.7183 198.815 55.9166 198.466 56.0608C198.118 56.2051 197.667 56.2832 197.108 56.2832C196.435 56.2832 195.924 56.2051 195.576 56.0428C195.227 55.8805 194.951 55.6762 194.752 55.4238C194.548 55.1714 194.416 54.9009 194.35 54.6245C194.26 54.2098 194.211 53.5968 194.211 52.7914V48.933L194.205 48.921Z" fill="white"/>
<path d="M201.339 56.145V48.915H204.338C205.09 48.915 205.642 48.9811 205.979 49.1074C206.322 49.2396 206.592 49.468 206.802 49.7985C207.013 50.1291 207.109 50.5077 207.109 50.9404C207.109 51.4813 206.953 51.932 206.64 52.2866C206.328 52.6412 205.865 52.8636 205.246 52.9537C205.552 53.14 205.811 53.3384 206.009 53.5607C206.207 53.7831 206.478 54.1737 206.82 54.7327L207.68 56.145H205.973L204.945 54.5704C204.579 54.0055 204.326 53.6569 204.194 53.5066C204.062 53.3624 203.918 53.2602 203.767 53.2061C203.617 53.1521 203.377 53.122 203.052 53.122H202.764V56.139H201.339V56.145ZM202.764 51.9741H203.815C204.501 51.9741 204.927 51.9441 205.096 51.884C205.264 51.8239 205.396 51.7217 205.498 51.5774C205.6 51.4332 205.642 51.2529 205.642 51.0366C205.642 50.7962 205.576 50.5978 205.45 50.4476C205.324 50.2973 205.144 50.2012 204.915 50.1651C204.801 50.1471 204.453 50.1411 203.876 50.1411H202.764V51.9741Z" fill="white"/>
<path d="M208.443 48.921H209.867V52.8335C209.867 53.4525 209.885 53.8552 209.921 54.0415C209.982 54.336 210.126 54.5764 210.36 54.7567C210.589 54.937 210.901 55.0271 211.304 55.0271C211.706 55.0271 212.013 54.943 212.217 54.7747C212.422 54.6064 212.548 54.3961 212.59 54.1497C212.632 53.9033 212.65 53.4946 212.65 52.9236V48.927H214.074V52.7253C214.074 53.5908 214.038 54.2038 213.96 54.5644C213.882 54.925 213.744 55.2255 213.533 55.4719C213.329 55.7183 213.053 55.9166 212.704 56.0608C212.355 56.2051 211.905 56.2832 211.346 56.2832C210.673 56.2832 210.162 56.2051 209.813 56.0428C209.465 55.8805 209.188 55.6762 208.99 55.4238C208.786 55.1714 208.653 54.9009 208.587 54.6245C208.497 54.2098 208.449 53.5968 208.449 52.7914V48.933L208.443 48.921Z" fill="white"/>
</svg>
