<svg width="226" height="46" viewBox="0 0 226 46" fill="none" xmlns="http://www.w3.org/2000/svg">
<g clip-path="url(#clip0_361_566)">
<path d="M17.4186 2.94641H29.0423C29.0795 3.00066 29.12 3.0583 29.1504 3.11255C31.0111 6.35056 32.8719 9.58856 34.7326 12.8266C34.8373 13.0097 34.8407 13.0097 34.9454 12.8266C35.6815 11.5483 36.4144 10.2735 37.1505 8.99521C38.3122 6.97781 39.4739 4.96042 40.6356 2.94302H52.2593C52.3302 3.01762 52.3741 3.11255 52.4248 3.2041C54.2754 6.42515 56.126 9.64281 57.98 12.8639C58.061 13.0063 58.0543 13.108 57.9766 13.2436C56.1226 16.4613 54.272 19.6823 52.4214 22.9034C52.3876 22.9644 52.3066 23.0288 52.3471 23.0932C52.3876 23.1543 52.4822 23.1204 52.5497 23.1204C56.2543 23.1204 59.9555 23.1204 63.6601 23.1204C63.8188 23.1204 63.9066 23.1712 63.9877 23.3102C65.4634 25.8837 66.9426 28.4571 68.4217 31.0272C68.8371 31.7494 69.2592 32.4716 69.678 33.1938V33.2853C69.6374 33.3497 69.5935 33.4142 69.553 33.482C67.699 36.6996 65.845 39.9207 63.9944 43.1417C63.9134 43.2808 63.8256 43.3316 63.6669 43.3282C59.9319 43.3248 56.1969 43.3248 52.4619 43.3282C52.2965 43.3282 52.2053 43.2774 52.1242 43.1316C50.2736 39.9037 48.4163 36.6827 46.5589 33.4582C46.4542 33.2718 46.4508 33.2752 46.3462 33.4582C44.4888 36.6827 42.6348 39.9037 40.7808 43.1316C40.6998 43.274 40.6086 43.3282 40.4431 43.3282C36.7082 43.3248 32.9732 43.3248 29.2382 43.3282C29.0795 43.3282 28.9917 43.2808 28.9106 43.1417C27.06 39.9139 25.2027 36.6929 23.3453 33.4684C23.3149 33.4142 23.2947 33.3464 23.2305 33.3091C23.1765 33.343 23.1596 33.4006 23.1326 33.4481C21.2752 36.6759 19.4145 39.9037 17.5605 43.135C17.4761 43.2808 17.3883 43.3282 17.2228 43.3282C13.4878 43.3248 9.75282 43.3248 6.01784 43.3282C5.85574 43.3282 5.77132 43.2774 5.69027 43.1384C4.95746 41.8533 4.21789 40.5751 3.47833 39.2934C2.32001 37.2794 1.15832 35.2654 0 33.2514V33.2209C1.89451 29.9253 3.79239 26.6296 5.68352 23.334C5.7747 23.1746 5.87601 23.117 6.05837 23.117C9.74269 23.1204 13.4236 23.117 17.108 23.117C17.1586 23.117 17.2126 23.117 17.2633 23.117C17.3579 23.117 17.3714 23.0763 17.3241 23.0017C17.3072 22.9746 17.2937 22.9474 17.2768 22.9203C15.4195 19.6857 13.5587 16.4545 11.698 13.2233C11.6271 13.1012 11.6237 13.0097 11.698 12.8876C13.1265 10.4091 14.5482 7.93057 15.9733 5.45205C16.4562 4.61797 16.9391 3.78389 17.4186 2.9498" fill="white"/>
<path d="M77.543 23.1238V0.0372925H85.918L90.9126 14.8134H91.0781L96.0389 0.0372925H104.286V23.1238H98.4062V8.24928H98.2408L93.182 23.1238H88.65L83.5913 8.24928H83.4258V23.1238H77.5464H77.543Z" fill="white"/>
<path d="M118.837 23.456C116.845 23.456 115.102 23.039 113.613 22.2015C112.124 21.3674 110.979 20.1672 110.182 18.6075C109.382 17.0478 108.983 15.1762 108.983 12.9995V0.0372925H114.96V12.9995C114.96 14.1218 115.126 15.0542 115.453 15.8035C115.781 16.5528 116.237 17.119 116.818 17.5022C117.399 17.8887 118.071 18.0786 118.837 18.0786C119.604 18.0786 120.303 17.8853 120.874 17.5022C121.444 17.119 121.893 16.5528 122.221 15.8035C122.549 15.0576 122.714 14.1218 122.714 12.9995V0.0372925H128.661V12.9995C128.661 15.1762 128.262 17.0444 127.462 18.6075C126.662 20.1706 125.53 21.3674 124.061 22.2015C122.592 23.039 120.853 23.456 118.837 23.456Z" fill="white"/>
<path d="M165.491 23.456C163.498 23.456 161.756 23.039 160.266 22.2015C158.777 21.3674 157.632 20.1672 156.835 18.6075C156.035 17.0478 155.637 15.1762 155.637 12.9995V0.0372925H161.614V12.9995C161.614 14.1218 161.779 15.0542 162.107 15.8035C162.434 16.5528 162.89 17.119 163.471 17.5022C164.052 17.8887 164.724 18.0786 165.491 18.0786C166.257 18.0786 166.956 17.8853 167.527 17.5022C168.098 17.119 168.547 16.5528 168.874 15.8035C169.202 15.0576 169.367 14.1218 169.367 12.9995V0.0372925H175.314V12.9995C175.314 15.1762 174.916 17.0444 174.116 18.6075C173.315 20.1706 172.184 21.3674 170.715 22.2015C169.246 23.039 167.507 23.456 165.491 23.456Z" fill="white"/>
<path d="M180.076 23.1238V0.0372925H187.63L195.121 14.4846H195.286V0.0372925H201.132V23.1238H193.577L186.121 8.67649H185.955V23.1238H180.076Z" fill="white"/>
<path d="M205.995 23.1238V0.0372925H215.389C217.578 0.0372925 219.479 0.505192 221.09 1.4376C222.701 2.3734 223.92 3.70929 224.754 5.44527C225.585 7.18124 226.003 9.22577 226.003 11.5788C226.003 13.9319 225.588 15.9764 224.754 17.7124C223.92 19.4484 222.701 20.7843 221.09 21.7201C219.479 22.6559 217.581 23.1204 215.389 23.1204H205.995V23.1238ZM215.16 17.7497C216.035 17.7497 216.842 17.5022 217.574 17.0071C218.307 16.5121 218.905 15.8035 219.364 14.8813C219.824 13.959 220.053 12.8571 220.053 11.5822C220.053 10.3074 219.824 9.20881 219.364 8.28318C218.905 7.36095 218.307 6.64892 217.574 6.15729C216.842 5.66226 216.035 5.41475 215.16 5.41475H211.972V17.7497H215.16Z" fill="white"/>
<path d="M153.877 0H146.677L138.832 8.37473V0H133.422V23.0424H138.832V15.244L140.798 13.2945L147.197 23.0424H153.847L144.678 9.23594L153.877 0Z" fill="white"/>
<path d="M146.633 46.0001L142.267 39.636C142.726 39.5275 143.169 39.3579 143.594 39.1172C144.367 38.6798 144.989 38.0594 145.465 37.2524C145.938 36.4454 146.177 35.5062 146.177 34.4416C146.177 33.377 145.944 32.414 145.478 31.6071C145.012 30.8001 144.364 30.1695 143.537 29.7151C142.706 29.2642 141.737 29.037 140.629 29.037H133.628V46.0035H136.718V39.775H138.934L143.165 46.0035H146.64L146.633 46.0001ZM136.712 31.7969H140.43C141.234 31.7969 141.879 32.0343 142.361 32.5124C142.844 32.9904 143.084 33.6313 143.084 34.4382C143.084 34.9705 142.976 35.435 142.76 35.8317C142.544 36.2284 142.233 36.5336 141.831 36.754C141.429 36.971 140.963 37.0795 140.43 37.0795H136.712V31.7969Z" fill="white"/>
<path d="M153.803 43.2367V38.7543H161.408V36.1605H153.803V31.7969H161.891V29.0335H150.713V46H162.134V43.2367H153.803Z" fill="white"/>
<path d="M177.607 46H180.768L174.588 29.0335H170.894L164.714 46H167.828L169.087 42.4602H176.341L177.601 46H177.607ZM170.05 39.7715L172.657 32.4512H172.778L175.385 39.7715H170.05Z" fill="white"/>
<path d="M183.98 46V29.0335H187.07V43.2367H195.083V46H183.98Z" fill="white"/>
<path d="M200.007 46V31.7969H194.793V29.0335H208.264V31.7969H203.073V46H200.007Z" fill="white"/>
<path d="M215.893 46V39.941L209.979 29.0335H213.262L217.389 36.8624H217.51L221.66 29.0335H224.872L218.959 39.941V46H215.893Z" fill="white"/>
</g>
<defs>
<clipPath id="clip0_361_566">
<rect width="226" height="46" fill="white"/>
</clipPath>
</defs>
</svg>
