<svg width="185" height="70" viewBox="0 0 185 70" fill="none" xmlns="http://www.w3.org/2000/svg">
<path d="M184.638 42.7792C184.638 44.5696 183.229 45.9651 181.412 45.9651C179.595 45.9651 178.161 44.5564 178.161 42.7792C178.161 41.0019 179.595 39.6328 181.412 39.6328C183.229 39.6328 184.638 41.0414 184.638 42.7792ZM178.964 42.7792C178.964 44.1878 180.004 45.2937 181.425 45.2937C182.847 45.2937 183.821 44.1746 183.821 42.7923C183.821 41.41 182.808 40.2515 181.399 40.2515C179.99 40.2515 178.964 41.3837 178.964 42.766V42.7792ZM180.912 44.4379H180.188V41.2784C180.478 41.2257 180.886 41.1862 181.399 41.1862C181.991 41.1862 182.268 41.2784 182.492 41.4232C182.663 41.5548 182.795 41.805 182.795 42.1209C182.795 42.4632 182.531 42.7397 182.136 42.845V42.8845C182.439 43.003 182.61 43.2268 182.716 43.648C182.808 44.122 182.874 44.3195 182.953 44.4379H182.163C182.07 44.3195 182.005 44.0298 181.912 43.6744C181.86 43.3321 181.662 43.1741 181.254 43.1741H180.912V44.4379ZM180.925 42.6475H181.267C181.676 42.6475 181.991 42.5159 181.991 42.1868C181.991 41.8971 181.781 41.7128 181.32 41.7128C181.123 41.7128 180.991 41.726 180.912 41.7523V42.6607L180.925 42.6475Z" fill="white"/>
<path d="M116.59 15.2465C114.158 15.8183 111.769 16.6289 109.482 17.665C106.318 19.0984 103.392 20.9184 100.751 23.106C101.701 20.4728 101.763 17.4664 100.933 14.1326C105.311 10.3934 109.721 7.91586 113.069 7.30922C114.419 7.06496 116.223 7.0247 117.154 8.21918C118.177 9.53447 117.97 12.0872 116.59 15.2439V15.2465Z" fill="white"/>
<path d="M79.5583 23.0631C76.9358 20.8996 74.0288 19.0904 70.8802 17.6677C68.5905 16.6316 66.1988 15.821 63.7723 15.2492C62.3926 12.0926 62.1859 9.54252 63.2086 8.22456C64.1373 7.03007 65.9438 7.07033 67.294 7.3146C70.7943 7.94808 75.5642 10.7102 80.1059 14.7285C79.8375 15.413 79.604 16.1458 79.3919 16.9537C78.8443 19.0635 78.9114 21.1492 79.5557 23.0658L79.5583 23.0631Z" fill="white"/>
<path d="M42.5668 31.8969C42.5668 31.8969 54.823 28.8664 62.1403 30.6487C69.4576 32.4311 80.616 34.5704 85.3698 31.8969C85.3698 31.8969 79.8 38.6612 61.9551 35.1046C44.1102 31.5506 42.5668 31.8969 42.5668 31.8969Z" fill="white"/>
<path d="M137.793 31.8969C137.793 31.8969 125.537 28.8664 118.22 30.6487C110.902 32.4311 99.744 34.5704 94.9902 31.8969C94.9902 31.8969 100.56 38.6612 118.405 35.1046C136.25 31.5506 137.793 31.8969 137.793 31.8969Z" fill="white"/>
<path d="M93.4225 34.1329C93.4225 35.9206 91.9703 37.3755 90.1799 37.3755C88.3896 37.3755 86.9374 35.9233 86.9374 34.1329C86.9374 32.3425 88.3869 30.8876 90.1799 30.8876C91.973 30.8876 93.4225 32.3398 93.4225 34.1329Z" fill="white"/>
<path d="M87.4769 23.1463C87.4608 25.1997 87.7964 27.2666 88.4755 29.2986C88.4567 29.2959 88.4379 29.2905 88.4218 29.2851C84.0465 28.5738 80.3664 24.4669 80.2456 20.0272C80.1811 17.606 81.0106 15.0318 82.3581 13.0293C83.6707 11.0779 85.5013 9.55861 86.9777 7.74138C87.2005 7.46759 87.4152 7.18574 87.6192 6.89584C88.9291 5.03298 89.8069 2.97953 90.3786 0.783813C91.6939 3.10837 92.0563 4.95513 92.1529 5.9322C92.4535 9.07277 91.2993 11.4698 90.0753 14.0037C88.8137 16.6182 87.5065 19.3239 87.4769 23.1463Z" fill="white"/>
<path d="M98.6005 24.7595C97.1805 27.1431 94.8023 28.9496 92.0106 29.3952C91.2993 29.5079 90.5719 29.5348 89.8337 29.4838C89.0633 27.3901 88.6795 25.2668 88.6983 23.1543C88.7251 19.6084 89.9733 17.0262 91.1758 14.5298C92.4777 11.8402 93.7044 9.29554 93.3689 5.81408C93.2615 4.70817 92.8508 2.6064 91.3396 0C96.0263 5.01686 100.326 11.4886 100.292 18.6099C100.281 20.7331 99.7037 22.91 98.6005 24.7568V24.7595Z" fill="white"/>
<path d="M85.1577 31.1078C82.4332 31.76 79.6443 31.9614 76.858 31.6983C73.0974 31.3547 69.5274 30.1924 66.2419 28.249C61.4612 25.4118 57.8402 21.2378 55.725 16.1431C58.3341 16.1807 60.9297 16.484 63.4637 17.0584C65.9171 17.6167 68.3302 18.4274 70.636 19.4689C74.8046 21.3559 78.5384 23.9381 81.7353 27.1485C82.0655 27.4814 82.393 27.8249 82.7258 28.1873L82.7929 28.2625C83.6224 29.1617 84.4142 30.1173 85.1551 31.1078H85.1577Z" fill="white"/>
<path d="M124.675 16.1431C122.563 21.2378 118.942 25.4118 114.156 28.249C110.878 30.1924 107.305 31.3547 103.542 31.6983C100.756 31.9613 97.9696 31.76 95.2451 31.1051C95.7685 30.4045 96.3269 29.7092 96.9094 29.0355C97.516 28.3376 98.1441 27.6639 98.7803 27.0304C101.953 23.8737 105.649 21.329 109.762 19.4662C112.07 18.4247 114.486 17.614 116.937 17.0557C119.468 16.484 122.069 16.178 124.673 16.1404L124.675 16.1431Z" fill="white"/>
<path d="M177.082 62.0786C177.082 62.0786 174.999 62.0034 174.999 55.886V51.7764C174.999 49.9162 175.611 45.6027 168.101 45.6027C165.478 45.6027 161.667 45.8818 160.032 48.7647L163.304 52.0744C163.304 52.0744 162.987 46.4214 167.339 46.4214C169.161 46.4214 170.313 47.4628 170.313 49.7686C170.313 53.5427 159.584 51.0141 159.584 57.467C159.584 60.7015 163.006 62.6181 165.124 62.6181C167.709 62.6181 169.159 62.0786 170.385 60.7203V62.0786H177.08H177.082ZM166.855 61.5202C166.316 61.5202 165.572 61.2787 164.848 60.5915C164.142 59.8855 163.64 58.6776 163.677 57.6522C163.677 52.112 168.659 52.5763 170.297 51.4973C170.297 53.4138 170.315 56.4631 170.353 58.8038C170.259 60.366 169.07 61.5176 166.858 61.5176L166.855 61.5202Z" fill="white"/>
<path d="M5.85434 49.621C5.72281 48.7835 6.00197 47.9487 6.61667 47.334C7.19378 46.7569 8.02858 46.4777 8.86607 46.5717C11.6738 46.5717 14.5003 49.8814 15.115 52.0932L16.3417 47.8548C14.0923 46.3113 11.3758 45.5302 8.68085 45.6054C4.01295 45.6054 1.09517 47.1864 1.09517 50.4209C1.09517 56.0551 13.2575 54.9197 13.2575 59.2709C13.2575 61.335 11.0269 61.5954 9.35191 61.5954C6.00466 61.5954 3.17815 59.1044 2.77014 55.7948L0 59.346C0.743536 60.4251 3.88679 62.6181 9.22307 62.6181C14.5594 62.6181 17.8502 61.3538 17.8502 58.5273C17.8502 51.8704 5.85702 53.5803 5.85702 49.621H5.85434Z" fill="white"/>
<path d="M37.1044 62.0786C37.1044 62.0786 35.0215 62.0034 35.0215 55.886V51.7764C35.0215 49.9162 35.6335 45.6027 28.1229 45.6027C25.5004 45.6027 21.6888 45.8818 20.0541 48.7647L23.3262 52.0744C23.3262 52.0744 23.0095 46.4214 27.3606 46.4214C29.1832 46.4214 30.3348 47.4628 30.3348 49.7686C30.3348 53.5427 19.6058 51.0141 19.6058 57.467C19.6058 60.7015 23.0282 62.6181 25.1461 62.6181C27.731 62.6181 29.1805 62.0786 30.4072 60.7203V62.0786H37.1018H37.1044ZM26.8775 61.5202C26.3379 61.5202 25.5944 61.2787 24.8696 60.5915C24.1637 59.8855 23.6617 58.6776 23.6993 57.6522C23.6993 52.112 28.6813 52.5763 30.3187 51.4973C30.3187 53.4138 30.3375 56.4631 30.375 58.8038C30.2811 60.366 29.092 61.5176 26.8801 61.5176L26.8775 61.5202Z" fill="white"/>
<path d="M43.7613 56.3316C43.7049 51.1993 43.7049 48.354 43.7425 46.5878H46.7542V46.0107H43.7425C43.7425 44.5048 43.7613 43.3157 43.7613 43.3157C41.2703 43.7425 41.4931 46.0107 36.7876 46.0107V46.5502C39.2249 46.5502 39.1497 48.354 39.1497 49.4519C39.1497 55.9799 39.1309 55.9799 39.1309 55.9799C39.0934 61.6518 41.7535 62.0786 43.4445 62.0786C44.4109 62.1349 45.3772 61.8182 46.0858 61.1498C46.7918 60.5002 47.1649 59.5688 47.1273 58.6025C46.0858 59.9231 43.7613 60.0144 43.7613 56.3343V56.3316Z" fill="white"/>
<path d="M112.508 62.0786C112.508 62.0786 110.422 62.0034 110.422 55.8887V51.7791C110.422 49.9914 110.919 46.008 104.407 45.5275C103.685 45.4738 101.669 45.2913 99.3736 45.8093C96.735 46.4053 94.4776 48.0963 93.0361 50.9792C91.4095 54.2325 89.7265 57.8026 89.7265 57.8026L84.5754 46.0134H77.846C77.846 46.0134 79.7598 46.0134 82.2884 51.4087C82.1971 51.5939 82.1408 51.7603 82.0468 51.9858L79.4807 57.8052L74.2759 46.016H67.5814C67.6378 46.016 69.702 46.0536 72.3245 52.1146L76.7132 62.0813H78.866L82.9407 52.8018L86.9751 62.0813H89.1144L94.0427 52.1334C95.1567 50.1041 95.7123 48.8962 97.5806 47.7769C98.7133 47.0978 100.769 46.3945 102.761 46.424C104.753 46.4536 105.738 47.4655 105.738 49.7713C105.738 53.548 95.009 51.0195 95.009 57.4697C95.009 60.7042 98.4315 62.6181 100.552 62.6181C103.137 62.6181 104.586 62.0786 105.813 60.723V62.0813H112.508V62.0786ZM102.281 61.5202C101.741 61.5202 101 61.2787 100.273 60.5915C99.5669 59.8829 99.0623 58.6723 99.1025 57.6522C99.1025 52.1093 104.087 52.5763 105.722 51.4946C105.722 53.4085 105.741 56.4604 105.778 58.8038C105.687 60.366 104.498 61.5176 102.283 61.5176L102.281 61.5202Z" fill="white"/>
<path d="M61.8182 55.9773C61.8182 55.9773 61.7431 53.4112 61.7431 50.6061C61.7431 48.2816 61.2948 46.4214 58.4898 46.4214C54.4715 46.4214 54.2111 50.9604 54.2111 51.6449V55.886C54.2111 62.0383 56.3343 62.0759 56.3343 62.0759H47.4817C47.4817 62.0759 49.562 62.0383 49.562 55.9773V45.7342H49.57C49.5727 40.8355 49.5969 37.9767 49.5969 37.9767C52.2221 38.4089 54.101 38.9162 56.3853 39.1954C56.3853 39.1954 54.2138 40.0382 54.2138 46.161V47.997C55.4432 46.3113 57.4107 45.549 59.5474 45.6C67.0418 45.6 66.4271 49.9512 66.4271 51.7765V55.886C66.4271 62.0383 68.5477 62.0759 68.5477 62.0759H59.695C59.695 62.0759 61.7807 62.0383 61.8182 55.9773Z" fill="white"/>
<path d="M127.314 49.4599C127.188 48.6466 127.469 47.8333 128.063 47.24C128.626 46.6764 129.413 46.3972 130.229 46.4482C133.002 46.628 135.721 49.7096 136.314 51.865L137.503 47.7393C135.316 46.2388 132.69 45.4899 130.062 45.5517C125.531 45.5517 122.686 47.0817 122.686 50.241C122.686 55.7115 134.499 54.6164 134.499 58.836C134.499 60.8358 132.344 61.0854 130.717 61.0854C127.467 61.0854 124.715 58.6803 124.31 55.4592L121.62 58.8977C122.34 59.9607 125.403 62.0866 130.591 62.0866C135.78 62.0866 138.966 60.868 138.966 58.1166C138.966 51.6449 127.308 53.3038 127.308 49.4572L127.314 49.4599Z" fill="white"/>
<path d="M150.871 45.5517C149.003 45.3342 147.166 46.1744 146.074 47.6991V45.9543C144.018 46.8884 141.806 47.4494 139.565 47.5434C139.565 47.5434 141.589 47.5112 141.589 53.4595V63.1818C141.589 69.0684 139.565 69.1006 139.565 69.1006H148.13C148.13 69.1006 146.106 69.0684 146.106 63.0905V59.9714C147.196 61.4988 149.035 62.3067 150.871 62.0893C157.879 62.0893 157.941 54.7694 157.941 53.8379C157.941 52.9065 157.879 45.5544 150.871 45.5544V45.5517ZM149.81 61.2787C147.631 61.123 145.98 59.2225 146.104 57.0429C146.104 54.2084 146.104 52.1844 146.074 50.284C146.042 49.2559 146.415 48.2601 147.102 47.5112C147.819 46.7945 148.785 46.3596 149.813 46.3596C152.148 46.2979 153.426 48.1339 153.426 53.8353C153.426 58.071 152.148 61.3404 149.813 61.2787H149.81Z" fill="white"/>
</svg>
