<svg width="178" height="41" viewBox="0 0 178 41" fill="none" xmlns="http://www.w3.org/2000/svg">
<path d="M155.59 23.2595V15.8137C155.59 15.4098 155.636 14.9297 155.727 14.3657C155.857 13.5579 156.17 12.8415 156.666 12.2166C157.352 11.3478 158.352 10.9134 159.672 10.9134C160.435 10.9134 161.106 11.0963 161.671 11.4545C162.319 11.866 162.762 12.4605 163.006 13.2302C163.235 13.9542 163.388 14.8154 163.479 15.7985V15.8518V15.9052C163.517 16.9721 163.51 18.2982 163.449 19.8834C163.395 21.3923 163.365 22.8251 163.365 24.1892C163.365 24.7761 163.25 25.4924 163.014 26.3231C162.792 27.1157 162.373 27.733 161.755 28.1751C161.167 28.5942 160.473 28.8076 159.664 28.8076C158.443 28.8076 157.436 28.3351 156.643 27.3901C155.941 26.5518 155.59 25.1724 155.59 23.2519V23.2595ZM159.695 23.2595C159.695 23.8311 159.725 24.2883 159.794 24.6236C159.817 24.7303 159.84 24.8142 159.863 24.8675C159.855 24.8447 159.832 24.8066 159.786 24.7608C159.756 24.7303 159.718 24.7151 159.664 24.7151H159.672C159.672 24.7151 159.634 24.7151 159.611 24.7303C159.527 24.7532 159.435 24.7989 159.351 24.8599C159.191 24.9742 159.092 25.1038 159.054 25.241C159.184 24.7608 159.252 24.4179 159.252 24.2045C159.252 22.7946 159.283 21.3085 159.336 19.7538C159.39 18.2677 159.397 17.0407 159.367 16.0728L161.419 15.9966L159.374 16.1719C159.313 15.4784 159.214 14.9144 159.077 14.4724C159.138 14.6553 159.26 14.8077 159.451 14.9297C159.527 14.9754 159.603 15.0135 159.672 15.0287C159.611 15.0287 159.565 15.0287 159.527 15.044H159.519C159.527 15.044 159.534 15.044 159.55 15.0364C159.679 14.9906 159.786 14.8992 159.893 14.7772C159.84 14.8458 159.809 14.9297 159.786 15.0364C159.733 15.3869 159.702 15.6537 159.702 15.8366V23.2823L159.695 23.2595ZM173.009 13.4131C173.009 12.308 172.742 11.1496 172.215 9.93026C171.689 8.71852 171.01 7.72778 170.186 6.95805C169.423 6.22643 168.583 5.7082 167.676 5.40336C166.684 5.07565 165.585 4.90799 164.379 4.90799H158.329C157.2 4.90799 156.238 4.90037 155.46 4.87751C155.109 4.86989 154.85 4.86989 154.682 4.87751C154.651 4.87751 154.628 4.87751 154.606 4.87751H154.613C155.041 4.83178 155.422 4.64125 155.758 4.30593L155.254 4.80892L154.552 4.89275C153.232 5.05279 152.141 5.31191 151.264 5.66248C150.501 5.96732 149.639 6.63797 148.67 7.65919C148.189 8.1698 147.746 8.90142 147.35 9.85405C146.96 10.7914 146.77 11.9041 146.77 13.1997V26.8795C146.77 27.3367 146.892 27.9083 147.144 28.5942C147.426 29.3868 147.785 30.1489 148.212 30.8805C148.616 31.5664 148.975 32.0694 149.288 32.3819C149.936 33.0297 150.829 33.647 151.95 34.2262C153.003 34.7673 154.125 35.0645 155.33 35.1255L155.231 37.1755V35.1255H162.518C163.853 35.1255 164.875 34.9807 165.593 34.6834C166.462 34.3252 167.325 33.8832 168.171 33.3574C168.812 32.9611 169.423 32.4809 170.01 31.9094C170.552 31.3835 171.01 30.7738 171.384 30.0879C171.88 29.1658 172.284 28.2513 172.589 27.3367C172.864 26.5289 173.001 25.5306 173.001 24.3264V13.4359L173.009 13.4131ZM177.121 13.4131V24.3036C177.121 25.9497 176.915 27.3977 176.496 28.6323C176.114 29.7602 175.618 30.8881 175.015 32.0084C174.436 33.0754 173.726 34.0128 172.887 34.8359C172.086 35.6132 171.239 36.2839 170.346 36.8326C169.301 37.4727 168.248 38.0215 167.18 38.4635C165.959 38.9665 164.41 39.2256 162.533 39.2256H155.147C153.354 39.1341 151.668 38.6845 150.089 37.8767C148.586 37.1069 147.35 36.2381 146.396 35.2855C145.831 34.7215 145.259 33.9518 144.679 32.9611C144.122 32.0161 143.657 31.0253 143.283 29.9889C142.871 28.8533 142.665 27.8169 142.665 26.8871V13.2073C142.665 11.363 142.962 9.72449 143.565 8.29174C144.153 6.87422 144.862 5.72344 145.694 4.84702C147.067 3.3914 148.41 2.40067 149.73 1.86719C150.936 1.37945 152.378 1.0365 154.056 0.83073L154.308 2.86555L152.858 1.41755C153.209 1.06698 153.659 0.861214 154.194 0.807867C154.3 0.792625 154.438 0.792625 154.59 0.785004C154.819 0.785004 155.147 0.785004 155.559 0.785004C156.307 0.800246 157.238 0.815488 158.329 0.815488H164.379C166.027 0.815488 167.561 1.05174 168.973 1.52425C170.468 2.01961 171.826 2.85793 173.032 4.01633C174.245 5.14424 175.229 6.577 175.984 8.32222C176.732 10.0598 177.114 11.7593 177.114 13.4283L177.121 13.4131Z" fill="black"/>
<path d="M175.076 24.3264C175.076 27.1614 174.298 29.0133 173.184 31.01C172.223 32.7476 170.819 34.1271 169.24 35.0873C167.347 36.2305 165.699 37.1679 162.495 37.1679C161.656 37.1679 155.453 37.1755 155.216 37.1679C152.24 36.9926 149.455 35.4226 147.846 33.8298C146.472 32.4809 144.725 28.9524 144.725 26.8718C144.725 24.7913 144.71 16.4234 144.71 13.2149C144.71 10.0064 145.824 7.62105 147.174 6.21878C149.509 3.78766 151.279 3.2237 154.285 2.81979C154.392 2.80455 161.549 2.83503 164.395 2.83503C167.241 2.83503 169.614 3.55903 171.62 5.47954C173.634 7.39242 175.069 10.5933 175.069 13.4054C175.069 16.2176 175.076 21.4761 175.076 24.3188V24.3264ZM159.649 26.7651C161.114 26.7651 161.327 25.0199 161.327 24.174C161.327 21.4456 161.503 18.0009 161.404 16.0042C161.32 14.2895 161.114 13.0015 159.649 13.0015C157.772 13.0015 157.619 14.9144 157.635 15.8213C157.642 16.8806 157.665 20.4778 157.665 23.2823C157.665 26.0868 158.52 26.7651 159.657 26.7727L159.649 26.7651Z" fill="white"/>
<path d="M131.571 39.2255C129.915 39.2255 126.52 39.1189 122.362 38.4177C120.744 38.1434 119.127 37.8004 117.547 37.3889C116.807 37.3127 116.243 36.703 116.22 35.9485C116.197 35.0035 116.258 34.0737 116.319 33.2735C116.418 31.9474 116.403 30.6366 116.38 29.242C116.365 28.4418 116.357 27.6416 116.365 26.8337C116.365 26.0335 117.036 25.3629 117.86 25.3629H117.952C118.616 25.4086 119.31 25.6144 120.119 25.8506C121.011 26.1097 122.019 26.4069 123.255 26.5822C123.918 26.6737 124.903 26.727 126.039 26.727C128.328 26.727 130.717 26.5213 131.838 26.224C132.12 26.1478 132.22 26.0259 132.258 25.8887C132.075 25.8201 131.64 25.7058 130.686 25.7058C129.961 25.7058 129.183 25.7668 128.55 25.8201C128.191 25.8506 127.871 25.8735 127.634 25.8811C127.298 25.8963 126.963 25.904 126.635 25.904C124.14 25.904 122.225 25.4162 120.592 24.3721C119.028 23.3661 117.708 21.6895 116.983 19.7614C115.754 16.5072 116.014 12.5519 117.677 8.91663C117.723 8.80994 118.921 6.25688 121.965 4.18396C123.209 3.33802 124.575 2.73596 126.413 2.21011L126.52 2.17962C127.756 1.82905 130.648 1.00598 134.196 1.00598C134.6 1.00598 135.012 1.0136 135.432 1.03647C138.583 1.20413 144.565 2.26345 147.388 3.98581C147.937 4.32114 147.975 4.93844 147.991 5.27377C148.021 5.78438 148.044 6.11208 148.067 6.37882C148.136 7.41528 148.143 7.52198 148.12 10.3189C148.105 11.8888 148.067 14.0075 147.983 14.8077C147.922 15.3717 147.632 17.2236 146.343 17.2236H146.068L145.77 17.0712C140.788 14.2285 137.294 14.2285 136.141 14.2285C135.935 14.2285 135.745 14.2285 135.577 14.2361C132.777 14.3047 131.602 14.9068 131.487 15.1659C131.487 15.5241 131.487 15.5546 132.09 15.646C132.944 15.7832 133.524 15.7984 134.028 15.7984C134.257 15.7984 134.493 15.7984 134.73 15.7908C135.005 15.7908 135.294 15.7832 135.615 15.7832C136.065 15.7832 136.576 15.7908 137.171 15.8289C139.529 15.9661 142.23 16.2709 144.351 18.1L144.527 18.2524C146.098 19.5937 148.471 21.6285 148.471 28.7009C148.471 29.1962 148.38 31.8026 146.571 34.5157C146.22 35.0416 145.084 36.4058 142.123 37.6709C138.613 39.1722 135.569 39.1874 131.716 39.1951H131.556L131.571 39.2255Z" fill="white"/>
<path d="M134.196 2.0653C134.585 2.0653 134.974 2.07293 135.378 2.09579C138.644 2.27107 144.343 3.36088 146.854 4.90033C146.953 4.9613 146.961 5.29663 146.968 5.41094C147.105 7.62867 147.121 6.85132 147.083 10.3418C147.075 11.2029 147.044 13.8779 146.953 14.7315C146.869 15.4936 146.579 16.2176 146.343 16.2176C146.32 16.2176 146.304 16.2176 146.289 16.2024C141.581 13.5197 138.133 13.2225 136.149 13.2225C135.935 13.2225 135.737 13.2225 135.554 13.2301C132.883 13.2911 130.457 13.8703 130.457 15.1888C130.457 16.5072 131.449 16.6139 131.991 16.6977C132.792 16.8273 133.41 16.8578 134.028 16.8578C134.524 16.8578 135.02 16.8425 135.615 16.8425C136.05 16.8425 136.538 16.8501 137.118 16.8882C139.514 17.0254 141.871 17.3455 143.687 18.9078C145.198 20.211 147.449 21.8572 147.449 28.7237C147.449 29.7068 147.128 31.856 145.717 33.967C145.389 34.4624 144.343 35.6208 141.719 36.7487C138.469 38.1433 135.668 38.1815 131.716 38.1891C131.67 38.1891 131.625 38.1891 131.579 38.1891C130.312 38.1891 126.909 38.1357 122.53 37.3965C120.561 37.0612 118.913 36.6801 117.708 36.3676C117.464 36.3676 117.258 36.1771 117.25 35.9256C117.227 35.0644 117.28 34.2033 117.349 33.3573C117.517 31.193 117.364 29.0286 117.395 26.8642C117.395 26.6127 117.609 26.4146 117.853 26.4146C117.86 26.4146 117.876 26.4146 117.883 26.4146C119.066 26.4984 120.668 27.2757 123.102 27.6263C123.842 27.733 124.895 27.7863 126.032 27.7863C128.237 27.7863 130.785 27.5958 132.098 27.2529C132.769 27.0776 133.257 26.6203 133.311 25.8354C133.372 24.9285 132.09 24.7151 130.678 24.7151C129.511 24.7151 128.252 24.8599 127.581 24.8903C127.26 24.9056 126.94 24.9132 126.619 24.9132C124.658 24.9132 122.804 24.616 121.133 23.5414C119.676 22.604 118.539 21.0417 117.937 19.4413C116.731 16.2405 117.174 12.5138 118.6 9.38913C118.852 8.84042 120.081 6.75225 122.53 5.08324C123.514 4.41259 124.704 3.81052 126.68 3.25419C127.871 2.91886 130.671 2.08817 134.181 2.08817M134.196 0C130.503 0 127.512 0.845936 126.238 1.21175L126.131 1.24223C124.185 1.79095 122.721 2.44636 121.385 3.35326C118.768 5.13659 117.235 7.43052 116.739 8.50509C114.961 12.3918 114.694 16.6291 116.014 20.1424C116.655 21.8419 117.715 23.3738 119.012 24.494C118.684 24.4178 118.356 24.3721 118.036 24.3493H117.967H117.868C116.472 24.3493 115.342 25.4772 115.342 26.8642C115.327 27.6568 115.342 28.4799 115.358 29.2724C115.381 30.6366 115.403 31.9246 115.304 33.2049C115.243 34.0204 115.175 34.973 115.197 35.9561V35.9866C115.228 37.2441 116.151 38.25 117.364 38.4177C118.951 38.8216 120.577 39.1722 122.194 39.4465C126.215 40.1248 129.526 40.2696 131.594 40.2696H131.739C135.554 40.2544 138.842 40.2468 142.55 38.6616C145.648 37.3355 146.953 35.8799 147.449 35.1254C148.975 32.8315 149.524 30.3242 149.524 28.739C149.524 22.6879 147.922 20.0815 146.068 18.2753C146.159 18.2905 146.259 18.2905 146.35 18.2905C147.777 18.2905 148.799 17.0102 149.013 14.9525C149.097 14.1294 149.135 12.1022 149.158 10.4332V10.3722C149.188 7.61343 149.181 7.43052 149.105 6.34833C149.089 6.0816 149.066 5.75389 149.036 5.29663C149.013 4.84699 148.944 3.7648 147.937 3.15511C144.954 1.33368 138.751 0.228631 135.493 0.0533473C135.066 0.0304842 134.631 0.0152421 134.196 0.0152421V0Z" fill="black"/>
<path d="M119.318 21.5599L119.348 12.3385L119.379 3.07128V2.96459C119.379 3.32277 119.485 3.66572 119.699 3.97818C119.89 4.26778 120.142 4.4888 120.454 4.64122C120.729 4.7784 121.019 4.84698 121.324 4.84698H108.453C108.758 4.84698 109.048 4.7784 109.322 4.64122C109.635 4.4888 109.887 4.26016 110.078 3.97818C110.291 3.6581 110.398 3.32277 110.398 2.96459V5.80724C110.398 6.95039 110.391 8.07069 110.368 9.17574C110.345 10.3265 110.299 11.3096 110.223 12.1251L108.178 11.9269L110.23 12.0641C110.192 12.6433 110.055 13.1463 109.811 13.5807C109.46 14.2133 108.949 14.64 108.285 14.861L107.636 12.9177L108.43 14.8153C107.629 15.1506 106.881 15.1354 106.171 14.7848C105.5 14.4495 105.042 13.8855 104.798 13.0853L106.759 12.4833L104.859 13.2606C104.485 12.3461 104.157 11.2334 103.875 9.93022C103.615 8.7261 103.371 7.52197 103.15 6.31023C102.944 5.19755 102.723 4.26016 102.494 3.49806L104.462 2.90362L102.623 3.81814C102.707 3.97818 102.814 4.13061 102.952 4.26778C103.333 4.64884 103.798 4.83936 104.348 4.83936H90.5989C91.1329 4.83936 91.5831 4.64884 91.9722 4.26778C92.3614 3.88673 92.5445 3.42947 92.5445 2.896H90.492L92.5445 2.85027L92.575 4.00867L92.6284 7.04947C92.6437 8.31456 92.6589 9.67873 92.6589 11.1267C92.6589 12.5747 92.6665 13.9618 92.6894 15.3412C92.7047 16.7358 92.7199 17.9476 92.7199 18.9764C92.7199 22.0172 92.6818 25.0504 92.6131 28.0531C92.5368 31.0253 92.5063 34.0204 92.5063 37.0307C92.5063 36.4972 92.3156 36.0476 91.9341 35.6589C91.5526 35.2702 91.0948 35.0873 90.576 35.0873L103.165 35.1407C102.86 35.1407 102.57 35.2092 102.295 35.3464C101.983 35.4988 101.731 35.7275 101.54 36.0095C101.326 36.3295 101.22 36.6649 101.22 37.0231H103.272L101.22 37.0916L101.082 33.0982C101.021 31.5359 101.036 30.1336 101.113 28.899L103.165 29.0286H101.113C101.113 28.457 101.235 27.9464 101.471 27.4815C101.738 26.9557 102.135 26.5441 102.662 26.2393C103.402 25.8125 104.134 25.7439 104.882 26.0183C105.546 26.2698 106.034 26.7499 106.362 27.4663L104.493 28.3122L106.293 27.3215C106.812 28.2588 107.186 29.4554 107.423 30.9034C107.606 32.0008 107.835 32.9458 108.125 33.7384V33.7612L108.14 33.7841C108.292 34.249 108.437 34.7063 108.575 35.1711C108.697 35.5827 108.827 35.9942 108.964 36.4134L109.071 36.7258V37.0612C109.071 36.5277 108.88 36.078 108.498 35.6894C108.117 35.3083 107.659 35.1178 107.125 35.1178H121.256C120.95 35.1178 120.66 35.1864 120.386 35.3236C120.073 35.476 119.821 35.7046 119.63 35.9866C119.417 36.3067 119.31 36.642 119.31 37.0002H121.362L119.371 37.4956C119.295 37.1831 119.257 36.5353 119.257 35.5446C119.257 34.7139 119.264 33.6927 119.287 32.4733C119.302 31.2768 119.318 30.0041 119.318 28.6475C119.318 27.291 119.325 25.9497 119.348 24.677C119.363 23.4271 119.379 22.3678 119.379 21.5066L119.318 21.5599ZM123.43 21.5676C123.43 22.4516 123.422 23.5338 123.4 24.7989C123.384 26.0487 123.369 27.3519 123.369 28.7085C123.369 30.065 123.361 31.3835 123.339 32.5952C123.323 33.7917 123.308 34.7901 123.308 35.5979C123.308 35.979 123.308 36.2838 123.323 36.4972C123.323 36.581 123.323 36.6496 123.331 36.6954C123.331 36.6649 123.316 36.6191 123.3 36.5506L123.361 36.7944V37.0459C123.361 37.5184 123.239 37.9376 122.988 38.311C122.774 38.6235 122.499 38.8674 122.164 39.0426C121.858 39.1951 121.538 39.2713 121.195 39.2713H107.064C106.461 39.2713 105.95 39.0655 105.53 38.6463C105.111 38.2272 104.905 37.7166 104.905 37.1145H106.957L105.012 37.7623C104.859 37.2974 104.714 36.8402 104.577 36.3753C104.455 35.9637 104.325 35.5522 104.188 35.133L106.133 34.4852L104.203 35.1788C103.829 34.1499 103.539 32.961 103.318 31.6121C103.158 30.6214 102.929 29.8669 102.639 29.341L102.601 29.2724L102.57 29.2039C102.608 29.2953 102.669 29.3868 102.753 29.4782C102.921 29.6687 103.127 29.8059 103.379 29.8974C103.654 30.0041 103.936 30.0346 104.226 29.9812C104.394 29.9507 104.546 29.905 104.676 29.8288C104.851 29.7297 104.989 29.5849 105.08 29.3944C105.141 29.2724 105.179 29.1581 105.179 29.0667V29.1962C105.103 30.2937 105.096 31.5588 105.149 32.9915L105.286 37.0231V37.0612C105.286 37.5337 105.164 37.9528 104.912 38.3263C104.699 38.6387 104.424 38.8826 104.088 39.0579C103.783 39.2103 103.463 39.2865 103.119 39.2865L90.5073 39.2332C89.9122 39.2332 89.401 39.0274 88.9813 38.6082C88.5617 38.1891 88.3557 37.6785 88.3557 37.0764C88.3557 34.0356 88.3938 31.0024 88.4625 27.9997C88.5388 25.0275 88.5693 22.0325 88.5693 19.0221C88.5693 18.0085 88.5617 16.812 88.5388 15.4402C88.5235 14.0456 88.5083 12.6205 88.5083 11.1725C88.5083 9.72446 88.5006 8.39839 88.4778 7.15616L88.4243 4.12298L88.3938 2.96459V2.94172C88.3938 2.33966 88.5998 1.82905 89.0195 1.40989C89.4391 0.990733 89.9503 0.784965 90.5531 0.784965H104.302C104.89 0.784965 105.393 0.990733 105.813 1.40989C105.988 1.58518 106.133 1.79094 106.255 2.0272L106.332 2.17962L106.385 2.34728C106.66 3.26181 106.919 4.344 107.156 5.60909C107.369 6.77511 107.606 7.94113 107.858 9.10715C108.086 10.1741 108.346 11.0505 108.628 11.744L108.666 11.8279L108.697 11.9193C108.666 11.8279 108.621 11.7364 108.552 11.6297C108.407 11.424 108.216 11.2639 107.987 11.1496C107.735 11.0277 107.484 10.9667 107.209 10.9819C107.064 10.9819 106.934 11.0124 106.82 11.0658L106.889 11.0353L106.957 11.0124C106.614 11.1267 106.362 11.3325 106.194 11.6373C106.148 11.7136 106.126 11.7821 106.11 11.8507V11.8126V11.7821C106.179 11.0658 106.225 10.1893 106.24 9.15288C106.255 8.07069 106.271 6.96564 106.271 5.84534V3.00269C106.271 2.53019 106.393 2.11103 106.644 1.7376C106.858 1.42513 107.133 1.18126 107.468 1.00598C107.774 0.853554 108.094 0.777344 108.437 0.777344H121.309C121.652 0.777344 121.973 0.853554 122.278 1.00598C122.614 1.17364 122.888 1.41751 123.102 1.7376C123.354 2.11103 123.476 2.53019 123.476 3.00269V3.10939L123.445 12.3918L123.415 21.6133L123.43 21.5676Z" fill="black"/>
<path d="M121.301 37.0611C121.301 37.145 121.256 37.2136 121.195 37.2136H107.064C107.018 37.2136 106.98 37.1754 106.957 37.1221C106.705 36.2304 106.438 35.3464 106.148 34.4776C105.523 32.6257 105.233 29.783 104.47 28.3427C104.066 27.5882 103.158 28.1445 103.119 29.0667C103.013 31.3835 103.203 34.7062 103.242 37.0688C103.242 37.145 103.196 37.2136 103.135 37.2136L90.5531 37.1907C90.492 37.1907 90.4463 37.1221 90.4463 37.0459C90.4463 31.0405 90.6523 25.0351 90.6599 19.0297C90.6675 13.8703 90.5149 2.93408 90.5149 2.93408C90.5149 2.85787 90.5607 2.78928 90.6217 2.78928L104.34 2.81214C104.386 2.81214 104.424 2.84262 104.439 2.90359C105.21 5.4414 105.828 10.075 106.744 12.4833C106.896 12.8948 107.316 13.0777 107.636 12.9558C108.003 12.8262 108.17 12.4223 108.216 11.9574C108.422 9.67108 108.346 5.33471 108.331 2.94932C108.331 2.87311 108.376 2.80452 108.437 2.80452H121.347C121.416 2.80452 121.462 2.88073 121.454 2.96456C121.454 3.01029 121.454 3.04839 121.454 3.09412C121.454 9.25955 121.385 15.425 121.385 21.5904C121.385 25.9649 121.271 36.3219 121.324 37.0688L121.301 37.0611Z" fill="white"/>
<path d="M87.1654 28.1293C87.1654 28.5942 87.3561 28.9981 87.73 29.3334C88.0352 29.6078 88.3709 29.745 88.7219 29.745V27.6949L88.8287 29.745C88.1267 29.7831 87.1043 29.8288 85.7615 29.8821L81.5956 30.0498C80.1307 30.1032 78.8107 30.1336 77.6586 30.1336C76.392 30.1336 75.507 30.0803 75.011 29.9812H74.9653L74.9195 29.9584C73.981 29.7221 73.1417 29.2496 72.4016 28.5408C71.7989 27.9616 71.4555 27.2757 71.3868 26.4832C71.3182 25.7896 71.4708 25.1037 71.8294 24.4178C72.3101 23.4576 73.0654 22.8174 74.1031 22.4973C74.7745 22.2916 75.4764 22.1849 76.2165 22.1849C76.6743 22.1849 77.0558 22.1696 77.3534 22.1392H77.4526L77.5518 22.1315C77.8951 22.1315 78.5436 22.1392 79.505 22.162C80.4587 22.1773 81.5422 22.2077 82.7324 22.2458C83.9074 22.284 85.0519 22.3068 86.1506 22.3297C87.2569 22.3449 88.1115 22.3602 88.7219 22.3602C88.3633 22.3602 88.0352 22.4973 87.73 22.7717C87.3561 23.107 87.1654 23.5109 87.1654 23.9758V17.4675C87.1654 17.9323 87.3561 18.3363 87.73 18.6716C88.0352 18.9459 88.3709 19.0831 88.7219 19.0831H87.0814C86.143 19.0831 84.9909 19.0907 83.6328 19.1136C82.2518 19.1288 80.886 19.1441 79.5203 19.1441C78.1545 19.1441 76.9566 19.1288 75.9648 19.0907C74.889 19.0526 74.2023 18.9993 73.9123 18.9459L73.6911 18.9002L73.4851 18.8088C72.9433 18.5725 72.4474 18.2296 71.982 17.8028C71.2037 17.0712 70.8604 16.1566 70.9596 15.0668C71.0359 14.3885 71.2495 13.7941 71.6157 13.2835C71.9896 12.75 72.4932 12.3385 73.1188 12.0565C73.8666 11.7212 74.6219 11.5002 75.3773 11.4011C76.0258 11.3173 76.8956 11.2639 77.9943 11.2258C79.0625 11.1877 80.2146 11.1725 81.4659 11.1725H84.9451C86.0591 11.1725 86.9823 11.1801 87.7071 11.2029L88.7753 11.2334L88.7219 13.2835V11.2334C88.3633 11.2334 88.0352 11.3706 87.73 11.645C87.3561 11.9803 87.1654 12.3842 87.1654 12.8491H89.2178L87.1806 13.1158L87.0967 12.4833C87.0357 12.026 86.9899 11.5078 86.9441 10.9362C86.906 10.357 86.8831 9.86927 86.8831 9.45773C86.8831 9.07668 86.8907 8.52034 86.9136 7.78872C86.9289 7.0571 86.9594 6.35596 86.9975 5.67769C87.0357 5.06038 87.0509 4.67933 87.0509 4.53453V4.40497L87.0662 4.27542C87.0967 4.02392 87.1196 3.77243 87.1349 3.52855C87.1425 3.38375 87.1501 3.27706 87.1577 3.20085C87.1577 3.17036 87.1577 3.13988 87.1577 3.12464C87.1577 3.13988 87.1577 3.15512 87.1577 3.17036H89.2102L87.2646 3.81815C87.3638 4.11537 87.5469 4.35925 87.8139 4.56502C88.1038 4.78603 88.4243 4.89272 88.7753 4.89272H59.5758C59.9726 4.89272 60.3007 4.74792 60.5601 4.4507C60.85 4.123 60.9568 3.76481 60.8958 3.36089C61.3155 6.20354 61.4452 9.06143 61.2697 11.9422C61.1094 14.6477 61.0103 17.3303 60.9721 19.99L60.8882 28.2741C60.8729 31.0482 60.8043 33.8222 60.6974 36.581V36.6115V36.642C60.6974 36.5429 60.6974 36.4362 60.6593 36.3143C60.5982 36.0781 60.4762 35.8647 60.3007 35.6741C60.1252 35.4836 59.9192 35.3541 59.6903 35.2702C59.5682 35.2321 59.4614 35.2093 59.3622 35.2093H88.9965C88.5769 35.2093 88.203 35.3769 87.875 35.7046C87.5469 36.0323 87.379 36.4058 87.379 36.8249H89.4314L87.379 36.9011L87.3485 36.1924C87.3332 35.7275 87.3027 35.1635 87.2646 34.5005C87.2264 33.807 87.1959 33.1668 87.1806 32.5647C87.1654 31.9627 87.1501 31.4978 87.1501 31.1853V28.175L87.1654 28.1293ZM91.2779 28.1293V31.1396C91.2779 31.4064 91.2855 31.8255 91.3008 32.3895C91.316 32.961 91.3465 33.5707 91.3847 34.2338C91.4228 34.9197 91.4534 35.5065 91.4686 35.9866L91.4991 36.7411V36.7792C91.4991 37.4956 91.2626 38.0824 90.7896 38.5549C90.3165 39.0274 89.7214 39.2637 89.0118 39.2637H59.3775C58.5229 39.2637 57.8362 38.9817 57.3098 38.4177C56.7833 37.8538 56.5544 37.145 56.6155 36.2991L58.6679 36.4439L56.6155 36.36C56.7223 33.6469 56.791 30.9262 56.8062 28.1903L56.8901 19.8909C56.9283 17.155 57.0275 14.4038 57.1953 11.6373C57.3479 9.04619 57.2411 6.47028 56.8596 3.90961C56.7223 3.07129 56.9359 2.32443 57.5234 1.66902C58.0804 1.04409 58.7747 0.731628 59.6064 0.731628H88.8058C89.3704 0.731628 89.874 0.899292 90.3089 1.227C90.7209 1.53946 91.0185 1.951 91.1863 2.46923L91.2931 2.78169V3.11702C91.2931 3.19323 91.2855 3.40662 91.2626 3.73432C91.2397 4.06965 91.2092 4.40497 91.171 4.73268L89.1339 4.48118H91.1863C91.1863 4.70219 91.1634 5.15946 91.1253 5.85297C91.0871 6.48552 91.0642 7.15617 91.049 7.84207C91.0337 8.53558 91.0185 9.05381 91.0185 9.40438C91.0185 9.72447 91.0337 10.1208 91.0719 10.6009C91.1024 11.0886 91.1482 11.523 91.1939 11.8965L91.2931 12.6586V12.7881C91.2931 13.5502 91.0185 14.1675 90.4767 14.6477C90.0037 15.0668 89.4238 15.2726 88.7448 15.2726H88.7219L87.6308 15.2421C86.9365 15.2269 86.0514 15.2116 84.968 15.2116H81.4888C80.2909 15.2116 79.1846 15.2269 78.1622 15.265C77.1855 15.3031 76.4302 15.3488 75.9037 15.4174C75.568 15.4631 75.2094 15.5698 74.8203 15.7451C74.8813 15.7146 74.9347 15.6613 74.9958 15.5851C75.0263 15.5469 75.0416 15.5088 75.0568 15.4707C75.0873 15.1811 74.9958 14.9449 74.805 14.762C74.9271 14.8763 75.0492 14.9601 75.1636 15.0135L74.332 16.8883L74.7364 14.8763C74.8127 14.8915 75.2781 14.9144 76.1402 14.9449C77.0787 14.983 78.2156 14.9982 79.5432 14.9982C80.8708 14.9982 82.2365 14.9906 83.5946 14.9677C84.9756 14.9525 86.143 14.9373 87.1043 14.9373H88.7448C89.4314 14.9373 90.0113 15.143 90.4767 15.5622C91.0185 16.0423 91.2931 16.6672 91.2931 17.4217V23.9301C91.2931 24.6922 91.0185 25.3095 90.4767 25.7896C90.0037 26.2088 89.4238 26.4146 88.7448 26.4146C88.1115 26.4146 87.234 26.4069 86.1125 26.3841C84.9909 26.3688 83.8311 26.3384 82.6332 26.3002C81.4506 26.2621 80.3901 26.2393 79.4516 26.2164C78.5131 26.2012 77.8875 26.1859 77.5747 26.1859V24.1359L77.7807 26.1783C77.3458 26.224 76.8346 26.2469 76.2318 26.2469C75.9114 26.2469 75.6062 26.2926 75.3315 26.3765C75.4154 26.3536 75.4841 26.2926 75.5222 26.2088C75.4993 26.2545 75.4841 26.285 75.4841 26.2926C75.4841 26.2926 75.4841 26.285 75.4841 26.2774C75.4993 26.2088 75.507 26.1326 75.4993 26.0488C75.4764 25.8277 75.4002 25.6601 75.2781 25.5381C75.4917 25.7439 75.713 25.8735 75.9419 25.9268L75.4459 27.9159L75.8503 25.904C76.0792 25.9497 76.6972 25.9725 77.6967 25.9725C78.8031 25.9725 80.062 25.9421 81.4811 25.8887L85.6394 25.721C86.9594 25.6677 87.9665 25.622 88.6532 25.5839H88.7066H88.76C89.4467 25.5839 90.0266 25.7896 90.492 26.2088C91.0337 26.6889 91.3084 27.3138 91.3084 28.0683L91.2779 28.1293Z" fill="black"/>
<path d="M89.2026 31.1701C89.2102 32.1913 89.4238 36.7716 89.4238 36.7716C89.4238 37.0155 89.2254 37.2212 88.9737 37.2212H59.3622C58.9578 37.2212 58.6298 36.8859 58.6526 36.482C58.8739 30.9796 58.8815 25.462 58.9349 19.9519C58.9807 14.5181 59.6827 9.05383 58.8892 3.64289C58.8205 3.20087 59.1486 2.81219 59.5911 2.81219H88.7905C88.9966 2.81219 89.172 2.95699 89.2254 3.15514C89.2407 3.22373 89.172 3.94011 89.1186 4.51169C89.0652 5.08327 88.9889 8.3527 88.9584 9.45013C88.9279 10.5476 89.2026 12.8186 89.2026 12.8186C89.2026 13.0625 89.0042 13.2683 88.7524 13.2683C88.7524 13.2683 78.4292 13.0244 75.6596 13.4359C74.5685 13.596 73.1341 13.9694 73.0273 15.2802C72.9586 16.1033 73.6453 16.6749 74.3472 16.9188C75.1636 17.2007 88.0123 17.0483 88.7524 17.0407C89.0042 17.0407 89.2102 17.2465 89.2102 17.498V22.0477C89.2102 22.8479 89.2102 23.3204 89.2102 23.9987C89.2102 24.2426 89.0042 24.4484 88.76 24.4484C86.1888 24.4484 78.8336 24.1511 77.5823 24.2273C76.4455 24.2959 74.3167 24.0673 73.6453 25.3553C72.9357 26.7347 74.2252 27.7102 75.423 27.9921C76.8346 28.3198 85.8988 27.794 88.7371 27.7178C88.9966 27.7178 89.2026 27.9159 89.2026 28.1674C89.2026 29.1277 89.2026 30.3318 89.2102 31.193L89.2026 31.1701Z" fill="white"/>
<path d="M47.7191 4.84698C48.2303 4.84698 48.6728 4.66408 49.0314 4.29827C49.2603 4.06963 49.4129 3.8029 49.4892 3.50568L47.4978 3.01031L49.5503 3.10938C49.474 4.71742 49.329 6.17304 49.1154 7.47624C48.9093 8.71085 48.6881 9.97595 48.4516 11.2639C48.2227 12.4757 48.0395 13.8703 47.9022 15.4479V15.5241L47.8793 15.6003C47.7649 16.2862 47.4826 16.8349 47.0248 17.2541C46.4296 17.7951 45.7277 18.0009 44.9037 17.8714C44.1941 17.757 43.6295 17.4293 43.1946 16.8806C42.8512 16.4386 42.6452 15.8899 42.5918 15.2421C42.485 13.6493 42.3477 12.2318 42.1722 10.9895C41.9891 9.70159 41.806 8.45936 41.6305 7.26285C41.4397 5.99014 41.3024 4.61073 41.2261 3.117V3.06366V3.01031C41.2261 3.50568 41.4092 3.93246 41.7754 4.29827C42.1417 4.66408 42.5689 4.84698 43.0649 4.84698H30.1323C30.6664 4.84698 31.1165 4.65646 31.5057 4.2754C31.8872 3.89435 32.0779 3.43709 32.0779 2.90361H30.0255L32.0321 2.46159C32.116 2.85027 32.2381 3.61999 32.3907 4.77077C32.5357 5.88344 32.6883 7.14092 32.8333 8.55081C32.9782 9.93022 33.1232 11.2487 33.2682 12.4985C33.4055 13.695 33.5428 14.6095 33.6725 15.2421L33.6954 15.3488V15.4555C33.7412 15.7832 33.8175 16.3243 33.9396 17.0864C34.0693 17.9018 34.199 18.7706 34.3287 19.6928L34.6873 22.2382C34.8018 23.0384 34.8781 23.6176 34.9162 23.9606L32.8714 24.1892L34.9086 23.9149C35.2061 26.0868 35.4656 28.2741 35.6868 30.469C35.9005 32.5571 36.2285 34.5996 36.6863 36.5963L36.7397 36.8249V37.0535C36.7397 36.7868 36.6863 36.5353 36.5795 36.2914C36.4422 35.9866 36.2438 35.7351 35.9768 35.537C35.6487 35.2931 35.2901 35.1711 34.9086 35.1711H56.3866C55.8754 35.1711 55.4329 35.354 55.0743 35.7199C54.8454 35.9485 54.6928 36.2152 54.6165 36.5124L56.6079 37.0078H54.5554C54.5554 36.6496 54.6012 35.9866 54.7004 35.0263L54.998 31.9703C55.1124 30.7738 55.265 29.6002 55.4558 28.4646L57.4853 28.7999L55.4481 28.5484C55.5244 27.954 55.6694 26.8794 55.8907 25.34C56.1119 23.8158 56.3561 22.0172 56.6307 19.9443L57.4777 13.5426L58.3017 7.41528C58.5535 5.52526 58.7595 4.00105 58.9044 2.83502V2.75881L58.9273 2.6826C58.8892 2.85789 58.8892 3.04841 58.9121 3.23894C58.9579 3.58189 59.0876 3.88673 59.3088 4.16109C59.5301 4.44307 59.8124 4.64121 60.1481 4.76315C60.3389 4.83174 60.5296 4.86222 60.7203 4.86222H47.7343L47.7191 4.84698ZM47.7191 0.746857H60.7051C61.4528 0.746857 62.0556 1.02884 62.4981 1.58517C62.933 2.12627 63.078 2.75881 62.933 3.47519L60.9187 3.07128L62.9559 3.32277C62.8109 4.49641 62.6049 6.03587 62.3531 7.94113L61.5291 14.0685L60.6822 20.4701C60.4075 22.5583 60.1634 24.3721 59.9421 25.9116C59.7285 27.4282 59.5835 28.4799 59.5072 29.0514V29.0895L59.4919 29.1276C59.3165 30.1717 59.1791 31.2463 59.0723 32.3514L58.7671 35.4226C58.6832 36.2533 58.6374 36.7792 58.6374 37.0002V37.2517L58.5764 37.4956C58.4695 37.9376 58.2559 38.311 57.9507 38.6159C57.5158 39.0503 56.9817 39.2713 56.3637 39.2713H34.8857C34.3592 39.2713 33.8938 39.1188 33.4894 38.8216C33.1842 38.593 32.9553 38.311 32.8027 37.9604C32.673 37.6708 32.612 37.3736 32.612 37.0535H34.6644L32.6578 37.5108C32.1618 35.3464 31.8032 33.1439 31.5743 30.8881C31.3607 28.739 31.1013 26.6051 30.819 24.4712V24.4483V24.4255C30.7808 24.113 30.7122 23.5795 30.6053 22.8098L30.2467 20.2644C30.117 19.3651 29.9949 18.5191 29.8652 17.7342C29.7279 16.8959 29.644 16.2709 29.6058 15.867L31.6506 15.6613L29.644 16.0804C29.4837 15.3259 29.3312 14.2895 29.1786 12.9634C29.0336 11.6983 28.881 10.3646 28.736 8.97759C28.5911 7.61342 28.4461 6.38643 28.3011 5.31187C28.1638 4.2754 28.0646 3.61999 28.0036 3.35326L27.9578 3.13225V2.90361C27.9578 2.30155 28.1638 1.79094 28.5834 1.37178C29.0031 0.952625 29.5143 0.746857 30.117 0.746857H43.0496C43.6905 0.746857 44.2322 0.967867 44.6671 1.40227C45.102 1.83667 45.3233 2.37776 45.3233 3.01793H43.2709L45.3233 2.91123C45.392 4.26778 45.5141 5.51001 45.6895 6.64555C45.8727 7.8573 46.0558 9.11477 46.2389 10.418C46.4296 11.7593 46.5822 13.2835 46.6891 14.9754C46.6738 14.7696 46.5899 14.5638 46.4296 14.3657C46.1931 14.0608 45.8956 13.8779 45.5293 13.8246C45.0486 13.7484 44.6214 13.8855 44.2399 14.2361C43.9957 14.4571 43.8508 14.6934 43.8126 14.9449L45.8421 15.2802L43.7973 15.0973C43.9499 13.3902 44.1483 11.866 44.4001 10.5247C44.6366 9.25957 44.8503 8.02496 45.0486 6.82083C45.2394 5.67768 45.3691 4.37448 45.4378 2.92648V2.72071L45.4988 2.52256C45.6056 2.08054 45.8193 1.70711 46.1244 1.40227C46.5593 0.967867 47.0934 0.746857 47.7115 0.746857H47.7191Z" fill="black"/>
<path d="M47.742 2.81213H60.7051C60.8348 2.81213 60.9416 2.92644 60.9263 3.056C60.2244 8.848 57.8439 25.9496 57.4548 28.777C56.997 32.0922 56.6536 36.0856 56.5773 37.0154C56.5697 37.1297 56.4705 37.2212 56.3561 37.2212H34.878C34.7789 37.2212 34.6873 37.1526 34.6644 37.0535C33.7336 32.8924 33.4742 28.4646 32.9019 24.2197C32.7112 22.8174 31.9177 17.1321 31.6506 15.6536C31.1471 12.8643 30.3764 4.29061 30.0331 2.89596C30.0331 2.86547 30.0331 2.81213 30.1399 2.81213H43.0496C43.1641 2.81213 43.2633 2.90358 43.2709 3.01789C43.4769 7.2552 44.3467 10.1512 44.6443 15.1125C44.6977 16.0118 45.7506 16.149 45.8421 15.2954C46.3686 10.296 47.2155 7.5829 47.5283 3.01027C47.5283 2.88834 47.6352 2.8045 47.7496 2.8045L47.742 2.81213Z" fill="white"/>
<path d="M30.5748 28.1293C30.5748 28.5942 30.7655 28.9981 31.1394 29.3334C31.4446 29.6078 31.7803 29.745 32.1313 29.745V27.6949L32.2381 29.745C31.5362 29.7831 30.5138 29.8288 29.1709 29.8821L25.005 30.0498C23.5401 30.1032 22.2201 30.1336 21.068 30.1336C19.8015 30.1336 18.9164 30.0803 18.4205 29.9812H18.3747L18.3289 29.9584C17.3904 29.7221 16.5511 29.2496 15.811 28.5408C15.2083 27.9616 14.8649 27.2757 14.7963 26.4832C14.7276 25.7896 14.8802 25.1037 15.2388 24.4178C15.7195 23.4576 16.4748 22.8174 17.5125 22.4973C18.1839 22.2916 18.8859 22.1849 19.626 22.1849C20.0838 22.1849 20.4653 22.1696 20.7628 22.1392H20.862L20.9612 22.1315C21.3045 22.1315 21.9531 22.1392 22.9144 22.162C23.8682 22.1773 24.9516 22.2077 26.1419 22.2458C27.3169 22.284 28.4613 22.3068 29.56 22.3297C30.6664 22.3449 31.5209 22.3602 32.1313 22.3602C31.7727 22.3602 31.4446 22.4973 31.1394 22.7717C30.7655 23.107 30.5748 23.5109 30.5748 23.9758V17.4675C30.5748 17.9323 30.7655 18.3363 31.1394 18.6716C31.4446 18.9459 31.7803 19.0831 32.1313 19.0831H30.4909C29.5524 19.0831 28.4003 19.0907 27.0422 19.1136C25.6612 19.1288 24.2954 19.1441 22.9297 19.1441C21.5639 19.1441 20.3661 19.1288 19.3742 19.0907C18.2984 19.0526 17.6117 18.9993 17.3218 18.9459L17.1005 18.9002L16.8945 18.8088C16.3528 18.5725 15.8568 18.2296 15.3914 17.8028C14.6132 17.0712 14.2698 16.1566 14.369 15.0668C14.4453 14.3885 14.6589 13.7941 15.0252 13.2835C15.399 12.75 15.9026 12.3385 16.5282 12.0565C17.276 11.7212 18.0313 11.5002 18.7867 11.4011C19.4352 11.3173 20.305 11.2639 21.4037 11.2258C22.4719 11.1877 23.624 11.1725 24.8753 11.1725H28.3545C29.4685 11.1725 30.3917 11.1801 31.1165 11.2029L32.1847 11.2334L32.1313 13.2835V11.2334C31.7727 11.2334 31.4446 11.3706 31.1394 11.645C30.7655 11.9803 30.5748 12.3842 30.5748 12.8491H32.6272L30.5901 13.1158L30.5061 12.4833C30.4451 12.026 30.3993 11.5078 30.3535 10.9362C30.3154 10.357 30.2925 9.86927 30.2925 9.45773C30.2925 9.07668 30.3001 8.52034 30.323 7.78872C30.3383 7.0571 30.3688 6.35596 30.4069 5.67769C30.4451 5.06038 30.4604 4.67933 30.4604 4.53453V4.40497L30.4756 4.27542C30.5061 4.02392 30.529 3.77243 30.5443 3.52855C30.5519 3.38375 30.5595 3.27706 30.5672 3.20085C30.5672 3.17036 30.5672 3.13988 30.5672 3.12464C30.5672 3.13988 30.5672 3.15512 30.5672 3.17036H32.6196L30.674 3.81815C30.7732 4.11537 30.9563 4.35925 31.2233 4.56502C31.5133 4.78603 31.8337 4.89272 32.1847 4.89272H2.9929C3.38965 4.89272 3.71773 4.74792 3.97715 4.4507C4.26708 4.123 4.3739 3.76481 4.31286 3.36089C4.7325 6.20354 4.86221 9.06143 4.68673 11.9422C4.5265 14.6477 4.42731 17.3303 4.38916 19.99L4.30523 28.2741C4.28997 31.0482 4.2213 33.8222 4.11449 36.581V36.6115V36.642C4.11449 36.5429 4.11449 36.4362 4.07634 36.3143C4.0153 36.0781 3.89322 35.8647 3.71773 35.6741C3.54225 35.4836 3.33624 35.3541 3.10735 35.2702C2.98527 35.2321 2.87845 35.2093 2.77926 35.2093H32.4136C31.994 35.2093 31.6201 35.3769 31.292 35.7046C30.9639 36.0323 30.7961 36.4058 30.7961 36.8249H32.8485L30.7961 36.9011L30.7655 36.1924C30.7503 35.7275 30.7198 35.1635 30.6816 34.5005C30.6435 33.807 30.6129 33.1668 30.5977 32.5647C30.5824 31.9627 30.5672 31.4978 30.5672 31.1853V28.175L30.5748 28.1293ZM34.6873 28.1293V31.1396C34.6873 31.4064 34.6949 31.8255 34.7102 32.3895C34.7254 32.961 34.756 33.5707 34.7941 34.2338C34.8323 34.9197 34.8628 35.5065 34.878 35.9866L34.9086 36.7411V36.7792C34.9086 37.4956 34.672 38.0824 34.199 38.5549C33.7259 39.0274 33.1308 39.2637 32.4212 39.2637H2.77163C1.91709 39.2637 1.2304 38.9817 0.703945 38.4177C0.177485 37.8538 -0.05141 37.145 0.00962882 36.2991L2.06206 36.4439L0.00962882 36.36C0.116447 33.6469 0.185115 30.9262 0.200375 28.1903L0.284303 19.8909C0.322453 17.155 0.421641 14.4038 0.589497 11.6373C0.742094 9.04619 0.635276 6.47028 0.253784 3.90961C0.116447 3.07129 0.330083 2.32443 0.917581 1.66902C1.47456 1.04409 2.16888 0.731628 3.00053 0.731628H32.2C32.7646 0.731628 33.2681 0.899292 33.703 1.227C34.115 1.53946 34.4126 1.951 34.5805 2.46923L34.6873 2.78169V3.11702C34.6873 3.19323 34.6797 3.40662 34.6568 3.73432C34.6339 4.06965 34.6034 4.40497 34.5652 4.73268L32.528 4.48118H34.5805C34.5805 4.70219 34.5576 5.15946 34.5194 5.85297C34.4813 6.48552 34.4584 7.15617 34.4431 7.84207C34.4279 8.53558 34.4126 9.05381 34.4126 9.40438C34.4126 9.72447 34.4279 10.1208 34.466 10.6009C34.4965 11.0886 34.5423 11.523 34.5881 11.8965L34.6873 12.6586V12.7881C34.6873 13.5502 34.4126 14.1675 33.8709 14.6477C33.3978 15.0668 32.818 15.2726 32.1389 15.2726H32.116L31.025 15.2421C30.3306 15.2269 29.4456 15.2116 28.3621 15.2116H24.8829C23.685 15.2116 22.5787 15.2269 21.5563 15.265C20.5797 15.3031 19.8243 15.3488 19.2979 15.4174C18.9622 15.4631 18.6036 15.5698 18.2144 15.7451C18.2755 15.7146 18.3289 15.6613 18.3899 15.5851C18.4205 15.5469 18.4357 15.5088 18.451 15.4707C18.4815 15.1811 18.3899 14.9449 18.1992 14.762C18.3213 14.8763 18.4433 14.9601 18.5578 15.0135L17.7261 16.8883L18.1305 14.8763C18.2068 14.8915 18.6722 14.9144 19.5344 14.9449C20.4729 14.983 21.6097 14.9982 22.9373 14.9982C24.2649 14.9982 25.6307 14.9906 26.9888 14.9677C28.3698 14.9525 29.5371 14.9373 30.4985 14.9373H32.1389C32.8256 14.9373 33.4055 15.143 33.8709 15.5622C34.4126 16.0423 34.6873 16.6672 34.6873 17.4217V23.9301C34.6873 24.6922 34.4126 25.3095 33.8709 25.7896C33.3978 26.2088 32.818 26.4146 32.1389 26.4146C31.5056 26.4146 30.6282 26.4069 29.5066 26.3841C28.385 26.3688 27.2253 26.3384 26.0274 26.3002C24.8448 26.2621 23.7842 26.2393 22.8458 26.2164C21.9073 26.2012 21.2816 26.1859 20.9688 26.1859V24.1359L21.1748 26.1783C20.7399 26.224 20.2287 26.2469 19.626 26.2469C19.3055 26.2469 19.0003 26.2926 18.7256 26.3765C18.8096 26.3536 18.8782 26.2926 18.9164 26.2088C18.8935 26.2545 18.8782 26.285 18.8782 26.2926C18.8782 26.2926 18.8782 26.285 18.8782 26.2774C18.8935 26.2088 18.9011 26.1326 18.8935 26.0488C18.8706 25.8277 18.7943 25.6601 18.6722 25.5381C18.8859 25.7439 19.1071 25.8735 19.336 25.9268L18.8401 27.9159L19.2445 25.904C19.4734 25.9497 20.0914 25.9725 21.0909 25.9725C22.1972 25.9725 23.4562 25.9421 24.8753 25.8887L29.0336 25.721C30.3535 25.6677 31.3607 25.622 32.0474 25.5839H32.1008H32.1542C32.8409 25.5839 33.4207 25.7896 33.8862 26.2088C34.4279 26.6889 34.7025 27.3138 34.7025 28.0683L34.6873 28.1293Z" fill="black"/>
<path d="M32.612 31.1701C32.6196 32.1913 32.8332 36.7716 32.8332 36.7716C32.8332 37.0155 32.6349 37.2212 32.3831 37.2212H2.77165C2.36727 37.2212 2.04682 36.8859 2.06208 36.482C2.28334 30.9796 2.29097 25.462 2.34438 19.9519C2.39016 14.5181 3.09211 9.05383 2.2986 3.64289C2.22993 3.20087 2.55802 2.81219 3.00055 2.81219H32.2C32.406 2.81219 32.5815 2.95699 32.6349 3.15514C32.6501 3.22373 32.5815 3.94011 32.5281 4.51169C32.4746 5.08327 32.3983 8.3527 32.3678 9.45013C32.3373 10.5476 32.612 12.8186 32.612 12.8186C32.612 13.0625 32.4136 13.2683 32.1618 13.2683C32.1618 13.2683 21.8386 13.0244 19.069 13.4359C17.9779 13.596 16.5435 13.9694 16.4367 15.2802C16.368 16.1033 17.0547 16.6749 17.7567 16.9188C18.5731 17.2007 31.4217 17.0483 32.1618 17.0407C32.4136 17.0407 32.6196 17.2465 32.6196 17.498V22.0477C32.6196 22.8479 32.6196 23.3204 32.6196 23.9987C32.6196 24.2426 32.4136 24.4484 32.1695 24.4484C29.5982 24.4484 22.243 24.1511 20.9917 24.2273C19.8549 24.2959 17.7262 24.0673 17.0547 25.3553C16.3452 26.7347 17.6346 27.7102 18.8325 27.9921C20.244 28.3198 29.3083 27.794 32.1466 27.7178C32.406 27.7178 32.612 27.9159 32.612 28.1674C32.612 29.1277 32.612 30.3318 32.6196 31.193L32.612 31.1701Z" fill="white"/>
</svg>
