<svg width="134" height="37" viewBox="0 0 134 37" fill="none" xmlns="http://www.w3.org/2000/svg">
<path fill-rule="evenodd" clip-rule="evenodd" d="M99.5433 32.1862C96.0806 35.1341 92.0046 36.6068 87.3245 36.6068C82.302 36.6068 77.9525 34.8428 74.2893 31.3224C70.6575 27.7656 68.8383 23.4376 68.8383 18.3559C68.8383 13.2734 70.6567 8.94382 74.2884 5.38698C77.9509 1.79952 82.3003 0 87.3236 0C90.2981 0 92.9097 0.488145 95.1598 1.47602C97.4091 2.42666 99.6776 4.05326 101.968 6.34176L102.156 6.52874L98.6366 10.3197L98.4352 10.1518C96.1975 8.28441 94.4777 7.03261 93.2652 6.37816C91.4676 5.43248 89.4901 4.95757 87.3245 4.9584C83.5858 4.95757 80.4803 6.26481 77.994 8.87846C75.5018 11.4979 74.257 14.6502 74.2561 18.3559C74.257 22.0253 75.5001 25.1618 77.994 27.7804C80.4803 30.3958 83.585 31.7005 87.3236 31.7005C90.7797 31.7013 93.6904 30.7019 96.0781 28.7112C98.5529 26.6527 99.8218 24.0159 99.8889 20.7842H87.6999V15.8755L105.361 15.8747L105.361 19.1055C105.361 24.5223 103.424 28.8916 99.5433 32.1862ZM129.947 32.9267C127.454 35.312 124.458 36.5075 120.976 36.5075C117.528 36.5075 114.549 35.3111 112.056 32.9267C109.558 30.5339 108.309 27.4892 108.309 23.8124C108.309 20.172 109.54 17.1447 112.005 14.7528C114.498 12.3311 117.494 11.1181 120.976 11.1181C124.427 11.1181 127.404 12.3302 129.897 14.7511C132.43 17.1422 133.694 20.1695 133.694 23.8132C133.694 27.4892 132.448 30.5331 129.947 32.9267ZM126.395 18.0448C124.98 16.5672 123.181 15.8258 120.976 15.8258C118.738 15.8258 116.922 16.5672 115.507 18.0448C114.127 19.4853 113.426 21.3998 113.426 23.8132C113.426 26.1919 114.142 28.1056 115.557 29.5833C116.974 31.061 118.772 31.8014 120.976 31.8014C123.181 31.8014 124.98 31.061 126.395 29.5833C127.811 28.1056 128.527 26.1911 128.527 23.8132C128.527 21.437 127.811 19.5217 126.395 18.0448ZM65.1121 8.5773C64.6099 9.14983 63.8731 9.41625 62.9531 9.41542C62.0887 9.41625 61.3569 9.1366 60.7966 8.5773C60.2811 7.99069 60.0184 7.2833 60.0184 6.48572C60.0184 5.68731 60.2761 4.99977 60.7958 4.44543C61.327 3.87538 62.0588 3.60566 62.9539 3.60566C63.8208 3.60566 64.5344 3.89606 65.0624 4.49425C65.6094 5.04527 65.8887 5.71296 65.8887 6.48572C65.8887 7.31308 65.6334 8.01717 65.1121 8.5773ZM60.4709 36.0078V11.6187H65.437V36.0078H60.4709ZM53.5845 32.815C51.2871 35.2789 48.3192 36.5075 44.704 36.5075C40.8858 36.5075 37.782 35.1953 35.4174 32.5601C33.1921 30.0665 32.0857 26.9432 32.0857 23.2109C32.0857 19.8386 33.2336 16.9792 35.5268 14.6568C37.8516 12.3013 40.6297 11.1181 43.8504 11.1181C46.4005 11.1181 48.7054 11.6791 50.7558 12.8043L50.8992 12.8837V18.1739L50.4682 17.881C49.6544 17.33 48.6855 16.8534 47.5675 16.458C46.4867 16.0352 45.4972 15.8258 44.6029 15.8258C42.2914 15.8258 40.4623 16.5548 39.084 17.9944C37.7032 19.4373 37.0037 21.3485 37.0037 23.7636C37.0037 26.1406 37.7173 28.0733 39.1354 29.5841C40.5833 31.061 42.4315 31.8014 44.7032 31.8014C46.8299 31.8014 48.5778 30.9997 49.9643 29.3922C51.3749 27.7904 52.1026 25.444 52.1026 22.3107V0.600668H57.0687V23.1116C57.0687 27.0739 55.9142 30.3188 53.5845 32.815ZM24.17 36.0069V21.8102C24.17 20.0711 23.6213 18.6538 22.5381 17.5418C21.4888 16.3976 20.1885 15.8258 18.6262 15.8258C17.1344 15.8258 15.8332 16.3926 14.7102 17.5451C13.6286 18.6563 13.0833 20.0711 13.0833 21.8102V36.0069H8.16688V21.8102C8.16688 18.6769 9.14153 16.1005 11.1041 14.1049C13.0692 12.1093 15.5837 11.1181 18.6262 11.1181C21.6372 11.1181 24.1509 12.111 26.1458 14.1041C28.144 16.098 29.1361 18.6761 29.1369 21.8102L29.1361 36.0069H24.17ZM0 36.0069V0.600668H5.21639L5.21722 36.0069H0Z" fill="white"/>
</svg>
