<svg width="204" height="45" viewBox="0 0 204 45" fill="none" xmlns="http://www.w3.org/2000/svg">
<path d="M100.532 5.56552C101.252 5.56552 101.839 6.1523 101.839 6.87195V25.317H94.2141V20.9549H89.005V25.317H81.3797V6.87195C81.3797 6.1523 81.9671 5.56552 82.6875 5.56552H100.52M94.2252 10.603C94.2252 9.17481 93.0615 8.00124 91.6206 8.00124C90.1798 8.00124 89.0161 9.16374 89.0161 10.603V18.1759H94.2252V10.603ZM202.232 5.56552C202.952 5.56552 203.55 6.1523 203.55 6.87195V25.317H195.925V20.9549H190.716V25.317H183.091V6.87195C183.091 6.1523 183.678 5.56552 184.399 5.56552H202.232ZM195.914 10.603C195.914 9.17481 194.75 8.00124 193.31 8.00124C191.869 8.00124 190.705 9.16374 190.705 10.603V18.1759H195.914V10.603ZM152.556 5.56552C153.277 5.56552 153.864 6.1523 153.864 6.87195V17.0577C153.864 18.3641 152.878 19.4491 151.57 19.5599C152.867 19.6816 153.864 20.7556 153.864 22.062V25.3059H146.239V23.1027C146.239 21.907 145.275 20.9438 144.078 20.9438H141.03V25.3059H133.405V5.55444H152.545M146.239 10.603C146.239 9.1416 145.031 7.95695 143.557 8.01231C142.138 8.0566 141.041 9.2966 141.041 10.7137V18.1759H145.142C145.751 18.1759 146.239 17.6777 146.239 17.0688V10.592V10.603ZM163.274 25.317H172.728V5.56552H163.274V25.317ZM108.035 8.01231H112.9V25.317H122.355V8.01231H127.22V5.56552H108.035V8.01231ZM81.3908 38.5917H82.6099V31.8824H81.3908V38.5917ZM85.2478 38.5917V36.2003C85.2478 35.0931 85.2256 34.2074 85.1813 33.3438H85.2256C85.5581 34.0967 85.9903 34.9049 86.4226 35.6467L88.1737 38.6028H89.4483V31.8935H88.3178V34.2296C88.3178 35.2592 88.34 36.1228 88.4287 37.0196H88.4065C88.0962 36.2889 87.6972 35.5138 87.2649 34.7721L85.5359 31.8935H84.1283V38.6028H85.2588L85.2478 38.5917ZM90.6453 38.2817C91.0111 38.5142 91.7536 38.7024 92.474 38.7024C94.203 38.7024 95.0121 37.7724 95.0121 36.6874C95.0121 35.7242 94.4579 35.1374 93.2942 34.6946C92.3965 34.3403 92.0085 34.1078 92.0085 33.5874C92.0085 33.1888 92.341 32.7792 93.1058 32.7792C93.7375 32.7792 94.203 32.9674 94.4579 33.1003L94.7461 32.1149C94.3914 31.9378 93.8705 31.7717 93.139 31.7717C91.676 31.7717 90.7561 32.6021 90.7561 33.6981C90.7561 34.6614 91.4655 35.2481 92.5849 35.6467C93.4272 35.9567 93.7708 36.2556 93.7708 36.7649C93.7708 37.3074 93.3275 37.6839 92.5516 37.6839C91.9199 37.6839 91.3214 37.4846 90.9224 37.2521L90.6453 38.2707V38.2817ZM97.5058 38.5917H98.7361V32.9121H100.665V31.8935H95.5995V32.9121H97.5169V38.5917H97.5058ZM101.551 38.5917H102.77V31.8824H101.551V38.5917ZM105.563 38.5917H106.783V32.9121H108.711V31.8935H103.646V32.9121H105.563V38.5917ZM109.587 31.8935V35.7353C109.587 37.8499 110.595 38.7135 112.147 38.7135C113.698 38.7135 114.829 37.7946 114.829 35.7242V31.8935H113.599V35.8017C113.599 37.1192 113.067 37.7282 112.18 37.7282C111.349 37.7282 110.806 37.1192 110.806 35.8017V31.8935H109.587ZM117.622 38.5917H118.852V32.9121H120.781V31.8935H115.716V32.9121H117.633V38.5917H117.622ZM125.425 34.6281H122.898V32.901H125.58V31.8935H121.667V38.6028H125.724V37.5953H122.898V35.6246H125.425V34.6281ZM131.908 31.7717C130.013 31.7717 128.716 33.2221 128.716 35.2924C128.716 37.2521 129.913 38.7024 131.82 38.7024C133.726 38.7024 135.023 37.4181 135.023 35.1706C135.023 33.2442 133.87 31.7717 131.908 31.7717ZM131.864 32.7571C133.083 32.7571 133.715 33.9528 133.715 35.2149C133.715 36.621 133.05 37.7282 131.864 37.7282C130.678 37.7282 130.002 36.6432 130.002 35.2703C130.002 33.8974 130.645 32.7681 131.864 32.7681M136.164 38.5917H137.394V35.7353H139.866V34.7388H137.394V32.8899H140.054V31.8824H136.164V38.5917ZM144.388 38.5917H145.607V32.9121H147.547V31.8935H142.471V32.9121H144.388V38.5917ZM152.18 34.6281H149.653V32.901H152.335V31.8935H148.433V38.6028H152.49V37.5953H149.664V35.6246H152.191V34.6281H152.18ZM158.264 37.4403C157.932 37.5842 157.422 37.6839 156.934 37.6839C155.449 37.6839 154.596 36.7539 154.596 35.2703C154.596 33.6539 155.582 32.8013 156.945 32.8013C157.488 32.8013 157.943 32.9231 158.264 33.0671L158.519 32.0928C158.264 31.9599 157.699 31.7938 156.89 31.7938C154.84 31.7938 153.299 33.1335 153.299 35.3367C153.299 37.3849 154.596 38.7246 156.724 38.7246C157.544 38.7246 158.176 38.5696 158.464 38.4257L158.264 37.4624V37.4403ZM159.605 31.8935V38.6028H160.825V35.6467H163.662V38.6028H164.892V31.8935H163.662V34.5838H160.825V31.8935H159.605ZM167.519 38.5917V36.2003C167.519 35.0931 167.497 34.2074 167.452 33.3438H167.486C167.818 34.0967 168.25 34.9049 168.683 35.6467L170.434 38.6028H171.708V31.8935H170.578V34.2296C170.578 35.2592 170.6 36.1228 170.689 37.0196H170.666C170.356 36.2889 169.957 35.5138 169.525 34.7721L167.796 31.8935H166.388V38.6028H167.519V38.5917ZM176.064 31.7717C174.169 31.7717 172.872 33.2221 172.872 35.2924C172.872 37.2521 174.069 38.7024 175.964 38.7024C177.859 38.7024 179.167 37.4181 179.167 35.1706C179.167 33.2442 178.015 31.7717 176.064 31.7717ZM176.031 32.7571C177.25 32.7571 177.882 33.9528 177.882 35.2149C177.882 36.621 177.206 37.7282 176.031 37.7282C174.856 37.7282 174.169 36.6432 174.169 35.2703C174.169 33.8974 174.812 32.7681 176.031 32.7681M180.331 38.5917H184.321V37.5732H181.561V31.8935H180.331V38.6028V38.5917ZM187.801 31.7717C185.906 31.7717 184.598 33.2221 184.598 35.2924C184.598 37.2521 185.795 38.7024 187.701 38.7024C189.608 38.7024 190.904 37.4181 190.904 35.1706C190.904 33.2442 189.752 31.7717 187.801 31.7717ZM187.757 32.7571C188.987 32.7571 189.608 33.9528 189.608 35.2149C189.608 36.621 188.943 37.7282 187.757 37.7282C186.571 37.7282 185.895 36.6432 185.895 35.2703C185.895 33.8974 186.549 32.7681 187.757 32.7681M197.444 34.8938H195.072V35.8571H196.258V37.5399C196.091 37.6064 195.781 37.6728 195.338 37.6728C193.941 37.6728 193.01 36.7649 193.01 35.2481C193.01 33.7314 194.019 32.8456 195.449 32.8456C196.158 32.8456 196.601 32.9674 196.978 33.1335L197.244 32.1481C196.934 31.9931 196.291 31.8271 195.46 31.8271C193.232 31.8271 191.736 33.1778 191.725 35.3146C191.725 36.3331 192.068 37.2189 192.656 37.7835C193.287 38.3924 194.163 38.6803 195.293 38.6803C196.18 38.6803 197.011 38.4589 197.444 38.3039V34.9049V34.8938ZM201.544 38.5917V35.7685L203.772 31.8824H202.387L201.578 33.5985C201.345 34.0856 201.156 34.5063 201.001 34.9381H200.979C200.791 34.4842 200.624 34.0967 200.392 33.5985L199.594 31.8824H198.186L200.303 35.7906V38.5917H201.522H201.544Z" fill="white"/>
<path d="M15.3254 16.8057H15.5168V17.5112H15.3254V16.8057ZM15.3254 16.3838H15.5168V15.0454H15.3254V16.3838ZM15.8732 17.5112H16.0646V16.8057H15.8732V17.5112ZM15.8732 16.3838H16.0646V15.0454H15.8732V16.3838ZM16.421 17.5112H16.619V16.8057H16.421V17.5112ZM16.421 16.3838H16.619V15.0454H16.421V16.3838ZM16.9688 17.5112H17.1602V16.8057H16.9688V17.5112ZM16.9688 16.3838H17.1602V15.0454H16.9688V16.3838ZM17.5166 17.5112H17.708V16.8057H17.5166V17.5112ZM17.5166 16.3838H17.708V15.0454H17.5166V16.3838ZM56.7806 17.5112H56.972V16.8057H56.7806V17.5112ZM56.7806 16.3838H56.972V15.0454H56.7806V16.3838ZM56.2328 17.5112H56.4242V16.8057H56.2328V17.5112ZM56.2328 16.3838H56.4242V15.0454H56.2328V16.3838ZM55.685 17.5112H55.883V16.8057H55.685V17.5112ZM55.685 16.3838H55.883V15.0454H55.685V16.3838ZM55.1372 17.5112H55.3286V16.8057H55.1372V17.5112ZM55.1372 16.3838H55.3286V15.0454H55.1372V16.3838ZM54.5894 17.5112H54.7808V16.8057H54.5894V17.5112ZM54.5894 16.3838H54.7808V15.0454H54.5894V16.3838ZM16.685 13.6015C15.7148 13.6015 14.87 13.1004 14.6852 12.4148C14.672 12.3752 14.6852 12.329 14.7116 12.2961C14.738 12.2631 14.7776 12.2367 14.8238 12.2367H18.5595C18.6057 12.2367 18.6453 12.2565 18.6717 12.2961C18.6981 12.329 18.7047 12.3752 18.6915 12.4148C18.5067 13.1004 17.6618 13.6015 16.6916 13.6015M16.7444 13.4235C17.5826 13.4037 18.3087 12.995 18.5001 12.4214H16.3484C16.3616 12.5796 16.487 12.7049 16.6454 12.7049H18.0381C17.8137 13.0807 17.3252 13.3576 16.7444 13.4235ZM16.685 12.1115C16.3484 12.1115 15.992 11.762 15.992 11.2346C15.992 11.083 16.1108 10.7533 16.3088 10.2193C16.421 9.90939 16.5464 9.58633 16.5992 9.37535L16.685 9.0457L16.7708 9.37535C16.8302 9.58633 16.949 9.90939 17.0612 10.2193C17.2592 10.7533 17.378 11.083 17.378 11.2346C17.378 11.7489 17.0084 12.1115 16.6784 12.1115M16.685 9.69841C16.6586 9.77753 16.6256 9.86324 16.5992 9.94236C16.7378 10.3709 17.0414 11.0896 17.0414 11.2742C17.0414 11.6631 16.7708 11.9005 16.5596 11.9005C16.6058 11.9203 16.652 11.9335 16.6916 11.9335C16.9094 11.9335 17.213 11.6697 17.213 11.2346C17.213 11.1027 17.048 10.6676 16.9028 10.2786C16.8302 10.0808 16.7576 9.87643 16.6916 9.69841M55.784 13.6015C54.8138 13.6015 53.9689 13.1004 53.7841 12.4148C53.7709 12.3752 53.7841 12.329 53.8106 12.2961C53.837 12.2631 53.8766 12.2367 53.9228 12.2367H57.6584C57.7046 12.2367 57.7442 12.2565 57.7706 12.2961C57.797 12.3356 57.8102 12.3752 57.797 12.4148C57.6122 13.1004 56.7674 13.6015 55.7972 13.6015M55.8434 13.4235C56.6882 13.4037 57.4076 12.995 57.599 12.4214H55.4474C55.4606 12.5796 55.586 12.7049 55.7444 12.7049H57.137C56.9126 13.0807 56.4308 13.3576 55.8434 13.4235ZM55.784 12.1115C55.4474 12.1115 55.091 11.762 55.091 11.2346C55.091 11.083 55.2098 10.7467 55.4078 10.2193C55.5266 9.9028 55.6454 9.58633 55.6982 9.37535L55.784 9.0457L55.8698 9.37535C55.9292 9.58633 56.048 9.90939 56.1602 10.2193C56.3582 10.7533 56.477 11.083 56.477 11.2346C56.477 11.7489 56.1074 12.1115 55.7774 12.1115M55.784 9.69841C55.7576 9.77753 55.7312 9.86324 55.6982 9.94236C55.8368 10.3709 56.1404 11.0896 56.1404 11.2742C56.1404 11.6631 55.8698 11.9005 55.6586 11.9005C55.7048 11.9203 55.751 11.9335 55.7906 11.9335C56.0084 11.9335 56.3054 11.6697 56.3054 11.2346C56.3054 11.1027 56.1404 10.6676 56.0018 10.2786C55.9292 10.0808 55.85 9.87643 55.7906 9.69841M36.2345 21.0517H36.0365V25.5284H36.2345V21.0517ZM36.7757 21.0517H36.5843V25.5284H36.7757V21.0517ZM37.3235 21.0517H37.1321V25.5284H37.3235V21.0517ZM37.8713 21.0517H37.6799V25.5284H37.8713V21.0517ZM38.4191 21.0517H38.2277V25.5284H38.4191V21.0517ZM38.9603 21.0517H38.7623V25.5284H38.9603V21.0517ZM39.5082 21.0517H39.3167V25.5284H39.5082V21.0517ZM40.056 21.0517H39.8646V25.5284H40.056V21.0517ZM0 44.2659L0.64021 43.6V39.6376H1.60382V38.4508L3.00304 36.4531H4.03266V33.6708L5.48468 30.3611L6.55389 32.7874V29.3656L7.0753 27.3942L7.60331 29.4117V29.9523L8.87052 28.3766V27.5722C8.87052 27.0316 9.25993 26.5899 9.76814 26.4976V20.6627L9.84734 20.6034C12.2234 18.7771 13.9196 16.0146 14.54 14.096L14.5862 13.9641H18.4869V16.1794H19.2459C19.6617 16.1794 20.0049 16.5222 20.0049 16.9376V23.6098L22.1763 21.4407V17.1552C22.1763 16.6673 22.5723 16.2717 23.0607 16.2717H24.4203C24.6909 16.2717 24.9219 16.3904 25.087 16.5816L26.4466 12.2697L27.5422 15.7509L28.0768 15.197V10.2654L29.7202 8.62374V13.496L29.8258 13.3905V12.6785C29.8258 12.4411 29.9182 12.2236 30.0634 12.0521L30.2878 8.16882C30.2944 8.01718 30.3868 7.88532 30.5056 7.8062L30.3142 7.63478C30.0766 7.43039 29.9842 7.1403 30.0634 6.8568L30.9808 3.60641L31.8916 6.8568C31.9708 7.1403 31.8784 7.43039 31.6408 7.63478L31.4494 7.8062C31.5748 7.88532 31.6606 8.01059 31.6672 8.16882L31.8718 11.7093H32.4857V10.6346L32.5385 10.5819L36.1751 0L39.6006 10.3841L39.6534 10.4368V12.2565C39.7326 12.0983 39.8514 11.9664 39.9966 11.8741L40.2078 8.18201C40.2144 8.04355 40.287 7.92488 40.386 7.85235L40.221 7.53588C40.0296 7.16667 40.0428 6.73812 40.2606 6.3821L41.0196 5.11623V4.13386C41.0196 4.02837 41.1054 3.93606 41.2176 3.93606C41.3298 3.93606 41.4156 4.02177 41.4156 4.13386V7.85235C41.5212 7.93147 41.5938 8.05014 41.6004 8.1886L41.8116 11.8148C42.0954 11.9532 42.2934 12.2433 42.2934 12.5796V13.173L42.498 13.3839V8.65011L44.1414 10.2918V15.085L44.7882 15.7509L45.8772 12.2961L47.2369 16.608C47.4019 16.4233 47.6329 16.2981 47.9035 16.2981H49.2697C49.7581 16.2981 50.1541 16.6937 50.1541 17.1816V21.2956L52.4245 23.6494V18.0452C52.4245 17.5574 52.8205 17.1618 53.3089 17.1618H53.8436V13.9905H57.7508L57.797 14.1224C58.4174 16.0475 60.107 18.8034 62.4897 20.6297L62.5689 20.6891V26.5042C63.1299 26.5965 63.5589 27.0778 63.5589 27.6645V30.3545C63.7503 30.1897 63.9549 30.0578 64.1859 29.9523V29.0952C64.1859 28.5216 64.6545 28.0535 65.2287 28.0535C65.8029 28.0535 66.2715 28.5216 66.2715 29.0952V29.9523C67.1559 30.3545 67.7763 31.238 67.7763 32.2731V35.8993L68.3704 35.3059V33.4401H68.5618V37.1322L68.8258 36.8685V33.9675H69.0172V35.7213C69.3274 35.7674 69.5716 36.0378 69.5716 36.3608V37.7058C69.5716 38.0289 69.334 38.2992 69.0172 38.3453V38.5827C69.4528 38.5959 69.8488 38.7871 70.126 39.0838L70.3702 37.3168C70.3834 37.2179 70.5286 37.2179 70.5484 37.3168L70.852 39.4134V39.987H71.4922V43.3627L72.3766 44.2791H50.4841C50.4181 36.4531 44.0556 30.1369 36.2081 30.1369C28.3606 30.1369 21.9981 36.4597 21.9321 44.2791H0.0396014L0 44.2659ZM68.9842 38.1278C69.1888 38.0816 69.3406 37.9036 69.3406 37.686V36.341C69.3406 36.1235 69.1888 35.9389 68.9842 35.8993V38.1343V38.1278ZM65.1693 38.6025L64.7469 38.2332V43.7714H65.1693V38.6025ZM68.5618 40.3628L71.0632 42.9539V40.3628H68.5618ZM68.5221 39.2881C68.6476 39.2222 68.7862 39.1892 68.9314 39.1892C69.4 39.1892 69.7894 39.5255 69.8686 39.9738H70.3108C70.225 39.2881 69.6442 38.7541 68.938 38.7541C68.7994 38.7541 68.6608 38.7805 68.5287 38.82V39.2881H68.5221ZM68.0667 39.8485L68.1855 39.9738H68.3307V35.563L68.0667 35.8268V39.8551V39.8485ZM67.6509 42.1759C67.8423 42.2221 67.9809 42.3935 67.9809 42.5979V43.778H68.8324V42.1034C68.8324 41.7737 68.5684 41.51 68.2383 41.51C67.9083 41.51 67.6509 41.7737 67.6509 42.1034V42.1825V42.1759ZM67.3473 32.2533C67.3473 31.1721 66.5487 30.282 65.5125 30.1238C65.3277 30.1172 65.1957 30.1501 65.1033 30.2358C64.9185 30.4007 64.9053 30.7435 64.9053 31.0863C64.9977 31.0732 65.0967 31.0666 65.1891 31.0666C66.1263 31.0666 66.9381 31.594 67.3473 32.3654V32.2467M65.3541 28.4491C65.3541 28.4491 65.3475 28.4491 65.3409 28.4491C65.0571 28.3832 64.9383 28.8051 65.2089 28.9106C65.3739 28.9766 65.5389 29.0095 65.6511 28.9766V29.7611C65.7171 29.7743 65.7831 29.7875 65.8491 29.8073V29.115C65.8491 28.8117 65.6511 28.5348 65.3541 28.4557M64.7799 30.1435C64.4565 30.3413 64.4367 30.7435 64.4367 31.1984C64.5291 31.1721 64.6149 31.1457 64.7073 31.1259C64.7073 30.7369 64.7271 30.3413 64.9581 30.1172C64.8987 30.1238 64.8393 30.1369 64.7799 30.1435ZM63.5259 31.7325C63.7371 31.5347 63.9813 31.3764 64.2453 31.2644C64.2453 30.9083 64.2453 30.5259 64.4103 30.2424C64.0671 30.3743 63.7635 30.5919 63.5259 30.882V31.7259V31.7325ZM63.5259 36.8091H64.2453V31.7325H64.4367V36.8091H64.6281L64.6545 36.7828V31.7325H64.8525V36.5982L64.8921 36.5586L65.6775 37.3696L65.7699 34.2576C65.7699 34.1323 65.8491 34.0335 65.9481 33.9807C65.3541 33.0972 66.1923 32.2731 66.0933 31.7984C66.5289 32.3786 66.6609 33.2752 66.2715 33.9939C66.3573 34.0532 66.4101 34.1455 66.4167 34.251L66.5355 38.253L67.3473 39.0969V32.8269C67.0569 31.9105 66.1989 31.2446 65.1891 31.2446C64.5489 31.2446 63.9483 31.5149 63.5193 31.983V32.2204C63.6579 32.0292 63.8493 31.8643 64.0209 31.7918H64.0935V33.6576L63.5193 34.2312V36.8025L63.5259 36.8091ZM62.5359 43.7714H63.1365V27.6448C63.1365 27.2756 62.8791 26.9657 62.5359 26.8866V43.778V43.7714ZM18.7509 42.1759C18.5661 42.2221 18.4209 42.3935 18.4209 42.5979V43.778H18.7509V42.1825V42.1759ZM20.7639 39.8024L20.4075 39.4464V43.7714H20.7639V39.8024ZM21.3117 40.3496L20.9553 39.9936V43.7714H21.3117V40.3496ZM21.5031 42.9275C21.5691 42.2352 21.6879 41.5561 21.8529 40.8903L21.5031 40.5408V42.9275ZM27.7798 25.8976C27.7798 25.8976 28.7368 26.0624 29.1196 25.5416C29.3044 25.291 29.3308 24.9482 29.2186 24.6515C29.0008 24.0779 28.255 23.7746 27.6544 23.8867C27.0538 23.9988 26.4466 24.3812 26.4466 25.0009V29.8798L27.7798 28.4953V25.8976ZM31.852 28.2052L28.8688 29.6556V31.6006C29.806 31.0666 30.8026 30.6248 31.852 30.3084V28.2052ZM36.1685 26.9261H32.6573V30.0842C33.7793 29.8073 34.9607 29.6622 36.1685 29.6622V26.9261ZM41.9172 28.9766L40.3266 28.2052V30.2622C40.8678 30.4204 41.4024 30.6051 41.9172 30.8226V28.9766ZM54.2264 42.5979C54.2264 42.3935 54.0877 42.2286 53.8963 42.1759V43.7714H54.2264V42.5913V42.5979ZM60.6746 33.2687L60.239 32.8335V43.7714H60.6746V33.2687ZM62.1465 35.4641L61.2686 36.341V43.7714H62.1465V35.4641ZM58.8794 19.7858C58.787 24.9944 58.7474 27.447 62.1465 31.3699V20.8671C60.8462 19.8518 59.744 18.5661 58.9124 17.287C58.9124 18.1903 58.8926 19.0342 58.8794 19.7858ZM57.7772 29.471L58.0808 29.7875V22.4099H58.2722V29.9853L58.6616 30.3875V26.5437H58.853V30.5853L59.2424 30.9875V28.6271H59.4338V31.1918L59.843 31.6204V29.8468H60.0344V31.8182L60.4436 32.2401V30.7501H60.6416V32.4445L61.262 33.0841V35.7872L62.1399 34.9103V31.6534C58.5494 27.5722 58.589 25.1064 58.6814 19.7726C58.7012 18.9353 58.7144 17.9925 58.7144 16.9772C58.3382 16.3706 58.0214 15.7706 57.7706 15.2036V29.4644L57.7772 29.471ZM54.2132 25.7789V33.5192L54.5762 33.2687L54.5894 26.1877V17.9727H54.7808V26.2536L55.1372 26.6162V17.9727H55.3352V26.814L55.685 27.1767V17.9727H55.883V27.3744L56.2328 27.7305V17.9727H56.4308V27.9283L56.7806 28.2843V17.9661H56.9786V28.4821L57.3944 28.904V14.3597H54.2132V25.7789ZM56.3318 28.0997V39.9804L56.5826 40.2309V28.3568L56.3318 28.0997ZM55.4276 29.1941C55.3022 29.3392 55.3088 29.5502 55.4474 29.6886C55.5926 29.8337 55.817 29.8337 55.9622 29.6886C56.1074 29.5436 56.1074 29.3128 55.9622 29.1744C55.9424 29.1546 55.916 29.1348 55.8896 29.1216C55.9688 29.2271 55.9622 29.3721 55.8698 29.4644C55.7642 29.5699 55.5992 29.5699 55.4936 29.4644C55.421 29.3919 55.4012 29.2864 55.4276 29.1941ZM55.0844 30.0446C55.0844 29.0029 55.586 28.6403 55.8764 28.5216V27.6448L55.6718 27.4404V28.2975C55.3088 28.4887 54.7874 28.9502 54.7874 30.0446V33.1698L55.0778 33.0115V30.0446M52.7941 18.7309H53.8238V17.531H53.2891C53.0185 17.531 52.7941 17.7552 52.7941 18.0255V18.7309ZM52.7941 19.41H53.8238V18.9287H52.7941V19.41ZM52.7941 20.0825H53.8238V19.6012H52.7941V20.0825ZM52.7941 37.0267L53.2033 37.4553V36.8817C53.2033 35.5499 54.0284 34.4093 55.19 33.9411V33.6313C54.167 34.0071 53.3683 34.851 53.0581 35.8993V24.5922L53.8172 25.3833V20.2869H52.7875V37.0333L52.7941 37.0267ZM50.1343 22.5813L52.4047 24.8493V24.1834L50.1343 21.8297V22.5747V22.5813ZM52.4047 30.0051C52.3321 30.1435 52.2595 30.2754 52.1869 30.4073V36.3938L52.4047 36.6179V29.9985M51.9955 30.7435C51.8833 30.9281 51.7645 31.1127 51.6391 31.2907V35.8268L51.9955 36.1894V30.7369M51.4477 31.5742C51.3355 31.7325 51.2167 31.8841 51.0913 32.0358V35.2664L51.4477 35.6356V31.5808M50.8999 32.2665C50.7877 32.3984 50.6689 32.5302 50.5435 32.6621V34.6928L50.8999 35.062V32.2665ZM50.1343 34.2708L50.3521 34.495V32.8731C50.2795 32.9456 50.2069 33.0115 50.1343 33.0841V34.2708ZM49.1707 16.6673C49.3291 16.8057 49.4281 17.0101 49.4281 17.2343V18.4079H49.7449V17.1618C49.7449 16.8915 49.5205 16.6673 49.2499 16.6673H49.1707ZM47.3953 18.4079H48.4843V16.6673H47.8903C47.6197 16.6673 47.3953 16.8915 47.3953 17.1618V18.4079ZM47.3953 19.4693H48.4843V19.1595C48.4843 19.0606 48.5635 18.9815 48.6625 18.9815H49.2433C49.3423 18.9815 49.4215 19.0606 49.4215 19.1595V19.4693H49.7383V18.8034H47.3821V19.4693H47.3953ZM47.3953 20.2341H48.4843V20.0034C48.4843 19.9045 48.5635 19.8188 48.6625 19.8188H49.2433C49.3423 19.8188 49.4215 19.8979 49.4215 20.0034V20.2341H49.7383V19.6605H47.3821V20.2341H47.3953ZM47.3887 28.403L47.4019 31.4358L48.4843 32.5566V20.8011C48.4843 20.7023 48.5635 20.6297 48.6559 20.6297H49.2565C49.3489 20.6297 49.4281 20.7088 49.4281 20.8011V33.5324L49.7449 33.862V20.4188H47.3887V28.3898V28.403ZM44.9268 29.4315L44.9136 32.5368C45.1248 32.6885 45.3294 32.8533 45.534 33.0181V30.6446L52.1473 37.4421V43.7714H52.6291V37.7322L52.8403 37.9497V43.7714H53.6851V42.0968C53.6851 41.655 54.0482 41.2924 54.4904 41.2924C54.9326 41.2924 55.2956 41.655 55.2956 42.0968V43.7714H58.7672L49.4281 34.0994V34.1192L48.4843 33.1434V33.1236L44.9268 29.4381V29.4315ZM47.0059 18.3156V17.8343H46.5438L47.0059 18.3156ZM44.8014 17.4519H46.9993V17.1947L46.326 15.052H45.3954L44.8014 16.9376V17.4585V17.4519ZM44.8014 23.7351L45.8046 22.7329V17.8409H44.8014V23.7351ZM44.8014 24.9284L45.8046 23.9263V23.0032L44.8014 24.0054V24.9284ZM42.3066 27.9744V30.4468C42.6762 28.6601 44.049 27.2426 45.8046 26.8009V24.4735L42.3066 27.9744ZM42.8742 13.7663L43.3824 14.2938V10.0808L42.8742 9.57314V13.7729V13.7663ZM41.6136 25.7262V28.403L41.9172 28.5546V27.8228L42.7884 26.9525L41.6136 25.7328V25.7262ZM40.6566 8.12926C40.6236 8.12926 40.5972 8.15563 40.5906 8.1886L40.5378 9.05229H40.947L41.1054 11.6961H41.4024L41.2044 8.1886C41.2044 8.1886 41.1714 8.12926 41.1384 8.12926H40.65H40.6566ZM40.749 6.28979H41.013V5.84806L40.749 6.28979ZM40.5312 6.67878C40.4454 6.88976 40.452 7.13371 40.5642 7.33809L40.7754 7.74027H41.0196V6.67219H40.5312M39.9306 12.8697L40.881 13.8125V22.423L41.2638 22.7197V12.6521L41.1384 12.5268L41.2638 12.4082L41.4222 12.2565L41.8974 12.7444V12.5532C41.8974 12.2961 41.6862 12.0917 41.4288 12.0917H40.518C40.1946 12.0917 39.9306 12.3554 39.9306 12.6719V12.8631V12.8697ZM37.1981 4.24594L38.3597 9.09185L39.0197 9.77753L37.1915 4.23935L37.1981 4.24594ZM36.8615 3.65916L37.6271 8.32705L38.1023 8.82153L36.8681 3.66575L36.8615 3.65916ZM36.6569 3.613L37.0067 7.68753L37.3829 8.07652L36.6569 3.613ZM36.3467 7.00184L36.7955 7.46995L36.3467 2.27461V7.00184ZM33.1193 9.96873L35.9903 7.00184V1.6153L33.1193 9.96873ZM32.8685 19.6012H36.1685V18.6518C36.8945 18.6518 37.4819 18.065 37.4819 17.3398C37.4819 16.6145 36.8945 16.0278 36.1685 16.0278V13.2521C36.5777 13.2521 36.9011 12.9224 36.9011 12.5202C36.9011 12.1181 36.5711 11.7884 36.1685 11.7884V7.37765L32.8685 10.7863V19.6012ZM32.116 20.4122V26.5371H36.0365V25.9437H36.2345V26.5371H36.5843V25.9437H36.7757V26.5371H37.1255V25.9437H37.3169V26.5371H37.6733V25.9437H37.8647V26.5371H38.2145V25.9437H38.4059V26.5371H38.7557V25.9437H38.9537V26.5371H39.3036V25.9437H39.4949V26.5371H39.8448V25.9437H40.0362V26.5371H40.2078V20.3265L40.0362 20.155V20.5242H39.8448V19.9836H39.4949V20.5242H39.3036V19.9836H38.9537V20.5242H38.7557V19.9836H38.4059V20.5242H38.2145V19.9836H37.8647V20.5242H37.6733V19.9836H37.3169V20.5242H37.1255V19.9836H36.7757V20.5242H36.5843V19.9836H36.2345V20.5242H36.0365V19.9836H32.5385L32.116 20.4056V20.4122ZM30.7564 7.56226L30.9148 7.70071H31.027L31.3966 7.37106C31.5286 7.25898 31.5814 7.10074 31.5418 6.95569L30.9808 4.96458L30.7564 7.56226ZM30.6112 9.05229H31.0204L31.1788 11.6961H31.4758L31.2778 8.1886C31.2778 8.1886 31.2448 8.12926 31.2184 8.12926H30.73C30.697 8.12926 30.6706 8.15563 30.6706 8.1886L30.6178 9.05229H30.6112ZM30.2086 12.9884L30.7366 12.4411V22.8318L31.2712 22.4165V13.8059L32.4791 12.5994V12.0917H30.7894C30.466 12.0917 30.202 12.3554 30.202 12.6719V12.9818L30.2086 12.9884ZM28.4596 14.8015L29.0404 14.2015V9.85664L28.4596 10.4368V14.8015ZM27.463 23.5241C27.5026 23.5175 27.5422 23.5043 27.5818 23.4977C28.3342 23.3593 29.2846 23.7219 29.5816 24.5065C29.641 24.6647 29.6806 24.8625 29.6872 25.0207V28.8183L30.3472 28.4953V13.3971L27.4696 16.3772V23.5175L27.463 23.5241ZM26.9218 16.8519L27.0802 16.6937V16.2322L27.2254 16.0739L26.9218 15.0981V16.8519ZM26.374 17.3991L26.7304 17.0431V15.0454H26.374V17.3991ZM25.8262 17.9463L26.1826 17.5903V15.0454H25.978L25.8262 15.5135V17.9398V17.9463ZM25.2916 18.4738L25.6282 18.1375V16.1333L25.2916 17.1881V18.4672V18.4738ZM25.2916 28.1261C25.5358 28.0272 25.7866 27.9546 26.0506 27.9019V25.0009C26.0506 24.3482 26.5126 23.8933 27.0802 23.656V17.2409L25.2982 19.021V28.1195L25.2916 28.1261ZM26.0506 28.4953C24.4665 28.8579 23.2653 30.2227 23.1135 31.8446L23.8725 32.5368L26.0506 30.282V28.4953ZM24.5985 28.4755C24.6975 28.4096 24.8031 28.3502 24.9087 28.2975V20.4319H24.5985V28.4755ZM22.5525 18.4079H24.9087V17.1618C24.9087 16.8915 24.6843 16.6673 24.4137 16.6673H23.0541C22.7835 16.6673 22.5591 16.8915 22.5591 17.1618V18.4079H22.5525ZM22.5525 19.4693H24.9087V18.8034H22.5525V19.4693ZM22.5525 20.2341H24.9087V19.6605H22.5525V20.2341ZM22.5525 31.3237L22.5987 31.3633C22.7307 30.6776 23.0211 30.0512 23.4369 29.5172V20.4319H22.5591V31.3303L22.5525 31.3237ZM20.9685 23.6757L22.1697 22.4758V21.7242L20.9685 22.9241V23.6757ZM20.9685 27.236C20.9685 27.9876 21.4767 28.6139 22.1697 28.8051V22.7593L20.9685 23.9592V27.2426V27.236ZM19.9917 36.552L23.4699 32.9522L19.9917 29.7611V36.5454V36.552ZM13.5632 43.7714H17.3582V42.0968C17.3582 41.655 17.7146 41.2924 18.1635 41.2924C18.6123 41.2924 18.9687 41.655 18.9687 42.0968V43.7714H20.2161V39.2552L19.9059 38.9453V43.6198H19.6947V37.9497L19.9059 37.7322V38.3981L21.9651 40.4551C22.8957 37.0992 24.9813 34.2181 27.7732 32.2863V29.0557L13.5566 43.778L13.5632 43.7714ZM16.5002 40.1716V28.8051L13.0682 32.3127V43.7253L16.5002 40.1716ZM17.2328 39.4134V28.6139H16.6982V39.9672L17.2328 39.4134ZM17.5232 39.1101L18.0843 38.5299V28.6205H17.4176V39.2156L17.5166 39.1101H17.5232ZM19.2591 26.069V28.4293L19.6023 28.7722V19.6671H18.7971V25.6075L19.2591 26.069ZM19.6023 19.1067H18.7971V19.4693H19.6023V19.1067ZM18.7971 18.9089H19.6023V18.5463H18.7971V18.9089ZM18.4803 17.4255C18.6717 17.5046 18.8037 17.6826 18.8037 17.9002V18.3485H19.6089V16.9508C19.6089 16.7464 19.4439 16.5816 19.2393 16.5816H18.4803V17.4255ZM18.4803 38.1212L19.6089 36.9542V31.0336L18.7971 30.2227L18.4803 30.5457V38.1146V38.1212ZM14.9096 28.8249L15.3254 28.3964V17.9661H15.5168V28.192L15.8732 27.8228V17.9595H16.0646V27.6184L16.421 27.2492V17.9529H16.619V27.0448L16.9754 26.6756V17.9529H17.1668V26.4778L17.2526 26.3921H17.5232V17.9529H17.7212V26.3921H18.0975V14.3465H14.9162V28.8051L14.9096 28.8249ZM13.9196 30.4139V30.8886L16.52 28.2315H18.0975V26.7943H17.4176L13.9262 30.4139H13.9196ZM10.1575 33.7499L12.4412 31.383V38.5233C12.5204 38.4904 12.6062 38.4574 12.6854 38.431V32.1544L13.5302 31.2907V30.2622L14.5268 29.2271V15.2102C13.715 17.0497 12.1838 19.2847 10.1575 20.8671V33.7499ZM11.7944 32.6159V38.8596C11.8802 38.8068 11.966 38.7607 12.0518 38.7145V32.3522L11.7944 32.6159ZM11.2466 33.1829V39.2486C11.3588 39.1563 11.4776 39.0706 11.603 38.9849V32.8203L11.2466 33.1829ZM10.6922 33.7499V39.7826C10.8044 39.6573 10.9232 39.5387 11.0486 39.42V33.3807L10.6922 33.7499ZM10.1575 40.5342C10.2631 40.3562 10.3753 40.1848 10.5073 40.02V33.9543L10.1575 34.3104V40.5342ZM9.90014 43.7714H12.6788V38.8464C11.0024 39.5057 9.90014 41.1144 9.90014 42.9341V43.778V43.7714ZM9.25333 34.6796L9.76814 34.1521V26.9129C9.47113 26.9986 9.25333 27.269 9.25333 27.5854V34.6796ZM9.25333 43.7714H9.51073V42.9275C9.51073 42.3935 9.60313 41.8726 9.76814 41.3847V34.7059L9.25333 35.2334V43.7648V43.7714ZM5.00287 42.1759C4.81147 42.2221 4.67286 42.3935 4.67286 42.5979V43.778H5.00287V42.1825V42.1759ZM7.60331 31.7193C7.60331 33.0313 8.49432 33.3939 8.87052 33.4862V28.6931L7.60331 30.2688V31.7193ZM7.60331 36.1564H7.82771L8.05871 35.9191V33.5258C7.89371 33.4071 7.73531 33.2555 7.60331 33.0643V36.1564ZM7.60331 42.2089L8.87052 40.943V36.5454H7.99931L7.60331 36.9476V42.2023V42.2089ZM6.12488 35.1477C6.12488 36.0575 6.11169 37.2772 6.11829 37.93L6.8245 37.2047L7.2205 36.7959V29.4447L7.0819 28.9238L6.9433 29.4447V34.1653L6.13149 35.1477M4.41546 39.6376H4.46826L5.48468 38.5893V31.3369L4.41546 33.7565V39.6376ZM1.99323 39.6376H4.02605V36.8421H3.20104L1.98663 38.5695V39.6376H1.99323ZM1.35962 42.855L3.99966 40.1189H1.35962V42.855ZM1.01641 43.7714H3.61025V42.0968C3.61025 41.655 3.97325 41.2924 4.41546 41.2924C4.85767 41.2924 5.22067 41.655 5.22067 42.0968V43.7714H7.2205V37.3564L6.35589 38.2464L5.97968 38.6354L1.35962 43.4154L1.01641 43.7714Z" fill="white"/>
</svg>
