<svg width="255" height="58" viewBox="0 0 255 58" fill="none" xmlns="http://www.w3.org/2000/svg">
<path d="M14.7445 36.2958C14.3649 39.4941 12.7007 41.6654 9.89776 42.8391C7.44521 43.866 4.96347 43.866 2.59851 42.1349C2.86128 39.0833 4.58391 37.0881 7.06565 35.8851C9.57659 34.6527 12.1751 34.6234 14.7153 36.3252" fill="white"/>
<path d="M35.3575 33.3617C38.3648 32.7748 41.1093 33.1856 43.2991 35.4156C45.1093 37.2641 45.9269 39.4941 45.3721 42.2522C42.248 43.2205 39.7079 42.2522 37.4305 40.345C35.4743 38.6725 34.5984 35.7384 35.3575 33.3617Z" fill="white"/>
<path d="M35.124 12.5877C33.2846 9.85888 33.1678 7.10075 34.3649 4.31328C35.416 1.84857 37.3722 0.381474 40.2043 3.05176e-05C41.9561 2.40606 42.0437 5.01748 41.1094 7.6289C40.1459 10.299 38.2189 12.0595 35.1532 12.5877" fill="white"/>
<path d="M9.19704 29.7233C10.6277 27.1412 12.9343 25.8502 15.8248 25.7915C18.4525 25.7328 20.905 26.4077 22.5401 28.8724C21.051 31.9239 18.4525 33.0976 15.3868 33.3617C12.8759 33.5671 10.2481 32.0119 9.16785 29.7233" fill="white"/>
<path d="M16.9634 0.968292C22.9196 1.61381 25.3722 9.12532 22.4525 13.0278C20.2043 13.2625 17.8101 11.7367 16.4671 9.33071C14.9488 6.66061 14.978 3.11024 16.9926 0.968292" fill="white"/>
<path d="M38.3065 27.8161C39.6204 25.1753 41.781 24.119 44.4087 23.9136C47.416 23.6789 50.0145 24.4711 51.7955 27.2586C50.7444 29.782 48.6715 30.8676 46.2189 31.2197C43.0364 31.6892 40.4671 30.4568 38.3065 27.8161Z" fill="white"/>
<path d="M47.0656 34.0365C51.9415 30.2808 59.0655 34.0365 59.4743 38.6432C57.8684 40.5504 54.9487 41.1079 51.9706 40.0516C49.2261 39.0833 47.1531 36.5893 47.0656 34.0365Z" fill="white"/>
<path d="M30.0438 35.7384C33.0219 37.4109 34.3357 39.7875 34.3649 42.9858C34.3649 45.7146 33.4014 47.8272 30.9781 49.353C28.292 47.7392 27.0073 45.3331 26.9197 42.3696C26.8321 39.7582 27.7372 37.4695 30.0438 35.7384Z" fill="white"/>
<path d="M41.9853 55.9842C39.562 55.8962 37.8686 54.4878 36.6131 52.4632C34.8321 49.5584 35.0072 46.6535 36.5547 43.5139C39.5328 43.9541 41.489 45.6266 42.7736 48.1206C44.0875 50.7027 43.7955 53.8423 41.9853 55.9842Z" fill="white"/>
<path d="M19.7372 57.0699C17.8394 54.5171 17.781 51.759 18.8613 49.0302C19.8248 46.5655 21.6058 44.8637 24.4671 44.4236C26.365 47.035 26.6277 49.7931 25.4014 52.6979C24.3504 55.192 22.5985 56.8058 19.7372 57.0699Z" fill="white"/>
<path d="M34.6278 23.2094C33.6643 19.9231 34.5986 17.2824 36.6716 14.9937C38.365 13.1158 41.0803 12.4703 43.5329 13.2332C44.292 15.9033 43.6497 18.3387 41.8686 20.4806C40.0292 22.6813 37.7227 23.7376 34.6278 23.2094Z" fill="white"/>
<path d="M58.5692 14.8763C59.0656 20.0698 52.321 24.3537 46.7736 21.0968C46.6276 18.5734 47.9415 16.6955 49.9853 15.3751C52.7006 13.5853 55.5911 13.3505 58.5692 14.8763Z" fill="white"/>
<path d="M24.4672 23.4735C21.6351 24.7058 18.365 23.9136 16.1461 21.6249C14.2482 19.659 13.5475 16.9009 14.4818 14.8176C17.2555 14.2015 19.7957 14.7589 21.9563 16.7542C23.8833 18.544 24.9052 20.7447 24.438 23.4735" fill="white"/>
<path d="M16.1752 44.2181C15.1241 41.5187 15.9124 39.1714 17.4015 37.0587C19.1533 34.594 21.635 33.5671 24.8175 33.9192C25.927 36.6773 25.2263 39.1127 23.5912 41.3133C21.781 43.7487 19.2993 44.717 16.1752 44.2475" fill="white"/>
<path d="M29.5181 21.4196C26.8028 19.9525 25.4305 17.7812 25.1969 14.9057C24.9633 12.0302 25.8101 9.62416 28.467 7.92233C31.0071 9.3014 32.2918 11.4727 32.5546 14.2308C32.8173 17.0476 31.9998 19.5124 29.5181 21.4196Z" fill="white"/>
<path d="M12.7007 22.3585C9.40144 26.3783 1.60584 24.5591 0 18.3387C1.69343 16.4608 3.9124 16.0793 6.30655 16.6075C9.48903 17.2823 11.6788 19.1896 12.7007 22.3878" fill="white"/>
<path d="M81.6493 36.0806C80.4473 36.0806 79.2977 35.9231 78.2003 35.5555C77.1029 35.1878 76.2145 34.7677 75.5874 34.2425L76.5803 32.0368C77.2074 32.5095 77.939 32.9296 78.8796 33.2447C79.768 33.5598 80.7086 33.7174 81.6493 33.7174C82.4331 33.7174 83.1125 33.6124 83.5828 33.4548C84.1054 33.2973 84.4712 33.0347 84.6802 32.7196C84.8892 32.4045 85.046 32.0894 85.046 31.6692C85.046 31.1966 84.8892 30.829 84.5234 30.5139C84.2099 30.2513 83.7396 29.9887 83.217 29.8312C82.6944 29.6736 82.0673 29.5161 81.4402 29.3585C80.8132 29.201 80.1338 29.0434 79.5067 28.8333C78.8796 28.6233 78.2525 28.3607 77.73 28.0456C77.2074 27.7305 76.7371 27.3103 76.4235 26.7852C76.11 26.26 75.9009 25.5773 75.9009 24.737C75.9009 23.8968 76.11 23.109 76.5803 22.4263C77.0506 21.7436 77.73 21.1659 78.6183 20.7458C79.559 20.3256 80.7086 20.1156 82.1196 20.1156C83.0602 20.1156 83.9486 20.2206 84.8892 20.4832C85.7776 20.6933 86.5615 21.0609 87.2408 21.481L86.3524 23.6867C85.6731 23.2666 84.9415 22.9515 84.2099 22.7939C83.4783 22.5839 82.7989 22.4788 82.1196 22.4788C81.3357 22.4788 80.7086 22.5839 80.1861 22.7414C79.7157 22.9515 79.3499 23.1615 79.0887 23.4766C78.8796 23.7917 78.7229 24.1594 78.7229 24.527C78.7229 24.9996 78.8796 25.3672 79.1932 25.6823C79.5067 25.9449 79.977 26.2075 80.4996 26.365C81.0222 26.5226 81.6493 26.6801 82.2764 26.8377C82.9557 26.9952 83.5828 27.1528 84.2621 27.3629C84.8892 27.5729 85.5163 27.783 86.0389 28.0981C86.5615 28.4132 86.9795 28.8333 87.3453 29.3585C87.6589 29.8837 87.8157 30.5664 87.8157 31.3541C87.8157 32.1419 87.6066 32.9296 87.1363 33.6124C86.666 34.2951 85.9866 34.8728 85.0983 35.2929C84.1576 35.713 83.008 35.9231 81.597 35.9231" fill="white"/>
<path d="M93.3027 36.0281C92.4143 36.0281 91.6305 35.8706 91.0034 35.5555C90.324 35.2404 89.8537 34.8202 89.4879 34.2951C89.1221 33.7699 88.9653 33.1397 88.9653 32.457C88.9653 31.7743 89.1221 31.1966 89.4357 30.6714C89.7492 30.1463 90.2718 29.7261 91.0034 29.411C91.735 29.0959 92.6756 28.9384 93.8775 28.9384H97.2743V30.7764H94.0866C93.1459 30.7764 92.5188 30.934 92.2053 31.2491C91.8918 31.5642 91.735 31.9318 91.735 32.3519C91.735 32.8771 91.944 33.2447 92.3098 33.5598C92.7279 33.8749 93.2504 33.98 93.9821 33.98C94.7137 33.98 95.2362 33.8224 95.8111 33.5073C96.3336 33.1922 96.7517 32.7196 96.9607 32.1419L97.431 33.8224C97.1698 34.5051 96.6994 35.0303 96.0201 35.4504C95.3407 35.8181 94.5046 36.0281 93.4595 36.0281M97.013 35.8706V33.5073L96.8562 32.9821V28.8333C96.8562 28.0456 96.5949 27.4154 96.1246 26.9427C95.6543 26.4701 94.9227 26.26 93.9298 26.26C93.2504 26.26 92.6234 26.365 91.9963 26.5751C91.3692 26.7852 90.8466 27.0478 90.3763 27.4154L89.2789 25.4198C89.906 24.9471 90.6376 24.5795 91.5259 24.3169C92.4143 24.0543 93.3027 23.9493 94.2433 23.9493C95.9156 23.9493 97.2743 24.3694 98.1627 25.1572C99.051 25.9449 99.5736 27.2578 99.5736 28.9384V35.8706H96.9607H97.013Z" fill="white"/>
<path d="M103.806 22.1112C103.284 22.1112 102.866 21.9536 102.552 21.6385C102.239 21.3234 102.082 20.9033 102.082 20.4832C102.082 20.063 102.239 19.6429 102.552 19.3278C102.866 19.0127 103.284 18.8552 103.806 18.8552C104.329 18.8552 104.747 19.0127 105.061 19.3278C105.374 19.6429 105.531 20.0105 105.531 20.4832C105.531 20.9558 105.374 21.376 105.061 21.6911C104.747 22.0062 104.329 22.1637 103.806 22.1637M102.448 35.8706V24.1068H105.217V35.8706H102.448Z" fill="white"/>
<path d="M117.289 30.3563L116.035 28.9909H120.633C121.887 28.9909 122.828 28.7283 123.455 28.1506C124.082 27.6254 124.396 26.8377 124.396 25.8924C124.396 24.9471 124.082 24.1594 123.455 23.6342C122.828 23.109 121.887 22.8464 120.633 22.8464H116.035L117.289 21.4285V30.3563ZM124.5 35.8706L120.633 30.2513H123.664L127.584 35.8706H124.5ZM114.467 35.8706V20.4307H120.79C122.149 20.4307 123.298 20.6407 124.291 21.1134C125.284 21.5335 126.016 22.1637 126.538 23.004C127.061 23.8442 127.322 24.7895 127.322 25.9449C127.322 27.1003 127.061 28.0456 126.538 28.8859C126.016 29.7261 125.284 30.3038 124.291 30.7764C123.298 31.1966 122.149 31.4066 120.79 31.4066H116.035L117.289 30.0937V35.9231H114.415L114.467 35.8706Z" fill="white"/>
<path d="M133.018 36.0281C132.13 36.0281 131.346 35.8706 130.719 35.5555C130.04 35.2404 129.569 34.8202 129.204 34.2951C128.838 33.7699 128.681 33.1397 128.681 32.457C128.681 31.7743 128.838 31.1966 129.151 30.6714C129.465 30.1463 129.987 29.7261 130.719 29.411C131.451 29.0959 132.391 28.9384 133.593 28.9384H136.99V30.7764H133.802C132.862 30.7764 132.235 30.934 131.921 31.2491C131.607 31.5642 131.451 31.9318 131.451 32.3519C131.451 32.8771 131.66 33.2447 132.026 33.5598C132.444 33.8749 132.966 33.98 133.698 33.98C134.429 33.98 134.952 33.8224 135.527 33.5073C136.049 33.1922 136.467 32.7196 136.676 32.1419L137.147 33.8224C136.885 34.5051 136.415 35.0303 135.736 35.4504C135.056 35.8181 134.22 36.0281 133.175 36.0281M136.729 35.8706V33.5073L136.572 32.9821V28.8333C136.572 28.0456 136.311 27.4154 135.84 26.9427C135.37 26.4701 134.638 26.26 133.645 26.26C132.966 26.26 132.339 26.365 131.712 26.5751C131.085 26.7852 130.562 27.0478 130.092 27.4154L128.995 25.4198C129.622 24.9471 130.353 24.5795 131.242 24.3169C132.13 24.0543 133.018 23.9493 133.959 23.9493C135.631 23.9493 136.99 24.3694 137.878 25.1572C138.819 25.9974 139.289 27.2578 139.289 28.9384V35.8706H136.676H136.729Z" fill="white"/>
<path d="M150.995 35.8706V33.0872L151.099 29.9362L150.89 26.7852V19.4328H153.608V35.818H150.995V35.8706ZM147.441 33.6649C148.121 33.6649 148.696 33.5073 149.218 33.2447C149.741 32.9296 150.159 32.5095 150.472 31.9843C150.786 31.4592 150.943 30.7764 150.943 30.0412C150.943 29.306 150.786 28.6233 150.472 28.0456C150.159 27.4679 149.741 27.0477 149.218 26.7852C148.696 26.4701 148.121 26.365 147.441 26.365C146.762 26.365 146.187 26.5226 145.665 26.7852C145.142 27.1003 144.724 27.5204 144.41 28.0456C144.097 28.6233 143.94 29.2535 143.94 30.0412C143.94 30.829 144.097 31.4592 144.41 31.9843C144.724 32.562 145.142 32.9821 145.665 33.2447C146.187 33.5598 146.762 33.6649 147.441 33.6649ZM147.128 36.0281C145.978 36.0281 144.985 35.7655 144.097 35.2929C143.209 34.7677 142.477 34.085 141.954 33.1922C141.432 32.2994 141.171 31.2491 141.171 29.9887C141.171 28.7283 141.432 27.7305 141.954 26.7852C142.477 25.8924 143.156 25.2097 144.097 24.6845C144.985 24.1593 146.03 23.9493 147.128 23.9493C148.121 23.9493 149.009 24.1593 149.741 24.5795C150.525 24.9996 151.152 25.6823 151.57 26.5751C152.04 27.4679 152.249 28.5707 152.249 29.9887C152.249 31.4066 152.04 32.5095 151.57 33.4023C151.152 34.295 150.525 34.9778 149.741 35.3979C148.957 35.818 148.069 36.0806 147.076 36.0806L147.128 36.0281Z" fill="white"/>
<path d="M163.275 23.9493C164.216 23.9493 165.052 24.1593 165.784 24.527C166.515 24.8946 167.09 25.4723 167.508 26.2075C167.926 26.9427 168.135 27.9405 168.135 29.1484V35.9231H165.366V29.516C165.366 28.4657 165.104 27.678 164.634 27.1528C164.164 26.6276 163.484 26.365 162.596 26.365C161.969 26.365 161.394 26.5226 160.872 26.7852C160.349 27.0477 159.983 27.4679 159.722 27.9405C159.461 28.4657 159.304 29.0959 159.304 29.9362V35.8706H156.534V19.4854H159.304V27.2578L158.729 26.3125C159.147 25.5773 159.722 24.9996 160.506 24.5795C161.29 24.1593 162.178 23.9493 163.223 23.9493" fill="white"/>
<path d="M174.511 36.0281C173.622 36.0281 172.839 35.8706 172.212 35.5555C171.532 35.2404 171.062 34.8202 170.696 34.2951C170.33 33.7699 170.173 33.1397 170.173 32.457C170.173 31.7743 170.33 31.1966 170.644 30.6714C170.957 30.1463 171.48 29.7261 172.212 29.411C172.943 29.0959 173.884 28.9384 175.086 28.9384H178.482V30.7764H175.295C174.354 30.7764 173.727 30.934 173.413 31.2491C173.1 31.5642 172.943 31.9318 172.943 32.3519C172.943 32.8771 173.152 33.2447 173.518 33.5598C173.936 33.8749 174.459 33.98 175.19 33.98C175.922 33.98 176.444 33.8224 177.019 33.5073C177.542 33.1922 177.96 32.7196 178.169 32.1419L178.639 33.8224C178.378 34.5051 177.908 35.0303 177.228 35.4504C176.549 35.8181 175.713 36.0281 174.668 36.0281M178.221 35.8706V33.5073L178.064 32.9821V28.8333C178.064 28.0456 177.803 27.4154 177.333 26.9427C176.862 26.4701 176.131 26.26 175.138 26.26C174.459 26.26 173.831 26.365 173.204 26.5751C172.577 26.7852 172.055 27.0478 171.584 27.4154L170.487 25.4198C171.114 24.9471 171.846 24.5795 172.734 24.3169C173.622 24.0543 174.511 23.9493 175.451 23.9493C177.124 23.9493 178.482 24.3694 179.371 25.1572C180.311 25.9974 180.782 27.2578 180.782 28.9384V35.8706H178.169H178.221Z" fill="white"/>
<path d="M200.483 33.7174V27.9406H203.2V34.085L200.483 33.7174ZM197.138 36.0806C195.936 36.0806 194.839 35.8706 193.846 35.503C192.853 35.1353 191.965 34.5576 191.233 33.8224C190.502 33.0872 189.927 32.2469 189.509 31.3016C189.091 30.3563 188.882 29.2535 188.882 28.0981C188.882 26.9427 189.091 25.8924 189.509 24.8946C189.927 23.9493 190.502 23.0565 191.233 22.3738C191.965 21.6386 192.853 21.1134 193.898 20.6932C194.891 20.3256 195.989 20.1156 197.191 20.1156C198.497 20.1156 199.647 20.3256 200.692 20.7458C201.737 21.1659 202.625 21.7961 203.357 22.6364L201.58 24.4219C201.005 23.8443 200.326 23.3716 199.647 23.109C198.967 22.8464 198.184 22.6889 197.347 22.6889C196.511 22.6889 195.78 22.8464 195.1 23.109C194.421 23.3716 193.794 23.7392 193.324 24.2119C192.801 24.6845 192.435 25.2622 192.174 25.9449C191.913 26.6276 191.756 27.3103 191.756 28.1506C191.756 28.9909 191.913 29.6736 192.174 30.3038C192.435 30.9865 192.853 31.5642 193.324 32.0368C193.846 32.5095 194.421 32.9296 195.1 33.1922C195.78 33.4548 196.511 33.6124 197.347 33.6124C198.131 33.6124 198.863 33.5073 199.542 33.2447C200.274 32.9822 200.953 32.6145 201.58 32.0368L203.2 34.19C202.416 34.8202 201.476 35.3454 200.378 35.6605C199.333 35.9756 198.236 36.1332 197.138 36.1332V36.0806Z" fill="white"/>
<path d="M206.022 35.8706V24.1068H208.635V27.3629L208.321 26.4176C208.687 25.6298 209.21 24.9996 209.994 24.632C210.725 24.2119 211.666 24.0018 212.815 24.0018V26.6276C212.815 26.6276 212.606 26.6276 212.502 26.5751C212.397 26.5751 212.293 26.5751 212.188 26.5751C211.143 26.5751 210.307 26.8902 209.732 27.4679C209.105 28.0981 208.792 28.9909 208.792 30.1988V35.9231H206.022V35.8706Z" fill="white"/>
<path d="M219.609 33.6649C220.288 33.6649 220.863 33.5073 221.386 33.2447C221.908 32.9296 222.326 32.5095 222.64 31.9843C222.953 31.4067 223.11 30.7764 223.11 30.0412C223.11 29.306 222.953 28.6233 222.64 28.0456C222.326 27.4679 221.908 27.0478 221.386 26.7852C220.863 26.4701 220.288 26.365 219.609 26.365C218.93 26.365 218.355 26.5226 217.832 26.7852C217.31 27.1003 216.892 27.5204 216.578 28.0456C216.265 28.6233 216.108 29.2535 216.108 30.0412C216.108 30.829 216.265 31.4592 216.578 31.9843C216.892 32.562 217.31 32.9822 217.832 33.2447C218.355 33.5598 218.93 33.6649 219.609 33.6649ZM219.609 36.0281C218.407 36.0281 217.362 35.7655 216.421 35.2404C215.481 34.7152 214.749 33.98 214.226 33.0872C213.704 32.1944 213.39 31.1441 213.39 29.9887C213.39 28.8333 213.652 27.783 214.226 26.8902C214.749 25.9974 215.533 25.2622 216.421 24.737C217.362 24.2119 218.407 23.9493 219.609 23.9493C220.811 23.9493 221.908 24.2119 222.849 24.737C223.79 25.2622 224.521 25.9449 225.044 26.8377C225.566 27.7305 225.828 28.7808 225.828 29.9887C225.828 31.1966 225.566 32.1944 225.044 33.0872C224.521 33.98 223.79 34.7152 222.849 35.2404C221.908 35.7655 220.811 36.0281 219.609 36.0281Z" fill="white"/>
<path d="M232.83 36.0281C231.837 36.0281 230.949 35.8181 230.217 35.4504C229.433 35.0828 228.859 34.5051 228.44 33.7174C228.022 32.9296 227.813 31.9843 227.813 30.7764V24.0543H230.583V30.4088C230.583 31.4592 230.844 32.2469 231.315 32.7721C231.785 33.2973 232.464 33.5598 233.353 33.5598C233.98 33.5598 234.555 33.4023 235.025 33.1397C235.495 32.8771 235.861 32.457 236.122 31.9318C236.384 31.4067 236.54 30.7239 236.54 29.9887V24.0543H239.31V35.8181H236.697V32.6145L237.167 33.5598C236.749 34.3476 236.175 34.9253 235.443 35.2929C234.659 35.713 233.823 35.9231 232.935 35.9231" fill="white"/>
<path d="M248.351 33.6649C249.03 33.6649 249.605 33.5073 250.127 33.2447C250.65 32.9296 251.068 32.5095 251.382 31.9843C251.695 31.4066 251.852 30.7764 251.852 30.0412C251.852 29.306 251.695 28.6233 251.382 28.0456C251.068 27.4679 250.65 27.0478 250.127 26.7852C249.605 26.4701 249.03 26.365 248.351 26.365C247.671 26.365 247.096 26.5226 246.574 26.7852C246.051 27.1003 245.633 27.5204 245.32 28.0456C245.006 28.5707 244.849 29.2535 244.849 30.0412C244.849 30.829 245.006 31.4592 245.32 31.9843C245.633 32.5095 246.051 32.9821 246.574 33.2447C247.096 33.5598 247.671 33.6649 248.351 33.6649ZM242.132 40.1244V24.0543H244.745V26.8377L244.64 29.9887L244.849 33.1397V40.1769H242.08L242.132 40.1244ZM248.664 36.0281C247.724 36.0281 246.835 35.818 246.051 35.3454C245.267 34.9253 244.64 34.2425 244.17 33.3498C243.7 32.457 243.491 31.3541 243.491 29.9362C243.491 28.5182 243.7 27.4154 244.17 26.5226C244.64 25.6298 245.215 24.9996 245.999 24.527C246.783 24.1068 247.671 23.8968 248.664 23.8968C249.814 23.8968 250.859 24.1593 251.747 24.632C252.636 25.1572 253.315 25.8399 253.838 26.7327C254.36 27.6254 254.621 28.6758 254.621 29.9362C254.621 31.1966 254.36 32.1944 253.838 33.1397C253.315 34.0325 252.636 34.7677 251.747 35.2404C250.859 35.7655 249.866 35.9756 248.664 35.9756V36.0281Z" fill="white"/>
</svg>
