<svg width="200" height="30" viewBox="0 0 200 30" fill="none" xmlns="http://www.w3.org/2000/svg">
<path d="M33.3792 10.5601C32.6446 12.6354 27.9981 14.8025 16.6115 12.2314L18.0899 18.9623C29.4857 21.0376 36.235 19.3296 40.0917 15.28C42.9476 12.2773 43.5077 8.393 41.1661 5.42698C38.6868 2.2865 33.1863 0 26.235 0C16.2993 0 9.21945 2.88337 5.28924 13.6822L0 28.2093H9.24699L14.4995 13.517C16.6666 7.47473 21.1937 6.47381 26.2258 6.47381C31.258 6.47381 34.0495 8.65012 33.37 10.5601" fill="white"/>
<path d="M124.942 16.9454L124.584 16.7893C126.65 15.9628 128.899 15.5129 131.131 15.5129C132.49 15.5129 135.502 15.7425 136.769 16.4679C137.081 16.6424 137.357 16.9178 137.21 17.2576C136.65 18.5156 128.404 18.4514 124.942 16.9454ZM141.838 13.5386C139.652 12.3724 136.044 11.4358 132.517 11.298C125.208 10.995 116.879 13.4927 115.217 19.3788C114.262 22.7672 117.55 27.3494 126.099 28.6534C130.378 29.3053 137.182 29.14 142.077 27.5239L143.904 22.4918C133.977 25.8985 121.002 24.916 121.434 19.8012C126.236 22.8774 133.243 22.5928 138.431 21.7388C147.421 20.2695 147.292 16.4495 141.829 13.5294" fill="white"/>
<path d="M156.986 16.9454L156.628 16.7893C158.694 15.9628 160.944 15.5129 163.175 15.5129C164.534 15.5129 167.546 15.7425 168.813 16.4679C169.126 16.6424 169.41 16.9178 169.254 17.2576C168.694 18.5156 160.448 18.4514 156.986 16.9454ZM173.882 13.5386C171.697 12.3724 168.097 11.4358 164.562 11.298C157.252 10.995 148.924 13.4927 147.261 19.3788C146.306 22.7672 149.594 27.3494 158.143 28.6534C162.422 29.3053 169.227 29.14 174.121 27.5239L175.948 22.4918C166.022 25.8985 153.047 24.916 153.478 19.8012C158.281 22.8774 165.287 22.5928 170.475 21.7388C179.465 20.2695 179.337 16.4495 173.873 13.5294" fill="white"/>
<path d="M180.63 17.8704L176.957 28.2101H185.423L188.243 20.2579C188.94 18.2377 189.528 16.7317 191.998 16.7317H197.949L199.62 11.9659H188.656C184.992 11.9659 182.035 13.7841 180.63 17.8796" fill="white"/>
<path d="M38.814 28.2053H47.5743L53.4972 11.9519H44.7369L38.814 28.2053Z" fill="white"/>
<path d="M95.6848 19.4707C96.5021 17.2301 98.9631 16.2016 101.121 16.2016C103.279 16.2016 105.308 17.4596 104.519 19.6359L101.387 28.2126H109.854L113.031 19.4982C114.684 14.9711 111.112 11.2246 103.114 11.2246C94.2156 11.2246 89.1743 14.1355 87.2275 19.4615L84.0411 28.2126H92.5076L95.694 19.4707H95.6848Z" fill="white"/>
<path d="M69.5683 16.3499C72.9935 16.4969 75.7483 18.2232 75.2524 20.4546C74.7841 22.6034 71.4508 24.0726 67.9889 23.9257C64.5637 23.7787 61.8089 22.0524 62.3048 19.821C62.7731 17.6722 66.1064 16.203 69.5683 16.3499ZM70.7621 11.2994C61.9467 10.9229 54.0863 14.697 53.0303 19.518C51.9926 24.2563 57.943 28.6089 66.7951 28.9853C75.6105 29.3527 83.471 25.5877 84.527 20.7668C85.5646 16.0285 79.6142 11.6759 70.7621 11.2994Z" fill="white"/>
</svg>
