<svg width="185" height="39" viewBox="0 0 185 39" fill="none" xmlns="http://www.w3.org/2000/svg">
<path d="M81.2638 38.2804C81.2638 38.2804 81.2395 38.2439 81.2152 38.2318C81.0451 38.1346 80.9236 37.9887 80.8142 37.8308C80.4496 37.2474 80.085 36.652 79.7205 36.0686C78.5174 34.1364 77.3386 32.192 76.099 30.2719C75.9046 29.9802 75.7101 29.6886 75.5278 29.3969C75.1633 28.8379 74.8716 28.2424 74.6893 27.5862C74.5192 26.9543 74.4706 26.3102 74.5313 25.6539C74.5556 25.3744 74.5678 25.1071 74.5678 24.8276C74.5678 24.2807 74.5678 23.746 74.5556 23.1991C74.5435 22.8589 74.6529 22.5794 74.8595 22.2999C76.7188 19.9301 78.5538 17.5604 80.401 15.2028C80.5104 15.057 80.6319 14.9233 80.7413 14.7653C80.9236 14.5101 81.1666 14.3886 81.4826 14.4007C83.1718 14.4007 84.8731 14.4007 86.5623 14.4007C88.4095 14.4007 90.2688 14.4007 92.116 14.4007C93.8052 14.4007 95.5066 14.4007 97.1958 14.4007C97.6697 14.4007 98.1315 14.4493 98.569 14.6195C99.7478 15.0691 100.501 15.9076 100.817 17.1229C101.085 18.1437 101.328 19.1645 101.571 20.1853C102.13 22.5429 102.689 24.9126 103.248 27.2702C103.333 27.647 103.369 28.0237 103.43 28.4004C103.43 28.4733 103.454 28.5462 103.466 28.6192C103.479 28.7528 103.552 28.8501 103.673 28.923C103.831 28.8744 103.916 28.765 103.94 28.5949C104.147 27.1122 104.487 25.6661 104.9 24.22C105.277 22.8953 105.678 21.5707 106.079 20.2339C106.383 19.2131 106.675 18.2045 106.966 17.1836C107.064 16.8434 107.197 16.5153 107.367 16.2114C107.987 15.1542 108.911 14.5587 110.138 14.425C110.551 14.3764 110.952 14.4007 111.366 14.3886C112.046 14.3886 112.739 14.3764 113.419 14.4372C113.772 14.4615 114.136 14.4979 114.477 14.6073C115.546 14.9354 116.251 15.6403 116.615 16.6854C116.773 17.1472 116.919 17.6211 117.077 18.0829C118.001 20.9752 118.888 23.8797 119.763 26.7841C119.885 27.1973 119.97 27.6227 120.03 28.0601C120.067 28.3275 120.115 28.607 120.164 28.8865C120.213 28.9108 120.261 28.9351 120.31 28.9351C120.419 28.9473 120.492 28.9108 120.529 28.8136C120.553 28.7407 120.577 28.6556 120.589 28.5706C120.978 26.7234 121.367 24.864 121.756 23.0169C122.108 21.3641 122.509 19.7357 122.923 18.1072C122.996 17.8034 123.068 17.5118 123.154 17.208C123.409 16.2722 123.919 15.5066 124.746 14.984C125.219 14.6802 125.73 14.5101 126.289 14.4493C126.52 14.425 126.751 14.4129 126.994 14.4129C129.266 14.4129 131.539 14.4129 133.799 14.4129C135.33 14.4129 136.849 14.4129 138.381 14.4129C138.539 14.4129 138.697 14.425 138.855 14.4615C139.158 14.5222 139.365 14.7045 139.474 14.984C139.499 15.057 139.511 15.1299 139.535 15.2028C139.559 15.2879 139.584 15.3851 139.608 15.4701C139.802 16.0778 140.519 16.2236 140.945 15.9684C141.066 15.8955 141.188 15.7861 141.297 15.6889C141.759 15.2392 142.257 14.8625 142.828 14.5587C143.436 14.2427 144.068 14.0361 144.736 13.9146C145.393 13.7931 146.037 13.7323 146.705 13.7566C147.811 13.7931 148.868 14.0483 149.865 14.5222C149.998 14.583 150.132 14.6681 150.241 14.7531C150.448 14.9111 150.545 15.1177 150.545 15.3851C150.545 15.5917 150.509 15.7861 150.472 15.9805C150.132 17.6697 149.78 19.3589 149.439 21.0481C149.403 21.2061 149.354 21.3763 149.281 21.5221C149.111 21.8867 148.795 22.0447 148.394 21.9839C148.236 21.9596 148.09 21.911 147.933 21.8624C147.264 21.6436 146.571 21.5221 145.867 21.5586C145.089 21.5829 144.348 21.7408 143.643 22.0811C142.464 22.6401 141.71 23.5516 141.334 24.7911C141.176 25.2894 141.115 25.7998 141.078 26.3223C141.018 27.1366 141.042 27.9629 141.042 28.7771C141.042 31.4872 141.042 34.1972 141.042 36.9193C141.042 37.1138 141.042 37.3204 140.993 37.5148C140.908 37.8915 140.677 38.1103 140.301 38.1832C140.143 38.2075 139.985 38.2318 139.827 38.2318C137.481 38.2318 135.136 38.2318 132.79 38.2318C132.645 38.2318 132.511 38.2196 132.365 38.1953C131.94 38.1224 131.697 37.8794 131.624 37.454C131.6 37.3082 131.587 37.1502 131.587 37.0044C131.587 34.9628 131.587 32.9333 131.587 30.8917C131.587 29.9195 131.587 28.9351 131.587 27.9629C131.587 25.7876 131.575 23.6123 131.563 21.4249C131.563 20.9509 131.527 20.477 131.478 20.003C131.429 19.602 131.393 19.201 131.356 18.8121C131.344 18.6419 131.308 18.484 131.235 18.326C131.138 18.3746 131.138 18.4718 131.113 18.5447C130.785 19.4926 130.469 20.4405 130.141 21.3884C128.537 26.1036 126.933 30.8309 125.329 35.5461C125.183 35.9593 125.001 36.3482 124.746 36.7006C124.187 37.4783 123.433 37.9523 122.509 38.1346C122.193 38.1953 121.865 38.2196 121.537 38.2196C120.346 38.2196 119.155 38.2196 117.952 38.2196C117.43 38.2196 116.919 38.1589 116.433 37.9644C115.327 37.527 114.61 36.737 114.27 35.5947C114.015 34.744 113.796 33.8933 113.553 33.0427C112.897 30.6486 112.253 28.2424 111.596 25.8484C111.56 25.7269 111.536 25.6053 111.511 25.4838C111.475 25.338 111.414 25.2043 111.281 25.1071C111.159 25.1922 111.086 25.3137 111.05 25.4595C111.025 25.5689 111.001 25.6904 110.977 25.7998C110.88 26.3831 110.697 26.9543 110.539 27.5254C109.895 29.8344 109.239 32.1434 108.595 34.4645C108.473 34.8777 108.364 35.303 108.23 35.7162C107.805 37.0408 106.893 37.8308 105.545 38.1467C105.253 38.2196 104.961 38.2318 104.67 38.2318C103.406 38.2318 102.154 38.2318 100.89 38.2318C100.501 38.2318 100.125 38.1832 99.7478 38.0738C98.9336 37.8308 98.2895 37.3447 97.8155 36.6398C97.5725 36.2874 97.4024 35.8985 97.2687 35.4975C96.4788 33.0913 95.701 30.6972 94.9111 28.291C93.9632 25.3987 93.0032 22.5064 91.958 19.6506C91.8608 19.3954 91.7636 19.128 91.6664 18.885C91.3383 18.0829 90.8522 17.3902 90.2445 16.7826C90.2202 16.7583 90.1959 16.734 90.1716 16.7097C90.1595 16.7097 90.1473 16.6975 90.123 16.6854C90.0987 16.7097 90.0744 16.7219 90.0622 16.7583C90.0015 16.9041 89.9043 17.0257 89.7949 17.1472C87.6925 19.4926 85.5901 21.8259 83.4877 24.1713C83.3662 24.305 83.2568 24.4387 83.1475 24.5724C82.9287 24.8519 82.9287 25.1557 83.111 25.4595C83.1839 25.581 83.269 25.7026 83.3541 25.8119C86.0641 29.4334 88.7862 33.0427 91.4962 36.6641C91.6056 36.81 91.715 36.9558 91.8122 37.1138C92.0188 37.454 91.958 37.8551 91.6785 38.1224C91.6056 38.1953 91.5084 38.2439 91.4233 38.3047H81.2638V38.2804ZM0 15.2392C0 15.2392 0.0729151 15.2757 0.0729151 15.3C0.157983 15.5431 0.352423 15.6646 0.559015 15.7861C0.680541 15.8469 0.789913 15.9076 0.911438 15.9805C1.2031 16.1628 1.49476 16.333 1.77427 16.5274C2.29682 16.8798 2.69786 17.3416 3.03813 17.8642C3.29333 18.2652 3.48777 18.7027 3.65791 19.1402C4.22907 20.6228 4.76378 22.1054 5.26204 23.6123C6.50159 27.3675 7.729 31.1347 8.96855 34.902C9.07792 35.2423 9.1873 35.5825 9.32098 35.9228C9.73416 36.9315 10.439 37.6242 11.472 37.9887C11.9095 38.1467 12.3591 38.2075 12.8209 38.2075C13.9875 38.2075 15.1542 38.2075 16.3208 38.2075C16.576 38.2075 16.8191 38.2075 17.0743 38.171C17.7305 38.0981 18.3381 37.8672 18.8607 37.4662C19.5048 36.9801 19.918 36.336 20.1489 35.5704C20.3798 34.8048 20.6107 34.0392 20.8172 33.2614C21.437 30.9403 22.0568 28.607 22.6766 26.2737C22.7495 25.9942 22.8346 25.7147 22.9075 25.423C22.9439 25.2772 23.0169 25.1678 23.1505 25.0949C23.2721 25.2286 23.345 25.3744 23.3814 25.5446C23.9891 27.8171 24.6088 30.1018 25.2286 32.3743C25.5203 33.4559 25.8119 34.5496 26.1279 35.6312C26.4439 36.7127 27.1366 37.4783 28.1817 37.9158C28.6556 38.1103 29.1539 38.2075 29.6764 38.2075C30.916 38.2075 32.1434 38.2075 33.3829 38.2075C33.6989 38.2075 34.0149 38.171 34.3308 38.1224C35.376 37.9523 36.178 37.4054 36.737 36.494C36.9558 36.1416 37.1138 35.7648 37.2474 35.376C38.9366 30.4056 40.6258 25.4352 42.315 20.4527C42.5095 19.8694 42.7161 19.286 42.9105 18.7027C42.947 18.6055 42.9834 18.4961 43.032 18.3989C43.032 18.3746 43.0806 18.3503 43.105 18.3503C43.1293 18.3503 43.1657 18.3867 43.1657 18.4111C43.19 18.4961 43.2022 18.5933 43.2143 18.6784C43.2386 18.9093 43.2751 19.1402 43.2994 19.3711C43.348 19.8329 43.4088 20.2825 43.4088 20.7443C43.4088 22.3849 43.4088 24.0377 43.4209 25.6783C43.4209 28.7771 43.4209 31.8882 43.4209 34.9871C43.4209 35.6676 43.4209 36.336 43.4209 37.0165C43.4209 37.1867 43.4331 37.3447 43.4695 37.5148C43.5424 37.8672 43.7612 38.086 44.1258 38.1589C44.2837 38.1953 44.4539 38.2075 44.624 38.2075C46.9695 38.2075 49.3149 38.2075 51.6603 38.2075C51.8061 38.2075 51.9641 38.1953 52.11 38.171C52.5475 38.0981 52.7662 37.8672 52.8391 37.4297C52.8634 37.2353 52.8756 37.053 52.8756 36.8586C52.8756 33.6989 52.8756 30.5271 52.8756 27.3675C52.8756 26.9543 52.8756 26.5289 52.9242 26.1157C52.9849 25.5081 53.1065 24.9126 53.3374 24.3415C53.7749 23.2356 54.5283 22.4457 55.6463 22.0082C56.7401 21.5829 57.8703 21.4492 59.0369 21.7165C59.365 21.7895 59.7053 21.8745 60.0334 21.9474C60.1428 21.9717 60.2643 21.9839 60.3858 21.9839C60.799 21.9717 61.0907 21.7408 61.2122 21.3398C61.2243 21.3033 61.2365 21.2547 61.2486 21.2183C61.2973 20.9752 61.3459 20.7322 61.3945 20.4891C61.674 19.1037 61.9535 17.7305 62.233 16.3451C62.2816 16.0778 62.3424 15.8104 62.3788 15.5309C62.4274 15.1906 62.3059 14.899 62.0143 14.7045C61.8927 14.6195 61.7712 14.5587 61.6497 14.4979C60.6289 13.9997 59.5473 13.7688 58.405 13.7445C57.8946 13.7445 57.3842 13.7809 56.8859 13.8417C56.3755 13.9146 55.8651 14.024 55.379 14.2063C54.5283 14.5344 53.7749 15.0205 53.1186 15.6646C53.0214 15.7618 52.9242 15.8469 52.8148 15.9198C52.3166 16.2601 51.5996 16.017 51.4294 15.4458C51.4051 15.3729 51.393 15.3 51.3687 15.2271C51.3444 15.1299 51.3079 15.0327 51.2714 14.9476C51.1499 14.6559 50.9312 14.4736 50.6152 14.4372C50.4694 14.4129 50.3114 14.4007 50.1656 14.4007C46.374 14.4007 42.5702 14.4007 38.7787 14.4007C38.4627 14.4007 38.1467 14.425 37.8308 14.4858C36.8464 14.6924 36.0565 15.2028 35.5096 16.0413C35.2423 16.4423 35.0721 16.8798 34.9628 17.3538C34.8412 17.852 34.7197 18.3624 34.586 18.8607C34.1486 20.5499 33.7597 22.2512 33.4072 23.9526C33.0791 25.5324 32.7389 27.1122 32.4107 28.7042C32.3986 28.7771 32.3743 28.8501 32.35 28.9108C32.2285 28.9473 32.1312 28.9716 32.0219 28.8987C31.9854 28.6556 31.9489 28.4247 31.9125 28.1817C31.8396 27.7077 31.7545 27.2216 31.6208 26.7598C30.7823 24.0377 29.9438 21.3277 29.1053 18.6055C28.8987 17.9493 28.6921 17.2809 28.4612 16.6368C28.1088 15.6524 27.4404 14.9962 26.456 14.6559C26.0914 14.5344 25.7147 14.4736 25.3258 14.4493C24.7911 14.425 24.2564 14.4129 23.7217 14.4007C23.3328 14.4007 22.9318 14.4007 22.5429 14.4007C22.2391 14.4007 21.9474 14.425 21.6436 14.4858C20.8416 14.6559 20.161 15.0327 19.6263 15.6646C19.2617 16.1021 19.0065 16.5882 18.8485 17.135C18.1558 19.5048 17.4632 21.8745 16.7705 24.2443C16.4788 25.2529 16.2236 26.2737 16.0292 27.3067C15.9441 27.7442 15.8712 28.1817 15.8104 28.6192C15.7861 28.765 15.7132 28.8622 15.5917 28.923C15.3972 28.7893 15.3729 28.7528 15.3365 28.5706C15.3122 28.4369 15.3 28.3032 15.2757 28.1695C15.2149 27.8292 15.1785 27.489 15.1056 27.1609C14.4372 24.3172 13.7566 21.4613 13.0761 18.6176C12.9546 18.0951 12.833 17.5604 12.6872 17.0378C12.2619 15.4945 10.9251 14.5344 9.51542 14.425C9.26021 14.4007 9.01716 14.4007 8.76196 14.4007C6.16132 14.4007 3.57284 14.4007 0.972201 14.4007C0.838523 14.4007 0.704846 14.4129 0.571168 14.4372C0.352423 14.4858 0.170135 14.6073 0.109373 14.8382C0.0972201 14.899 0.0729151 14.9476 0.0121525 14.9719C0 15.0813 0 15.1542 0 15.2392ZM149.403 5.62661C149.33 5.65092 149.269 5.68737 149.196 5.71168C149.063 5.76029 148.965 5.84536 148.893 5.96688C148.686 6.34361 148.807 6.76895 149.196 6.96339C149.281 7.012 149.379 7.0363 149.476 7.07276C150.071 7.31581 150.557 7.69254 150.922 8.22725C151.165 8.59182 151.335 8.9807 151.457 9.40604C151.675 10.1838 151.773 10.9737 151.809 11.7758C151.821 12.1404 151.821 12.5049 151.821 12.8817C151.821 20.9023 151.821 28.9351 151.821 36.9558C151.821 37.0773 151.821 37.1867 151.821 37.3082C151.821 37.454 151.833 37.5877 151.858 37.7335C151.894 37.9644 152.004 38.1346 152.222 38.2318C152.247 38.2318 152.271 38.2683 152.295 38.2926H160.753C160.753 38.2926 160.778 38.2683 160.79 38.2683C161.057 38.1953 161.179 38.0009 161.215 37.7335C161.215 37.6485 161.239 37.5513 161.239 37.4662C161.239 37.3447 161.239 37.2353 161.239 37.1138C161.239 27.2581 161.239 17.4145 161.239 7.55886C161.239 7.21859 161.239 6.87832 161.239 6.53805C161.239 6.41653 161.227 6.28285 161.203 6.16132C161.154 5.93043 161.009 5.78459 160.79 5.71168C160.729 5.68737 160.668 5.66307 160.608 5.65092C156.865 5.65092 153.134 5.65092 149.391 5.65092L149.403 5.62661ZM72.6963 38.2804C72.6963 38.2804 72.7085 38.2439 72.7206 38.2439C72.988 38.1467 73.073 37.928 73.0974 37.6728C73.0974 37.5026 73.1095 37.3204 73.1095 37.1502C73.1095 33.4559 73.1095 29.7615 73.1095 26.0671C73.1095 23.5516 73.1095 21.0238 73.1095 18.5083C73.1095 14.6924 73.1095 10.8643 73.1217 7.04846C73.1217 6.81756 73.1095 6.58666 73.0852 6.34361C73.0852 6.25854 73.0609 6.16132 73.0244 6.07625C72.9758 5.90612 72.8543 5.79675 72.6842 5.73598C72.6112 5.71168 72.5262 5.69953 72.4411 5.67522C72.4047 5.67522 72.3682 5.63876 72.3317 5.62661C71.1286 5.62661 69.9255 5.62661 68.7224 5.62661C68.6495 5.62661 68.5766 5.65092 68.5037 5.65092C67.5436 5.65092 66.5957 5.65092 65.6357 5.65092C65.5628 5.65092 65.4899 5.62661 65.417 5.62661C64.0316 5.62661 62.6462 5.62661 61.2608 5.62661C61.1879 5.66307 61.115 5.69953 61.0421 5.73598C60.5681 5.95473 60.5803 6.44083 60.799 6.72034C60.9084 6.85402 61.0299 6.96339 61.1879 7.0363C61.2608 7.06061 61.3216 7.09707 61.3945 7.12137C62.3424 7.54671 62.9622 8.25155 63.2417 9.26021C63.3996 9.83138 63.4969 10.4147 63.5698 10.998C63.6305 11.4963 63.6913 11.9945 63.6792 12.4928C63.6792 12.8209 63.6792 13.1612 63.6792 13.4893C63.6792 21.352 63.6792 29.2146 63.6792 37.0773C63.6792 37.1988 63.6792 37.3325 63.6792 37.454C63.6792 37.5756 63.7035 37.7092 63.7278 37.8308C63.7642 38.0009 63.8614 38.1346 64.0194 38.2075C64.0559 38.2196 64.0802 38.2561 64.1166 38.2683H72.6842L72.6963 38.2804ZM179.493 38.2804C179.565 38.2439 179.638 38.2075 179.711 38.171C179.93 38.0495 180.064 37.8551 180.064 37.5999C180.064 37.4783 180.027 37.3568 179.991 37.2353C179.93 37.0408 179.809 36.8829 179.687 36.7249C178.192 34.7319 176.697 32.7267 175.203 30.7337C173.951 29.0688 172.699 27.3918 171.448 25.7269C171.363 25.6053 171.277 25.4838 171.205 25.3501C171.071 25.0949 171.083 24.8519 171.241 24.621C171.314 24.5116 171.387 24.4144 171.472 24.3293C171.727 24.0498 171.97 23.7703 172.225 23.4908C174.85 20.5864 177.475 17.6941 180.112 14.7896C180.161 14.741 180.197 14.6924 180.246 14.6438C180.27 14.6073 180.295 14.583 180.258 14.5222C180.21 14.5222 180.149 14.5222 180.1 14.5222C179.42 14.5222 178.727 14.4979 178.046 14.4979C176.697 14.4858 175.361 14.4736 174.012 14.4615C172.517 14.4493 171.022 14.4372 169.528 14.425C169.284 14.425 169.09 14.5222 168.944 14.7045C168.908 14.741 168.883 14.7775 168.847 14.8261C166.915 17.3052 164.97 19.7843 163.026 22.2512C162.771 22.5672 162.661 22.9075 162.661 23.3085C162.674 24.6331 162.661 25.9578 162.661 27.2945C162.661 27.6348 162.746 27.9265 162.929 28.2181C164.922 31.4142 166.903 34.6103 168.883 37.8065C169.017 38.0131 169.151 38.2075 169.37 38.329H179.48L179.493 38.2804ZM65.4413 5.62661C65.5142 5.62661 65.5871 5.65092 65.66 5.65092C66.6201 5.65092 67.568 5.65092 68.528 5.65092C68.6009 5.65092 68.6738 5.62661 68.7467 5.62661C67.6409 5.62661 66.5471 5.62661 65.4413 5.62661ZM184.876 2.90445C184.876 4.55719 183.576 5.84536 181.899 5.84536C180.222 5.84536 178.897 4.54504 178.897 2.90445C178.897 1.26386 180.222 0 181.899 0C183.576 0 184.876 1.30032 184.876 2.90445ZM179.638 2.90445C179.638 4.20477 180.598 5.22558 181.911 5.22558C183.223 5.22558 184.123 4.19262 184.123 2.9166C184.123 1.64059 183.187 0.571168 181.887 0.571168C180.586 0.571168 179.638 1.61628 179.638 2.8923V2.90445ZM181.437 4.43567H180.769V1.51906C181.036 1.47045 181.413 1.434 181.887 1.434C182.433 1.434 182.689 1.51906 182.895 1.65274C183.053 1.77427 183.175 2.00516 183.175 2.29682C183.175 2.61279 182.932 2.86799 182.567 2.96521V3.00167C182.847 3.11104 183.005 3.31764 183.102 3.70652C183.187 4.14401 183.248 4.32629 183.321 4.43567H182.591C182.506 4.32629 182.446 4.05894 182.361 3.73082C182.312 3.41486 182.13 3.26903 181.753 3.26903H181.437V4.43567ZM181.449 2.78292H181.765C182.142 2.78292 182.433 2.6614 182.433 2.35759C182.433 2.09023 182.239 1.9201 181.814 1.9201C181.631 1.9201 181.51 1.93225 181.437 1.95655V2.79508L181.449 2.78292Z" fill="#F3F3F3"/>
</svg>
