<svg width="183" height="66" viewBox="0 0 183 66" fill="none" xmlns="http://www.w3.org/2000/svg">
<path d="M40.4018 64.9041C38.9377 64.9314 37.5578 64.5767 36.2688 63.9118C35.7141 63.6253 35.2855 63.6753 34.7751 64.005C32.8712 65.2315 30.7933 65.9771 28.5052 65.8373C25.2235 65.6361 22.4193 64.4233 20.4801 61.6384C20.0357 61.0007 19.5696 60.7563 18.7444 60.7711C13.0882 60.8677 9.36897 57.4247 8.19931 53.519C7.99925 52.8518 7.85035 52.1516 7.80602 51.4593C7.76055 50.7591 7.50138 50.342 6.86484 50.0157C3.64573 48.3675 1.72358 45.7327 1.07794 42.1771C0.719886 40.2072 0.954044 38.293 1.83612 36.4948C2.18622 35.7821 2.14871 35.2421 1.72813 34.5522C-0.314503 31.2012 -0.575942 27.7048 1.10181 24.1208C1.82702 22.5703 2.92734 21.3097 4.35389 20.372C4.93019 19.9934 5.1041 19.566 5.07228 18.9011C4.90177 15.2898 6.24534 12.3105 8.96544 9.95646C10.4159 8.70155 12.1345 8.02977 14.0374 7.82516C14.1181 7.81607 14.1988 7.80129 14.2795 7.8047C15.0706 7.83425 15.5128 7.46028 15.8913 6.74644C17.8896 2.98399 21.0928 1.09027 25.319 0.914078C26.774 0.853833 28.171 1.19939 29.4554 1.87686C30.0908 2.21218 30.5751 2.14625 31.173 1.77569C34.425 -0.241937 37.8453 -0.564757 41.3861 0.933402C43.0662 1.64383 44.4336 2.78734 45.4407 4.30824C45.8363 4.905 46.283 5.11529 46.9809 5.0755C50.2466 4.89136 53.0145 6.03942 55.3174 8.32758C56.952 9.95191 57.8693 11.9366 58.0284 14.2316C58.083 15.0204 58.3683 15.4819 59.081 15.8593C62.5343 17.6905 64.4519 20.5982 64.8986 24.4743C65.093 26.1554 64.7872 27.7707 64.0358 29.2711C63.6619 30.0179 63.7164 30.601 64.1472 31.2978C66.1149 34.4828 66.3763 37.8281 64.9566 41.2973C64.262 42.9955 63.1549 44.3743 61.6249 45.3758C60.9804 45.7975 60.7417 46.2976 60.7758 47.0558C60.9304 50.5443 59.6505 53.4326 57.0452 55.7446C55.4288 57.1791 53.5249 57.9339 51.3845 58.068C50.7377 58.109 50.3524 58.3602 50.0614 58.9297C49.3919 60.238 48.5189 61.402 47.4072 62.3761C45.4009 64.1334 43.023 64.8552 40.4006 64.903L40.4018 64.9041ZM36.6427 62.5614C37.2645 62.6364 37.7135 62.7592 38.1523 62.7308C40.2301 62.5966 42.0318 61.8112 43.4595 60.2789C45.4089 58.1885 45.7499 54.7569 43.6879 52.4505C43.4185 52.1493 43.1662 51.831 42.9036 51.523C41.9715 50.4306 41.9181 49.2303 42.4842 47.9663C42.8218 47.2104 43.3538 46.6034 44.0187 46.1157C46.1125 44.5789 48.7155 45.1962 49.9113 47.4991C51.2947 50.1658 51.6709 52.9688 51.0923 55.9106C51.0492 56.1323 51.0412 56.3607 50.9991 56.7552C51.58 56.479 52.0472 56.3266 52.4359 56.0595C54.3808 54.7216 55.6084 52.9075 55.8619 50.5306C56.1483 47.8378 54.474 45.0995 51.9619 44.4107C51.5209 44.2902 51.0889 44.1311 50.6559 43.981C49.4657 43.5673 48.8099 42.6886 48.6212 41.4814C48.5359 40.9313 48.5325 40.3413 48.6291 39.7935C49.16 36.7699 52.162 35.3649 54.6945 36.9279C57.2862 38.5272 59.0753 40.7278 60.0995 43.5764C60.1961 43.8458 60.2973 44.1129 60.4257 44.4607C61.0395 43.8242 61.3896 43.1603 61.6806 42.4681C62.906 39.5513 62.1728 36.3743 59.8392 34.4533C58.632 33.4598 57.2543 33.012 55.6948 33.2359C55.0026 33.3359 54.3171 33.4951 53.634 33.6508C52.8781 33.8236 52.1847 33.6667 51.5334 33.2882C49.9829 32.3879 49.1304 30.1702 49.6181 28.3345C50.0841 26.5794 51.5845 25.5155 53.5817 25.5143C56.6485 25.5121 59.3425 26.5317 61.7045 28.4675C61.9478 28.6664 62.1921 28.863 62.5115 29.1222C62.582 28.7414 62.6627 28.4822 62.673 28.2208C62.7559 26.193 62.2467 24.3276 60.8099 22.8659C58.5468 20.5618 55.1458 19.5831 52.0835 22.3975C51.7857 22.6715 51.4834 22.9432 51.1617 23.1887C50.4854 23.7059 49.7238 23.8946 48.8758 23.7616C47.7198 23.5797 46.8184 22.9773 46.0909 22.0963C44.3927 20.0378 44.9224 17.329 47.2617 16.0503C49.7624 14.684 52.4189 14.1918 55.2401 14.6192C55.6869 14.6862 56.1347 14.7533 56.636 14.8283C56.6087 14.6578 56.6098 14.5521 56.5735 14.4623C56.4746 14.2122 56.3791 13.9576 56.2472 13.7235C55.3663 12.1594 54.0818 11.0409 52.4166 10.385C48.9258 9.01073 45.4782 10.6044 44.2608 14.1338C44.129 14.5169 44.0051 14.9022 43.8732 15.2841C43.5322 16.2765 42.8559 16.9676 41.8488 17.2074C41.1815 17.3665 40.445 17.4461 39.7732 17.3438C36.6927 16.8755 35.2025 13.8269 36.8439 11.2102C38.4728 8.61289 40.6655 6.77258 43.539 5.73024C43.8266 5.62566 44.1097 5.51313 44.52 5.3574C44.1528 5.0846 43.9266 4.89591 43.6823 4.73791C42.1693 3.76035 40.5041 3.41366 38.7286 3.62054C35.5788 3.98883 32.254 6.94195 33.4202 11.1795C33.4589 11.3193 33.4475 11.4717 33.4634 11.6785C30.7501 11.6047 28.1687 12.0764 25.5805 12.8937C25.3713 9.13349 26.6592 6.03942 29.1599 3.30795C28.7768 3.23406 28.5427 3.15791 28.3074 3.14881C26.1283 3.06242 24.1903 3.68647 22.6239 5.23464C20.0789 7.75014 20.1198 11.7763 22.591 13.9042C22.6637 13.9667 22.7183 14.0531 22.8274 14.1838C20.4222 15.5308 18.367 17.2074 16.5688 19.3001C15.5287 17.7314 14.9228 16.1071 14.6137 14.3634C14.3068 12.63 14.5193 10.9067 14.8569 9.07438C12.7097 9.91099 11.3002 11.2921 10.4591 13.2324C8.98136 16.6391 10.5238 20.2015 13.9964 21.4814C14.2397 21.5712 14.4795 21.6712 14.7751 21.7883C13.3894 24.1458 12.4585 26.601 11.947 29.2836C8.57442 27.5786 6.51019 24.9108 5.42238 21.4052C5.26665 21.5132 5.18594 21.5439 5.14389 21.603C3.57412 23.7888 3.06829 26.1566 4.05039 28.7175C5.20413 31.7264 8.44256 33.2654 11.1115 32.4027C11.2581 32.355 11.4196 32.3515 11.6389 32.3174C11.6537 35.0262 12.0481 37.644 12.9416 40.2982C11.997 40.2447 11.1865 40.2481 10.3897 40.1447C7.93674 39.8276 5.80317 38.7852 3.92649 37.1939C3.73553 37.0313 3.53206 36.8835 3.24107 36.6551C2.94439 39.1035 3.44681 41.1598 4.97111 42.9148C7.2354 45.5224 10.8864 45.785 13.519 43.5502C13.7225 43.3774 13.9248 43.2047 14.1885 42.9785C15.5241 45.3871 17.2155 47.4388 19.3093 49.245C16.13 51.2888 12.7711 51.789 9.07229 50.9228C9.21324 51.2922 9.27803 51.5218 9.38488 51.731C10.409 53.7441 12.0084 55.0763 14.1931 55.6435C17.6111 56.5301 20.5654 54.8148 21.5964 51.3979C21.6316 51.2809 21.7123 51.1786 21.7498 51.1092C22.999 51.6787 24.1755 52.2891 25.4077 52.7551C26.6478 53.2246 27.9425 53.5486 29.2486 53.9475C28.6563 55.1104 27.938 56.1141 27.0729 57.0166C25.5077 58.6523 23.5822 59.6947 21.3542 60.4017C21.5873 60.6097 21.7316 60.7631 21.8998 60.8859C22.7194 61.4815 23.6378 61.8703 24.6199 62.0931C27.1286 62.6626 29.2542 61.8953 31.0764 60.1675C31.7766 59.5037 32.2199 58.6716 32.4347 57.7248C32.7552 56.3119 32.5859 54.9319 32.1392 53.5781C31.722 52.3164 32.0414 51.2377 32.9155 50.2942C33.6396 49.5133 34.5569 49.0666 35.5924 48.8847C37.8806 48.4835 39.8562 49.9896 40.1449 52.2891C40.595 55.8776 39.5765 59.0115 37.2884 61.768C37.1179 61.9737 36.9496 62.1806 36.6393 62.5602L36.6427 62.5614Z" fill="white"/>
<path d="M29.2834 47.4879C23.6806 47.0707 16.4888 41.6896 16.3274 33.1178C16.166 24.5301 23.2009 18.5682 29.7017 18.1272C26.2882 18.8581 23.3453 20.4267 21.0242 23.0559C18.7099 25.6782 17.4879 28.7439 17.297 32.2483C16.9798 38.0806 20.7241 45.3941 29.2834 47.4868V47.4879Z" fill="white"/>
<path d="M76.7293 26.8973C77.4704 26.8973 78.0206 26.7473 78.3787 26.4472C78.7367 26.1471 78.9152 25.7731 78.9152 25.3253C78.9152 24.9286 78.7776 24.6057 78.5025 24.3568C78.2275 24.1079 77.8092 23.8998 77.2465 23.7339L75.9996 23.3508C75.3596 23.1337 74.8003 22.8905 74.3218 22.6222C73.8421 22.3539 73.4716 22.005 73.209 21.5764C72.9464 21.1479 72.8157 20.6205 72.8157 19.9942C72.8157 18.9587 73.2022 18.1402 73.9762 17.5389C74.7492 16.9376 75.8075 16.6375 77.1499 16.6375C77.866 16.6375 78.5025 16.7114 79.0584 16.858C79.6142 17.0047 80.0553 17.207 80.3815 17.4616C80.7077 17.7174 80.8703 18.0175 80.8703 18.363C80.8703 18.6063 80.8089 18.82 80.6884 19.0053C80.5668 19.1905 80.4167 19.3406 80.2383 19.4554C79.9439 19.2383 79.5415 19.0496 79.03 18.8893C78.5185 18.729 77.9626 18.6495 77.3613 18.6495C76.6963 18.6495 76.1848 18.7711 75.8268 19.0143C75.4687 19.2576 75.2903 19.5838 75.2903 19.9919C75.2903 20.325 75.4153 20.5932 75.6642 20.7978C75.9132 21.0024 76.294 21.1809 76.8055 21.3343L77.9183 21.6606C79.0175 21.9936 79.8745 22.4437 80.4883 23.0132C81.1022 23.5827 81.4091 24.3591 81.4091 25.3434C81.4091 26.3915 81.009 27.2417 80.2099 27.8942C79.4108 28.5466 78.2695 28.8717 76.7861 28.8717C76.0064 28.8717 75.3153 28.7888 74.7151 28.6228C74.1138 28.4568 73.6375 28.2261 73.2863 27.9328C72.9339 27.6384 72.7589 27.3065 72.7589 26.9359C72.7589 26.6552 72.8486 26.4119 73.0271 26.2073C73.2056 26.0027 73.3977 25.8493 73.6023 25.747C73.9342 26.0289 74.3627 26.2903 74.8867 26.5336C75.4107 26.7768 76.0246 26.8984 76.7282 26.8984L76.7293 26.8973Z" fill="white"/>
<path d="M83.2509 16.8102C83.2509 16.4396 83.3816 16.1259 83.6442 15.8702C83.9056 15.6144 84.2352 15.4871 84.6319 15.4871C85.0286 15.4871 85.3708 15.6155 85.6197 15.8702C85.8687 16.1259 85.9937 16.4396 85.9937 16.8102C85.9937 17.1808 85.8687 17.4786 85.6197 17.74C85.3708 18.0026 85.0411 18.1333 84.6319 18.1333C84.2227 18.1333 83.9056 18.0026 83.6442 17.74C83.3816 17.4786 83.2509 17.1683 83.2509 16.8102ZM85.8209 24.7307H83.443V19.5905C83.5453 19.5519 83.6953 19.5167 83.8931 19.4848C84.0909 19.453 84.3057 19.4371 84.5353 19.4371C84.9832 19.4371 85.3083 19.5167 85.5129 19.6769C85.7175 19.8372 85.8198 20.1282 85.8198 20.5499V24.7307H85.8209ZM83.443 23.5224H85.8209V28.5477C85.7186 28.5863 85.572 28.6216 85.3799 28.6534C85.1878 28.6852 84.9775 28.7011 84.7467 28.7011C84.3114 28.7011 83.9863 28.6216 83.7692 28.4613C83.5521 28.301 83.443 28.0168 83.443 27.6076V23.5224Z" fill="white"/>
<path d="M90.8838 24.846L88.5251 24.7312V16.1196C88.6149 16.0946 88.7581 16.0616 88.9571 16.0241C89.1549 15.9855 89.3629 15.9662 89.58 15.9662C90.0403 15.9662 90.3722 16.0457 90.5769 16.206C90.7815 16.3663 90.8838 16.6504 90.8838 17.0597V24.846ZM88.524 23.5229L90.8826 23.6377V28.5471C90.7803 28.5857 90.6337 28.6209 90.4416 28.6528C90.2495 28.6846 90.0392 28.7005 89.8084 28.7005C89.3731 28.7005 89.0514 28.6209 88.84 28.4607C88.6286 28.3004 88.524 28.0162 88.524 27.607V23.5217V23.5229Z" fill="white"/>
<path d="M93.3566 16.8102C93.3566 16.4396 93.4874 16.1259 93.7499 15.8702C94.0114 15.6144 94.341 15.4871 94.7377 15.4871C95.1344 15.4871 95.4766 15.6155 95.7255 15.8702C95.9744 16.1259 96.0995 16.4396 96.0995 16.8102C96.0995 17.1808 95.9744 17.4786 95.7255 17.74C95.4766 18.0026 95.1469 18.1333 94.7377 18.1333C94.3285 18.1333 94.0114 18.0026 93.7499 17.74C93.4874 17.4786 93.3566 17.1683 93.3566 16.8102ZM95.9267 24.7307H93.5487V19.5905C93.651 19.5519 93.8011 19.5167 93.9989 19.4848C94.1966 19.453 94.4115 19.4371 94.6411 19.4371C95.089 19.4371 95.414 19.5167 95.6186 19.6769C95.8233 19.8372 95.9256 20.1282 95.9256 20.5499V24.7307H95.9267ZM93.5487 23.5224H95.9267V28.5477C95.8244 28.5863 95.6778 28.6216 95.4857 28.6534C95.2936 28.6852 95.0833 28.7011 94.8525 28.7011C94.4172 28.7011 94.0921 28.6216 93.875 28.4613C93.6579 28.301 93.5487 28.0168 93.5487 27.6076V23.5224Z" fill="white"/>
<path d="M103.138 21.1444C102.371 21.1444 101.729 21.3933 101.211 21.8923C100.692 22.3913 100.434 23.12 100.434 24.0782C100.434 25.0364 100.683 25.74 101.182 26.2265C101.681 26.713 102.327 26.9551 103.119 26.9551C103.592 26.9551 103.992 26.8949 104.318 26.7733C104.645 26.6517 104.929 26.5209 105.172 26.38C105.364 26.4948 105.514 26.6323 105.622 26.7926C105.73 26.9529 105.785 27.1472 105.785 27.378C105.785 27.8133 105.522 28.168 104.998 28.4419C104.474 28.717 103.783 28.8546 102.927 28.8546C101.955 28.8546 101.102 28.6784 100.367 28.3271C99.6318 27.9759 99.0566 27.4417 98.6406 26.7255C98.2246 26.0094 98.0177 25.1273 98.0177 24.0793C98.0177 23.0313 98.2382 22.0912 98.6793 21.3751C99.1203 20.659 99.708 20.1259 100.443 19.7735C101.179 19.4223 101.987 19.2461 102.869 19.2461C103.751 19.2461 104.39 19.3927 104.902 19.6871C105.413 19.9815 105.669 20.3453 105.669 20.7806C105.669 20.9727 105.618 21.1512 105.515 21.3172C105.413 21.4831 105.291 21.6172 105.15 21.7195C104.895 21.5661 104.607 21.432 104.288 21.3172C103.968 21.2024 103.584 21.1444 103.137 21.1444H103.138Z" fill="white"/>
<path d="M116.391 24.0407C116.391 25.025 116.199 25.8787 115.816 26.6005C115.433 27.3234 114.892 27.8793 114.195 28.2692C113.498 28.659 112.677 28.8546 111.731 28.8546C110.785 28.8546 109.96 28.659 109.256 28.2692C108.553 27.8793 108.006 27.3268 107.616 26.6107C107.226 25.8946 107.031 25.0375 107.031 24.0407C107.031 23.0438 107.228 22.2061 107.625 21.4899C108.022 20.7738 108.571 20.2214 109.274 19.8315C109.977 19.4416 110.795 19.2461 111.73 19.2461C112.664 19.2461 113.478 19.4416 114.175 19.8315C114.871 20.2214 115.415 20.7784 115.805 21.5002C116.195 22.2231 116.39 23.0699 116.39 24.0418L116.391 24.0407ZM111.731 21.1251C111.027 21.1251 110.475 21.3808 110.072 21.8923C109.67 22.4038 109.469 23.12 109.469 24.0407C109.469 24.9614 109.667 25.7127 110.063 26.2174C110.46 26.7233 111.016 26.9756 111.732 26.9756C112.448 26.9756 112.985 26.7199 113.381 26.2083C113.777 25.6968 113.976 24.975 113.976 24.0407C113.976 23.1063 113.777 22.4197 113.381 21.9026C112.985 21.3842 112.434 21.1262 111.732 21.1262L111.731 21.1251Z" fill="white"/>
<path d="M126.786 22.6585V24.5192H124.427V22.7551C124.427 22.1924 124.267 21.7798 123.947 21.5184C123.628 21.2569 123.2 21.1251 122.663 21.1251C122.266 21.1251 121.912 21.1728 121.599 21.2694C121.285 21.3649 121.008 21.4774 120.765 21.6047V24.5204H118.406V21.4513C118.406 21.1444 118.47 20.892 118.598 20.6943C118.725 20.4965 118.918 20.3135 119.173 20.1475C119.556 19.8918 120.052 19.6781 120.66 19.5053C121.267 19.3325 121.942 19.2461 122.683 19.2461C123.975 19.2461 124.982 19.5337 125.704 20.1089C126.425 20.684 126.787 21.5343 126.787 22.6596L126.786 22.6585ZM118.404 23.5792H120.762V28.5465C120.66 28.5852 120.514 28.6204 120.321 28.6522C120.129 28.6841 119.919 28.7 119.688 28.7C119.253 28.7 118.931 28.6204 118.72 28.4601C118.508 28.2999 118.404 28.0157 118.404 27.6065V23.5792ZM124.426 23.5792H126.785V28.5465C126.695 28.5852 126.552 28.6204 126.353 28.6522C126.154 28.6841 125.947 28.7 125.73 28.7C125.282 28.7 124.953 28.6204 124.742 28.4601C124.531 28.2999 124.426 28.0157 124.426 27.6065V23.5792Z" fill="white"/>
<path d="M137.832 23.4836L138.197 22.1219C139.182 22.1219 140.004 22.256 140.662 22.5243C141.32 22.7925 141.815 23.1608 142.149 23.6269C142.48 24.094 142.648 24.6408 142.648 25.2671C142.648 26.4822 142.2 27.3802 141.305 27.9622C140.411 28.5442 139.144 28.8352 137.507 28.8352C137.188 28.8352 136.839 28.8261 136.462 28.8068C136.084 28.7874 135.707 28.7454 135.329 28.6817C134.952 28.6181 134.603 28.5408 134.284 28.4521C133.657 28.235 133.344 27.8576 133.344 27.3211V17.9048C133.344 17.6751 133.411 17.4921 133.545 17.358C133.679 17.2239 133.855 17.125 134.072 17.0602C134.507 16.9192 135.012 16.8204 135.588 16.7624C136.163 16.7044 136.757 16.676 137.371 16.676C138.906 16.676 140.095 16.9443 140.938 17.4819C141.781 18.0184 142.204 18.8368 142.204 19.9372C142.204 20.526 142.042 21.0398 141.715 21.4808C141.389 21.9218 140.904 22.264 140.258 22.5072C139.613 22.7505 138.803 22.8721 137.832 22.8721L137.679 21.7024C138.383 21.7024 138.907 21.5615 139.252 21.2807C139.598 21 139.771 20.6033 139.771 20.0918C139.771 19.5802 139.572 19.2131 139.176 18.9505C138.779 18.6891 138.185 18.5572 137.393 18.5572C137.073 18.5572 136.766 18.5697 136.472 18.5959C136.177 18.622 135.929 18.6538 135.724 18.6913V26.7653C135.967 26.8289 136.26 26.8744 136.606 26.8994C136.952 26.9255 137.29 26.938 137.622 26.938C138.414 26.938 139.039 26.7937 139.492 26.5061C139.946 26.2185 140.173 25.7741 140.173 25.1728C140.173 24.6237 139.974 24.2043 139.578 23.9167C139.182 23.6291 138.601 23.4848 137.834 23.4848L137.832 23.4836ZM139.54 21.7002V23.4836H134.899V21.7002H139.54Z" fill="white"/>
<path d="M145.754 25.249L145.658 23.5996L150.798 22.8324C150.76 22.347 150.574 21.9242 150.242 21.5661C149.909 21.208 149.424 21.0296 148.785 21.0296C148.146 21.0296 147.589 21.2569 147.155 21.7105C146.72 22.164 146.497 22.813 146.483 23.6576L146.541 24.6545C146.656 25.4729 146.973 26.0742 147.49 26.4573C148.009 26.8403 148.664 27.0324 149.456 27.0324C149.992 27.0324 150.491 26.9529 150.952 26.7926C151.412 26.6323 151.776 26.4573 152.045 26.2652C152.224 26.38 152.368 26.5243 152.477 26.6971C152.585 26.8699 152.64 27.0586 152.64 27.2632C152.64 27.5962 152.493 27.8804 152.199 28.1168C151.904 28.3533 151.509 28.5363 151.01 28.6636C150.511 28.7909 149.942 28.8557 149.302 28.8557C148.318 28.8557 147.445 28.6738 146.685 28.3089C145.924 27.9441 145.33 27.3985 144.901 26.6687C144.473 25.9401 144.259 25.0319 144.259 23.9452C144.259 23.1654 144.38 22.4811 144.624 21.8935C144.867 21.3058 145.195 20.8159 145.612 20.426C146.026 20.0361 146.51 19.7417 147.06 19.5439C147.609 19.3461 148.185 19.2461 148.786 19.2461C149.63 19.2461 150.369 19.4155 151.002 19.7542C151.635 20.0929 152.134 20.5635 152.498 21.1637C152.862 21.765 153.044 22.455 153.044 23.2348C153.044 23.5928 152.951 23.8577 152.766 24.0304C152.581 24.2032 152.321 24.3089 151.989 24.3464L145.756 25.2478L145.754 25.249Z" fill="white"/>
<path d="M158.41 19.2461C159.663 19.2461 160.661 19.5121 161.402 20.0418C162.143 20.5726 162.515 21.407 162.515 22.5448V26.9563C162.515 27.2632 162.441 27.5064 162.294 27.6849C162.148 27.8645 161.959 28.0236 161.728 28.1646C161.37 28.3692 160.917 28.5386 160.367 28.6727C159.816 28.8068 159.197 28.8739 158.506 28.8739C157.227 28.8739 156.223 28.6272 155.495 28.135C154.766 27.6428 154.401 26.9108 154.401 25.9389C154.401 25.083 154.673 24.4271 155.216 23.9736C155.76 23.5201 156.55 23.2416 157.585 23.1393L160.194 22.871V22.5255C160.194 22.014 160.018 21.6434 159.666 21.4126C159.314 21.183 158.82 21.0671 158.18 21.0671C157.681 21.0671 157.195 21.1307 156.722 21.2592C156.249 21.3876 155.827 21.5411 155.456 21.7195C155.328 21.6172 155.213 21.4763 155.11 21.2978C155.008 21.1194 154.957 20.933 154.957 20.742C154.957 20.2816 155.213 19.9429 155.724 19.7258C156.082 19.5598 156.501 19.4382 156.98 19.3609C157.46 19.2848 157.936 19.2461 158.409 19.2461H158.41ZM158.507 27.0711C158.89 27.0711 159.236 27.0324 159.542 26.9563C159.849 26.8801 160.073 26.796 160.214 26.7073V24.5215L158.316 24.7136C157.792 24.7522 157.392 24.8636 157.117 25.0489C156.842 25.2342 156.704 25.5059 156.704 25.8639C156.704 26.222 156.851 26.5289 157.145 26.746C157.44 26.9631 157.893 27.0722 158.507 27.0722V27.0711Z" fill="white"/>
<path d="M169.593 21.1444C168.825 21.1444 168.183 21.3933 167.665 21.8923C167.146 22.3913 166.888 23.12 166.888 24.0782C166.888 25.0364 167.137 25.74 167.636 26.2265C168.135 26.713 168.781 26.9551 169.573 26.9551C170.046 26.9551 170.446 26.8949 170.773 26.7733C171.099 26.6517 171.383 26.5209 171.626 26.38C171.818 26.4948 171.968 26.6323 172.076 26.7926C172.184 26.9529 172.239 27.1472 172.239 27.378C172.239 27.8133 171.976 28.168 171.452 28.4419C170.928 28.717 170.237 28.8546 169.381 28.8546C168.409 28.8546 167.556 28.6784 166.821 28.3271C166.086 27.9759 165.511 27.4417 165.095 26.7255C164.679 26.0094 164.472 25.1273 164.472 24.0793C164.472 23.0313 164.692 22.0912 165.133 21.3751C165.574 20.659 166.162 20.1259 166.898 19.7735C167.633 19.4223 168.441 19.2461 169.323 19.2461C170.205 19.2461 170.844 19.3927 171.356 19.6871C171.867 19.9815 172.123 20.3453 172.123 20.7806C172.123 20.9727 172.072 21.1512 171.969 21.3172C171.867 21.4831 171.746 21.6172 171.605 21.7195C171.349 21.5661 171.061 21.432 170.742 21.3172C170.422 21.2024 170.038 21.1444 169.592 21.1444H169.593Z" fill="white"/>
<path d="M176.592 24.7312H174.233V16.1196C174.335 16.0946 174.482 16.0616 174.674 16.0241C174.866 15.9855 175.077 15.9662 175.307 15.9662C175.755 15.9662 176.08 16.0457 176.285 16.206C176.489 16.3663 176.592 16.6504 176.592 17.0597V24.7312ZM174.233 23.5229H176.592V28.5482C176.489 28.5868 176.343 28.6221 176.151 28.6539C175.959 28.6857 175.748 28.7016 175.518 28.7016C175.082 28.7016 174.761 28.6221 174.549 28.4618C174.338 28.3015 174.233 28.0174 174.233 27.6081V23.5229ZM182.614 24.7119H180.255V22.9852C180.255 22.3328 180.079 21.8599 179.728 21.5655C179.375 21.2711 178.932 21.1245 178.395 21.1245C177.959 21.1245 177.56 21.2074 177.195 21.3734C176.83 21.5394 176.514 21.7315 176.246 21.9486L176.112 20.031C176.406 19.8525 176.784 19.6763 177.244 19.5035C177.705 19.3308 178.222 19.2444 178.798 19.2444C179.948 19.2444 180.872 19.5445 181.569 20.1458C182.266 20.7471 182.615 21.6542 182.615 22.8693V24.7107L182.614 24.7119ZM180.255 23.5422H182.614V28.5482C182.512 28.5868 182.362 28.6221 182.164 28.6539C181.965 28.6857 181.758 28.7016 181.541 28.7016C181.093 28.7016 180.767 28.6221 180.562 28.4618C180.358 28.3015 180.255 28.0174 180.255 27.6081V23.5422Z" fill="white"/>
<path d="M77.4006 41.6767H73.3813V34.8031C73.3813 34.5701 73.4495 34.3894 73.5848 34.2598C73.7212 34.1302 73.8985 34.0268 74.119 33.9495C74.5328 33.8199 75.0249 33.7233 75.5944 33.6585C76.1639 33.5937 76.6947 33.5619 77.1869 33.5619C78.8954 33.5619 80.1742 33.9245 81.021 34.6485C81.869 35.3737 82.2929 36.357 82.2929 37.5994C82.2929 38.428 82.1054 39.1464 81.7303 39.7546C81.3552 40.3627 80.805 40.8355 80.0798 41.172C79.3546 41.5085 78.4612 41.6767 77.4006 41.6767ZM73.3813 40.5696H75.8468V45.579C75.7433 45.6176 75.5842 45.6528 75.3716 45.6858C75.1579 45.7176 74.9351 45.7347 74.7021 45.7347C74.2361 45.7347 73.8996 45.6472 73.6927 45.4721C73.4859 45.2971 73.3824 45.0027 73.3824 44.5889V40.5696H73.3813ZM75.8274 39.7159H77.2642C78.0531 39.7159 78.6749 39.5386 79.1284 39.1817C79.5808 38.8259 79.8081 38.3053 79.8081 37.6187C79.8081 36.9321 79.591 36.4025 79.158 36.0649C78.7237 35.7284 78.1065 35.5602 77.304 35.5602C77.0187 35.5602 76.7538 35.5704 76.5083 35.5897C76.2628 35.609 76.0355 35.6386 75.8286 35.6772V39.7159H75.8274Z" fill="white"/>
<path d="M86.2731 38.6289V41.2888H83.8849V38.4345C83.8849 38.1117 83.9622 37.8355 84.118 37.6093C84.2737 37.3831 84.4931 37.1728 84.7784 36.9784C85.1671 36.7454 85.6582 36.551 86.2538 36.3964C86.8494 36.2407 87.4894 36.1634 88.1759 36.1634C89.3922 36.1634 90.0015 36.5385 90.0015 37.2899C90.0015 37.4718 89.9753 37.6366 89.9242 37.7855C89.8719 37.9344 89.8082 38.0674 89.7298 38.1833C89.6002 38.1572 89.4388 38.1344 89.2444 38.1151C89.0501 38.0958 88.8432 38.0856 88.6227 38.0856C88.1566 38.0856 87.7201 38.1344 87.3121 38.2311C86.904 38.3277 86.5573 38.4607 86.2731 38.6289ZM83.8849 40.4931L86.2731 40.609V45.5798C86.1697 45.6184 86.0208 45.6537 85.8264 45.6866C85.632 45.7184 85.4183 45.7355 85.1853 45.7355C84.7454 45.7355 84.418 45.6548 84.2043 45.4922C83.9906 45.3308 83.8838 45.0421 83.8838 44.6284V40.4931H83.8849Z" fill="white"/>
<path d="M100.31 41.0147C100.31 42.0116 100.116 42.8755 99.7283 43.6064C99.3395 44.3373 98.7928 44.9011 98.088 45.2955C97.3822 45.6899 96.5512 45.8877 95.593 45.8877C94.6348 45.8877 93.8005 45.6899 93.0889 45.2955C92.3773 44.9011 91.8237 44.3407 91.4293 43.6155C91.0349 42.8903 90.8371 42.023 90.8371 41.0136C90.8371 40.0042 91.0372 39.1562 91.4384 38.431C91.8397 37.7058 92.3966 37.1466 93.1082 36.7521C93.8198 36.3577 94.6484 36.1599 95.593 36.1599C96.5376 36.1599 97.3628 36.3577 98.0687 36.7521C98.7746 37.1477 99.3236 37.7104 99.7192 38.4413C100.114 39.1733 100.311 40.0304 100.311 41.0136L100.31 41.0147ZM95.593 38.0639C94.8814 38.0639 94.3211 38.3231 93.913 38.8402C93.5049 39.3586 93.3014 40.0827 93.3014 41.0147C93.3014 41.9468 93.5015 42.7073 93.9027 43.2188C94.304 43.7303 94.8667 43.986 95.5919 43.986C96.3171 43.986 96.8604 43.7269 97.2617 43.2097C97.6629 42.6925 97.8641 41.9605 97.8641 41.0159C97.8641 40.0713 97.6629 39.3756 97.2617 38.8505C96.8604 38.3265 96.3034 38.0639 95.5919 38.0639H95.593Z" fill="white"/>
<path d="M106.155 45.2888C105.391 45.2888 104.685 45.1433 104.038 44.8523C103.391 44.5613 102.873 44.0793 102.485 43.4053C102.096 42.7324 101.903 41.8457 101.903 40.7454C101.903 39.736 102.099 38.8915 102.495 38.2117C102.889 37.532 103.446 37.0205 104.165 36.6783C104.883 36.3351 105.708 36.1634 106.64 36.1634C107.301 36.1634 107.912 36.2475 108.475 36.4158C109.038 36.584 109.488 36.7784 109.824 36.9978C110.045 37.1398 110.222 37.3115 110.358 37.5127C110.495 37.7139 110.562 37.956 110.562 38.2413V44.2987H108.232V38.455C108.063 38.3516 107.857 38.2606 107.61 38.1833C107.364 38.106 107.06 38.0674 106.697 38.0674C105.986 38.0674 105.406 38.2879 104.959 38.7278C104.512 39.1677 104.29 39.8406 104.29 40.7466C104.29 41.7434 104.507 42.4425 104.94 42.8438C105.373 43.245 105.907 43.4451 106.541 43.4451C107.034 43.4451 107.431 43.3609 107.735 43.1927C108.038 43.0245 108.294 42.8438 108.502 42.6494L108.58 44.5909C108.346 44.7727 108.026 44.9341 107.618 45.0762C107.21 45.2183 106.721 45.2899 106.152 45.2899L106.155 45.2888ZM108.27 45.6764V43.7736H110.562V45.7537C110.562 46.6335 110.361 47.3485 109.959 47.8986C109.558 48.4488 109.011 48.8534 108.319 49.1126C107.627 49.3718 106.853 49.5014 105.999 49.5014C105.326 49.5014 104.74 49.4366 104.242 49.307C103.743 49.1774 103.378 49.041 103.145 48.8989C102.718 48.6397 102.504 48.284 102.504 47.8316C102.504 47.5985 102.555 47.3917 102.66 47.2098C102.763 47.0279 102.886 46.8926 103.029 46.8017C103.353 47.0086 103.758 47.1905 104.243 47.3451C104.728 47.4996 105.243 47.5781 105.787 47.5781C106.563 47.5781 107.171 47.4258 107.612 47.1223C108.052 46.8176 108.273 46.3357 108.273 45.6753L108.27 45.6764Z" fill="white"/>
<path d="M115.417 38.6289V41.2888H113.029V38.4345C113.029 38.1117 113.106 37.8355 113.262 37.6093C113.417 37.3831 113.637 37.1728 113.922 36.9784C114.311 36.7454 114.802 36.551 115.398 36.3964C115.993 36.2407 116.633 36.1634 117.32 36.1634C118.536 36.1634 119.145 36.5385 119.145 37.2899C119.145 37.4718 119.119 37.6366 119.068 37.7855C119.016 37.9344 118.952 38.0674 118.874 38.1833C118.744 38.1572 118.583 38.1344 118.388 38.1151C118.194 38.0958 117.987 38.0856 117.766 38.0856C117.3 38.0856 116.864 38.1344 116.456 38.2311C116.048 38.3277 115.701 38.4607 115.417 38.6289ZM113.029 40.4931L115.417 40.609V45.5798C115.313 45.6184 115.165 45.6537 114.97 45.6866C114.776 45.7184 114.562 45.7355 114.329 45.7355C113.889 45.7355 113.562 45.6548 113.348 45.4922C113.134 45.3308 113.028 45.0421 113.028 44.6284V40.4931H113.029Z" fill="white"/>
<path d="M124.037 36.1634C125.306 36.1634 126.315 36.4317 127.066 36.9693C127.817 37.507 128.193 38.3516 128.193 39.503V43.9691C128.193 44.2794 128.118 44.5261 127.97 44.7068C127.821 44.8887 127.63 45.0501 127.397 45.1922C127.035 45.399 126.575 45.5707 126.018 45.7071C125.461 45.8435 124.834 45.9105 124.135 45.9105C122.84 45.9105 121.824 45.6616 121.086 45.1626C120.348 44.6636 119.979 43.9236 119.979 42.9392C119.979 42.0719 120.254 41.4093 120.804 40.9489C121.354 40.4897 122.154 40.2078 123.203 40.1043L125.843 39.8327V39.4837C125.843 38.9665 125.665 38.5903 125.309 38.3572C124.953 38.1242 124.452 38.0083 123.804 38.0083C123.299 38.0083 122.807 38.0731 122.329 38.2026C121.85 38.3322 121.423 38.488 121.048 38.6687C120.918 38.5653 120.802 38.4232 120.699 38.2413C120.595 38.0606 120.543 37.8719 120.543 37.6786C120.543 37.2126 120.802 36.8693 121.319 36.6499C121.682 36.4817 122.106 36.3589 122.591 36.2805C123.077 36.2032 123.559 36.1646 124.038 36.1646L124.037 36.1634ZM124.134 44.085C124.522 44.085 124.871 44.0464 125.182 43.9691C125.492 43.8918 125.718 43.8077 125.861 43.7167V41.5036L123.939 41.698C123.408 41.7366 123.004 41.8503 122.725 42.0378C122.447 42.2254 122.308 42.5005 122.308 42.8631C122.308 43.2257 122.457 43.536 122.755 43.7565C123.053 43.977 123.512 44.0862 124.134 44.0862V44.085Z" fill="white"/>
<path d="M138.657 39.2676V41.4808H136.268V39.5393C136.268 39.0346 136.116 38.6629 135.813 38.4231C135.508 38.1832 135.124 38.0639 134.658 38.0639C134.321 38.0639 134.013 38.1128 133.736 38.2094C133.457 38.306 133.221 38.4197 133.028 38.5493V41.4808H130.639V38.3935C130.639 38.0832 130.704 37.8275 130.834 37.6263C130.963 37.4262 131.157 37.2409 131.416 37.0727C131.817 36.801 132.312 36.5805 132.901 36.4123C133.49 36.244 134.102 36.1599 134.736 36.1599C135.37 36.1599 135.952 36.2565 136.483 36.4509C137.014 36.6453 137.447 36.9295 137.784 37.3057C137.875 37.383 137.959 37.4614 138.036 37.5387C138.113 37.616 138.178 37.707 138.23 37.8104C138.346 38.0048 138.447 38.2276 138.532 38.4799C138.616 38.7323 138.658 38.9948 138.658 39.2665L138.657 39.2676ZM130.638 40.5487H133.027V45.5774C132.923 45.6161 132.774 45.6513 132.58 45.6843C132.385 45.7161 132.172 45.7331 131.939 45.7331C131.499 45.7331 131.171 45.6524 130.958 45.4899C130.744 45.3285 130.637 45.0398 130.637 44.626V40.5487H130.638ZM136.268 40.5487H138.657V45.5774C138.553 45.6161 138.401 45.6513 138.201 45.6843C138 45.7161 137.789 45.7331 137.57 45.7331C137.116 45.7331 136.787 45.6524 136.58 45.4899C136.373 45.3285 136.27 45.0398 136.27 44.626V40.5487H136.268ZM144.267 39.4609V41.4796H141.879V39.5382C141.879 39.0335 141.737 38.6618 141.452 38.4219C141.166 38.1821 140.784 38.0628 140.306 38.0628C139.957 38.0628 139.617 38.1344 139.286 38.2764C138.957 38.4185 138.675 38.6061 138.442 38.8391L137.238 37.383C137.639 37.0465 138.112 36.759 138.655 36.5191C139.199 36.2793 139.847 36.1599 140.597 36.1599C141.282 36.1599 141.904 36.2702 142.461 36.4896C143.018 36.7101 143.458 37.0659 143.782 37.5581C144.106 38.0502 144.267 38.6845 144.267 39.4609ZM141.879 40.5487H144.267V45.5774C144.176 45.6161 144.031 45.6513 143.831 45.6843C143.63 45.7161 143.419 45.7331 143.2 45.7331C142.746 45.7331 142.413 45.6524 142.2 45.4899C141.986 45.3285 141.879 45.0398 141.879 44.626V40.5487Z" fill="white"/>
</svg>
