<svg width="169" height="55" viewBox="0 0 169 55" fill="none" xmlns="http://www.w3.org/2000/svg">
<path d="M52.1125 4.17984H58.1177C57.6397 4.38439 57.3529 4.74679 57.2573 5.26704C57.2306 5.43157 57.2172 5.5872 57.2172 5.73839C57.2172 6.09412 57.2928 6.44318 57.4418 6.78335L65.4146 28.2406L73.4497 6.20973C73.6676 5.71616 73.7343 5.30484 73.6454 4.96912C73.5564 4.63562 73.2674 4.37105 72.7738 4.17984H76.3801C76.1622 4.34437 75.991 4.47777 75.8687 4.58004C75.7464 4.68231 75.6352 4.80237 75.5419 4.93799C75.4463 5.07584 75.3773 5.17811 75.3373 5.24481C75.2973 5.31373 75.2306 5.4538 75.1417 5.66502C75.0527 5.87624 74.9749 6.05855 74.906 6.20751C74.7014 6.67218 73.7543 9.21567 72.069 13.8424C70.3815 18.4669 68.7385 22.9803 67.1399 27.3802L64.7632 33.979C58.1911 16.5304 54.6804 7.27471 54.2291 6.20973C54.0379 5.71616 53.8044 5.32485 53.5332 5.03137C53.2597 4.73789 52.7884 4.45331 52.1192 4.18206" fill="white"/>
<path d="M86.7897 32.7295C87.5145 32.3738 87.8769 31.7468 87.8769 30.8442V6.08746C87.8769 5.21369 87.5145 4.57782 86.7897 4.18207H91.6054C90.8806 4.57782 90.5182 5.21369 90.5182 6.08746V30.8464C90.5182 31.749 90.8806 32.376 91.6054 32.7318H86.7897V32.7295Z" fill="white"/>
<path d="M103.862 7.50149V4.18207H124.973V7.50149C124.739 7.0924 124.422 6.71888 124.019 6.38316C123.617 6.04744 123.161 5.87402 122.656 5.86068C120.128 5.72505 117.841 5.65613 115.791 5.65613V30.8442C115.791 31.7468 116.153 32.3738 116.878 32.7295H112.04C112.778 32.3738 113.147 31.7468 113.147 30.8442V5.65613C112.218 5.65613 111.166 5.67392 109.992 5.70727C108.816 5.74062 107.873 5.77174 107.164 5.79842L106.119 5.86068C105.628 5.87402 105.188 6.04744 104.799 6.38316C104.409 6.71888 104.098 7.09017 103.865 7.50149" fill="white"/>
<path d="M136.634 4.17984H141.944C141.054 4.65785 140.61 5.2915 140.61 6.08523V23.9852C140.61 24.6411 140.659 25.2681 140.754 25.8684C140.85 26.4687 141.054 27.1312 141.37 27.856C141.684 28.5786 142.095 29.2033 142.602 29.7303C143.109 30.255 143.822 30.6952 144.747 31.0509C145.67 31.4067 146.742 31.5845 147.96 31.5845C149.178 31.5845 150.234 31.44 151.173 31.1532C152.109 30.8664 152.865 30.4951 153.44 30.0371C154.014 29.5791 154.488 29.0233 154.857 28.3674C155.226 27.7115 155.479 27.0489 155.615 26.3797C155.753 25.7105 155.819 24.9946 155.819 24.2298L155.737 6.08523C155.737 5.21146 155.375 4.57781 154.65 4.17984H158.505C157.78 4.57559 157.418 5.21146 157.418 6.08523L157.193 24.1475C157.18 25.7172 156.909 27.0956 156.384 28.2807C155.857 29.4657 155.143 30.3973 154.239 31.0754C153.336 31.7535 152.34 32.2537 151.253 32.5761C150.165 32.8985 148.985 33.0586 147.713 33.0586C146.815 33.0586 145.926 32.963 145.043 32.7718C144.16 32.5806 143.287 32.256 142.424 31.7957C141.561 31.3377 140.803 30.7686 140.152 30.0927C139.5 29.4146 138.973 28.5541 138.573 27.5069C138.173 26.4598 137.971 25.2858 137.971 23.9874V6.08523C137.971 5.29372 137.526 4.65785 136.639 4.17984" fill="white"/>
<path d="M72.189 53.9089C72.4247 53.7799 72.5403 53.5776 72.5403 53.2974V45.2735C72.5403 44.9778 72.4225 44.771 72.189 44.6554H75.1082C75.4951 44.6554 75.8508 44.6821 76.1777 44.7354C76.5023 44.7888 76.7824 44.8577 77.0114 44.9466C77.2426 45.0356 77.4494 45.1423 77.6317 45.2668C77.814 45.3935 77.9608 45.5225 78.0697 45.6537C78.1809 45.7871 78.272 45.9293 78.3432 46.085C78.4143 46.2406 78.4655 46.3851 78.4944 46.523C78.5233 46.6586 78.5366 46.7964 78.5366 46.9343C78.5366 47.2833 78.4655 47.6013 78.3209 47.8903C78.1764 48.1793 77.9897 48.4128 77.7607 48.5929C77.5294 48.7708 77.2871 48.913 77.0336 49.0175C76.7802 49.1198 76.529 49.1821 76.2799 49.1999C76.4934 49.2221 76.6868 49.271 76.8624 49.3488C77.0359 49.4244 77.1893 49.5267 77.316 49.6534C77.445 49.7801 77.5361 49.878 77.5917 49.9447C77.6473 50.0114 77.7162 50.1092 77.7985 50.2337C78.8923 51.9479 79.5949 52.9906 79.904 53.3619C79.984 53.4553 80.0974 53.5465 80.2441 53.6376C80.3909 53.7288 80.5131 53.7955 80.6154 53.8399L80.7755 53.9066L79.008 53.9333H78.9813C78.7523 53.9333 78.5344 53.8733 78.3298 53.7532C78.1164 53.6287 77.9408 53.4775 77.7985 53.2952C77.6184 53.0395 77.4338 52.7638 77.2449 52.4726C77.0559 52.1813 76.838 51.8389 76.5957 51.4499C76.3533 51.0608 76.1955 50.8051 76.1199 50.685C76.1065 50.6628 76.0687 50.6028 76.0065 50.5049C75.9442 50.4071 75.9042 50.3471 75.8842 50.3204C75.8642 50.2937 75.8264 50.2381 75.7686 50.1537C75.7108 50.0692 75.6685 50.0136 75.6396 49.9847C75.6107 49.9558 75.5685 49.9113 75.5129 49.8513C75.4573 49.7913 75.4106 49.749 75.3706 49.7246C75.3306 49.7001 75.2817 49.6712 75.2239 49.6378C75.1661 49.6045 75.106 49.5823 75.0482 49.5711C74.9882 49.56 74.9282 49.5534 74.8659 49.5534L74.2678 49.58V53.293C74.2678 53.5709 74.3946 53.7755 74.6458 53.9044H72.189V53.9089ZM74.2678 48.8664C74.5191 48.8841 74.7236 48.893 74.8792 48.893C75.1216 48.893 75.3528 48.8575 75.5707 48.7885C75.7864 48.7174 75.9887 48.6129 76.1754 48.4728C76.36 48.3328 76.5089 48.1371 76.6201 47.8859C76.7313 47.6346 76.7869 47.3478 76.7869 47.0232C76.7869 46.852 76.758 46.6742 76.7002 46.4918C76.6423 46.3095 76.5534 46.1272 76.4311 45.9449C76.3088 45.7626 76.131 45.6136 75.8931 45.4958C75.6552 45.3802 75.3795 45.3202 75.0593 45.3202L74.2678 45.3468V48.8686V48.8664Z" fill="white"/>
<path d="M84.9286 53.9089C85.062 53.8333 85.1643 53.751 85.2332 53.6598C85.3043 53.5687 85.3399 53.4486 85.3399 53.2974V45.2735C85.3399 44.9955 85.2021 44.7888 84.9286 44.6554H90.4024L90.4424 45.8515C90.3135 45.6781 90.1712 45.5558 90.0133 45.4847C89.8555 45.4135 89.6443 45.3713 89.3797 45.358L87.0674 45.3313V48.4662H89.1196C89.2129 48.4662 89.3085 48.4239 89.4086 48.3394C89.5086 48.2549 89.5753 48.1682 89.6109 48.0793V49.5267C89.5753 49.4289 89.5086 49.3377 89.4086 49.2554C89.3085 49.1709 89.2129 49.1287 89.1196 49.1287H87.0674V53.1218C87.4254 53.1752 87.8901 53.2018 88.4548 53.2018C88.5748 53.2018 88.7016 53.2018 88.8327 53.1952C88.8772 53.1952 88.9417 53.1952 89.0262 53.1885C89.6198 53.1707 90.02 53.1285 90.229 53.0618C90.5558 52.9595 90.8293 52.726 91.045 52.3592L91.065 52.3325L90.7804 53.9044H84.9286V53.9089Z" fill="white"/>
<path d="M95.0493 53.9089C95.2361 53.7799 95.3717 53.671 95.4606 53.5798C95.5496 53.4887 95.6274 53.3775 95.6941 53.2441C95.7697 53.0885 96.1276 52.2725 96.7679 50.794C97.4083 49.3155 98.0286 47.8726 98.6311 46.4697L99.5271 44.3708C101.942 49.9403 103.229 52.8995 103.393 53.2441C103.469 53.4042 103.547 53.5265 103.629 53.6132C103.711 53.6999 103.858 53.7977 104.072 53.9089H101.163C101.337 53.8155 101.446 53.7177 101.493 53.6132C101.539 53.5087 101.537 53.3864 101.49 53.2441C101.477 53.2041 101.435 53.0996 101.366 52.9306C101.297 52.7617 101.195 52.5126 101.057 52.1858C100.919 51.8568 100.805 51.5788 100.712 51.3454H97.3771C96.9036 52.4326 96.6501 53.0618 96.619 53.2308C96.5567 53.3909 96.5478 53.5243 96.5923 53.631C96.6368 53.7377 96.7502 53.8311 96.9302 53.9111H95.0493V53.9089ZM97.6462 50.6406H100.396L99.0091 47.3123C98.3932 48.8486 97.9396 49.958 97.6462 50.6406Z" fill="white"/>
<path d="M108.685 53.9089C108.938 53.7799 109.063 53.5776 109.063 53.2974V45.2735C109.063 44.9778 108.936 44.771 108.685 44.6554H111.142C110.908 44.771 110.79 44.9755 110.79 45.2735V53.1307C110.835 53.1307 110.951 53.1396 111.139 53.1529C111.328 53.1685 111.524 53.1818 111.726 53.1907C111.869 53.1996 112.007 53.2041 112.138 53.2041H112.298C112.598 53.1952 112.825 53.1863 112.978 53.1818C113.132 53.1752 113.303 53.1596 113.494 53.1374C113.683 53.1151 113.825 53.0884 113.919 53.0551C114.012 53.0217 114.114 52.9728 114.223 52.9084C114.334 52.8439 114.426 52.7661 114.497 52.6749C114.568 52.5838 114.639 52.4726 114.71 52.3392L114.412 53.9066H108.685V53.9089Z" fill="white"/>
<path d="M119.099 45.9783V44.6576H126.551V45.9783C126.369 45.6248 126.158 45.4425 125.913 45.4336C125.091 45.3713 124.346 45.3402 123.681 45.3402V53.2975C123.681 53.5665 123.799 53.771 124.032 53.9089H121.6C121.836 53.7799 121.954 53.5776 121.954 53.2975V45.3402C121.651 45.3402 121.32 45.3491 120.958 45.3624C120.593 45.378 120.306 45.3935 120.095 45.4069L119.777 45.4336C119.508 45.4425 119.281 45.6248 119.099 45.9783Z" fill="white"/>
<path d="M130.222 44.6554H133.297C133.217 44.6865 133.164 44.7087 133.135 44.7221C133.106 44.7354 133.066 44.7577 133.012 44.791C132.959 44.8244 132.93 44.8577 132.923 44.8911C132.917 44.9244 132.91 44.9689 132.903 45.0245C132.897 45.08 132.91 45.1467 132.944 45.2268C132.977 45.3068 133.024 45.398 133.079 45.5002L134.978 48.8486L136.765 45.3424C136.828 45.2446 136.859 45.149 136.859 45.0578C136.859 45.0133 136.852 44.9666 136.839 44.9177C136.785 44.7888 136.665 44.7021 136.479 44.6576H138.424C138.062 44.7732 137.761 45.0489 137.528 45.4869L135.349 49.6245V53.2974C135.349 53.5331 135.509 53.7354 135.827 53.9089H133.13C133.219 53.8555 133.293 53.8088 133.35 53.7666C133.408 53.7243 133.464 53.6621 133.517 53.5776C133.57 53.4931 133.597 53.3997 133.597 53.2997V49.6801L130.934 45.3157C130.836 45.1512 130.74 45.0267 130.642 44.9377C130.545 44.8488 130.404 44.7554 130.224 44.6598" fill="white"/>
<path d="M12.0703 46.7408C11.1943 46.9876 10.3405 47.3367 9.53345 47.7813C8.02381 48.6151 6.65424 48.6262 5.22909 47.8147C4.70884 47.519 4.18635 47.2855 3.68388 47.061C2.8946 46.7052 2.02751 46.5696 1.0448 46.643L1.11817 47.599C1.93413 47.5345 2.65004 47.6457 3.29258 47.9347C3.77504 48.1504 4.27529 48.375 4.75553 48.6484C6.47415 49.6267 8.18834 49.6178 9.9959 48.6217C10.7363 48.2126 11.5211 47.8903 12.3282 47.6657C13.4443 47.3522 14.547 47.7769 15.3763 48.1815L15.8477 48.415C16.4169 48.6973 16.9527 48.9664 17.5152 49.1709C18.658 49.5867 19.8408 49.4533 21.2437 48.7485C22.0085 48.3638 22.7289 47.9992 23.487 47.7458C24.8166 47.2989 26.0216 47.7458 27.0288 48.2416L27.1777 48.3149C27.9003 48.6729 28.5829 49.0108 29.3055 49.2443C29.6545 49.3554 30.0036 49.4155 30.3704 49.4155C31.113 49.4155 31.9201 49.1776 32.905 48.6862C33.6365 48.3216 34.3924 47.9436 35.1861 47.7235C35.5952 47.6101 36.0154 47.6235 36.389 47.6324L36.4156 46.6741C35.9977 46.663 35.473 46.6474 34.9282 46.8008C34.0478 47.0454 33.2496 47.4434 32.4648 47.8347C31.2509 48.4417 30.3949 48.5928 29.5989 48.3349C28.9453 48.1237 28.2916 47.8013 27.6002 47.4567L27.4512 47.3834C26.3395 46.8342 24.8477 46.2784 23.1824 46.8386C22.3598 47.1166 21.5727 47.5123 20.8146 47.8947C19.6629 48.475 18.7202 48.5928 17.8465 48.2749C17.3329 48.0881 16.8193 47.8325 16.2657 47.5568L15.7988 47.3278C15.0673 46.9698 14.1513 46.603 13.1419 46.603C12.7951 46.603 12.4349 46.6474 12.068 46.7497" fill="white"/>
<path d="M12.0703 46.7408C11.1943 46.9876 10.3405 47.3367 9.53345 47.7813C8.02381 48.6151 6.65424 48.6262 5.22909 47.8147C4.70884 47.519 4.18635 47.2855 3.68388 47.061C2.8946 46.7052 2.02751 46.5696 1.0448 46.643L1.11817 47.599C1.93413 47.5345 2.65004 47.6457 3.29258 47.9347C3.77504 48.1504 4.27529 48.375 4.75553 48.6484C6.47415 49.6267 8.18834 49.6178 9.9959 48.6217C10.7363 48.2126 11.5211 47.8903 12.3282 47.6657C13.4443 47.3522 14.547 47.7769 15.3763 48.1815L15.8477 48.415C16.4169 48.6973 16.9527 48.9664 17.5152 49.1709C18.658 49.5867 19.8408 49.4533 21.2437 48.7485C22.0085 48.3638 22.7289 47.9992 23.487 47.7458C24.8166 47.2989 26.0216 47.7458 27.0288 48.2416L27.1777 48.3149C27.9003 48.6729 28.5829 49.0108 29.3055 49.2443C29.6545 49.3554 30.0036 49.4155 30.3704 49.4155C31.113 49.4155 31.9201 49.1776 32.905 48.6862C33.6365 48.3216 34.3924 47.9436 35.1861 47.7235C35.5952 47.6101 36.0154 47.6235 36.389 47.6324L36.4156 46.6741C35.9977 46.663 35.473 46.6474 34.9282 46.8008C34.0478 47.0454 33.2496 47.4434 32.4648 47.8347C31.2509 48.4417 30.3949 48.5928 29.5989 48.3349C28.9453 48.1237 28.2916 47.8013 27.6002 47.4567L27.4512 47.3834C26.3395 46.8342 24.8477 46.2784 23.1824 46.8386C22.3598 47.1166 21.5727 47.5123 20.8146 47.8947C19.6629 48.475 18.7202 48.5928 17.8465 48.2749C17.3329 48.0881 16.8193 47.8325 16.2657 47.5568L15.7988 47.3278C15.0673 46.9698 14.1513 46.603 13.1419 46.603C12.7951 46.603 12.4349 46.6474 12.068 46.7497" fill="white"/>
<path d="M11.6657 51.5699C10.7874 51.8167 9.93368 52.1658 9.12884 52.6105C7.82375 53.3286 5.66268 53.0662 4.40872 52.0391L3.80176 52.7794C5.35364 54.0534 7.95048 54.3535 9.59129 53.4487C10.3317 53.0396 11.1165 52.7194 11.9236 52.4926C13.0486 52.1769 14.1447 52.6038 14.9717 53.0084L15.4431 53.2419C16.0122 53.5243 16.5481 53.7933 17.1106 53.9978C18.2511 54.4136 19.4339 54.2802 20.8546 53.5665C21.6128 53.1841 22.3309 52.8239 23.0824 52.5704C24.412 52.1213 25.617 52.5704 26.6219 53.0662L27.1822 53.3486C27.7403 53.6354 28.3183 53.9311 28.932 54.0779C29.4522 54.2024 29.9258 54.2535 30.3616 54.2535C31.6 54.2535 32.5271 53.8333 33.3119 53.4776L33.5721 53.3597L33.183 52.4837L32.9162 52.6038C31.8934 53.0685 30.8329 53.5465 29.1543 53.1463C28.6518 53.0262 28.1494 52.7683 27.6202 52.4949L27.0444 52.2036C25.9349 51.6567 24.4453 51.0964 22.7756 51.6589C21.9596 51.9346 21.1792 52.3259 20.4078 52.7127C19.2561 53.2908 18.3134 53.4109 17.4374 53.0929C16.926 52.9062 16.4124 52.6505 15.8588 52.3748L15.3919 52.1436C14.6605 51.7856 13.7467 51.4188 12.7351 51.4188C12.3882 51.4188 12.0281 51.4632 11.6612 51.5655" fill="white"/>
<path d="M11.6657 51.5699C10.7874 51.8167 9.93368 52.1658 9.12884 52.6105C7.82375 53.3286 5.66268 53.0662 4.40872 52.0391L3.80176 52.7794C5.35364 54.0534 7.95048 54.3535 9.59129 53.4487C10.3317 53.0396 11.1165 52.7194 11.9236 52.4926C13.0486 52.1769 14.1447 52.6038 14.9717 53.0084L15.4431 53.2419C16.0122 53.5243 16.5481 53.7933 17.1106 53.9978C18.2511 54.4136 19.4339 54.2802 20.8546 53.5665C21.6128 53.1841 22.3309 52.8239 23.0824 52.5704C24.412 52.1213 25.617 52.5704 26.6219 53.0662L27.1822 53.3486C27.7403 53.6354 28.3183 53.9311 28.932 54.0779C29.4522 54.2024 29.9258 54.2535 30.3616 54.2535C31.6 54.2535 32.5271 53.8333 33.3119 53.4776L33.5721 53.3597L33.183 52.4837L32.9162 52.6038C31.8934 53.0685 30.8329 53.5465 29.1543 53.1463C28.6518 53.0262 28.1494 52.7683 27.6202 52.4949L27.0444 52.2036C25.9349 51.6567 24.4453 51.0964 22.7756 51.6589C21.9596 51.9346 21.1792 52.3259 20.4078 52.7127C19.2561 53.2908 18.3134 53.4109 17.4374 53.0929C16.926 52.9062 16.4124 52.6505 15.8588 52.3748L15.3919 52.1436C14.6605 51.7856 13.7467 51.4188 12.7351 51.4188C12.3882 51.4188 12.0281 51.4632 11.6612 51.5655" fill="white"/>
<path d="M16.795 30.8641C16.795 28.0916 17.6265 25.3992 19.1517 23.2114C20.6747 25.3992 21.5084 28.0916 21.5084 30.8641C21.5084 33.6366 20.668 36.3601 19.1517 38.5257C17.6309 36.3424 16.795 33.6321 16.795 30.8641ZM8.53756 24.0251C11.1211 22.978 12.5707 20.728 12.7752 18.7648C12.8842 18.9671 12.9686 19.1916 13.022 19.434C13.3044 20.6857 12.8441 22.2709 11.7258 23.8962C10.4896 25.6926 8.79102 26.6487 6.99457 27.658C6.45208 27.9626 5.89403 28.2761 5.34265 28.6185C5.22926 27.3268 5.32041 25.8972 5.61389 24.4876C5.76063 24.4965 5.90515 24.4987 6.04966 24.4987C6.94566 24.4987 7.7505 24.3408 8.53756 24.0229M31.3066 27.658C29.5102 26.6464 27.8138 25.6926 26.5776 23.8962C25.4593 22.2709 24.9968 20.6857 25.2814 19.4318C25.3348 19.1894 25.4193 18.9649 25.5282 18.7625C25.735 20.7279 27.1823 22.978 29.7658 24.0251C30.6774 24.3942 31.6179 24.5454 32.6895 24.4898C32.983 25.8994 33.0764 27.329 32.9608 28.6207C32.4094 28.2784 31.8513 27.9649 31.3088 27.6603M31.2421 19.9431L31.3733 19.8986C31.4778 19.8653 31.5801 19.8297 31.689 19.7764C32.2849 19.494 32.9007 18.9671 33.5655 18.1667C34.8973 19.4051 36.1068 21.0681 36.916 22.7734C36.3447 22.8646 35.7888 22.9868 35.2463 23.1047C34.4793 23.2714 33.7545 23.4315 33.0208 23.5027C31.9247 23.6094 31.0042 23.4938 30.126 23.1358C28.0472 22.2909 26.8333 20.5812 26.5398 19.0271C27.3358 19.8653 28.3207 20.3011 29.4257 20.3011C30.0015 20.3011 30.6107 20.1832 31.2421 19.9409M5.28262 23.5049C4.54892 23.4337 3.82412 23.2737 3.05707 23.1069C2.51458 22.9891 1.95875 22.8668 1.38735 22.7756C2.19664 21.0703 3.40613 19.4073 4.7379 18.1689C5.40267 18.9671 6.02076 19.4962 6.61439 19.7764C6.72111 19.8275 6.8256 19.8631 6.92787 19.8986L7.05905 19.9431C8.90441 20.6501 10.5519 20.3055 11.7636 19.0293C11.4701 20.5857 10.2584 22.2954 8.17738 23.138C7.50816 23.4115 6.81448 23.5427 6.03632 23.5427C5.79398 23.5427 5.54274 23.5293 5.28262 23.5027M13.5245 18.1511C13.609 18.14 13.6957 18.1222 13.7802 18.1067L13.6623 18.4179C13.6179 18.329 13.5756 18.2356 13.5245 18.1511ZM26.5643 17.4708V17.4641L26.4931 17.304V17.244L26.4575 17.2262C25.9173 15.8389 26.1596 13.9112 27.9961 12.8396L28.1428 12.7484C28.2051 12.7084 28.2673 12.6684 28.3407 12.6328C28.9188 12.3638 29.8259 12.2593 31.0287 12.3216C32.7673 12.4127 34.6683 12.8396 35.5821 13.0664C35.1574 13.9401 34.2192 15.7633 33.1275 17.1817C32.445 18.0733 31.8224 18.6536 31.2799 18.9115C31.2088 18.9448 31.1399 18.9671 31.0732 18.9893L30.9042 19.0493C30.3506 19.2606 29.8548 19.3539 29.4101 19.3539C27.9983 19.3539 27.109 18.4246 26.5687 17.473M7.40144 19.0471L7.23247 18.9871C7.16577 18.9649 7.09685 18.9426 7.0257 18.9093C6.48321 18.6536 5.86068 18.0711 5.1759 17.1795C4.08647 15.761 3.14823 13.9379 2.72357 13.0642C3.63513 12.8374 5.5383 12.4105 7.27694 12.3193C8.47975 12.2571 9.38687 12.3594 9.96271 12.6306C10.0339 12.664 10.0961 12.704 10.1606 12.744L10.3073 12.8352C12.1416 13.9046 12.3861 15.8277 11.8481 17.2173L11.7925 17.2462L11.7992 17.3552L11.7391 17.4641V17.4708C11.2011 18.4224 10.3118 19.3517 8.89774 19.3517C8.45307 19.3517 7.95727 19.2606 7.40144 19.0471ZM9.13563 6.23855C9.5714 6.61874 10.0205 6.9678 10.4585 7.31019C11.041 7.76153 11.5902 8.18841 12.0882 8.66642L12.0927 8.66198L12.1104 8.67976C12.962 9.49572 13.4778 10.285 13.7824 11.2366C14.4894 13.451 13.9758 15.2363 13.042 16.3102C13.1865 14.7739 12.5951 13.0619 10.7898 12.0081L10.6742 11.9369C10.5786 11.8769 10.483 11.8169 10.3718 11.7657C9.74705 11.4745 8.89329 11.3366 7.76607 11.3477C7.91503 9.63801 8.39971 7.83045 9.13786 6.24078M27.8404 7.31242C28.2807 6.97003 28.7298 6.62096 29.1678 6.23855C29.9037 7.82601 30.3884 9.63357 30.5373 11.3455C29.4479 11.3277 28.5564 11.4723 27.9294 11.7657C27.8182 11.8169 27.7226 11.8769 27.6248 11.9392L27.5114 12.0103C25.7061 13.0642 25.1169 14.7739 25.2614 16.3124C24.3254 15.2341 23.8118 13.451 24.5188 11.2366C24.8234 10.285 25.337 9.49572 26.1885 8.67976L26.2063 8.66198L26.2108 8.66642C26.711 8.18841 27.2579 7.76153 27.8382 7.31019M14.6939 10.9453C14.3805 9.96484 13.858 9.10886 13.0665 8.28179C13.958 7.05451 15.0497 5.9384 16.1636 5.11355C16.2747 5.7472 16.4081 6.36528 16.5393 6.97003C16.9728 8.96879 17.3842 10.8542 16.8528 12.9597C16.3614 14.9073 15.4521 16.3147 14.2915 16.9238C14.0447 17.0528 13.7913 17.1417 13.54 17.184C14.8096 15.91 15.5699 13.6911 14.6917 10.9476M24.0097 16.9216C22.8491 16.3147 21.9375 14.9073 21.4484 12.9574C20.9192 10.8519 21.3283 8.96435 21.7619 6.9678C21.8931 6.36528 22.0287 5.7472 22.1376 5.11133C23.2515 5.93618 24.3454 7.05229 25.2347 8.27956C24.441 9.10664 23.9207 9.96262 23.6072 10.9431C22.7313 13.6845 23.4872 15.9033 24.7611 17.1817C24.5099 17.1373 24.2542 17.0506 24.0074 16.9194M21.3061 4.21978C21.1905 5.08465 21.006 5.9384 20.8259 6.76103C20.3879 8.77981 19.9321 10.8653 20.5168 13.1887C21.0749 15.4053 22.1554 17.0306 23.565 17.7665C23.8229 17.9021 24.0875 18.0022 24.3543 18.0689C22.4155 18.8515 20.6524 20.0787 19.2251 21.6795C17.7844 20.0632 16.0035 18.8203 14.0403 18.04C14.2737 17.9733 14.5072 17.8843 14.734 17.7665C16.1413 17.0306 17.2241 15.4053 17.7821 13.1887C18.3669 10.8653 17.9133 8.77759 17.4753 6.76103C17.2952 5.93618 17.1107 5.08465 16.9951 4.21755L16.8973 3.47274L16.2636 3.87738C14.8496 4.78005 13.4889 6.1096 12.3683 7.6348C11.937 7.25461 11.4901 6.89443 11.0455 6.54982C10.463 6.09626 9.86044 5.62936 9.31795 5.10466L8.8555 4.65999L8.55979 5.22916C7.59265 7.09231 6.96567 9.31119 6.80337 11.3878C4.43553 11.5745 2.01878 12.2526 1.90983 12.2838L1.37846 12.435L1.60524 12.9419C1.65415 13.0486 2.73246 15.4431 4.15317 17.4085C2.55015 18.8804 1.10499 20.9258 0.246789 22.9735L0 23.5649L0.638094 23.6361C1.38735 23.7183 2.13217 23.8828 2.85252 24.0407C3.44837 24.1719 4.05979 24.2919 4.67565 24.3809C4.31769 26.1484 4.2421 27.9515 4.48889 29.5101L4.60672 30.2527L5.22926 29.8325C5.95851 29.3411 6.72555 28.9098 7.46592 28.4918C9.28015 27.4713 11.1544 26.4174 12.5151 24.4365C13.7868 22.5889 14.2982 20.7346 13.958 19.2205C13.9425 19.1472 13.9136 19.0805 13.8935 19.0093C15.6655 19.7519 17.2685 20.9103 18.5692 22.3932C16.8105 24.79 15.8367 27.7781 15.8367 30.8619C15.8367 33.9456 16.7861 36.8937 18.5603 39.3372C15.7256 41.4315 12.2683 42.1074 8.98889 41.1581C5.78286 40.2287 3.27718 37.8898 2.05435 34.7082C4.62673 33.5187 7.8839 33.3231 10.4785 34.2257C12.2349 34.8372 13.5623 35.8843 14.3493 37.2761C11.4257 38.1477 8.44196 37.534 6.09413 35.5642L5.47827 36.2979C8.23296 38.6101 11.7747 39.2327 15.192 38.0076L15.6811 37.832L15.4677 37.3584C14.6183 35.4841 13.0042 34.0879 10.7965 33.3209C7.79052 32.2759 4.13093 32.5538 1.24061 34.0412L0.871543 34.2302L1.00717 34.6215C2.27001 38.3033 5.08252 41.0224 8.72432 42.0763C12.3394 43.1235 16.1613 42.3787 19.2606 40.0331C21.4395 41.6828 23.9741 42.541 26.5443 42.541C27.6292 42.541 28.7209 42.3876 29.797 42.0763C33.4388 41.0202 36.2513 38.3033 37.5141 34.6215L37.6475 34.2302L37.2785 34.0412C34.3881 32.5516 30.7285 32.2759 27.7226 33.3209C25.5171 34.0879 23.9007 35.4841 23.0514 37.3584L22.838 37.832L23.3271 38.0076C26.7466 39.2349 30.2861 38.6101 33.0408 36.2979L32.4249 35.5642C30.0771 37.5363 27.0979 38.1477 24.1697 37.2761C24.9568 35.8866 26.2841 34.8372 28.0405 34.2257C30.6352 33.3231 33.8923 33.5187 36.4647 34.7082C35.2441 37.8898 32.7384 40.2287 29.5302 41.1581C26.1952 42.123 22.6801 41.4137 19.8187 39.2393C21.5262 36.8671 22.4689 33.8967 22.4689 30.8641C22.4689 27.8315 21.5195 24.87 19.8031 22.491C21.0771 21.0103 22.6468 19.8431 24.3899 19.0827C24.3765 19.1294 24.3587 19.1738 24.3476 19.2228C24.0052 20.7391 24.5188 22.5911 25.7905 24.4387C27.1512 26.4174 29.0255 27.4735 30.8397 28.4918C31.5801 28.9098 32.3471 29.3411 33.0764 29.8325L33.6989 30.2527L33.8167 29.5101C34.0658 27.9515 33.9879 26.1484 33.6322 24.3786C34.2481 24.2897 34.8595 24.1697 35.4553 24.0385C36.1757 23.8806 36.9205 23.7183 37.6698 23.6338L38.3079 23.5627L38.0588 22.9713C37.2006 20.9214 35.7555 18.8781 34.1525 17.4063C35.5754 15.4409 36.6537 13.0464 36.7004 12.9396L36.9272 12.4327L36.3958 12.2815C36.2891 12.2504 33.8723 11.5723 31.5023 11.3855C31.34 9.30674 30.713 7.08786 29.7458 5.22694L29.4501 4.65777L28.9877 5.10243C28.4452 5.62492 27.8404 6.09404 27.2557 6.54759C26.8133 6.89221 26.3664 7.25239 25.9351 7.63035C24.8145 6.10515 23.4538 4.77338 22.0398 3.87294L21.4062 3.46829L21.3083 4.21311L21.3061 4.21978Z" fill="white"/>
<path d="M16.795 30.8641C16.795 28.0916 17.6265 25.3992 19.1517 23.2114C20.6747 25.3992 21.5084 28.0916 21.5084 30.8641C21.5084 33.6366 20.668 36.3601 19.1517 38.5257C17.6309 36.3424 16.795 33.6321 16.795 30.8641ZM8.53756 24.0251C11.1211 22.978 12.5707 20.728 12.7752 18.7648C12.8842 18.9671 12.9686 19.1916 13.022 19.434C13.3044 20.6857 12.8441 22.2709 11.7258 23.8962C10.4896 25.6926 8.79102 26.6487 6.99457 27.658C6.45208 27.9626 5.89403 28.2761 5.34265 28.6185C5.22926 27.3268 5.32041 25.8972 5.61389 24.4876C5.76063 24.4965 5.90515 24.4987 6.04966 24.4987C6.94566 24.4987 7.7505 24.3408 8.53756 24.0229M31.3066 27.658C29.5102 26.6464 27.8138 25.6926 26.5776 23.8962C25.4593 22.2709 24.9968 20.6857 25.2814 19.4318C25.3348 19.1894 25.4193 18.9649 25.5282 18.7625C25.735 20.7279 27.1823 22.978 29.7658 24.0251C30.6774 24.3942 31.6179 24.5454 32.6895 24.4898C32.983 25.8994 33.0764 27.329 32.9608 28.6207C32.4094 28.2784 31.8513 27.9649 31.3088 27.6603M31.2421 19.9431L31.3733 19.8986C31.4778 19.8653 31.5801 19.8297 31.689 19.7764C32.2849 19.494 32.9007 18.9671 33.5655 18.1667C34.8973 19.4051 36.1068 21.0681 36.916 22.7734C36.3447 22.8646 35.7888 22.9868 35.2463 23.1047C34.4793 23.2714 33.7545 23.4315 33.0208 23.5027C31.9247 23.6094 31.0042 23.4938 30.126 23.1358C28.0472 22.2909 26.8333 20.5812 26.5398 19.0271C27.3358 19.8653 28.3207 20.3011 29.4257 20.3011C30.0015 20.3011 30.6107 20.1832 31.2421 19.9409M5.28262 23.5049C4.54892 23.4337 3.82412 23.2737 3.05707 23.1069C2.51458 22.9891 1.95875 22.8668 1.38735 22.7756C2.19664 21.0703 3.40613 19.4073 4.7379 18.1689C5.40267 18.9671 6.02076 19.4962 6.61439 19.7764C6.72111 19.8275 6.8256 19.8631 6.92787 19.8986L7.05905 19.9431C8.90441 20.6501 10.5519 20.3055 11.7636 19.0293C11.4701 20.5857 10.2584 22.2954 8.17738 23.138C7.50816 23.4115 6.81448 23.5427 6.03632 23.5427C5.79398 23.5427 5.54274 23.5293 5.28262 23.5027M13.5245 18.1511C13.609 18.14 13.6957 18.1222 13.7802 18.1067L13.6623 18.4179C13.6179 18.329 13.5756 18.2356 13.5245 18.1511ZM26.5643 17.4708V17.4641L26.4931 17.304V17.244L26.4575 17.2262C25.9173 15.8389 26.1596 13.9112 27.9961 12.8396L28.1428 12.7484C28.2051 12.7084 28.2673 12.6684 28.3407 12.6328C28.9188 12.3638 29.8259 12.2593 31.0287 12.3216C32.7673 12.4127 34.6683 12.8396 35.5821 13.0664C35.1574 13.9401 34.2192 15.7633 33.1275 17.1817C32.445 18.0733 31.8224 18.6536 31.2799 18.9115C31.2088 18.9448 31.1399 18.9671 31.0732 18.9893L30.9042 19.0493C30.3506 19.2606 29.8548 19.3539 29.4101 19.3539C27.9983 19.3539 27.109 18.4246 26.5687 17.473M7.40144 19.0471L7.23247 18.9871C7.16577 18.9649 7.09685 18.9426 7.0257 18.9093C6.48321 18.6536 5.86068 18.0711 5.1759 17.1795C4.08647 15.761 3.14823 13.9379 2.72357 13.0642C3.63513 12.8374 5.5383 12.4105 7.27694 12.3193C8.47975 12.2571 9.38687 12.3594 9.96271 12.6306C10.0339 12.664 10.0961 12.704 10.1606 12.744L10.3073 12.8352C12.1416 13.9046 12.3861 15.8277 11.8481 17.2173L11.7925 17.2462L11.7992 17.3552L11.7391 17.4641V17.4708C11.2011 18.4224 10.3118 19.3517 8.89774 19.3517C8.45307 19.3517 7.95727 19.2606 7.40144 19.0471ZM9.13563 6.23855C9.5714 6.61874 10.0205 6.9678 10.4585 7.31019C11.041 7.76153 11.5902 8.18841 12.0882 8.66642L12.0927 8.66198L12.1104 8.67976C12.962 9.49572 13.4778 10.285 13.7824 11.2366C14.4894 13.451 13.9758 15.2363 13.042 16.3102C13.1865 14.7739 12.5951 13.0619 10.7898 12.0081L10.6742 11.9369C10.5786 11.8769 10.483 11.8169 10.3718 11.7657C9.74705 11.4745 8.89329 11.3366 7.76607 11.3477C7.91503 9.63801 8.39971 7.83045 9.13786 6.24078M27.8404 7.31242C28.2807 6.97003 28.7298 6.62096 29.1678 6.23855C29.9037 7.82601 30.3884 9.63357 30.5373 11.3455C29.4479 11.3277 28.5564 11.4723 27.9294 11.7657C27.8182 11.8169 27.7226 11.8769 27.6248 11.9392L27.5114 12.0103C25.7061 13.0642 25.1169 14.7739 25.2614 16.3124C24.3254 15.2341 23.8118 13.451 24.5188 11.2366C24.8234 10.285 25.337 9.49572 26.1885 8.67976L26.2063 8.66198L26.2108 8.66642C26.711 8.18841 27.2579 7.76153 27.8382 7.31019M14.6939 10.9453C14.3805 9.96484 13.858 9.10886 13.0665 8.28179C13.958 7.05451 15.0497 5.9384 16.1636 5.11355C16.2747 5.7472 16.4081 6.36528 16.5393 6.97003C16.9728 8.96879 17.3842 10.8542 16.8528 12.9597C16.3614 14.9073 15.4521 16.3147 14.2915 16.9238C14.0447 17.0528 13.7913 17.1417 13.54 17.184C14.8096 15.91 15.5699 13.6911 14.6917 10.9476M24.0097 16.9216C22.8491 16.3147 21.9375 14.9073 21.4484 12.9574C20.9192 10.8519 21.3283 8.96435 21.7619 6.9678C21.8931 6.36528 22.0287 5.7472 22.1376 5.11133C23.2515 5.93618 24.3454 7.05229 25.2347 8.27956C24.441 9.10664 23.9207 9.96262 23.6072 10.9431C22.7313 13.6845 23.4872 15.9033 24.7611 17.1817C24.5099 17.1373 24.2542 17.0506 24.0074 16.9194M21.3061 4.21978C21.1905 5.08465 21.006 5.9384 20.8259 6.76103C20.3879 8.77981 19.9321 10.8653 20.5168 13.1887C21.0749 15.4053 22.1554 17.0306 23.565 17.7665C23.8229 17.9021 24.0875 18.0022 24.3543 18.0689C22.4155 18.8515 20.6524 20.0787 19.2251 21.6795C17.7844 20.0632 16.0035 18.8203 14.0403 18.04C14.2737 17.9733 14.5072 17.8843 14.734 17.7665C16.1413 17.0306 17.2241 15.4053 17.7821 13.1887C18.3669 10.8653 17.9133 8.77759 17.4753 6.76103C17.2952 5.93618 17.1107 5.08465 16.9951 4.21755L16.8973 3.47274L16.2636 3.87738C14.8496 4.78005 13.4889 6.1096 12.3683 7.6348C11.937 7.25461 11.4901 6.89443 11.0455 6.54982C10.463 6.09626 9.86044 5.62936 9.31795 5.10466L8.8555 4.65999L8.55979 5.22916C7.59265 7.09231 6.96567 9.31119 6.80337 11.3878C4.43553 11.5745 2.01878 12.2526 1.90983 12.2838L1.37846 12.435L1.60524 12.9419C1.65415 13.0486 2.73246 15.4431 4.15317 17.4085C2.55015 18.8804 1.10499 20.9258 0.246789 22.9735L0 23.5649L0.638094 23.6361C1.38735 23.7183 2.13217 23.8828 2.85252 24.0407C3.44837 24.1719 4.05979 24.2919 4.67565 24.3809C4.31769 26.1484 4.2421 27.9515 4.48889 29.5101L4.60672 30.2527L5.22926 29.8325C5.95851 29.3411 6.72555 28.9098 7.46592 28.4918C9.28015 27.4713 11.1544 26.4174 12.5151 24.4365C13.7868 22.5889 14.2982 20.7346 13.958 19.2205C13.9425 19.1472 13.9136 19.0805 13.8935 19.0093C15.6655 19.7519 17.2685 20.9103 18.5692 22.3932C16.8105 24.79 15.8367 27.7781 15.8367 30.8619C15.8367 33.9456 16.7861 36.8937 18.5603 39.3372C15.7256 41.4315 12.2683 42.1074 8.98889 41.1581C5.78286 40.2287 3.27718 37.8898 2.05435 34.7082C4.62673 33.5187 7.8839 33.3231 10.4785 34.2257C12.2349 34.8372 13.5623 35.8843 14.3493 37.2761C11.4257 38.1477 8.44196 37.534 6.09413 35.5642L5.47827 36.2979C8.23296 38.6101 11.7747 39.2327 15.192 38.0076L15.6811 37.832L15.4677 37.3584C14.6183 35.4841 13.0042 34.0879 10.7965 33.3209C7.79052 32.2759 4.13093 32.5538 1.24061 34.0412L0.871543 34.2302L1.00717 34.6215C2.27001 38.3033 5.08252 41.0224 8.72432 42.0763C12.3394 43.1235 16.1613 42.3787 19.2606 40.0331C21.4395 41.6828 23.9741 42.541 26.5443 42.541C27.6292 42.541 28.7209 42.3876 29.797 42.0763C33.4388 41.0202 36.2513 38.3033 37.5141 34.6215L37.6475 34.2302L37.2785 34.0412C34.3881 32.5516 30.7285 32.2759 27.7226 33.3209C25.5171 34.0879 23.9007 35.4841 23.0514 37.3584L22.838 37.832L23.3271 38.0076C26.7466 39.2349 30.2861 38.6101 33.0408 36.2979L32.4249 35.5642C30.0771 37.5363 27.0979 38.1477 24.1697 37.2761C24.9568 35.8866 26.2841 34.8372 28.0405 34.2257C30.6352 33.3231 33.8923 33.5187 36.4647 34.7082C35.2441 37.8898 32.7384 40.2287 29.5302 41.1581C26.1952 42.123 22.6801 41.4137 19.8187 39.2393C21.5262 36.8671 22.4689 33.8967 22.4689 30.8641C22.4689 27.8315 21.5195 24.87 19.8031 22.491C21.0771 21.0103 22.6468 19.8431 24.3899 19.0827C24.3765 19.1294 24.3587 19.1738 24.3476 19.2228C24.0052 20.7391 24.5188 22.5911 25.7905 24.4387C27.1512 26.4174 29.0255 27.4735 30.8397 28.4918C31.5801 28.9098 32.3471 29.3411 33.0764 29.8325L33.6989 30.2527L33.8167 29.5101C34.0658 27.9515 33.9879 26.1484 33.6322 24.3786C34.2481 24.2897 34.8595 24.1697 35.4553 24.0385C36.1757 23.8806 36.9205 23.7183 37.6698 23.6338L38.3079 23.5627L38.0588 22.9713C37.2006 20.9214 35.7555 18.8781 34.1525 17.4063C35.5754 15.4409 36.6537 13.0464 36.7004 12.9396L36.9272 12.4327L36.3958 12.2815C36.2891 12.2504 33.8723 11.5723 31.5023 11.3855C31.34 9.30674 30.713 7.08786 29.7458 5.22694L29.4501 4.65777L28.9877 5.10243C28.4452 5.62492 27.8404 6.09404 27.2557 6.54759C26.8133 6.89221 26.3664 7.25239 25.9351 7.63035C24.8145 6.10515 23.4538 4.77338 22.0398 3.87294L21.4062 3.46829L21.3083 4.21311L21.3061 4.21978Z" fill="white"/>
<path d="M163.681 3.06374H162.469V3.02594C162.614 2.98815 162.707 2.93923 162.756 2.87253C162.794 2.81473 162.814 2.67243 162.814 2.44343V0.335722C162.814 0.231226 162.785 0.202322 162.672 0.202322H162.425C162.254 0.202322 162.138 0.211216 162.08 0.231226C161.956 0.269022 161.842 0.422431 161.747 0.680337H161.709C161.691 0.480238 161.68 0.297925 161.68 0.155633C161.68 0.0511364 161.718 0.00222332 161.796 0.00222332H164.332C164.419 0.00222332 164.457 0.0489131 164.457 0.144516C164.457 0.364625 164.448 0.535821 164.439 0.678113H164.401C164.306 0.391305 164.181 0.240119 164.039 0.220109C163.972 0.211216 163.859 0.202322 163.705 0.202322H163.467C163.383 0.202322 163.334 0.251235 163.334 0.335722V2.45455C163.334 2.69244 163.352 2.82584 163.392 2.87476C163.439 2.92367 163.534 2.97925 163.688 3.02817V3.06596L163.681 3.06374ZM165.684 3.06374H164.693V3.02594C164.97 2.95924 165.046 2.92145 165.075 2.53903L165.133 0.75593C165.142 0.651434 165.142 0.526927 165.142 0.364625C165.142 0.277915 165.113 0.202322 165.066 0.153409C165.028 0.124506 164.942 0.0867096 164.808 0.0489131V0.00222332H165.571C165.646 0.00222332 165.695 0.0311265 165.724 0.0867096C166.191 1.18281 166.507 1.92762 166.649 2.29892C166.716 2.10771 167.011 1.37401 167.536 0.0956029C167.565 0.0289032 167.603 0 167.661 0H168.423V0.0466898C168.319 0.075593 168.232 0.113389 168.176 0.162303C168.128 0.208992 168.11 0.286809 168.11 0.391305C168.11 0.591404 168.139 1.33622 168.194 2.63241C168.203 2.77471 168.243 2.87031 168.29 2.90811C168.328 2.9459 168.414 2.9837 168.557 3.02372V3.06152H167.325V3.02372C167.467 2.97481 167.563 2.93701 167.603 2.90811C167.661 2.86142 167.687 2.76581 167.687 2.60351C167.687 2.42342 167.67 1.67861 167.621 0.391305L166.591 2.94813H166.382C166.04 2.13661 165.724 1.37401 165.6 1.06942L165.324 0.411315C165.324 0.555831 165.324 0.936019 165.315 1.57411C165.306 2.20331 165.306 2.53681 165.306 2.57683C165.306 2.73913 165.335 2.84363 165.382 2.90144C165.42 2.95035 165.524 2.98815 165.686 3.02594V3.06374H165.684Z" fill="white"/>
</svg>
