<svg width="282" height="60" viewBox="0 0 282 60" fill="none" xmlns="http://www.w3.org/2000/svg">
<g clip-path="url(#clip0_1314_2400)">
<path d="M141.738 40.4442C139.931 40.4442 138.337 40.2174 136.957 39.7602C135.576 39.303 134.32 38.5499 133.189 37.4974L135.221 35.5039C136.009 36.3278 136.942 36.9232 138.013 37.2936C139.083 37.6657 140.313 37.85 141.693 37.85C143.47 37.85 144.839 37.5523 145.796 36.9569C146.756 36.3597 147.235 35.4489 147.235 34.2316C147.235 32.4259 146.078 31.4265 143.766 31.2333L140.342 30.941C138.337 30.941 136.803 30.4501 135.732 29.4702C134.657 28.4903 134.125 27.1329 134.125 25.3946C134.125 23.5163 134.827 22.0384 136.239 20.961C137.649 19.8819 139.497 19.3414 141.781 19.3414C144.937 19.3414 147.431 20.0804 149.267 21.5617L147.278 23.5304C145.839 22.4407 143.993 21.8949 141.738 21.8949C140.213 21.8949 139.058 22.1908 138.269 22.7809C137.481 23.371 137.085 24.2144 137.085 25.3095C137.085 26.2664 137.367 27.0107 137.933 27.5423C138.496 28.0774 139.427 28.3432 140.724 28.3432L144.064 28.6338C146.039 28.8021 147.554 29.3107 148.611 30.1595C149.672 31.0083 150.199 32.3497 150.199 34.1855C150.199 36.1613 149.438 37.6976 147.917 38.798C146.392 39.8967 144.334 40.446 141.741 40.446" fill="white"/>
<path d="M162.001 40.2351C160.28 40.2351 158.96 39.7177 158.044 38.6811C157.125 37.648 156.668 36.3172 156.668 34.694V22.0189H154.049V19.7153H156.668V13.267H159.714V19.7153H164.154V22.0189H159.714V34.6161C159.714 36.6326 160.656 37.6391 162.547 37.6391H164.154V40.2351H161.999H162.001Z" fill="white"/>
<path d="M172.108 30.6876C172.108 32.9362 172.635 34.6781 173.695 35.9114C174.75 37.1465 176.266 37.7649 178.241 37.7649C179.426 37.7649 180.41 37.5931 181.201 37.2511C181.99 36.9091 182.822 36.3101 183.695 35.4613L185.768 37.2635C184.639 38.3798 183.52 39.1879 182.404 39.6911C181.288 40.1944 179.876 40.4442 178.153 40.4442C175.306 40.4442 173.079 39.5742 171.471 37.827C169.864 36.0833 169.059 33.4377 169.059 29.8937C169.059 26.5712 169.812 23.9805 171.324 22.1252C172.831 20.27 174.925 19.3397 177.602 19.3397C180.28 19.3397 182.376 20.2257 183.884 21.9994C185.391 23.7714 186.146 26.2079 186.146 29.3054V30.6876H172.106H172.108ZM182.468 24.9923C182.076 24.0443 181.44 23.2912 180.563 22.7313C179.69 22.1713 178.705 21.8931 177.603 21.8931C176.502 21.8931 175.525 22.1731 174.663 22.7313C173.802 23.2895 173.211 23.9398 172.886 24.6787C172.563 25.4176 172.349 26.0538 172.254 26.5836C172.154 27.1117 172.106 27.7283 172.106 28.4265H183.104C183.104 27.5883 183.066 26.9752 182.997 26.5836C182.924 26.1938 182.75 25.6622 182.467 24.9923" fill="white"/>
<path d="M197.825 40.2351C196.076 40.2351 194.758 39.7407 193.869 38.7448C192.982 37.7543 192.537 36.4182 192.537 34.7401V10.3786H195.583V34.6196C195.583 35.6545 195.785 36.4164 196.195 36.9055C196.604 37.3964 197.331 37.6391 198.373 37.6391H200.023V40.2351H197.824H197.825Z" fill="white"/>
<path d="M210.384 40.2351C208.636 40.2351 207.317 39.7407 206.428 38.7448C205.54 37.7543 205.096 36.4182 205.096 34.7401V10.3786H208.142V34.6196C208.142 35.6545 208.343 36.4164 208.754 36.9055C209.163 37.3964 209.891 37.6391 210.934 37.6391H212.583V40.2351H210.384Z" fill="white"/>
<path d="M220.796 19.5487H217.75V40.2351H220.796V19.5487Z" fill="white"/>
<path d="M241.564 40.2351V37.9315C240.075 39.6078 238.122 40.4442 235.704 40.4442C233.425 40.4442 231.611 39.7797 230.261 38.456C228.913 37.1306 228.236 35.2257 228.236 32.7395V19.5913H231.284V32.2806C231.284 34.0668 231.727 35.4277 232.616 36.3615C233.505 37.2971 234.753 37.7649 236.361 37.7649C237.968 37.7649 239.236 37.29 240.168 36.342C241.098 35.3922 241.562 34.0366 241.562 32.2806V19.5913H244.61V40.2369H241.562L241.564 40.2351Z" fill="white"/>
<path d="M278.953 40.2351V27.5174C278.953 25.7259 278.503 24.3633 277.599 23.4241C276.694 22.4867 275.441 22.0189 273.834 22.0189C272.227 22.0189 271.029 22.4814 270.067 23.4046C269.11 24.3278 268.632 25.5877 268.632 27.1825V40.2351H265.586V27.5174C265.586 25.7259 265.136 24.3633 264.234 23.4241C263.329 22.4867 262.076 22.0189 260.467 22.0189C258.859 22.0189 257.589 22.4956 256.659 23.4471C255.729 24.3969 255.267 25.7543 255.267 27.5174V40.2351H252.221V19.5895H255.267V21.8506C256.761 20.176 258.718 19.3379 261.146 19.3379C264.106 19.3379 266.234 20.4826 267.532 22.772C269.165 20.4843 271.453 19.3379 274.388 19.3379C275.484 19.3379 276.493 19.5062 277.408 19.8429C278.326 20.1778 279.319 20.8565 280.394 21.8771C281.465 22.8978 282 24.6131 282 27.0195V40.2351H278.953Z" fill="white"/>
<path d="M30.226 22.5753C26.0947 22.5753 22.7454 25.8996 22.7454 30C22.7454 34.1004 26.0947 37.4247 30.226 37.4247C34.3573 37.4247 37.7066 34.1004 37.7066 30C37.7066 25.8996 34.3573 22.5753 30.226 22.5753ZM30.226 34.9793C27.4552 34.9793 25.2092 32.7501 25.2092 30C25.2092 27.2499 27.4552 25.0207 30.226 25.0207C32.9969 25.0207 35.2429 27.2499 35.2429 30C35.2429 32.7501 32.9969 34.9793 30.226 34.9793ZM72.5514 0C64.3102 0 56.8421 3.27466 51.3878 8.58358C45.9371 3.27466 38.4672 0 30.226 0C13.533 0 0 13.4318 0 30C0 46.5682 13.533 60 30.226 60C38.4672 60 45.9353 56.7253 51.3896 51.4164C56.8421 56.7253 64.312 60 72.5532 60C89.2462 60 102.779 46.5682 102.779 30C102.779 13.4318 89.2462 0 72.5514 0ZM72.5514 57.661C64.9493 57.661 58.0507 54.6202 53.0178 49.7047C55.1888 47.2327 56.951 44.4011 58.2186 41.3178H55.6423C54.5425 43.7383 53.1071 45.9764 51.3878 47.9681C49.6685 45.9764 48.2331 43.7366 47.1333 41.3178H44.557C45.8246 44.4028 47.5868 47.2345 49.7578 49.7047C44.7249 54.6202 37.8263 57.661 30.2242 57.661C14.8577 57.661 2.35488 45.2534 2.35488 30C2.35488 14.7466 14.8595 2.34082 30.226 2.34082C37.828 2.34082 44.7267 5.38157 49.7596 10.2971C47.5886 12.769 45.8264 15.6007 44.5588 18.684H47.1351C48.2349 16.2634 49.6703 14.0254 51.3896 12.0337C53.1089 14.0254 54.5443 16.2652 55.6441 18.684H58.2203C56.9527 15.5989 55.1906 12.7673 53.0196 10.2971C58.0525 5.38157 64.9511 2.34082 72.5532 2.34082C87.9197 2.34082 100.423 14.7484 100.423 30.0018C100.423 45.2552 87.9215 57.6627 72.5532 57.6627L72.5514 57.661ZM90.6013 31.3875C92.1528 30.7053 93.2382 29.2292 93.2793 27.5245C93.3239 25.7242 92.2938 24.1737 90.6691 23.4082C89.6497 22.9279 88.566 22.8376 87.4573 22.8376H82.5886V37.1624H85.122V32.0165H88.1946L91.2887 37.1642H94.2613L90.5995 31.3892L90.6013 31.3875ZM90.728 27.3633C90.728 28.0774 90.4299 28.7578 89.855 29.1973C89.2944 29.6261 88.5928 29.7944 87.8965 29.8139C87.2448 29.8317 85.3952 29.8157 85.1238 29.8157V25.0526H87.1181C88.0268 25.0526 89.0105 25.0171 89.7979 25.5399C90.4174 25.951 90.728 26.6332 90.728 27.3615V27.3633ZM29.4369 19.593C29.4369 20.355 28.8138 20.9734 28.0461 20.9734C27.2784 20.9734 26.6553 20.355 26.6553 19.593C26.6553 18.8311 27.2784 18.2126 28.0461 18.2126C28.8138 18.2126 29.4369 18.8311 29.4369 19.593ZM33.7967 19.593C33.7967 20.355 33.1736 20.9734 32.4059 20.9734C31.6382 20.9734 31.0151 20.355 31.0151 19.593C31.0151 18.8311 31.6382 18.2126 32.4059 18.2126C33.1736 18.2126 33.7967 18.8311 33.7967 19.593ZM48.6705 31.3875C50.222 30.7053 51.3075 29.2292 51.3485 27.5245C51.3932 25.7242 50.363 24.1737 48.7383 23.4082C47.7189 22.9279 46.6352 22.8376 45.5265 22.8376H40.6578V37.1624H43.1912V32.0165H46.2638L49.3579 37.1642H52.3305L48.6687 31.3892L48.6705 31.3875ZM48.7973 27.3633C48.7973 28.0774 48.4991 28.7578 47.9242 29.1973C47.3636 29.6261 46.662 29.7944 45.9657 29.8139C45.314 29.8317 43.4644 29.8157 43.193 29.8157V25.0526H45.1873C46.096 25.0526 47.0797 25.0171 47.8671 25.5399C48.4866 25.951 48.7973 26.6332 48.7973 27.3615V27.3633ZM65.701 30.9126C65.4064 30.4501 65.0065 30.0461 64.5066 29.7555C64.9672 29.4702 65.3296 29.1069 65.5885 28.6745C65.9063 28.1429 66.0688 27.5298 66.0688 26.8476C66.0688 25.5966 65.6278 24.6025 64.7565 23.8919C63.8978 23.192 62.7212 22.8358 61.2608 22.8358H55.3174V37.1607H61.3376C62.8105 37.1607 64.0067 36.7992 64.8904 36.0868C65.7867 35.3638 66.2419 34.3113 66.2419 32.9592C66.2419 32.1618 66.0598 31.4725 65.7028 30.909L65.701 30.9126ZM63.1336 34.3237C62.7194 34.6763 62.116 34.8553 61.3376 34.8553H57.7776V31.0136H61.184C62.0999 31.0136 62.7659 31.1855 63.1604 31.5257C63.5514 31.8624 63.7424 32.3213 63.7424 32.9256C63.7424 33.5174 63.5425 33.9746 63.1318 34.3237H63.1336ZM63.039 28.15C62.6837 28.492 62.1053 28.6639 61.3197 28.6639H57.7794V25.127H61.2626C62.0428 25.127 62.632 25.2812 63.0158 25.5877C63.3907 25.8872 63.5728 26.2983 63.5728 26.8494C63.5728 27.4005 63.3979 27.808 63.0408 28.1518L63.039 28.15ZM72.139 25.2245V28.788H78.0574V31.1748H72.139V34.7561H79.2679V37.1624H69.6769V22.8376H79.2679V25.2245H72.139ZM15.1398 30L22.3562 37.1607H19.0961L12.6635 30.824V37.1607H10.1301V22.8358H12.6635V29.2061L19.0979 22.8358H22.3562L15.138 30H15.1398Z" fill="white"/>
</g>
<defs>
<clipPath id="clip0_1314_2400">
<rect width="282" height="60" fill="white"/>
</clipPath>
</defs>
</svg>
