<svg width="248" height="32" viewBox="0 0 248 32" fill="none" xmlns="http://www.w3.org/2000/svg">
<path d="M91.8509 24.2198V24.6153H91.388C89.7186 24.6153 88.3649 23.2318 88.3649 21.5242V21.017C88.3649 21.017 85.7636 24.9178 81.9877 24.9178C79.7825 24.9178 77.8171 23.5482 77.8171 20.9286C77.8171 17.7614 80.9465 16.5749 84.4918 15.5698L88.3664 14.5012C88.3664 11.4767 86.8624 9.68066 84.3294 9.68066C81.0406 9.68066 80.8889 14.2437 79.0571 13.417C77.6426 12.7796 80.2788 9.17503 84.8333 9.17503C88.4377 9.17503 90.6596 10.8532 90.6596 14.6563V20.7471C90.6596 23.2442 90.9282 23.9437 91.8509 24.2183M88.3633 14.9045L84.6102 15.939C82.4065 16.578 80.0223 17.583 80.0526 20.0802C80.0526 22.0577 81.3943 23.6537 83.0925 23.6537C86.4906 23.6537 88.3664 20.3175 88.3664 20.3175V14.906L88.3633 14.9045Z" fill="white"/>
<path d="M76.6986 3.78218V4.17148C75.8654 4.42585 75.53 5.11605 75.53 7.22076L75.524 19.649C75.524 23.6816 72.8104 24.7146 70.6417 24.8014V24.2803C72.0561 24.0058 73.1458 22.6145 73.1458 19.8785L73.123 7.09513C73.123 5.09744 72.7725 4.42275 71.9575 4.17303V3.78373H76.6971L76.6986 3.78218Z" fill="white"/>
<path d="M105.7 9.38751V9.79853C104.866 9.79853 103.982 10.9153 103.426 12.4678C103.025 13.5892 98.8899 25.0666 98.0157 27.2396C97.3069 28.9969 95.8819 30.9744 93.3383 31.1419C91.9132 31.235 90.2043 30.413 89.79 29.2497C89.4849 28.392 90.1057 27.8197 90.8265 28.0942C92.0149 28.5471 91.9026 30.5308 93.7313 30.5308C95.5601 30.5308 96.9958 28.7968 97.6848 26.9914C97.7319 26.872 97.9201 26.3555 98.1963 25.5986L93.5598 12.9936C93.1152 11.8552 92.4064 9.80318 91.2773 9.80318V9.38906H96.1641V9.80318C95.1109 9.80318 95.0866 10.9416 95.6375 12.5454C95.6921 12.7036 98.2479 19.8429 99.2829 22.6052C100.705 18.6734 102.611 13.3891 102.965 12.3546C103.59 10.5228 102.971 9.78147 102.204 9.78147L102.201 9.38906H105.698L105.7 9.38751Z" fill="white"/>
<path d="M119.334 24.2198V24.6153H118.871C117.202 24.6153 115.848 23.2318 115.848 21.5242V21.017C115.848 21.017 113.247 24.9178 109.471 24.9178C107.266 24.9178 105.3 23.5482 105.3 20.9286C105.3 17.7614 108.43 16.5749 111.975 15.5698L115.85 14.5012C115.85 11.4767 114.346 9.68066 111.813 9.68066C108.524 9.68066 108.372 14.2437 106.54 13.417C105.126 12.7796 107.762 9.17503 112.317 9.17503C115.921 9.17503 118.143 10.8532 118.143 14.6563V20.7471C118.143 23.2442 118.411 23.9437 119.334 24.2183M115.847 14.9045L112.093 15.939C109.89 16.578 107.506 17.583 107.536 20.0802C107.536 22.0577 108.878 23.6537 110.576 23.6537C113.974 23.6537 115.85 20.3175 115.85 20.3175V14.906L115.847 14.9045Z" fill="white"/>
<path d="M125.224 24.2214V24.6169H120.516V24.2214C121.439 23.9468 121.708 23.2458 121.708 20.7502V8.20099C121.708 6.06836 121.309 5.65579 120.516 5.51155V5.06331L123.647 3.60226H124.028L124.031 20.7486C124.031 23.2442 124.329 23.9453 125.223 24.2214" fill="white"/>
<path d="M140.607 24.2198V24.6153H140.144C138.475 24.6153 137.121 23.2318 137.121 21.5242V21.017C137.121 21.017 134.52 24.9178 130.744 24.9178C128.539 24.9178 126.573 23.5482 126.573 20.9286C126.573 17.7614 129.703 16.5749 133.248 15.5698L137.123 14.5012C137.123 11.4767 135.619 9.68066 133.086 9.68066C129.797 9.68066 129.645 14.2437 127.813 13.417C126.399 12.7796 129.035 9.17503 133.59 9.17503C137.194 9.17503 139.416 10.8532 139.416 14.6563V20.7471C139.416 23.2442 139.684 23.9437 140.607 24.2183M137.12 14.9045L133.366 15.939C131.163 16.578 128.779 17.583 128.809 20.0802C128.809 22.0577 130.151 23.6537 131.849 23.6537C135.247 23.6537 137.123 20.3175 137.123 20.3175V14.906L137.12 14.9045Z" fill="white"/>
<path d="M155.905 24.2198V24.6153H151.317V24.2198C152.24 23.9453 151.764 23.4583 150.422 21.3877L148.039 17.7025L145.327 21.5086C143.897 23.4877 144.06 24.2198 145.307 24.2198V24.6153H141.292V24.2198C142.696 24.2198 143.36 23.4893 144.791 21.5086L147.801 17.307L144.763 12.6183C143.421 10.5477 142.676 10.0591 141.902 9.78613V9.39062H146.52V9.78613C145.597 10.0591 146.075 10.5461 147.415 12.6183L149.441 15.7823C149.441 15.7823 151.419 12.9362 151.976 12.1297C153.38 10.0932 152.12 9.78613 151.495 9.78613V9.39062H155.413V9.78458C154.205 9.78458 153.102 11.12 152.387 12.2646C151.806 13.1968 149.709 16.1778 149.709 16.1778L153.046 21.3846C154.386 23.4552 155.133 23.9437 155.904 24.2183" fill="white"/>
<path d="M179.21 24.2183V24.6138H174.503V24.2183C175.425 23.9437 175.694 23.2427 175.694 20.7471V14.5617C175.694 11.3945 174.486 10.1816 172.376 10.1816C170.731 10.1816 169.417 11.8505 169.013 12.4228C169.166 13.0262 169.262 13.6993 169.262 14.4764V20.7502C169.262 23.2473 169.532 23.9468 170.455 24.2214V24.6169H165.747V24.2214C166.671 23.9468 166.939 23.2473 166.939 20.7502V14.5648C166.939 11.3976 165.731 10.1847 163.621 10.1847C161.639 10.1847 160.3 12.4042 160.3 12.4042V20.7518C160.302 23.2489 160.601 23.9484 161.495 24.2229V24.6184H156.787V24.2229C157.71 23.9484 157.978 23.2489 157.978 20.7518V13.749C157.978 11.6163 157.579 11.2038 156.787 11.0595V10.6113L159.918 9.39218H160.299V11.7171C160.299 11.7171 162.002 9.18279 164.934 9.18279C166.797 9.18279 168.183 10.0777 168.839 11.866C169.455 11.1278 171.305 9.18279 173.691 9.18279C176.31 9.18279 178.016 10.9184 178.016 14.481V20.7533C178.016 23.2504 178.285 23.9499 179.207 24.2229" fill="white"/>
<path d="M185.222 24.2198V24.6153H180.514V24.2198C181.437 23.9453 181.705 23.2443 181.705 20.7487V13.9863C181.705 11.8537 181.306 11.4411 180.514 11.2968V10.8486L183.645 9.38755H184.026L184.029 20.7487C184.029 23.2443 184.326 23.9453 185.22 24.2198M181.051 5.3084C181.051 4.33282 181.766 3.60384 182.69 3.60384C183.615 3.60384 184.329 4.33282 184.329 5.3084C184.329 6.22039 183.615 6.98349 182.69 6.98349C181.766 6.98349 181.051 6.22194 181.051 5.3084Z" fill="white"/>
<path d="M209.137 19.0488C209.137 22.7975 205.734 25.076 202.271 25.076C199.07 25.076 195.124 22.8596 194.857 21.11C194.642 19.7048 196.296 19.2628 197.085 20.0693C197.826 20.8262 199.385 24.5362 202.532 24.5362C204.878 24.5362 207.229 22.9759 207.229 20.547C207.229 17.5474 203.62 16.1685 201.154 15.148C197.691 13.7381 195.492 12.4802 195.492 9.30068C195.492 5.7923 198.337 3.57281 202.651 3.57281C203.969 3.57281 206.663 4.00554 207.882 5.11916C208.641 5.81401 207.952 7.05172 206.782 6.67172C205.783 6.34601 204.338 4.05207 201.713 4.05207C199.274 4.05207 197.31 5.46193 197.31 8.00869C197.31 10.8284 200.333 11.9669 202.827 13.0169C206.085 14.3368 209.137 15.6552 209.139 19.0472" fill="white"/>
<path d="M215.165 24.2198V24.6153H210.457V24.2198C211.38 23.9453 211.649 23.2443 211.649 20.7487V13.9863C211.649 11.8537 211.25 11.4411 210.457 11.2968V10.8486L213.588 9.38755H213.969L213.972 20.7487C213.972 23.2443 214.27 23.9453 215.164 24.2198M210.996 5.3084C210.996 4.33282 211.711 3.60384 212.635 3.60384C213.559 3.60384 214.274 4.33282 214.274 5.3084C214.274 6.22039 213.559 6.98349 212.635 6.98349C211.711 6.98349 210.996 6.22194 210.996 5.3084Z" fill="white"/>
<path d="M221.128 24.2214V24.6169H216.42V24.2214C217.343 23.9468 217.612 23.2458 217.612 20.7502V8.20099C217.612 6.06836 217.213 5.65579 216.42 5.51155V5.06331L219.551 3.60226H219.932L219.935 20.7486C219.935 23.2442 220.233 23.9453 221.127 24.2214" fill="white"/>
<path d="M235.924 24.2524V24.6184H234.297C233.251 24.6184 232.275 24.0787 231.703 23.1838L227.001 15.8165L225.895 16.9115V20.7518C225.895 23.2474 226.194 23.9484 227.089 24.2229V24.6184H222.382V24.2229C223.304 23.9484 223.573 23.2474 223.573 20.7518V8.20258C223.573 6.06995 223.175 5.65738 222.382 5.51313V5.06489L225.513 3.60384H225.894V16.3686C227.613 14.6749 230.176 12.1499 230.635 11.6877C231.26 11.0611 231.557 9.79547 230.179 9.79547V9.3922H234.019V9.78616C233.092 9.78616 232.658 10.2375 230.909 11.9514C230.34 12.5113 228.642 14.2003 228.642 14.2003L233.562 22.3043C234.113 23.2629 234.933 24.2478 235.921 24.2509" fill="white"/>
<path d="M247.594 20.1407C247.594 22.6998 245.717 24.8899 242.142 24.8899C237.827 24.8899 235.584 21.8313 236.707 21.0837C238.425 19.9421 238.751 24.5393 242.148 24.5393C244.524 24.5393 246.016 23.2737 246.016 21.5692C246.016 19.376 243.931 18.6765 241.636 17.9165C238.804 17.0014 236.242 15.711 236.657 13.1038C236.931 11.3837 238.458 9.23554 241.78 9.23554C245.364 9.23554 246.739 11.4318 246.361 12.1856C246.03 12.8447 245.139 12.626 244.681 11.6737C244.18 10.6268 243.269 9.57366 241.358 9.57366C239.897 9.57366 238.331 10.5787 238.331 12.1328C238.331 14.0499 240.238 14.8409 242.591 15.6334C244.855 16.3934 247.596 17.0945 247.594 20.1407Z" fill="white"/>
<path fill-rule="evenodd" clip-rule="evenodd" d="M1.88721 16.5672C-0.629069 16.4834 -0.629069 12.5625 1.88721 12.4787C2.37893 12.4632 2.8752 12.5004 3.36844 12.595L14.8829 14.5229L3.36844 16.4508C2.87672 16.5454 2.37893 16.5842 1.88721 16.5672ZM7.2157 12.4771L15.1273 13.8715L8.02613 9.99708C7.7393 9.83423 7.44032 9.70394 7.13375 9.60778C5.47799 9.08664 4.67666 11.6644 6.3127 12.2522C6.60257 12.3577 6.9061 12.4337 7.21722 12.4771M10.6441 9.83888L15.8922 13.6823L12.5017 8.04126C12.3469 7.79465 12.1709 7.56511 11.9781 7.35572C10.7701 6.04667 8.79255 7.95906 10.0036 9.26346C10.1979 9.47284 10.4104 9.66517 10.6441 9.83733M14.379 8.21963L16.6434 13.5908L18.8971 8.23514C19.0823 7.7931 19.1931 7.32005 19.19 6.84078V6.7803C19.1248 3.43787 14.0861 3.47975 14.0861 6.82372C14.0861 6.84544 14.0861 6.8687 14.0861 6.89042C14.0922 7.34951 14.2 7.79931 14.3775 8.21963M20.1097 10.163L17.211 13.5737L21.4574 12.322C21.5151 12.3065 21.5727 12.2848 21.6289 12.2616C21.8657 12.1592 22.0903 12.0367 22.3027 11.8986C23.7885 10.9339 22.3225 8.58877 20.8412 9.55815C20.6288 9.69774 20.4254 9.85439 20.2357 10.0312C20.1902 10.0731 20.1492 10.1165 20.1097 10.163ZM6.31118 16.7889C4.67666 17.3768 5.47647 19.953 7.13223 19.435C7.4388 19.3373 7.7393 19.2085 8.02461 19.0457L15.1257 15.1712L7.21419 16.5672C6.90307 16.6106 6.59953 16.6866 6.30966 16.7905M10.0036 19.7777C8.79103 21.0837 10.7701 22.9945 11.9781 21.6855C12.1709 21.4761 12.3469 21.2481 12.5017 21.0015L15.8922 15.3589L10.6441 19.2039C10.4119 19.376 10.1979 19.5684 10.0036 19.7762M14.0892 22.1523C14.0892 22.1756 14.0892 22.1973 14.0892 22.2206C14.0892 25.563 19.1278 25.6064 19.1931 22.264V22.2035C19.1961 21.7227 19.0853 21.2496 18.9001 20.8092L16.6464 15.4535L14.3821 20.8231C14.2045 21.2434 14.0983 21.6948 14.0907 22.1523M20.2357 19.0131C20.4254 19.1884 20.6288 19.3466 20.8412 19.4861C22.3225 20.4555 23.7885 18.112 22.3027 17.1457C22.0903 17.0076 21.8657 16.8867 21.6289 16.7843C21.5727 16.761 21.5166 16.7393 21.4574 16.7223L17.211 15.4706L20.1097 18.8813C20.1507 18.9278 20.1917 18.9728 20.2357 19.0146" fill="white"/>
<path fill-rule="evenodd" clip-rule="evenodd" d="M30.3448 14.5214C30.3448 15.1821 29.8212 15.7172 29.1747 15.7172C28.5282 15.7172 28.0046 15.1821 28.0046 14.5214C28.0046 13.8606 28.5282 13.3255 29.1747 13.3255C29.8212 13.3255 30.3448 13.8606 30.3448 14.5214Z" fill="white"/>
<path fill-rule="evenodd" clip-rule="evenodd" d="M27.2625 5.90707L25.4913 24.4447C25.2971 26.43 24.1164 28.2028 22.4075 29.0652C20.4785 30.0392 18.4949 30.4347 16.6753 30.4347C14.4489 30.4347 12.4714 29.8438 11.1343 28.9907C9.93384 28.2276 9.27669 27.2769 9.27973 26.323C9.2858 25.2419 9.73958 24.6882 10.1175 24.4137C11.1404 23.677 12.6231 24.1733 12.7916 24.2353V24.2384C13.3273 24.4106 13.7189 24.9271 13.7189 25.5335C13.7189 26.2873 13.1209 26.8969 12.3879 26.8969C11.6549 26.8969 11.0539 26.2873 11.0539 25.5335C11.0539 25.4792 11.0569 25.4234 11.063 25.3707C10.9841 25.397 10.9142 25.4296 10.8505 25.4746C10.6532 25.6173 10.553 25.9042 10.55 26.3261C10.55 26.8038 11.0205 27.387 11.8066 27.8895C13.948 29.2559 18.0017 29.8391 21.8414 27.9004C23.1633 27.235 24.0739 25.8623 24.2256 24.3129L25.9982 5.77678C26.1288 4.42276 25.4231 3.12146 24.2423 2.54293C22.7459 1.80931 20.5969 1.4076 17.8469 1.34245C16.1866 1.27111 11.5365 1.21217 9.86403 1.81241C9.37231 1.99078 9.04146 2.36767 9.0794 2.7151C9.09913 2.91673 9.2691 3.15248 9.64852 3.35101C9.78207 2.74767 10.3117 2.29632 10.9461 2.29632C11.6807 2.29632 12.2771 2.90277 12.2771 3.65656C12.2771 4.41035 11.6807 5.01679 10.9461 5.01679C10.896 5.01679 10.849 5.01369 10.8004 5.01059C8.272 4.68177 7.86982 3.39134 7.81519 2.85314C7.71351 1.90237 8.38431 0.970212 9.44364 0.590215C11.6883 -0.216309 17.6375 0.0365056 17.8924 0.0458116C20.8079 0.114056 23.1329 0.562297 24.7902 1.37192C26.4535 2.1862 27.4476 4.00709 27.264 5.90552" fill="white"/>
<path fill-rule="evenodd" clip-rule="evenodd" d="M54.981 16.4508L43.4665 14.5229L54.981 12.595C55.4742 12.5019 55.9705 12.4631 56.4622 12.4802C58.9785 12.5624 58.9785 16.4849 56.4622 16.5687C55.9705 16.5842 55.4757 16.5469 54.981 16.4523M52.0398 12.2538C53.6743 11.6659 52.8745 9.0897 51.2172 9.60929C50.9106 9.70545 50.6101 9.83574 50.3248 9.9986L43.2252 13.873L51.1367 12.4787C51.4479 12.4337 51.7499 12.3592 52.0413 12.2538M48.3458 9.26497C49.5584 7.96057 47.5809 6.04818 46.3728 7.35723C46.1786 7.56662 46.004 7.79461 45.8477 8.04277L42.4573 13.6838L47.7053 9.83884C47.9375 9.66668 48.15 9.47436 48.3443 9.26652M44.2633 6.89038V6.82213C44.2633 3.47971 39.2246 3.43628 39.1609 6.78025C39.1609 6.80042 39.1609 6.82058 39.1609 6.84074C39.1579 7.32001 39.2702 7.79306 39.4538 8.23355L41.7091 13.5892L43.9719 8.21804C44.1495 7.79772 44.2572 7.34792 44.2633 6.88883M38.1137 10.0296C37.924 9.85435 37.7222 9.69615 37.5097 9.55811C36.0269 8.58718 34.5624 10.9323 36.0482 11.8986C36.2607 12.0366 36.4853 12.1576 36.7205 12.2615C36.7767 12.2848 36.8328 12.3049 36.892 12.322L41.1399 13.5737L38.2397 10.163C38.2002 10.1165 38.1577 10.0715 38.1137 10.0296ZM51.1352 16.5656L43.2237 15.1712L50.3233 19.0456C50.6101 19.2085 50.9091 19.3388 51.2157 19.4349C52.8729 19.9561 53.6728 17.3783 52.0382 16.7905C51.7468 16.6865 51.4448 16.6105 51.1337 16.5656M47.7068 19.2054L42.4588 15.3604L45.8492 21.0014C46.0055 21.2481 46.1801 21.4776 46.3743 21.687C47.5824 22.996 49.5599 21.0836 48.3473 19.7792C48.153 19.5714 47.9406 19.3775 47.7084 19.2069M43.9704 20.8231L41.7075 15.4519L39.4523 20.8076C39.2671 21.2481 39.1564 21.7211 39.1594 22.2004C39.1594 22.2205 39.1594 22.2422 39.1594 22.2624C39.2231 25.6048 44.2633 25.5614 44.2618 22.219V22.1507C44.2557 21.6932 44.1464 21.2418 43.9704 20.8215M38.2412 18.8797L41.1414 15.469L36.8935 16.7207C36.8359 16.7377 36.7782 16.7579 36.722 16.7812C36.4868 16.8835 36.2622 17.006 36.0497 17.1441C34.5639 18.1104 36.0285 20.4555 37.5112 19.4846C37.7237 19.3465 37.9255 19.1883 38.1152 19.0131C38.1593 18.9712 38.2033 18.9277 38.2412 18.8797Z" fill="white"/>
<path fill-rule="evenodd" clip-rule="evenodd" d="M28.0061 14.5214C28.0061 15.1821 28.5297 15.7172 29.1762 15.7172C29.8228 15.7172 30.3463 15.1821 30.3463 14.5214C30.3463 13.8606 29.8228 13.3255 29.1762 13.3255C28.5297 13.3255 28.0061 13.8606 28.0061 14.5214Z" fill="white"/>
<path fill-rule="evenodd" clip-rule="evenodd" d="M31.087 5.90709L32.8581 24.4447C33.0523 26.43 34.2331 28.2028 35.9419 29.0652C37.8709 30.0392 39.8545 30.4347 41.6741 30.4347C43.9005 30.4347 45.878 29.8438 47.2151 28.9907C48.4156 28.2276 49.0727 27.2769 49.0697 26.323C49.0636 25.2419 48.6098 24.6882 48.2319 24.4137C47.209 23.677 45.7263 24.1733 45.5578 24.2353V24.2384C45.0221 24.4106 44.6305 24.9271 44.6305 25.5335C44.6305 26.2873 45.2285 26.8969 45.9615 26.8969C46.6945 26.8969 47.2955 26.2873 47.2955 25.5335C47.2955 25.4793 47.2925 25.4234 47.2864 25.3707C47.3654 25.397 47.4352 25.4296 47.4989 25.4746C47.6962 25.6173 47.7964 25.9042 47.7994 26.3261C47.7994 26.8038 47.3289 27.387 46.5428 27.8895C44.4014 29.256 40.3477 29.8391 36.508 27.9004C35.1861 27.235 34.2756 25.8624 34.1238 24.3129L32.3512 5.7768C32.2206 4.42277 32.9264 3.12148 34.1071 2.54295C35.6035 1.80933 37.7525 1.40761 40.5025 1.34247C42.1628 1.27113 46.8129 1.21219 48.4854 1.81243C48.9771 1.99079 49.308 2.36769 49.27 2.71511C49.2503 2.91675 49.0803 3.1525 48.7009 3.35103C48.5673 2.74769 48.0377 2.29634 47.4033 2.29634C46.6687 2.29634 46.0723 2.90279 46.0723 3.65658C46.0723 4.41037 46.6687 5.01681 47.4033 5.01681C47.4534 5.01681 47.5004 5.01371 47.549 5.01061C50.0774 4.68179 50.4796 3.39135 50.5342 2.85315C50.6359 1.90239 49.9651 0.970231 48.9058 0.590234C46.6627 -0.217841 40.7119 0.0349729 40.4585 0.0458299C37.5431 0.114074 35.218 0.562315 33.5607 1.37194C31.8974 2.18622 30.9033 4.0071 31.087 5.90554" fill="white"/>
</svg>
