<svg width="565" height="146" viewBox="0 0 565 146" fill="none" xmlns="http://www.w3.org/2000/svg">
<path d="M565 7.1092C565 11.0709 561.853 14.2526 557.891 14.2526C553.929 14.2526 550.747 11.0299 550.747 7.1092C550.747 3.18853 553.929 0 557.891 0C561.853 0 565 3.14748 565 7.1092ZM563.673 7.1092C563.673 3.92067 561.086 1.37531 557.905 1.37531C554.723 1.37531 552.095 3.92751 552.095 7.1092C552.095 10.2909 554.682 12.8773 557.905 12.8773C561.127 12.8773 563.673 10.3251 563.673 7.1092ZM559.41 7.90292L561.073 10.722H559.629L558.089 8.05345H556.817V10.722H555.441V3.35275H558.466C559.861 3.35275 560.901 4.37911 560.901 5.77494C560.901 6.82867 560.313 7.59501 559.424 7.90292H559.41ZM556.81 6.82182H558.356C559.088 6.82182 559.56 6.3976 559.56 5.74073C559.56 5.08387 559.095 4.62543 558.356 4.62543H556.81V6.82182Z" fill="white"/>
<path d="M202.096 103.908H219.126C227.207 103.908 232.229 108.178 232.229 115.8C232.229 123.423 227.262 127.692 219.181 127.692H207.227V144.319H202.089V103.901L202.096 103.908ZM207.234 108.123V123.594H218.839C224.032 123.594 227.152 121.055 227.152 115.855C227.152 110.655 224.032 108.116 218.839 108.116H207.234V108.123Z" fill="white"/>
<path d="M236.157 113.665H241.124V118.688C243.027 115.164 246.208 113.262 250.02 113.262C250.368 113.262 250.594 113.262 250.943 113.316V117.935C250.307 117.819 249.787 117.764 249.151 117.764C245.805 117.764 242.685 119.379 241.124 122.437V144.319H236.157V113.659V113.665Z" fill="white"/>
<path d="M252.442 129.019C252.442 118.797 258.217 112.967 266.414 112.967C274.611 112.967 280.44 118.797 280.44 129.019C280.44 139.242 274.666 145.017 266.414 145.017C258.162 145.017 252.442 139.187 252.442 129.019ZM275.48 129.019C275.48 121.055 271.73 116.778 266.414 116.778C261.097 116.778 257.348 121.048 257.348 128.958C257.348 136.868 261.097 141.199 266.414 141.199C271.73 141.199 275.48 136.929 275.48 129.019Z" fill="white"/>
<path d="M284.252 129.019C284.252 119.029 289.562 113.145 297.068 113.145C301.631 113.145 305.265 115.396 307.4 119.611L307.345 103.908H312.312V144.325H307.406V138.434C305.272 142.588 301.631 144.9 297.074 144.9C289.514 144.9 284.259 139.071 284.259 129.019H284.252ZM307.345 129.019C307.345 121.28 303.65 116.956 298.162 116.956C292.675 116.956 289.158 121.226 289.158 129.019C289.158 136.813 292.798 141.089 298.162 141.089C303.527 141.089 307.345 136.819 307.345 129.019Z" fill="white"/>
<path d="M317.047 134.507V113.666H321.953V133.7C321.953 138.373 324.895 141.09 329.343 141.09C332.805 141.09 335.693 139.297 337.307 136.704V113.666H342.213V144.326H337.307V140.173C335.173 143.06 331.765 144.908 327.783 144.908C321.255 144.908 317.04 140.809 317.04 134.514L317.047 134.507Z" fill="white"/>
<path d="M346.435 129.019C346.435 118.859 352.039 112.967 360.174 112.967C367.332 112.967 372.586 117.531 373.572 125.845H368.837C368.029 119.899 364.677 116.778 360.236 116.778C354.981 116.778 351.348 121.11 351.348 128.958C351.348 136.806 354.926 141.199 360.236 141.199C364.8 141.199 368.146 137.908 368.837 131.845H373.572C372.703 140.275 367.455 145.01 360.174 145.01C351.977 145.01 346.435 139.18 346.435 129.013V129.019Z" fill="white"/>
<path d="M381.995 138.318V117.476H374.837V113.665H381.995V107.548H386.901V113.665H395.967V117.476H386.901V137.394C386.901 139.645 387.879 140.514 390.424 140.514H395.967V144.325H388.29C383.958 144.325 381.995 142.245 381.995 138.318Z" fill="white"/>
<path d="M399.778 105.345H404.862V110.654H399.778V105.345ZM399.84 113.665H404.746V144.326H399.84V113.665Z" fill="white"/>
<path d="M408.96 129.019C408.96 118.797 414.735 112.967 422.932 112.967C431.13 112.967 436.959 118.797 436.959 129.019C436.959 139.242 431.184 145.017 422.932 145.017C414.681 145.017 408.96 139.187 408.96 129.019ZM431.999 129.019C431.999 121.055 428.249 116.778 422.932 116.778C417.616 116.778 413.866 121.048 413.866 128.958C413.866 136.868 417.616 141.199 422.932 141.199C428.249 141.199 431.999 136.929 431.999 129.019Z" fill="white"/>
<path d="M441.12 113.666H446.087V117.826C448.222 114.938 451.629 113.152 455.612 113.152C462.078 113.152 466.347 117.251 466.347 123.484V144.326H461.38V124.292C461.38 119.612 458.492 116.902 454.045 116.902C450.637 116.902 447.695 118.633 446.08 121.233V144.326H441.113V113.666H441.12Z" fill="white"/>
<path d="M470.275 133.638H474.893C475.817 138.893 478.821 141.377 483.727 141.377C488.113 141.377 490.713 139.413 490.713 136.41C490.713 133.002 486.847 131.962 482.454 130.867C476.967 129.424 470.733 127.98 470.733 121.514C470.733 116.724 475.064 113.029 482.05 113.029C489.036 113.029 494.175 116.779 495.27 123.655H490.651C489.727 118.866 486.669 116.669 482.105 116.669C477.945 116.669 475.523 118.462 475.523 121.172C475.523 124.292 478.93 125.441 482.967 126.543C488.626 128.103 495.441 129.485 495.441 135.896C495.441 141.035 490.939 144.963 483.781 144.963C476.624 144.963 471.308 141.268 470.268 133.645L470.275 133.638Z" fill="white"/>
<path d="M202.164 26.0557H216.533L222.417 45.5632L228.151 64.9955L233.885 45.5632L239.694 26.0557H254.063V78.1738H244.833L244.908 52.4877L245.134 35.6623L240.221 52.4877L232.626 78.1738H223.321L215.726 52.4877L210.813 35.6623L211.039 52.4877L211.114 78.1738H202.178V26.0557H202.164Z" fill="white"/>
<path d="M257.635 57.996C257.635 44.8929 265.675 36.7026 277.218 36.7026C288.165 36.7026 296.349 44.4482 296.349 58.1466V58.8924H267.016C267.317 67.6027 271.183 72.2965 277.218 72.2965C282.13 72.2965 285.558 69.1696 286.899 63.0662H295.911C294.125 73.1929 287.276 79.1457 277.149 79.1457C265.538 79.1457 257.642 71.1812 257.642 58.0029L257.635 57.996ZM267.385 53.2338H286.817C285.552 46.9046 282.055 43.5518 277.135 43.5518C272.216 43.5518 268.576 46.9798 267.385 53.2338Z" fill="white"/>
<path d="M299.257 57.7011C299.257 44.9675 306.332 36.9277 316.753 36.9277C322.261 36.9277 326.804 39.4594 329.705 44.078V37.7488H339.237V76.2439C339.237 87.1164 331.642 92.6245 319.579 92.6245C309.158 92.6245 302.083 88.3822 300.372 80.5614H309.753C310.944 84.5847 314.146 86.5211 319.654 86.5211C325.833 86.5211 329.705 83.5447 329.705 77.585V71.3311C326.804 75.9496 322.261 78.4813 316.753 78.4813C306.257 78.4813 299.257 70.5921 299.257 57.7079V57.7011ZM329.705 57.7011C329.705 48.546 325.538 43.7769 319.134 43.7769C312.73 43.7769 308.781 48.5392 308.781 57.7011C308.781 66.863 312.805 71.6253 319.134 71.6253C325.463 71.6253 329.705 66.7877 329.705 57.7011Z" fill="white"/>
<path d="M342.514 67.8968C342.514 59.9323 350.855 57.2501 359.415 54.6431C365.744 52.7068 368.796 51.2151 368.796 48.2387C368.796 45.2623 366.264 43.5517 361.645 43.5517C356.432 43.5517 353.01 46.5281 352.114 51.5162H343.328C344.519 42.8059 351.669 36.8462 361.864 36.8462C372.059 36.8462 378.17 41.6837 378.17 50.6951V78.1671H368.789V73.6238C365.737 76.9766 361.194 78.8377 356.055 78.8377C347.714 78.8377 342.507 74.5202 342.507 67.8899L342.514 67.8968ZM358.518 72.4401C362.391 72.4401 366.408 70.88 368.796 68.1978V57.0311C367.085 58.4475 364.403 59.337 361.351 60.3839C355.918 62.1697 351.82 63.5861 351.82 67.6026C351.82 70.7295 354.427 72.4401 358.518 72.4401Z" fill="white"/>
<path d="M382.419 37.7425H391.95V42.58C394.632 39.0836 398.724 36.9214 403.637 36.9214C408.926 36.9214 413.018 39.2273 415.18 43.1753C418.081 39.3778 422.624 36.9214 428.133 36.9214C436.473 36.9214 441.906 42.3542 441.906 50.6198V78.1671H432.45V51.8103C432.45 46.6717 429.323 43.9895 424.705 43.9895C421.427 43.9895 418.676 45.4812 416.74 47.7118C416.891 48.6081 416.966 49.5729 416.966 50.6129V78.1602H407.434V51.8035C407.434 46.6649 404.458 43.9827 400.065 43.9827C396.637 43.9827 393.736 45.618 391.95 48.0744V78.1534H382.419V37.7288V37.7425Z" fill="white"/>
<path d="M446.155 26.2817H455.687V34.3968H446.155V26.2817ZM446.155 37.7427H455.687V78.1673H446.155V37.7427Z" fill="white"/>
<path d="M460.004 37.7425H469.536V42.4295C472.362 39.0015 476.536 36.9214 481.599 36.9214C490.234 36.9214 495.893 42.3542 495.893 50.6198V78.1671H486.436V52.1114C486.436 46.8223 483.159 43.9964 478.246 43.9964C474.599 43.9964 471.397 45.707 469.536 48.3139V78.1671H460.004V37.7425Z" fill="white"/>
<path d="M499.245 57.9963C499.245 45.119 506.32 36.9287 516.741 36.9287C522.249 36.9287 526.793 39.5356 529.694 44.2226V21.7934L539.225 19.2344V78.1675H529.694V71.7631C526.793 76.4569 522.249 78.9818 516.741 78.9818C506.245 78.9818 499.245 71.0173 499.245 57.9894V57.9963ZM529.694 57.9963C529.694 48.6907 525.527 43.7779 519.122 43.7779C512.718 43.7779 508.77 48.6907 508.77 57.921C508.77 67.1514 512.793 72.1394 519.122 72.1394C525.451 72.1394 529.694 67.2266 529.694 57.9963Z" fill="white"/>
<path d="M19.5212 26.521H0V145.475H19.5212V26.521Z" fill="white"/>
<path d="M86.4532 145.482H65.7345L23.0451 26.6031L23.0178 26.521H43.7364L85.4268 142.649L86.4532 145.482Z" fill="white"/>
<path d="M108.869 26.521H89.3474V145.475H108.869V26.521Z" fill="white"/>
<path d="M175.8 145.482H155.082L112.392 26.6031L112.358 26.521H133.077L174.774 142.649L175.8 145.482Z" fill="white"/>
</svg>
